<svg version="1.2" xmlns="http://www.w3.org/2000/svg" viewBox="0 0 369 442" width="369" height="442">
	<title>Artwork</title>
	<style>
		.s0 { fill: #231f20 } 
		.s1 { fill: #ffffff } 
		.s2 { fill: #a14ff7 } 
		.s3 { fill: #8b40e5 } 
		.s4 { fill: #50c42b } 
	</style>
	<g id="Artwork">
		<g id="&lt;Group&gt;">
			<g id="-e-&lt;Group&gt;">
				<g id="&lt;Group&gt;">
					<g id="&lt;Group&gt;">
						<path id="&lt;Path&gt;" class="s0" d="m186.9 164.7c0.7-1 1.6-2.3 2.4-3.6q1.2-1.9 2.4-3.8 2.3-3.9 4.4-8c2.8-5.4 5.3-11 7.5-16.6 4.5-11.3 7.9-23 10-34.9 2.1-11.8 3-23.8 2.6-35.6-0.4-11.9-2.1-23.7-4.9-35.1l24.7-5c2.1 13.4 2.8 26.9 2.1 40.4-0.8 13.4-2.9 26.6-6.4 39.5-3.5 12.8-8.3 25.2-14.2 36.9-2.9 5.9-6.1 11.6-9.7 17.2q-2.6 4.1-5.5 8.1-1.4 2-2.9 4c-1.1 1.4-2 2.6-3.3 4z"/>
					</g>
					<g id="&lt;Group&gt;">
						<path id="&lt;Path&gt;" class="s0" d="m155.4 35.8c0.1-5 3.8-8.8 8.1-8.6q0 0 0.1 0c2.7 0.1 5.4 0.2 8.1 0.2q8.2 0 16.4-0.6c10.9-0.8 21.8-2.4 32.5-4.7 10.7-2.2 21.3-5.5 31.5-9.5l7.6-3.3c2.5-1.1 5-2.5 7.4-3.7l3.7-1.9c1.2-0.7 2.4-1.5 3.5-2.2q0.1 0 0.1 0c3.8-2.4 8.6-0.8 10.5 3.7l0.3 0.6c2.1 4.7 0.1 10.4-4.1 12.3-8.2 3.6-16.4 6.9-24.8 9.6-2.7 1-5.5 1.8-8.3 2.6-2.7 0.8-5.5 1.8-8.3 2.4l-8.3 2.2-8.4 2c-11.1 2.4-22.4 4.4-33.6 5.9-5.7 0.8-11.3 1.5-17 2-2.9 0.3-5.7 0.5-8.6 0.8q-0.1 0-0.1 0c-4.7 0.4-8.5-3.9-8.4-9.2z"/>
					</g>
				</g>
				<g id="&lt;Group&gt;">
					<g id="&lt;Group&gt;">
						<g id="&lt;Group&gt;">
							<path id="&lt;Path&gt;" class="s1" d="m227 239c7.2-36.2 42.9-61.9 79.7-57.4 36.8 4.4 60.8 37.4 53.5 73.6-7.2 36.3-42.9 62-79.7 57.5-36.8-4.5-60.8-37.5-53.5-73.7z"/>
						</g>
						<g id="&lt;Group&gt;">
							<g id="&lt;Group&gt;">
								<path id="&lt;Path&gt;" class="s2" d="m344.3 254.6c-10.5 30.5-40.8 50.4-71.6 49.1q0 0 0 0c-3.5-0.1-7.1-0.5-10.6-1.3q-0.2 0-0.3 0-1.3-0.3-2.6-0.6c-5.2-1.3-10.1-3.2-14.5-5.7-9.7-5.2-17.3-12.8-22.6-21.8-4-11.5-4.8-24.1-2.2-36.8 7-35.4 39.1-61.8 74.7-63.6 2.8 0.3 5.6 0.8 8.3 1.5 9.1 2.3 17 6.4 23.6 11.8 6.3 5.1 11.4 11.5 15 18.6q1 2 1.9 4c5.6 13.5 6.3 29.2 0.9 44.8z"/>
							</g>
						</g>
						<g id="&lt;Group&gt;">
							<path id="&lt;Path&gt;" class="s3" d="m341.5 205.8q-1.4-0.6-2.7-1.3c-7.5-3.4-14.5-5.5-21.1-6.7-15.4-2.6-31.7 3.9-41.4 16.2-10.4 13.2-7.7 30.1-6.4 44.9 0.3 3.9 0.6 34.9-5 42.1-0.8 1-1.8 1.6-2.8 1.4q-0.2 0.1-0.3 0-1.3-0.3-2.6-0.6c-5.2-1.3-10.1-3.2-14.5-5.7-9.7-5.2-17.3-12.8-22.6-21.8-4-11.5-4.8-24.1-2.2-36.8 7-35.4 39.1-61.8 74.7-63.6 2.8 0.3 5.6 0.8 8.3 1.5 9.1 2.3 17 6.4 23.6 11.8 6.3 5.1 11.4 11.5 15 18.6z"/>
						</g>
						<g id="&lt;Group&gt;">
							<path id="&lt;Compound Path&gt;" fill-rule="evenodd" class="s0" d="m367.3 256.7c-7.3 36.7-41.5 63.7-78.5 63.7q-4.6 0-9.2-0.5c-19.9-2.5-37.1-12.4-48.4-28.1-3.9-5.4-6.9-11.3-9.1-17.5-4-11.5-4.8-24.1-2.2-36.8 7-35.4 39.1-61.8 74.7-63.6 4.3-0.2 8.7-0.1 13 0.4 19.9 2.5 37 12.4 48.3 28 11.3 15.6 15.3 34.9 11.4 54.4zm-23.1-45.8q-0.4-0.6-0.8-1.1c-1.4-1.8-3-3.6-4.6-5.3-8.6-8.6-20.1-14.1-33-15.7-2.5-0.3-5-0.5-7.5-0.5-30.3 0-58.2 22.1-64.2 52.1-3.1 15.4 0.1 30.7 8.9 42.9 5.6 7.8 13.1 13.8 21.9 17.7q3.7 1.6 7.8 2.7 0 0 0 0 4.2 1.2 8.7 1.8c33 4 65.2-19.2 71.7-51.7 3.1-15.4-0.1-30.7-8.9-42.9z"/>
						</g>
					</g>
					<g id="&lt;Group&gt;">
						<g id="&lt;Group&gt;">
							<path id="&lt;Path&gt;" class="s1" d="m115.1 304.2c34.3 20.6 46.1 63.9 26.4 96.8-19.7 32.8-63.5 42.8-97.7 22.3-34.3-20.5-46.1-63.8-26.4-96.7 19.7-32.9 63.5-42.9 97.7-22.4z"/>
						</g>
						<g id="&lt;Group&gt;">
							<g id="&lt;Group&gt;">
								<path id="&lt;Path&gt;" class="s2" d="m147.7 404.7q-3.2 5.4-7.2 10c-8.4 6.5-18.1 10.8-28.4 12.7q-3.7 0.7-7.4 1c-7.3 0.5-14.7 0-22-1.7-10.3-2.4-20.4-7.1-29.3-14.2-30.1-23.9-36.7-66-15.6-95.3 0.1-0.2 0.2-0.3 0.2-0.4 0.6-0.8 1.2-1.5 1.8-2.2q1.8-2.4 3.9-4.6c6.8-7.1 15-12.4 23.9-15.8 10.7-4.1 22.3-5.5 34-4.1 5.9 2 11.7 4.6 17.3 7.9 18.2 10.9 31.2 28 36.7 48.1 5.5 20.2 2.7 41-7.9 58.6z"/>
							</g>
						</g>
						<g id="&lt;Group&gt;">
							<path id="&lt;Path&gt;" class="s3" d="m147.7 404.7q-3.2 5.4-7.2 10c-8.4 6.5-18.1 10.8-28.4 12.7q-3.7 0.7-7.4 1c5-4.1 9.1-8.2 12.6-12.3q3-3.5 5.4-7.1c9.1-13.5 9-31.3 0.4-45-9.4-14.8-27.9-18.7-43.6-23.1-4.7-1.3-45.6-16.1-41.7-23.7 0.1-0.2 0.2-0.3 0.2-0.4 0.6-0.8 1.2-1.5 1.8-2.2q1.8-2.4 3.9-4.6c6.8-7.1 15-12.4 23.9-15.8 10.7-4.1 22.3-5.5 34-4.1 5.9 2 11.7 4.6 17.3 7.9 18.2 10.9 31.2 28 36.7 48.1 5.5 20.2 2.7 41-7.9 58.6z"/>
						</g>
						<g id="&lt;Group&gt;">
							<path id="&lt;Compound Path&gt;" fill-rule="evenodd" class="s0" d="m147.7 404.7q-3.2 5.4-7.2 10c-10.4 12.3-24.5 20.8-40.8 24.5-5.9 1.4-11.8 2-17.8 2-14.5 0-28.9-3.9-41.9-11.7-18.1-10.9-31.2-27.9-36.6-48-5.6-20.2-2.8-41 7.8-58.7 10.5-17.6 27.6-29.8 48-34.5 14.1-3.2 28.7-2.6 42.4 1.8 5.9 2 11.7 4.6 17.3 7.9 18.2 10.9 31.2 28 36.7 48.1 5.5 20.2 2.7 41-7.9 58.6zm-12.4-7.5c8.5-14.2 10.7-31 6.2-47.3-4.4-16.5-15.1-30.5-30.1-39.4-10.6-6.4-22.5-9.7-34.4-9.7-4.9 0-9.8 0.6-14.6 1.6-6.7 1.6-13 4.1-18.7 7.6-8.2 5-15 11.9-20.1 20.3-8.5 14.2-10.7 31-6.2 47.4 4.5 16.4 15.2 30.4 30.1 39.4 10.9 6.5 23 9.8 35.2 9.6 4.6 0 9.2-0.6 13.8-1.6 7.6-1.8 14.6-4.8 20.8-9 7.3-4.8 13.4-11.2 18-18.9z"/>
						</g>
					</g>
					<g id="&lt;Group&gt;">
						<g id="&lt;Group&gt;">
							<path id="&lt;Path&gt;" class="s1" d="m144 265.1c30.1-24.7 74.9-22.8 100.2 4.5 25.2 27.2 21.2 69.3-8.9 94.1-30.1 24.8-74.9 22.8-100.1-4.4-25.2-27.2-21.3-69.4 8.8-94.2z"/>
						</g>
						<g id="&lt;Group&gt;">
							<g id="&lt;Group&gt;">
								<path id="&lt;Path&gt;" class="s2" d="m248.6 260.7c10.5 14.9 13.2 32.8 9 49.4-4.1 16.2-14.7 31.3-30.9 41.4-32.1 20.1-74.3 13.7-95.7-14h-0.1q-0.8-1.1-1.5-2.2c-20.9-29.5-11.1-70.2 21.8-90.8 33-20.7 76.5-13.4 97.4 16.2z"/>
							</g>
						</g>
						<g id="&lt;Group&gt;">
							<path id="&lt;Path&gt;" class="s3" d="m248.6 260.7c10.5 14.9 13.2 32.8 9 49.4-3.6-8.9-8-16-12.8-21.8-10.1-12-27-17.1-42.7-13.4-17.1 4.1-26.4 19.6-35.4 32.4-2.8 3.9-30.2 37.2-35.8 30.2q-0.8-1.1-1.5-2.2c-20.9-29.5-11.1-70.2 21.8-90.8 33-20.7 76.5-13.4 97.4 16.2z"/>
						</g>
						<g id="&lt;Group&gt;">
							<path id="&lt;Compound Path&gt;" fill-rule="evenodd" class="s0" d="m186.8 388.3c-21.3 0-42.2-8.1-57-24.1-13.1-14.2-19.6-32.6-18.3-51.8 1.4-20.4 11.3-39.2 27.9-52.9 33-27.1 82.3-24.8 110.1 5.1 13.1 14.2 19.7 32.6 18.4 51.8-1.4 20.4-11.3 39.2-28 52.9-15.4 12.7-34.4 19-53.1 19zm-38.2-117.6c-13.5 11.2-21.5 26.3-22.6 42.7-1.1 15.2 4.1 29.7 14.5 40.9 22.6 24.4 63.1 26.1 90.2 3.8 13.5-11.1 21.6-26.3 22.7-42.7 1-15.1-4.2-29.7-14.6-40.9-22.6-24.4-63-26.1-90.2-3.8z"/>
						</g>
					</g>
					<g id="&lt;Group&gt;">
						<g id="&lt;Group&gt;">
							<path id="&lt;Path&gt;" class="s1" d="m114 188.9c37.9 12.4 59.1 52 47.1 88.5-11.9 36.4-52.4 55.8-90.3 43.4-38-12.4-59.1-52.1-47.2-88.5 12-36.4 52.4-55.9 90.4-43.4z"/>
						</g>
						<g id="&lt;Group&gt;">
							<g id="&lt;Group&gt;">
								<path id="&lt;Path&gt;" class="s2" d="m171.9 278.6c-8.3 17.2-23.2 29.2-40.5 34.6-16.9 5.2-36 4.3-53.6-4.2-34.7-16.6-50.5-56.4-36.1-89.8v-0.1q0.6-1.2 1.2-2.5c16.3-34 58.4-47.6 94-30.5 35.6 17.2 51.3 58.5 35 92.5z"/>
							</g>
						</g>
						<g id="&lt;Group&gt;">
							<path id="&lt;Path&gt;" class="s3" d="m171.9 278.6c-8.3 17.2-23.2 29.2-40.5 34.6 6.2-8 10.5-15.7 13.3-22.9 5.8-15.2 1.8-32.5-9.6-44-12.5-12.4-31.3-12-47.6-12.8-5-0.3-49.4-5.8-45.8-14.4q0.6-1.2 1.2-2.5c16.3-34 58.4-47.6 94-30.5 35.6 17.2 51.3 58.5 35 92.5z"/>
						</g>
						<g id="&lt;Group&gt;">
							<path id="&lt;Compound Path&gt;" fill-rule="evenodd" class="s0" d="m94.2 331.8c-8.6 0-17.3-1.3-25.7-4.1-41.7-13.7-64.9-57.5-51.8-97.6 13.2-40.2 57.8-61.8 99.5-48.1 20.2 6.6 36.7 20.3 46.5 38.7 9.8 18.5 11.7 39.4 5.3 58.9-6.4 19.5-20.3 35.3-39.1 44.3-10.9 5.3-22.8 7.9-34.7 7.9zm-3.5-139.4c-27 0-51.7 16.3-60.2 42.2-10.6 32.5 8.4 68.1 42.5 79.3 16.6 5.4 34.2 4.3 49.6-3 15.2-7.4 26.5-20.1 31.6-35.8 5.2-15.7 3.6-32.6-4.3-47.6-8.1-15-21.6-26.3-38.2-31.7-7-2.3-14.1-3.4-21-3.4z"/>
						</g>
					</g>
					<g id="&lt;Group&gt;">
						<g id="&lt;Group&gt;">
							<path id="&lt;Path&gt;" class="s1" d="m152.1 129.1c10.1 38.6-11.8 77.8-48.9 87.5-37.1 9.7-75.4-13.8-85.5-52.5-10.1-38.6 11.8-77.8 48.9-87.5 37.1-9.7 75.4 13.8 85.5 52.5z"/>
						</g>
						<g id="&lt;Group&gt;">
							<g id="&lt;Group&gt;">
								<path id="&lt;Path&gt;" class="s2" d="m159.1 127.2c1.8 7 2.7 14 2.7 21 0 13.6-3.4 27-10.2 39-9.8 17.8-25.8 30.5-44.9 35.9q-3.7 0.3-7.3 0.2-1-0.1-1.9-0.1-2.8-0.2-5.4-0.6-1.5-0.2-2.9-0.5-1.5-0.3-3-0.7 0 0-0.1 0-1.3-0.3-2.7-0.7-0.3-0.1-0.5-0.2-1.1-0.3-2.1-0.6-2.5-0.9-4.9-2c-0.1 0.1-0.1 0-0.1 0q-2.1-0.9-4.2-2-1.2-0.6-2.4-1.2c-2.1-1.2-4.1-2.5-6.1-3.9q-0.7-0.5-1.4-1.1-2.9-2.1-5.5-4.5-1-1-2-2-1.1-1.1-2.2-2.2c0 0 0-0.1 0-0.1-2.1-2.3-4.1-4.7-5.9-7.3q-0.9-1.3-1.8-2.6-0.7-1.1-1.3-2.2c-5-8.5-8.4-18.2-9.7-28.6-4.6-37.2 18.8-71 53.1-78.4q2.8-0.7 5.8-1c7.5-1 15-0.6 22.1 1q3.3 0.7 6.6 1.8 0.5 0.1 0.9 0.3 1.5 0.5 2.9 1.1c1 0.4 1.9 0.8 2.9 1.2q0 0 0.1 0c0.9 0.5 1.8 0.9 2.6 1.4q1.4 0.7 2.7 1.4 1.2 0.7 2.3 1.4 0.5 0.3 0.9 0.6 2.4 1.5 4.6 3.2c0 0 0 0 0 0q1.2 0.9 2.4 1.9 0.3 0.2 0.5 0.5c7.2 8.8 12.4 19.2 15.4 30.6z"/>
							</g>
							<g id="&lt;Group&gt;">
								<path id="&lt;Path&gt;" class="s3" d="m159.1 127.2c1.8 7 2.7 14 2.7 21 0 13.6-3.4 27-10.2 39-9.8 17.8-25.8 30.5-44.9 35.9q-3.7 0.3-7.3 0.2-1-0.1-1.9-0.1-2.8-0.2-5.4-0.6-1.5-0.2-2.9-0.5-1.5-0.3-3-0.7 0 0-0.1 0-1.3-0.3-2.7-0.7-0.3-0.1-0.5-0.2-1.1-0.3-2.1-0.6-2.5-0.9-4.9-2c-0.1 0.1-0.1 0-0.1 0q-2.1-0.9-4.2-2-1.2-0.6-2.4-1.2c-2.1-1.2-4.1-2.5-6.1-3.9q-0.7-0.5-1.4-1.1-2.9-2.1-5.5-4.5-1-1-2-2-1.1-1.1-2.2-2.2c0 0 0-0.1 0-0.1-2.1-2.3-4.1-4.7-5.9-7.3q-0.9-1.3-1.8-2.6-0.7-1.2-1.3-2.3 0 0 0 0.1c12.6 9.4 22.8 14.2 39.3 12.1 35-4.4 59.7-37.7 55.1-74.4-0.8-6.5-1.7-12.6-3-18.3-1.7-7-4.2-13.4-8.3-18.9q-2.2-3-5.2-5.7c0 0 0 0-0.1 0 0.4 0.1 0.7 0.2 1 0.3q1.5 0.5 2.9 1.1c1 0.4 1.9 0.8 2.9 1.2q0 0 0.1 0c0.9 0.5 1.8 0.9 2.6 1.4q1.4 0.7 2.7 1.4 1.2 0.7 2.3 1.4 0.5 0.3 0.9 0.6c1.6 1 3.1 2 4.6 3.2 0 0 0 0 0 0q1.2 0.9 2.4 1.9c0.2 0.1 0.3 0.2 0.5 0.4q0.9 0.8 1.9 1.7c-0.6-0.6-1.3-1.1-1.9-1.6 7.2 8.8 12.4 19.2 15.4 30.6z"/>
								<path id="&lt;Path&gt;" class="s3" d="m160.9 118.1q1.4 2.7 2.6 5.6-1.2-2.9-2.6-5.6z"/>
							</g>
						</g>
						<g id="&lt;Group&gt;">
							<path id="&lt;Compound Path&gt;" fill-rule="evenodd" class="s0" d="m161.8 148.2c0 13.6-3.4 27-10.2 39-9.8 17.8-25.8 30.5-44.9 35.9q-0.9 0.3-1.7 0.5c-6.2 1.6-12.6 2.4-18.8 2.4-13.8 0-27.4-3.8-39.7-11.3-17.7-10.9-30.4-28.2-35.8-48.7-5.3-20.6-2.7-41.9 7.5-60 10.1-18.3 26.7-31.2 46.6-36.4 19.8-5.2 40.6-2 58.5 8.9 7.8 4.8 14.7 10.9 20.4 18q0 0 0 0.1c7.2 8.8 12.4 19.2 15.4 30.6 1.8 7 2.7 14 2.7 21zm-22.8 31.9c8.3-14.9 10.4-32.3 6-49.2-2.2-8.3-5.8-16-10.6-22.7-0.1-0.1-0.2-0.2-0.3-0.3-4.9-6.8-11.2-12.6-18.4-17-9.1-5.6-19.2-8.7-29.3-9.1q-1.4-0.1-2.8-0.1c-5.1 0-10.1 0.6-15.1 1.9-16 4.2-29.4 14.6-37.7 29.4-8.3 14.9-10.4 32.4-6 49.3 4.1 16 13.8 29.6 27.2 38.6q1.1 0.7 2.1 1.4c14.5 8.8 31.2 11.4 47.2 7.3 16-4.2 29.4-14.7 37.7-29.5z"/>
						</g>
					</g>
					<g id="&lt;Group&gt;">
						<g id="&lt;Group&gt;">
							<path id="&lt;Path&gt;" class="s1" d="m259.7 166.3c10.1 38.6-11.8 77.8-48.9 87.5-37.1 9.7-75.4-13.8-85.4-52.5-10.1-38.6 11.7-77.8 48.8-87.5 37.1-9.7 75.4 13.8 85.5 52.5z"/>
						</g>
						<g id="&lt;Group&gt;">
							<g id="&lt;Group&gt;">
								<path id="&lt;Path&gt;" class="s2" d="m269.4 185.4c0 13.6-3.4 27-10.1 39-9.9 17.8-25.8 30.5-44.9 35.9q-3.8 0.3-7.4 0.2-1-0.1-1.9-0.1-1.3-0.1-2.5-0.2-1.4-0.2-2.7-0.4-1.6-0.2-3.1-0.5-3.1-0.6-6-1.5-1.5-0.4-3-1-1.4-0.5-2.9-1-0.7-0.3-1.5-0.7 0 0-0.1 0-0.3-0.1-0.5-0.2-0.6-0.3-1.1-0.6-1.2-0.5-2.4-1.1-1.4-0.7-2.7-1.5-1.4-0.7-2.7-1.6c-0.8-0.5-1.7-1.1-2.5-1.7q-1.3-0.9-2.5-1.8-2.5-1.9-4.8-4c-0.8-0.7-1.5-1.3-2.2-2q-0.2-0.2-0.4-0.4c-0.6-0.7-1.3-1.4-1.9-2.1q-2.1-2.2-3.9-4.7-1.2-1.4-2.2-2.9-1.5-2.2-2.9-4.5c-4.9-8.5-8.3-18.1-9.6-28.6-4.7-37.1 18.7-71 53-78.5q2.8-0.6 5.8-0.9c7.5-1 14.9-0.6 22 1 2.2 0.4 4.5 1.1 6.6 1.8h0.1q0.1 0 0.3 0.1c0.4 0.1 0.8 0.3 1.2 0.4q0.8 0.3 1.6 0.6 3.6 1.4 6.9 3.2 0.9 0.4 1.7 0.9 0.9 0.5 1.9 1.1 0.9 0.5 1.7 1.1 2.1 1.3 4.1 2.8 0.7 0.5 1.4 1.1 1.1 0.8 2.1 1.7 0 0 0 0c7.1 8.9 12.3 19.3 15.3 30.6 1.8 7 2.7 14 2.7 21z"/>
							</g>
							<g id="&lt;Group&gt;">
								<path id="&lt;Path&gt;" class="s3" d="m266.7 164.4c1.8 7 2.7 14 2.7 21 0 13.6-3.4 27-10.1 39-9.9 17.8-25.8 30.5-44.9 35.9q-3.8 0.3-7.4 0.2-1-0.1-1.9-0.1-1.3-0.1-2.5-0.2-1.4-0.2-2.7-0.4-1.6-0.2-3.1-0.5-3.1-0.6-6-1.5-1.5-0.4-3-1-1.4-0.5-2.9-1-0.7-0.3-1.5-0.7c0 0.1 0 0 0 0q0 0-0.1 0-0.3-0.1-0.5-0.2-0.6-0.3-1.1-0.6-1.2-0.5-2.4-1.1-1.4-0.7-2.7-1.5-1.4-0.7-2.7-1.6c-0.8-0.5-1.7-1.1-2.5-1.7q-1.3-0.9-2.5-1.8-2.5-1.9-4.8-4c-0.8-0.7-1.5-1.3-2.2-2q-0.2-0.2-0.4-0.4-1-1.1-2-2.2-2-2.2-3.8-4.6-1.2-1.4-2.2-2.9-1.5-2.2-2.9-4.6 0 0 0 0.1c12.6 9.4 28.5 14.2 45 12.1 35-4.4 59.7-37.7 55.1-74.5q-0.1-1.4-0.4-2.8c-2.1-12.7-7.5-24-15.2-33.1-2-2.5-4.2-4.8-6.6-6.9q0.1 0 0.3 0.1c0.4 0.1 0.8 0.3 1.2 0.4q0.8 0.3 1.6 0.6 3.6 1.4 6.9 3.2 0.9 0.4 1.7 0.9 0.9 0.5 1.9 1.1 0.9 0.5 1.7 1.1 2.1 1.3 4.1 2.8 0.7 0.5 1.4 1.1 1.1 0.8 2.1 1.7 0 0 0 0c7.1 8.9 12.3 19.3 15.3 30.6z"/>
							</g>
						</g>
						<g id="&lt;Group&gt;">
							<path id="&lt;Compound Path&gt;" fill-rule="evenodd" class="s0" d="m269.4 185.4c0 13.6-3.4 27-10.1 39-9.9 17.8-25.8 30.5-44.9 35.9q-0.9 0.3-1.8 0.5c-6.2 1.6-12.5 2.4-18.7 2.4-34.4 0-66.2-24-75.6-60-11.1-42.5 13.2-85.7 54.1-96.4 19.9-5.2 40.6-2 58.5 8.9 7.9 4.9 14.8 11 20.5 18.1q0 0 0 0c7.1 8.9 12.3 19.3 15.3 30.6 1.8 7 2.7 14 2.7 21zm-22.8 32c8.3-14.9 10.4-32.4 6-49.3q-0.9-3.8-2.3-7.3c-2.2-5.7-5.1-10.9-8.6-15.7-4.9-6.8-11.2-12.5-18.4-17-9.1-5.6-19.2-8.7-29.3-9.2q-1.4 0-2.8 0c-5 0-10.1 0.6-15.1 1.9-33.2 8.7-52.8 44-43.7 78.7 4.3 16.4 14.3 29.9 27.1 38.5q0 0 0.1 0.1c14.2 9.5 31.9 13.2 49.3 8.7 16-4.2 29.4-14.7 37.7-29.4z"/>
						</g>
					</g>
				</g>
				<g id="&lt;Group&gt;">
					<g id="&lt;Group&gt;">
						<g id="&lt;Group&gt;">
							<path id="&lt;Path&gt;" class="s1" d="m358.8 154.1c-9.2-6-30.1-17.2-30.1-17.2 22.8 32.4-2.2 107.3-2.2 107.3-88.3-33-80.5-71.1-80.5-71.1-15.5 14.6-16.4 31.8-16.4 31.8-49-66.2-10.3-108.8-10.3-108.8-15.6 6.2-30.5 20.1-30.5 20.1-1-12.2 15.7-49.8 42.7-53.1h3.6c23.8-25.3 70.9-2.9 70.9-2.9-13.9 1.1-23 11.2-23 11.2 73.2 12.1 75.8 82.7 75.8 82.7z"/>
						</g>
						<g id="&lt;Group&gt;">
							<path id="&lt;Path&gt;" class="s4" d="m366.1 153.9q0 1.5-0.6 2.9c-2.6-2.3-5-5.3-7.3-8.4q0 0 0 0c-4.4-6.3-7.6-12.8-7.9-13.4 1.8 5.5 3.2 11 4.1 16.3q0.8 4.7 1.1 9.3-0.3-0.2-0.7-0.4c-2.9-1.9-7.2-4.5-11.6-7 8.4 37.8-9 90.7-9.8 93.3q-0.2 0.5-0.5 1-4.7-2.1-8.9-4.3-0.1 0-0.1 0c-19.5-9.8-32.8-19.8-41.9-29.2q0 0 0 0c-25.9-26.8-16.7-48.8-16.7-48.8-5.4 4.4-9.2 9.1-11.9 13.5-2.2 3.5-3.7 6.7-4.7 9.5-1.7 4.5-2.1 7.6-2.1 7.6q-4.6-7.3-8-14.2-1.9-3.8-3.4-7.4c-24.1-56.1 9-87.7 9-87.7-8.3-1.1-16.5 0.3-23.4 2.5-11.1 3.6-19 9.1-19 9.1q0-0.5 0.1-1 0 0 0-0.1c1-8.6 14.3-24.2 30.9-33.9q2.7-1.6 5.5-3 0.1 0 0.1 0c6.6-3.2 13.5-5.4 20.3-5.7l3.6 0.3q2.8-2.1 5.6-3.6c5.8-3.2 11.4-4.8 16.9-5.3 13.3 2.7 23.4 7.4 24.3 7.9 3 1.4 4.6 4.6 4 7.9-0.2 1.3-0.9 2.6-1.7 3.5-1.4 0.8-1.9 1.3-1.9 1.3q0.1 0.1 0.2 0.1c-0.9 0.5-2 0.9-3.2 1q-2.7 0.2-5.1 0.9c61.5 20.3 64.6 84.8 64.7 85.5z"/>
						</g>
						<g id="&lt;Group&gt;">
							<path id="&lt;Compound Path&gt;" fill-rule="evenodd" class="s0" d="m366.1 153.9q0 1.5-0.6 2.9c-0.6 1.5-1.7 2.8-3.1 3.6-2.2 1.2-4.7 1.3-6.9 0.2q-0.3-0.2-0.7-0.4c-2.9-1.9-7.2-4.5-11.6-7 8.4 37.8-9 90.7-9.8 93.3q-0.2 0.5-0.5 1c-0.7 1.4-1.9 2.6-3.3 3.3-1 0.4-2.1 0.7-3.1 0.7q-1.3 0-2.6-0.5c-56-21-75.5-44.8-82.1-60.8-4.4 8.1-4.9 14.7-4.9 15.1-0.2 3.1-2.3 5.7-5.2 6.6-3 0.8-6.1-0.2-7.9-2.7-26.9-36.2-28.4-66.1-24.9-84.8 0.6-3.3 1.4-6.3 2.3-9.1-4.5 3.5-7.4 6.2-7.5 6.2-2 1.9-5 2.5-7.5 1.5-2.6-1-4.4-3.4-4.7-6.2-1.3-16.2 18.2-57.1 49.1-61q0.4 0 0.9 0h0.7c15.1-13.9 36.3-13.4 52.6-10 13.3 2.7 23.4 7.4 24.3 7.9 3 1.4 4.6 4.6 4 7.9-0.2 1.3-0.9 2.6-1.7 3.5q-0.8 0.8-1.7 1.4c-0.9 0.5-2 0.9-3.2 1q-2.7 0.2-5.1 0.9c61.5 20.3 64.6 84.8 64.7 85.5zm-43.4-12.8c-1.9-2.8-1.7-6.5 0.5-9 2.3-2.5 5.9-3.2 8.9-1.6 0.5 0.3 8.8 4.7 17.1 9.5-4.9-19.8-20.1-53.6-67.4-61.4-2.6-0.4-4.8-2.2-5.6-4.8-0.9-2.5-0.4-5.2 1.4-7.2 0.2-0.2 2.7-3 7-6-14-3.3-32.8-4.6-44.2 7.4-1.3 1.5-3.3 2.3-5.3 2.3h-3.2c-13.5 1.9-24 14.8-30 26.7q-0.1 0.1-0.1 0.2 0-0.1 0.1-0.1c4.5-2.9 9.6-5.7 14.7-7.7 1.4-0.6 2.9-0.7 4.2-0.4 1.8 0.4 3.4 1.4 4.5 3 1.9 2.8 1.6 6.5-0.6 9-1.3 1.4-29.3 34 2.2 86.8 1.8-4.3 4.5-9 8.3-13.6q2.5-3.2 5.8-6.4c1.4-1.3 3.2-1.9 5-1.9 1.2 0 2.4 0.3 3.5 0.9 2.8 1.5 4.2 4.7 3.6 7.8 0 0-0.2 1.5 0.3 4.1 1.1 6.4 6.3 20 28.6 35.3q0 0 0 0c9.7 6.7 22.6 13.7 39.8 20.6 6.9-24 16.1-71.9 0.9-93.5z"/>
						</g>
					</g>
				</g>
			</g>
		</g>
	</g>
</svg>