<svg version="1.2" xmlns="http://www.w3.org/2000/svg" viewBox="0 0 350 445" width="350" height="445">
	<title>Artwork</title>
	<style>
		.s0 { fill: #231f20 } 
		.s1 { fill: #ec1a40 } 
		.s2 { fill: #f7a3b3 } 
		.s3 { fill: #a80d26 } 
		.s4 { fill: #72be44 } 
	</style>
	<g id="Artwork">
		<g id="&lt;Group&gt;">
			<g id="-e-&lt;Group&gt;">
				<g id="&lt;Group&gt;">
					<path id="&lt;Compound Path&gt;" fill-rule="evenodd" class="s0" d="m310.5 127.4c0 4.5-0.6 8.9-2 13.1 8 10.5 12.4 23.3 12.4 36.8q0 0.8 0 1.6c17.3 11.6 28.2 31.3 28.2 52.8 0 16.9-6.8 33-18.6 44.8-0.2 8-2.6 15.6-6.8 22.2q1.8 7.5 1.8 15.3c0 16.9-6.5 32.8-18.3 44.8-7.1 7.2-15.5 12.5-24.8 15.7-1.9 30.7-27.5 55.1-58.6 55.1q-5.8 0-11.4-1.1c-11.8 10.4-27.1 16.4-43.1 16.4-18.9 0-36.7-8.3-48.9-22.3-33.8-0.6-61.4-27.3-63.5-60.8-23.9-9.6-40.4-33-40.4-60.1 0-6.9 1.1-13.9 3.3-20.5-2.6-6.1-4-12.7-4.1-19.4-9.5-9.9-15-23.2-15-37.2 0-16.3 7.3-31.2 19.2-41.2-1-4.2-1.5-8.6-1.5-13 0-19.5 9.7-37.1 25.4-47.7 4.4-21.2 23.3-37.2 45.9-37.2 8.8 0 17.3 2.4 24.6 7q4.8-0.8 9.7-0.8c15.8 0 31 6.1 42.4 16.7 10.2-8.1 23.1-12.8 36.6-12.8 8 0 15.7 1.6 23 4.6q3.8-1 7.8-1.5c8.2-9.4 20.2-15 33-15 24.1 0 43.7 19.6 43.7 43.7zm-66.7-10.6q0.6 0.1 1.2 0.2-2.2-0.3-4.4-0.3c-5.7 0-11.1 1.3-15.8 3.7q0.1 0.1 0.3 0.2c-6.4-4.2-13.9-6.6-22.1-6.6-15 0-28.1 8.2-35 20.5-2.6-2.4-5.6-4.5-8.8-6.1q0.3 0.1 0.5 0.2c-7.9-11.1-21-18.4-35.7-18.4-4.9 0-9.6 0.8-14 2.3-5.2-5.3-12.4-8.6-20.3-8.6-15.7 0-28.5 12.8-28.5 28.5q0 0.9 0.1 1.8c-14.4 5.8-24.5 19.8-24.5 36.2 0 7.7 2.2 14.8 6 20.8q0.3-0.1 0.5-0.1c-14 4.6-24.1 17.9-24.1 33.5 0 12.2 6.2 23 15.7 29.3-0.5 2.3-0.8 4.7-0.8 7.1 0 7.1 2.3 13.7 6.1 19.1 0.2-0.3 0.4-0.6 0.6-0.9-3.7 6.7-5.9 14.3-5.9 22.5 0 24 18.2 43.8 41.6 46.2q-0.1 0-0.2 0c-0.7 3.2-1.1 6.5-1.1 9.9 0 25.6 20.8 46.4 46.5 46.4q4 0 7.8-0.7-0.1 0.1-0.3 0.1c8.1 13.7 23 22.9 40.1 22.9 15.4 0 29-7.5 37.5-19.1q-0.1-0.1-0.2-0.1c5.2 2.4 11 3.8 17.2 3.8 22.3 0 40.3-18 40.3-40.3 0-3.9-0.6-7.7-1.6-11.3q-0.3 0-0.6 0-0.2 0-0.3 0 0.1 0 0.3 0 0.3 0 0.6 0 0 0 0 0c24.7-0.5 44.6-20.7 44.6-45.5 0-6.9-1.5-13.3-4.2-19.2 5.6-4.7 9.2-11.8 9.2-19.7q0-3.4-0.8-6.5 0 0-0.1 0c11.8-8.1 19.5-21.6 19.5-36.9 0-19.6-12.5-36.2-29.9-42.4q-0.2 0.6-0.4 1.2c1.3-4.1 2.1-8.6 2.1-13.2 0-13.9-6.7-26.2-17.1-34q0 0 0 0 0 0 0 0 0.4 0.2 0.7 0.5c3.8-4.4 6-10.1 6-16.4 0-14-11.3-25.3-25.3-25.3-10.2 0-19 6-23 14.7zm41.6 26.5q0 0 0 0 0 0 0 0zm15 47.2q0 0 0 0 0 0 0 0zm-93.8 216.8q0 0 0 0 0 0 0 0zm-77.1-3.8q0 0 0 0 0 0 0 0zm-53-55.6q0 0 0 0 0 0 0 0zm-35.7-68.7q0 0 0 0 0 0 0 0zm118.4-150.8q0 0 0 0 0 0 0 0zm65.9-7.8q0 0 0 0 0 0 0 0z"/>
				</g>
				<g id="&lt;Group&gt;">
					<path id="&lt;Path&gt;" class="s1" d="m330.7 231.7c0-19.6-12.5-36.2-29.9-42.4q-0.2 0.6-0.4 1.2c1.3-4.1 2.1-8.6 2.1-13.2 0-13.9-6.7-26.3-17.1-34q0.4 0.2 0.7 0.5c3.8-4.4 6-10.1 6-16.4 0-14-11.3-25.3-25.3-25.3-10.2 0-19 6-23 14.7q0.6 0.1 1.2 0.2-2.2-0.3-4.4-0.3c-5.7 0-11.1 1.3-15.8 3.7q0.1 0.1 0.3 0.2c-6.4-4.2-13.9-6.6-22.1-6.6-15 0-28.1 8.2-35 20.5-2.7-2.4-5.6-4.5-8.8-6.1q0.3 0.1 0.5 0.2c-7.9-11.1-21-18.4-35.7-18.4-4.9 0-9.6 0.8-14 2.3-5.2-5.3-12.4-8.6-20.3-8.6-15.7 0-28.5 12.8-28.5 28.5q0 0.9 0.1 1.8c-14.4 5.8-24.5 19.8-24.5 36.2 0 7.7 2.2 14.8 6 20.8q0.3-0.1 0.5-0.1c-14 4.6-24.1 17.9-24.1 33.5 0 12.2 6.2 23 15.7 29.3-0.5 2.3-0.8 4.7-0.8 7.1 0 7.1 2.3 13.7 6.1 19.1 0.2-0.3 0.4-0.6 0.6-0.9-3.7 6.7-5.9 14.3-5.9 22.5 0 24 18.2 43.8 41.6 46.2q-0.1 0-0.2 0c-0.7 3.2-1.1 6.5-1.1 9.9 0 25.6 20.8 46.4 46.5 46.4q4 0 7.8-0.7-0.1 0.1-0.3 0.1c8.1 13.7 23 22.9 40.1 22.9 15.4 0 29-7.5 37.5-19.1q-0.1-0.1-0.2-0.1c5.2 2.4 11 3.8 17.2 3.8 22.3 0 40.3-18 40.3-40.3 0-3.9-0.6-7.7-1.6-11.3q-0.5 0-0.9 0c25.1 0 45.5-20.4 45.5-45.5 0-6.9-1.5-13.3-4.2-19.2 5.6-4.7 9.2-11.8 9.2-19.7q0-3.4-0.8-6.5 0 0-0.1 0c11.8-8.1 19.5-21.6 19.5-36.9z"/>
				</g>
				<g id="&lt;Group&gt;">
					<g id="&lt;Group&gt;">
						<path id="&lt;Path&gt;" class="s2" d="m73.3 144.7c-6.8-11.9-31.3 11.8-20.3 19.5 7.3 5 24.5-12 20.3-19.5z"/>
					</g>
					<g id="&lt;Group&gt;">
						<path id="&lt;Path&gt;" class="s2" d="m140.1 142.4c-6.8-11.9-31.3 11.8-20.3 19.5 7.3 5 24.5-12 20.3-19.5z"/>
					</g>
					<g id="&lt;Group&gt;">
						<path id="&lt;Path&gt;" class="s2" d="m186.9 189.6c-5.7-12.5-32.2 8.9-22 17.5 6.8 5.6 25.5-9.7 22-17.5z"/>
					</g>
					<g id="&lt;Group&gt;">
						<path id="&lt;Path&gt;" class="s2" d="m53.3 203.1c-6.8-11.9-31.2 11.8-20.2 19.4 7.2 5 24.5-11.9 20.2-19.4z"/>
					</g>
					<g id="&lt;Group&gt;">
						<path id="&lt;Path&gt;" class="s2" d="m77.4 281.2c-10.8-15.4-41.1 20.3-25.1 29.2 10.6 5.9 31.9-19.5 25.1-29.2z"/>
					</g>
					<g id="&lt;Group&gt;">
						<path id="&lt;Path&gt;" class="s2" d="m113.1 207.5c-10.8-15.4-41.1 20.3-25.1 29.2 10.6 5.9 31.9-19.5 25.1-29.2z"/>
					</g>
				</g>
				<g id="&lt;Group&gt;">
					<path id="&lt;Compound Path&gt;" fill-rule="evenodd" class="s3" d="m61.3 139c-0.8 0-1.6-0.2-2.3-0.6-1.3-0.8-2.2-2.1-2.3-3.7q-0.1-1.1-0.1-2.3c0-18.2 14.8-33.1 33.1-33.1 9 0 17.3 3.5 23.6 9.9 1.1 1.2 1.5 2.8 1.2 4.3-0.4 1.6-1.5 2.8-3 3.3-9.3 3.1-17.1 9.6-21.8 18.2-1 1.8-3.1 2.8-5.2 2.2q-1.2-0.3-2.5-0.5-0.2 0-0.3-0.1-0.4-0.1-0.8-0.1-0.1 0-0.3 0-0.2-0.1-0.4-0.1-0.3-0.1-0.6-0.1-0.1 0-0.3 0-0.6-0.1-1.3-0.1c-0.8 0-1.4-0.1-2.1-0.1-2.2 0-4.5 0.2-6.7 0.7-0.5 0.1-1 0.2-1.5 0.3-0.6 0.2-1 0.3-1.5 0.4q-0.9 0.3-1.6 0.6c-0.5 0.1-0.9 0.3-1.3 0.5q-0.3 0.1-0.5 0.1-0.7 0.3-1.5 0.3zm28.4-30.5c-11.7 0-21.4 8.4-23.5 19.5q0.6-0.1 1.3-0.3c3.5-0.7 7.2-0.9 10.9-0.7 0.6 0 1.2 0.1 1.9 0.1q0.7 0.1 1.3 0.2 0.2 0 0.4 0.1 0.7 0 1.4 0.2c4.4-6.9 10.5-12.4 17.6-16.2-3.4-1.9-7.3-2.9-11.3-2.9zm-8.7 28q0 0 0 0 0 0 0 0zm0 0z"/>
				</g>
				<g id="&lt;Group&gt;">
					<path id="&lt;Compound Path&gt;" fill-rule="evenodd" class="s3" d="m105.5 149.6c-1.4 0-2.6-0.6-3.5-1.6-4.6-5.4-10.6-9.2-17.4-10.9-1.4-0.4-2.5-1.4-3.1-2.7-0.5-1.3-0.5-2.8 0.2-4 8.6-15.3 24.7-24.9 42.3-24.9 15.6 0 30.4 7.7 39.4 20.5 1.3 1.7 1.1 4.1-0.3 5.7-1.4 1.6-3.7 2-5.6 1-5.1-2.7-10.8-4.1-16.6-4.1-13.1 0-25.1 7.1-31.4 18.6-0.7 1.3-2 2.2-3.5 2.3q-0.3 0.1-0.5 0.1zm-12.6-19.4c4.3 1.8 8.3 4.3 11.8 7.4 8.7-11.8 22.8-18.7 37.7-18.2-5.6-3-11.9-4.6-18.4-4.6-12.3 0-23.8 5.7-31.1 15.4z"/>
				</g>
				<g id="&lt;Group&gt;">
					<path id="&lt;Compound Path&gt;" fill-rule="evenodd" class="s3" d="m271.2 223c-1 0-1.9-0.2-2.7-0.8-6.2-4.4-13.6-6.7-21.3-6.7-3.4 0-6.9 0.5-10.2 1.4-1.3 0.4-2.7 0.2-3.8-0.6-8.4-5.7-14.8-14.2-18-23.8-0.8-2.2 0.3-4.7 2.5-5.6 12.8-5.8 21.1-18.6 21.1-32.6 0-4.6-0.9-9-2.6-13.2-0.9-2.2 0.1-4.7 2.2-5.8 6.6-3.4 14-5.2 21.5-5.2 26 0 47.2 21.2 47.2 47.2 0 21.3-14.3 40-34.7 45.6q-0.6 0.1-1.2 0.1zm-24-16.7c8.8 0 17.3 2.5 24.7 7.1 15.4-5.1 26-19.7 26-36.1 0-20.9-17.1-38-38-38-4.8 0-9.3 0.9-13.7 2.6 1.2 4 1.8 8.2 1.8 12.4 0 16.2-8.8 31-22.6 39 2.5 5.5 6.5 10.4 11.4 14.2 3.4-0.8 6.9-1.2 10.4-1.2z"/>
				</g>
				<g id="&lt;Group&gt;">
					<path id="&lt;Compound Path&gt;" fill-rule="evenodd" class="s3" d="m218.8 196c-1.6 0-3.1-0.8-4-2.2-6.6-10.8-18.1-17.3-30.8-17.3q-1.1 0-2.1 0c-1.1 0.4-2.4 0.4-3.5-0.2-1.7-0.8-2.6-2.4-2.6-4.1q0-0.4 0-0.8 0.1-0.2 0.1-0.4 0.2-0.9 0.3-1.9 0-0.2 0.1-0.4 0.1-0.9 0.2-1.9 0-0.1 0-0.2 0-0.1 0-0.2c0-0.7 0.1-1.4 0.1-2.1q0-1.9-0.2-3.7-0.1-0.3-0.1-0.5 0-0.2 0-0.4-0.1-0.5-0.2-1.1c-0.1-0.5-0.2-1-0.3-1.5-0.1-0.4-0.1-0.7-0.2-1q-0.1-0.2-0.1-0.4-0.3-1.3-0.8-2.8c-0.2-0.6-0.4-1.1-0.6-1.5-0.2-0.7-0.4-1.2-0.6-1.7-0.4-0.7-0.7-1.3-1-1.9-0.2-0.5-0.4-0.8-0.6-1.1-0.6-1.2-1.4-2.3-2.2-3.5q-0.5-0.6-1.1-1.3c-0.2-0.4-0.4-0.6-0.6-0.8-0.7-0.8-1.2-1.4-1.8-2-0.5-0.5-0.9-0.9-1.3-1.2-1.6-1.5-2-3.8-0.9-5.7 7.9-14.1 22.9-22.8 39-22.8 24.8 0 45 20.1 45 44.9 0 18.1-10.8 34.3-27.4 41.4q-0.9 0.3-1.8 0.3zm-33.1-28.7c13.8 0.5 26.4 7.2 34.7 18.2 11.2-6.2 18.4-18.1 18.4-31.2 0-19.7-16.1-35.7-35.8-35.7-11.6 0-22.5 5.7-29.2 15.2q0.6 0.6 1.1 1.2c0.2 0.2 0.6 0.7 0.9 1.1 0.4 0.5 0.9 1.1 1.3 1.7q1.7 2.2 2.8 4.3c0.2 0.4 0.5 0.9 0.8 1.4 0.4 0.7 0.8 1.6 1.2 2.5 0.3 0.6 0.6 1.3 0.8 2 0.2 0.5 0.5 1.2 0.7 1.9 0.4 1.2 0.8 2.5 1.1 3.7q0.2 0.8 0.3 1.6c0.2 0.6 0.3 1.2 0.4 1.8q0.1 0.8 0.2 1.7 0.1 0.5 0.1 1c0.2 1.5 0.3 3 0.3 4.6 0 0.9-0.1 1.8-0.1 2.7q0 0.1 0 0.3zm-9.5 1.9q0 0 0 0.1 0-0.1 0-0.1zm0 0q0 0 0 0 0 0 0 0zm0.3-2.3q0 0 0 0 0 0 0 0zm0.1-0.9q0 0 0 0 0 0 0 0z"/>
				</g>
				<g id="&lt;Group&gt;">
					<path id="&lt;Compound Path&gt;" fill-rule="evenodd" class="s3" d="m144 208.8c-1.2 0-2.5-0.5-3.4-1.5q-0.6-0.6-1.2-1.2c-0.5-0.5-0.9-1-1.4-1.4-1.5-1.4-3-2.5-4.4-3.5-0.4-0.3-0.7-0.5-1-0.6-0.9-0.6-1.7-1.1-2.5-1.5-0.3-0.2-0.7-0.4-1.1-0.6q-0.2-0.1-0.4-0.2c-0.5-0.2-0.9-0.4-1.4-0.6q-0.1 0-0.2-0.1-0.5-0.2-1-0.4c-0.6-0.2-1-0.3-1.3-0.5q-0.3 0-0.5-0.1c-0.1-0.1-0.1-0.1-0.3-0.1q-0.4-0.2-0.9-0.3c-0.4-0.1-0.7-0.2-1-0.3q-0.1 0-0.2 0-0.8-0.2-1.5-0.4-0.2 0-0.3-0.1-0.3 0-0.6-0.1-0.3 0-0.5-0.1-0.5-0.1-1-0.1 0 0 0 0-0.9-0.2-1.9-0.3-0.9-0.1-1.7-0.1c-1.6-0.1-2.9-0.1-4.3 0-1.4 0-2.8-0.6-3.7-1.7q0-0.1-0.1-0.1-0.7-0.8-1.3-1.7-0.4-0.6-1-1.4-0.4-0.6-0.8-1.3c-0.5-0.7-0.9-1.4-1.3-2.1q-0.3-0.5-0.7-1.2c-0.2-0.4-0.5-1-0.7-1.5-0.3-0.5-0.6-1.2-0.9-1.9-0.6-1.5-1.1-2.9-1.5-4.2-0.2-0.4-0.3-0.8-0.4-1.3l-0.2-0.6q-0.1-0.2-0.1-0.4-0.3-1-0.4-2-0.3-1-0.4-2.1 0-0.1-0.1-0.2 0 0 0-0.1-0.1-0.8-0.2-1.7c0-0.4-0.1-0.9-0.1-1.4-0.1-0.3-0.1-0.9-0.1-1.4 0-0.8-0.1-1.5-0.1-2.1q0-1.5 0.1-3c0.1-0.7 0.1-1.5 0.2-2.2q0.1-0.6 0.2-1.2c0-0.4 0.1-1 0.3-1.6q0.3-1.7 0.7-3.3 0.3-1.4 0.8-2.7 0.3-1 0.7-2 0.2-0.7 0.6-1.5c0.5-1.2 1.2-2.6 1.9-4 7.9-14.5 23-23.4 39.5-23.4 11.2 0 21.9 4.1 30.2 11.6q0.8 0.8 1.7 1.7c0.7 0.7 1.4 1.5 2.1 2.3 0.2 0.2 0.6 0.7 0.9 1.1 0.4 0.5 0.9 1.1 1.3 1.7q1.7 2.2 2.8 4.3c0.2 0.4 0.5 0.9 0.8 1.4 0.4 0.7 0.8 1.6 1.2 2.5 0.3 0.6 0.6 1.3 0.8 2 0.2 0.5 0.5 1.2 0.7 1.9 0.4 1.2 0.8 2.5 1.1 3.7q0.2 0.8 0.4 1.7c0.1 0.5 0.2 1.1 0.3 1.7q0.1 0.8 0.2 1.7 0.1 0.5 0.1 1c0.2 1.5 0.3 3 0.3 4.6 0 0.9-0.1 1.8-0.1 2.7q0 0.3-0.1 0.7 0 1-0.2 2 0 0.3 0 0.7-0.2 1.3-0.4 2.5-0.1 0.2-0.2 0.4c0 0.3-0.1 0.6-0.3 0.9q0 0 0 0 0 0 0 0 0 0 0 0c-0.9 1.9-2.9 2.8-4.9 2.5-15.2 1.8-27.9 13.4-31.1 28.5-0.3 1.7-1.6 3-3.3 3.5q-0.6 0.2-1.2 0.1zm-11-18.6q0.7 0.4 1.5 0.8 1.6 0.9 2.9 1.7c0.4 0.2 0.9 0.5 1.4 0.9q1.5 1 3 2.2c5.8-14.5 19-25.3 34.6-27.9q0-0.5 0.1-1.1 0-0.1 0-0.2 0-0.1 0-0.2c0-0.7 0.1-1.4 0.1-2.1q0-1.9-0.2-3.7-0.1-0.3-0.1-0.5 0-0.2 0-0.4-0.1-0.5-0.2-1.1c-0.1-0.5-0.2-1-0.3-1.5-0.1-0.4-0.1-0.7-0.2-1q-0.1-0.2-0.1-0.4-0.3-1.3-0.8-2.8c-0.2-0.6-0.4-1.1-0.6-1.5-0.2-0.7-0.4-1.2-0.6-1.7-0.4-0.7-0.7-1.3-1-1.9-0.2-0.5-0.4-0.8-0.6-1.1-0.6-1.2-1.4-2.3-2.2-3.5q-0.5-0.6-1.1-1.3c-0.2-0.4-0.4-0.6-0.6-0.8-0.7-0.8-1.2-1.4-1.8-2-0.5-0.5-0.9-0.9-1.3-1.2-6.6-6-15.1-9.3-24-9.3-13.1 0-25.1 7.1-31.4 18.6-0.6 1.1-1.1 2.2-1.6 3.4-0.2 0.3-0.2 0.5-0.3 0.7q0 0.1-0.1 0.3-0.3 0.7-0.5 1.5-0.1 0.1-0.1 0.2-0.3 1-0.6 2-0.3 1.3-0.6 2.6-0.1 0.7-0.2 1.4c0 0.3-0.1 0.5-0.1 0.6q0 0.1 0 0.3-0.1 0.9-0.2 1.8-0.1 1.2 0 2.3 0 0.8 0 1.6 0 0.6 0.1 1.2c0 0.5 0 0.8 0.1 1.2 0 0.5 0.1 0.9 0.1 1.3q0.1 0.2 0.1 0.4 0.1 0.7 0.3 1.4 0 0.1 0 0.2 0.2 0.8 0.4 1.5h-0.1q0.1 0.1 0.1 0.2l0.1 0.5q0.2 0.5 0.3 1c0.4 1.1 0.8 2.2 1.3 3.4q0.3 0.7 0.6 1.4c0.3 0.5 0.4 0.9 0.6 1.2 0.2 0.4 0.4 0.7 0.6 1.1 0.3 0.5 0.6 1 0.9 1.5q0.1 0.2 0.2 0.3 0.2 0.4 0.5 0.7 0.1 0.1 0.1 0.2 0.3 0.4 0.6 0.8 1.3 0 2.6 0.1c0.7 0 1.5 0.1 2.2 0.2q1.1 0.1 2.2 0.2 0.1 0 0.3 0.1 0.7 0.1 1.3 0.2 0.7 0.1 1.3 0.3 1.1 0.2 2.2 0.5 0.8 0.2 1.6 0.4c0.2 0.1 0.6 0.2 1 0.3q0.4 0.2 0.8 0.3 0.8 0.3 1.7 0.6c0.3 0.2 0.8 0.4 1.3 0.6q1 0.4 1.9 0.8 0.3 0.1 0.5 0.2zm43.5-23.3q0 0 0 0 0 0 0 0zm0.1-0.8zm0-0.1q0 0 0 0 0 0 0 0z"/>
				</g>
				<g id="&lt;Group&gt;">
					<path id="&lt;Compound Path&gt;" fill-rule="evenodd" class="s3" d="m81.9 206.9q-0.1 0-0.2 0c-1.3-0.1-2.5-0.7-3.3-1.7-5.9-7.2-14.6-11.4-23.9-11.4-3.5 0-6.9 0.6-10.1 1.7-2.1 0.8-4.3 0-5.5-1.8-4.4-7-6.7-15-6.7-23.3 0-24.1 19.6-43.6 43.7-43.6 12.7 0 24.8 5.5 33.1 15.2 1.2 1.4 1.4 3.5 0.5 5.1q-0.9 1.8-1.6 3.5c-0.1 0.3-0.2 0.5-0.3 0.7q0 0.1-0.1 0.3-0.3 0.7-0.5 1.5-0.1 0.1-0.1 0.2-0.3 1-0.6 2-0.3 1.3-0.6 2.6-0.1 0.7-0.2 1.4c0 0.3-0.1 0.5-0.1 0.6q0 0.1 0 0.3-0.1 0.9-0.2 1.8-0.1 1.2 0 2.3 0 0.8 0 1.6 0 0.6 0.1 1.2c0 0.5 0 0.8 0.1 1.2 0 0.5 0.1 0.9 0.1 1.3q0.1 0.2 0.1 0.4 0.1 0.7 0.3 1.4 0 0.1 0 0.2 0.2 0.8 0.4 1.5h-0.1q0.1 0.1 0.1 0.2l0.1 0.2q0.1 0.7 0.3 1.3c0.4 1.1 0.8 2.2 1.3 3.4q0.3 0.8 0.7 1.5 0.2 0.6 0.5 1.1c0.2 0.4 0.4 0.7 0.6 1.1 0.3 0.5 0.6 1 0.9 1.5q0.1 0.2 0.2 0.3 0.2 0.4 0.5 0.7 0.1 0.1 0.1 0.2c0.3 0.4 0.6 0.8 0.9 1.2 0.3 0.5 0.6 0.8 0.9 1.1 1.3 1.6 1.4 3.9 0.3 5.6-0.8 1.2-2.3 2.1-3.7 2.2-9.3 0.5-18.1 4.4-24.7 10.9-0.9 0.8-2.1 1.3-3.3 1.3zm-27.4-22.3c10.4 0 20.3 4.1 27.8 11.3 5.7-4.6 12.4-7.8 19.5-9.4q0 0 0-0.1-0.3-0.5-0.7-1.2c-0.2-0.4-0.5-1-0.7-1.5-0.3-0.6-0.6-1.3-0.9-1.9-0.6-1.5-1.1-2.9-1.5-4.2q-0.3-0.7-0.5-1.6l-0.1-0.3q-0.1-0.2-0.1-0.4-0.3-1-0.4-2-0.3-1-0.4-2.1 0-0.1-0.1-0.2 0 0 0-0.1-0.1-0.8-0.2-1.7c0-0.4-0.1-0.9-0.1-1.4-0.1-0.3-0.1-0.9-0.1-1.4 0-0.8-0.1-1.5-0.1-2.1q0-1.5 0.1-3c0.1-0.7 0.1-1.5 0.2-2.2q0.1-0.6 0.2-1.2c0-0.4 0.1-1 0.3-1.6q0.3-1.7 0.7-3.3 0.3-1.4 0.8-2.7 0.3-1 0.7-2 0.2-0.7 0.5-1.4 0.3-0.5 0.5-1.1c-6.3-6.3-15-9.8-24-9.8-19 0-34.5 15.4-34.5 34.4 0 5.4 1.3 10.6 3.6 15.3q4.6-1.1 9.5-1.1z"/>
				</g>
				<g id="&lt;Group&gt;">
					<path id="&lt;Compound Path&gt;" fill-rule="evenodd" class="s3" d="m286.1 148.4c-1 0-2-0.3-2.8-1-3.6-2.8-7.5-4.9-11.8-6.3-1.2-0.3-2.2-1.2-2.8-2.3-4.8-9.8-14.5-16.4-25.3-17.4-1.5-0.1-2.9-1-3.6-2.3-0.8-1.3-0.8-2.9-0.2-4.2 4.9-10.6 15.5-17.4 27.2-17.4 16.5 0 29.9 13.4 29.9 29.9 0 7.1-2.5 14-7.1 19.4-0.9 1.1-2.2 1.6-3.5 1.6zm-10-15.4q4.7 1.7 8.9 4.3c1.6-3 2.5-6.4 2.5-9.9 0-11.4-9.3-20.7-20.7-20.7-6 0-11.5 2.6-15.4 6.8 10.4 2.9 19.4 9.9 24.7 19.5z"/>
				</g>
				<g id="&lt;Group&gt;">
					<path id="&lt;Compound Path&gt;" fill-rule="evenodd" class="s3" d="m240.5 144q-0.8 0-1.6-0.3c-1.2-0.5-2.2-1.4-2.7-2.6-2.7-6.9-7.7-12.9-13.9-16.9-1.4-0.9-2.2-2.4-2.1-4.1 0.1-1.6 1-3.1 2.5-3.9 5.6-2.7 11.6-4.1 17.9-4.1 15.6 0 29.5 8.6 36.4 22.6 0.8 1.7 0.6 3.7-0.7 5.1-1.2 1.4-3.1 1.9-4.9 1.3-3.7-1.2-7.6-1.8-11.5-1.8-6.1 0-11.9 1.4-17.3 4.2q-1 0.5-2.1 0.5zm-6.3-22.1c3.4 3.3 6.3 7.2 8.6 11.4 6.2-2.4 13-3.5 19.7-3.1-5.7-5.7-13.5-8.9-21.9-8.9q-3.3 0-6.4 0.6z"/>
				</g>
				<g id="&lt;Group&gt;">
					<path id="&lt;Compound Path&gt;" fill-rule="evenodd" class="s3" d="m54.5 264.5c-22 0-39.9-17.9-39.9-39.9 0-22.1 17.9-40 39.9-40 12 0 23.4 5.4 31 14.8 1.5 1.8 1.4 4.5-0.3 6.2-7.4 7.3-11.5 17-11.5 27.4 0 6.5 1.6 12.9 4.7 18.5 1.2 2.1 0.6 4.7-1.4 6-6.7 4.6-14.5 7-22.5 7zm0-70.7c-16.9 0-30.7 13.8-30.7 30.8 0 16.9 13.8 30.7 30.7 30.7 4.8 0 9.6-1.2 13.9-3.4-2.6-5.9-3.9-12.4-3.9-18.9 0-11.4 3.9-22.1 11.2-30.7-5.7-5.4-13.3-8.5-21.2-8.5z"/>
				</g>
				<g id="&lt;Group&gt;">
					<path id="&lt;Compound Path&gt;" fill-rule="evenodd" class="s3" d="m184 258c-25.1 0-45.4-20.3-45.4-45.3 0-25.1 20.3-45.4 45.4-45.4 25 0 45.4 20.3 45.4 45.4q0 2.9-0.4 5.5c-0.2 1.4-0.9 2.6-2.1 3.3-9.2 5.9-15.3 15.5-16.8 26.4-0.2 1.3-0.9 2.5-2.1 3.2-7.2 4.6-15.5 6.9-24 6.9zm0-81.5c-20 0-36.2 16.2-36.2 36.2 0 19.9 16.2 36.1 36.2 36.1 6.1 0 12.1-1.5 17.4-4.4 2.1-11.8 8.8-22.3 18.7-29.4q0-1.1 0-2.3c0-20-16.2-36.2-36.1-36.2z"/>
				</g>
				<g id="&lt;Group&gt;">
					<path id="&lt;Compound Path&gt;" fill-rule="evenodd" class="s3" d="m285.8 281.2c-1.5 0-2.9-0.1-4.2-0.2-1.6-0.2-3-1.2-3.7-2.6-0.7-1.5-0.6-3.2 0.4-4.6 4.1-6.1 6.3-13.3 6.3-20.8 0-12.3-6-23.8-16.1-30.8-1.4-1-2.2-2.8-1.9-4.5 0.3-1.8 1.6-3.2 3.3-3.7 12.7-3.5 22.8-13.4 26.5-26 0.3-1.2 1.2-2.2 2.3-2.8 1.1-0.6 2.4-0.7 3.6-0.2 19.7 6.9 33 25.7 33 46.7 0 27.3-22.2 49.5-49.5 49.5zm-5.6-61.2c8.6 8.6 13.6 20.5 13.6 33 0 6.5-1.3 12.9-3.9 18.8 20.3-2.1 36.2-19.3 36.2-40.1 0-15.5-8.9-29.6-22.6-36.3-4.5 10.8-12.9 19.6-23.3 24.6z"/>
				</g>
				<g id="&lt;Group&gt;">
					<path id="&lt;Compound Path&gt;" fill-rule="evenodd" class="s3" d="m247.2 299.6c-25.7 0-46.6-20.9-46.6-46.6 0-25.8 20.9-46.7 46.6-46.7 25.7 0 46.6 20.9 46.6 46.7 0 25.7-20.9 46.6-46.6 46.6zm0-84.1c-20.6 0-37.4 16.8-37.4 37.5 0 20.6 16.8 37.4 37.4 37.4 20.6 0 37.4-16.8 37.4-37.4 0-20.7-16.8-37.5-37.4-37.5z"/>
				</g>
				<g id="&lt;Group&gt;">
					<path id="&lt;Compound Path&gt;" fill-rule="evenodd" class="s3" d="m81.4 352.8c-28.2 0-51.1-22.9-51.1-51.1 0-25.6 19.1-47.4 44.5-50.6 1.8-0.2 3.5 0.6 4.5 2.1 7 11.3 19.2 18.1 32.5 18.1q3.5 0 6.8-0.6c1.8-0.4 3.6 0.4 4.7 1.9 6 8.6 9.1 18.6 9.1 29.1 0 28.2-22.9 51.1-51 51.1zm-8.2-92.1c-19.4 3.8-33.7 21-33.7 41 0 23.1 18.8 41.9 41.9 41.9 23 0 41.8-18.8 41.8-41.9 0-7.6-2-15-6-21.5q-2.6 0.3-5.4 0.3c-15.5 0-29.7-7.4-38.6-19.8z"/>
				</g>
				<g id="&lt;Group&gt;">
					<path id="&lt;Compound Path&gt;" fill-rule="evenodd" class="s3" d="m163.1 332.4c-15.4 0-29.9-6.9-39.7-18.9-0.9-1-1.2-2.4-1-3.8 0.6-2.6 0.8-5.3 0.8-8 0-8.5-2.6-16.7-7.4-23.8-0.9-1.2-1.1-2.9-0.5-4.3 0.6-1.5 1.9-2.5 3.5-2.8 15.7-2.8 28.2-15.2 31-30.9 0.3-1.7 1.6-3.1 3.2-3.6 1.7-0.5 3.5 0 4.7 1.2 6.9 7.3 16.2 11.3 26.3 11.3 4.4 0 8.7-0.8 12.9-2.3 1.8-0.7 3.8-0.2 5.1 1.3 8 9.3 12.4 21.2 12.4 33.4 0 28.2-23 51.2-51.3 51.2zm-31.2-23.1c7.9 8.9 19.2 13.9 31.2 13.9 23.2 0 42.1-18.8 42.1-42 0-9-2.9-17.8-8.3-25-4.2 1.2-8.5 1.8-12.9 1.8-9.8 0-19.4-3.2-27.1-8.9-5 13.8-16.2 24.6-30.2 29.2 3.8 7.2 5.7 15.2 5.7 23.4q0 3.8-0.5 7.6z"/>
				</g>
				<g id="&lt;Group&gt;">
					<path id="&lt;Compound Path&gt;" fill-rule="evenodd" class="s3" d="m261.6 364.1c-9.5 0-18.7-2.7-26.6-7.7-1.5-0.9-2.4-2.7-2.1-4.5 0.2-1.7 1.4-3.2 3.1-3.8 16.4-5.1 27.3-20.1 27.3-37.3 0-6-1.3-11.7-3.9-17.1-0.6-1.1-0.6-2.4-0.2-3.6 0.5-1.2 1.4-2.2 2.5-2.6 6.8-2.9 12.5-7.6 16.5-13.7 1-1.4 2.6-2.1 4.3-2 1.1 0.1 2.3 0.2 3.6 0.2q0.4 0 0.9-0.1c1-0.1 2.1 0.2 3 0.8 13.6 9.4 21.7 24.8 21.7 41.3 0 27.6-22.5 50.1-50.1 50.1zm-13.2-11.4c4.2 1.4 8.7 2.2 13.2 2.2 22.5 0 40.9-18.4 40.9-40.9 0-13-6.2-25.1-16.5-32.8q-0.9 0-1.7 0c-3.9 5.2-9 9.6-14.8 12.7 2 5.4 3 11.1 3 16.9 0 17.6-9.3 33.4-24.1 41.9z"/>
				</g>
				<g id="&lt;Group&gt;">
					<path id="&lt;Compound Path&gt;" fill-rule="evenodd" class="s3" d="m224.2 359.2c-21.4 0-40-13.7-46.3-34.2-0.6-2.2 0.4-4.6 2.5-5.5 15.1-6.8 24.8-21.8 24.8-38.3 0-3.5-0.4-6.9-1.3-10.1-0.5-2.1 0.5-4.3 2.5-5.2 0.1-0.1 0.4-0.2 0.6-0.3 1-0.4 2.2-0.5 3.3-0.1 1.2 0.5 2.1 1.4 2.6 2.5 6 13.6 19.4 22.4 34.3 22.4 5 0 9.9-1 14.5-2.9 2.3-1 4.9 0 6 2.2 3.2 6.6 4.8 13.7 4.8 21.1 0 26.7-21.7 48.4-48.3 48.4zm-36.2-33.2c6.1 14.5 20.1 24 36.2 24 21.6 0 39.1-17.6 39.1-39.2 0-4.6-0.8-9-2.3-13.3-4.4 1.4-9.1 2.1-13.8 2.1-12.6 0-24.4-5.1-33-13.7-1.6 16.8-11.4 31.8-26.2 40.1zm18.7-60.3q0 0 0 0 0 0 0 0zm0 0q0 0 0 0 0 0 0 0zm0 0q0 0 0 0 0 0 0 0zm0 0q0 0 0 0 0 0 0 0z"/>
				</g>
				<g id="&lt;Group&gt;">
					<path id="&lt;Compound Path&gt;" fill-rule="evenodd" class="s3" d="m140.5 380.4c-21.3 0-40.3-13.5-47.2-33.7-0.8-2.3 0.4-4.9 2.7-5.8 13.6-5.1 23.7-17 26.4-31.2 0.4-1.7 1.7-3.1 3.4-3.6 1.8-0.4 3.6 0.2 4.7 1.6 8.1 9.9 19.9 15.5 32.6 15.5 6.9 0 13.7-1.7 19.7-4.9 1.3-0.7 2.9-0.7 4.2-0.1 1.3 0.6 2.3 1.9 2.5 3.3 0.6 2.9 0.9 6 0.9 9 0 27.5-22.4 49.9-49.9 49.9zm-36.9-32.7c6.6 14.2 20.9 23.5 36.9 23.5 22.4 0 40.7-18.3 40.7-40.7q0-0.7-0.1-1.3c-5.7 2.1-11.8 3.2-18 3.2-12.6 0-24.6-4.6-33.9-12.8-4.6 12.2-13.8 22.3-25.6 28.1z"/>
				</g>
				<g id="&lt;Group&gt;">
					<path id="&lt;Compound Path&gt;" fill-rule="evenodd" class="s3" d="m205.7 395c-18 0-34.4-9.2-43.8-24.6-1.3-2.1-0.7-4.8 1.3-6.2 10.9-7.3 17.6-19.5 17.9-32.6 0.1-2.1 1.5-3.9 3.5-4.3 2.1-0.5 4.2 0.4 5.2 2.2 6.8 12.6 20 20.5 34.4 20.5 4 0 8-0.6 11.8-1.9 1.3-0.4 2.7-0.2 3.9 0.5 3.6 2.3 7.4 4 11.5 5 1.2 0.3 2.3 1.1 2.9 2.2 0.6 1.2 0.7 2.5 0.3 3.7-6.9 21.2-26.5 35.5-48.9 35.5zm-33.6-25.9c8 10.5 20.2 16.7 33.6 16.7 16.8 0 31.7-9.8 38.5-24.8q-3.8-1.4-7.4-3.5c-4.1 1.1-8.3 1.7-12.6 1.7-13.7 0-26.5-5.8-35.6-15.6-2.7 9.9-8.4 18.9-16.5 25.5z"/>
				</g>
				<g id="&lt;Group&gt;">
					<path id="&lt;Compound Path&gt;" fill-rule="evenodd" class="s3" d="m223.8 415.7c-18.2 0-34.5-10.8-41.5-27.6-0.7-1.8-0.3-3.8 1.1-5.1 1.3-1.3 3.4-1.7 5.1-0.9 5.4 2.5 11.2 3.7 17.2 3.7 18.4 0 34.5-11.7 40.2-29.2 0.7-2.3 3.2-3.6 5.5-3 3.3 0.9 6.7 1.3 10.2 1.3q0.2 0 0.5 0c2.1-0.2 4.2 1.2 4.8 3.3 1.2 4.1 1.8 8.3 1.8 12.6 0 24.8-20.2 44.9-44.9 44.9zm-27-21.5c6.7 7.7 16.4 12.3 27 12.3 19.7 0 35.7-16 35.7-35.7q0-3.4-0.7-6.8-2.8-0.1-5.6-0.6c-7.9 19.1-26.5 31.6-47.5 31.6q-4.5 0-8.9-0.8z"/>
				</g>
				<g id="&lt;Group&gt;">
					<path id="&lt;Compound Path&gt;" fill-rule="evenodd" class="s3" d="m169.3 431.1c-18 0-34.9-9.7-44-25.2-0.8-1.3-0.9-2.9-0.2-4.3 0.6-1.3 1.9-2.3 3.4-2.5 16.4-2.7 29.6-14.8 33.7-30.9 0.5-1.8 1.9-3.1 3.7-3.4 1.8-0.3 3.6 0.5 4.6 2 4.4 6.7 10.6 12 18 15.3q0.5 0.2 1.2 0.5c2 0.9 3.1 3.1 2.7 5.2 3.6 6.7 9.3 12.1 16.3 15.4 1.3 0.6 2.2 1.7 2.5 3 0.4 1.4 0.1 2.8-0.7 3.9-9.6 13.1-25 21-41.2 21zm-32.4-24.6c7.9 9.6 19.8 15.4 32.4 15.4 11.5 0 22.5-4.9 30.4-13.2-7.2-4.6-13-11.1-16.7-19-5.5-2.7-10.5-6.4-14.8-10.9-5.9 13.2-17.4 23.4-31.3 27.7z"/>
				</g>
				<g id="&lt;Group&gt;">
					<path id="&lt;Compound Path&gt;" fill-rule="evenodd" class="s3" d="m121.7 408.8c-28.2 0-51.1-22.9-51.1-51 0-3.7 0.4-7.3 1.2-10.9 0.5-2.3 2.6-3.9 5-3.6q2.2 0.3 4.6 0.3c5 0 9.9-0.9 14.6-2.7 1.2-0.4 2.5-0.4 3.6 0.2 1.1 0.5 2 1.5 2.4 2.6 5.6 16.5 21.1 27.5 38.5 27.5 8.7 0 17-2.7 24-7.8 1.5-1.2 3.6-1.2 5.2-0.2 1.6 1 2.4 2.9 2 4.8-4.8 23.7-25.8 40.8-50 40.8zm-41.6-56.1q-0.3 2.5-0.3 5.1c0 23 18.8 41.8 41.9 41.8 15.9 0 30.2-9.1 37.2-22.7-5.8 2.3-12 3.5-18.4 3.5-19.8 0-37.6-11.7-45.6-29.5-4.8 1.4-9.8 2-14.8 1.8z"/>
				</g>
				<g id="&lt;Group&gt;">
					<path id="&lt;Compound Path&gt;" fill-rule="evenodd" class="s3" d="m302.9 299.4q-0.6 0-1.1-0.1c-1.4-0.3-2.5-1.2-3.1-2.5-3.1-6.6-7.9-12.3-13.9-16.5-1.7-1.1-2.4-3.2-1.8-5.1 0.5-1.9 2.2-3.2 4.2-3.3 7.7-0.2 15.2-2.7 21.5-7.1 1.2-0.8 2.8-1 4.2-0.5 1.4 0.5 2.5 1.7 2.9 3.1 0.6 2.5 0.9 5 0.9 7.7 0 9-3.9 17.5-10.9 23.3-0.8 0.7-1.9 1-2.9 1zm-4.9-19.8q3.3 3.5 5.8 7.4c2.2-3.2 3.5-6.9 3.7-10.8q-4.6 2.2-9.5 3.4z"/>
				</g>
				<g id="&lt;Group&gt;">
					<path id="&lt;Compound Path&gt;" fill-rule="evenodd" class="s3" d="m40.2 284.7c-1.4 0-2.8-0.7-3.7-1.9-4.6-6.4-7-13.9-7-21.8 0-2.8 0.3-5.5 0.9-8.1 0.3-1.5 1.4-2.7 2.8-3.3 1.4-0.5 3-0.3 4.2 0.5 5.1 3.4 11 5.2 17.1 5.2 3 0 5.9-0.5 8.7-1.3 2.4-0.7 4.9 0.6 5.7 2.9 0.8 2.4-0.4 4.9-2.7 5.8-9.4 3.7-17.2 10.6-21.9 19.5-0.7 1.4-2.1 2.4-3.7 2.5q-0.2 0-0.4 0zm-1.5-23.5c0.1 3.4 0.7 6.7 1.9 9.8q2.9-3.9 6.6-7.2-4.4-0.8-8.5-2.6z"/>
				</g>
				<g id="&lt;Group&gt;">
					<path id="&lt;Path&gt;" class="s4" d="m159.2 126.3q-0.3-0.2-0.6-0.3c-8.4-11.9-22.2-19.7-37.9-19.7-5.2 0-10.1 0.9-14.8 2.5-5.5-5.6-13.1-9.1-21.6-9.1q-1.7 0.1-3.4 0.2c-9.4-12.8-16.4-33.1-7.1-63.6 0 0 4.6-4.7 4.6 3.1 0 16.9 15.7 32.5 29.9 39.1 20.8 9.7 49.8 22 50.9 47.8z"/>
					<path id="&lt;Compound Path&gt;" fill-rule="evenodd" class="s0" d="m159.2 134.3c-1.5 0-3-0.4-4.3-1.2l4.3-6.8-4.3 6.8c-1.2-0.6-2.1-1.4-2.8-2.5-7.2-10.1-19-16.2-31.4-16.2-4.2 0-8.3 0.7-12.2 2-3 1-6.2 0.2-8.4-2-4.2-4.2-9.8-6.6-15.8-6.6q-1.3 0-2.6 0.1c-2.9 0.3-5.6-0.9-7.2-3.2-9.7-13.1-19-36-8.4-70.8 0.3-1.3 1-2.4 2-3.3 2.7-2.8 7.3-5 12-3.1 2.9 1.2 6.4 4.3 6.4 11.9 0 13 13 26.1 25.2 31.8l2.8 1.3c21.7 10.1 51.5 23.8 52.8 53.4 0.1 3-1.5 5.8-4 7.3-1.3 0.8-2.7 1.1-4.1 1.1zm-74.1-42.6c8.4 0.2 16.3 3 22.8 8.1 7.6-1.8 15.7-2 23.4-0.5-7.4-4.7-15.9-8.6-23.6-12.2l-2.8-1.3c-10.1-4.7-20.7-13.1-27.4-23.7-0.3 11.1 2.3 21 7.6 29.6zm-14.8-53.1q0 0 0 0 0 0 0 0z"/>
				</g>
				<g id="&lt;Group&gt;">
					<path id="&lt;Path&gt;" class="s4" d="m214.6 88.6c0 0.1 0 0.2 0 0.3q-0.3 1.9-0.6 3.8-0.2 1-0.4 2-0.5 2.2-1.1 4.4-0.2 0.7-0.4 1.3-0.3 1-0.7 2-0.6 2-1.5 4-0.4 1-0.9 2-0.4 1-0.9 1.9 0 0.1-0.1 0.2 0 0 0 0.1c-1.1-0.1-2.2-0.2-3.3-0.2-16 0-29.9 8.8-37.3 21.7-2.5-2.2-5.2-4.2-8.2-5.8-0.4-9.2-4.3-16.7-10.1-22.9 0.1-6.4 1.3-13.5 4-21.1 4.7-13.4 13.8-24.6 24.7-33.8 12.1-10.2 21.8-22.4 24-39.9 0.1-0.6 0.9-0.8 1.1-0.2 3.5 9.8 16.2 48.3 11.7 80.2z"/>
					<path id="&lt;Compound Path&gt;" fill-rule="evenodd" class="s0" d="m167.4 140.2c-1.9 0-3.9-0.7-5.4-2.1-2-1.9-4.3-3.5-6.7-4.7-2.4-1.4-4-4-4.2-6.8-0.2-6.4-2.8-12.2-7.9-17.7-1.5-1.5-2.2-3.6-2.2-5.7 0.2-7.8 1.7-15.7 4.5-23.5 4.8-13.6 13.9-26.2 27.1-37.3 13-11 19.6-21.8 21.2-34.8 0.5-4 3.6-7.1 7.6-7.6 4-0.4 7.8 1.9 9.1 5.7 4 11.2 16.8 50.5 12.1 84q0 0.2 0 0.4-0.3 2.1-0.7 4.2c-0.2 0.8-0.3 1.5-0.5 2.2-0.3 1.5-0.7 3.1-1.1 4.7q-0.1 0.1-0.1 0.3l-0.2 0.5q-0.1 0.4-0.2 0.8-0.3 1.1-0.7 2.2c-0.5 1.3-1 2.8-1.7 4.5q-0.5 1.2-1 2.3c-0.3 0.6-0.6 1.2-0.9 1.8q-0.1 0.3-0.3 0.5c-1.4 2.9-4.5 4.8-7.9 4.5q-1.3-0.1-2.6-0.1c-12.5 0-24.1 6.7-30.2 17.6-1.2 2.1-3.4 3.6-5.8 4q-0.6 0.1-1.3 0.1zm-10.1-39.6c4.8 5.8 7.9 12.2 9.2 19 9.2-10.4 22.3-16.7 36.4-17.2q0.5-1.3 0.9-2.5 0.3-0.8 0.5-1.7 0.1-0.1 0.1-0.3l0.3-1q0.6-1.9 1-3.9c0.1-0.6 0.2-1.1 0.3-1.6 0.3-1.3 0.5-2.5 0.6-3.6q0-0.1 0.1-0.3 0-0.1 0-0.2c2.4-18-1-38.7-4.8-54.2-5.6 9.5-12.9 16.5-18.9 21.6-11 9.3-18.5 19.5-22.3 30.3-1.9 5.2-3 10.4-3.4 15.6zm38-89.5q0 0 0 0 0 0 0 0zm14.5-1.5q0 0 0 0 0 0 0 0z"/>
				</g>
				<g id="&lt;Group&gt;">
					<path id="&lt;Path&gt;" class="s4" d="m249.5 110.1c-7.4 3.3-16.2 5.9-25.5 4.9-4.9-2.4-10.3-4-16-4.4q0-0.1 0-0.1 0.1-0.1 0.1-0.2 0.5-0.9 0.9-1.9 0.5-1 0.9-2 0.9-2 1.5-4 0.4-1 0.7-2 0.2-0.6 0.4-1.3 0.6-2.2 1.1-4.4 0.2-1 0.4-2c0.2-1.3 0.5-2.7 0.6-4q0 0 0-0.1c6.6-5.5 15.3-10.6 26.7-14.2 27.1-8.5 36.1-18.3 39.1-24.2 0.6-1.2 2.3-1 2.5 0.4q0.1 0.6 0.2 1.3c2.9 24.7-10.9 48.2-33.6 58.2z"/>
					<path id="&lt;Compound Path&gt;" fill-rule="evenodd" class="s0" d="m228 123.3q-2.5 0-4.9-0.3-1.5-0.1-2.8-0.8c-4-2-8.4-3.3-12.9-3.6-4.2-0.3-7.4-3.8-7.4-8q0-1.6 0.5-3 0.1-0.3 0.2-0.5 0.1-0.3 0.3-0.6 0.3-0.6 0.6-1.3c0.4-0.7 0.7-1.3 0.9-1.9q0.7-1.7 1.3-3.4 0.3-0.8 0.5-1.7 0.1-0.2 0.1-0.3l0.3-1q0.6-1.9 1-3.9c0.1-0.6 0.2-1.1 0.3-1.6 0.3-1.4 0.5-2.6 0.6-3.8q0.2-1.1 0.7-2.2 0-0.2 0.1-0.3c0.5-1 1.2-1.9 2.1-2.6 8.1-6.9 18-12.2 29.4-15.8 25.9-8.1 32.6-16.8 34.3-20.1 1.9-3.8 5.9-5.8 9.9-5.1 4.1 0.6 7.2 3.8 7.8 7.9 0.1 0.6 0.1 1.1 0.2 1.6 3.3 27.8-12.5 55.1-38.4 66.5-8.8 3.9-17 5.8-24.7 5.8zm-1.8-16.2c5.9 0.4 12.5-1 20-4.4 14.7-6.4 25-19.6 28.2-34.6-7.6 5.3-17.8 10-30.7 14-8.2 2.6-15.5 6.3-21.6 10.9q-0.1 0.6-0.2 1.3c-0.2 0.8-0.3 1.5-0.5 2.2-0.3 1.5-0.7 3.1-1.1 4.7q-0.1 0.1-0.1 0.3l-0.2 0.5q-0.1 0.4-0.2 0.8-0.3 0.9-0.5 1.7 3.5 1 6.9 2.6z"/>
				</g>
			</g>
		</g>
	</g>
</svg>