<svg version="1.2" xmlns="http://www.w3.org/2000/svg" viewBox="0 0 392 433" width="392" height="433">
	<title>Artwork</title>
	<style>
		.s0 { fill: #ffffff } 
		.s1 { fill: #91b708 } 
		.s2 { fill: #f4ece1 } 
		.s3 { fill: #231f20 } 
		.s4 { fill: #000000 } 
	</style>
	<g id="Artwork">
		<g id="&lt;Group&gt;">
			<g id="-e-&lt;Group&gt;">
				<g id="&lt;Group&gt;">
					<g id="&lt;Group&gt;">
						<path id="&lt;Path&gt;" class="s0" d="m384 216.3c0 111.5-78.6 202.7-177.6 208.8q-5.3 0.4-10.6 0.4c-17.9 0-35.2-2.8-51.5-7.9q-0.1 0-0.1-0.1-8.8-2.8-17.2-6.4-0.5-0.2-0.9-0.4 0 0-0.1-0.1c-69.4-30.7-118.5-106.2-118.5-194.3 0-40.5 4.8-72.5 13.4-97.8q0-0.1 0-0.1 1.1-3.1 2.8-5.7 1.8-2.9 4.4-5.3 1.6-1.5 3.4-2.7l129.5-86.3q1-0.6 2-1.3 3.1-1.8 6.2-3.3 1.8-0.8 3.6-1.5 2.5-1 5-1.8 1.9-0.5 3.9-1c4.6-1 9.3-1.6 14.1-1.6q1.3 0 2.6 0.1h0.1q1.3 0 2.6 0.1 1.3 0.2 2.5 0.3 0.2 0 0.3 0.1 1.3 0.1 2.5 0.3 0.8 0.2 1.6 0.3 0.8 0.2 1.6 0.4 0.8 0.2 1.6 0.3 0.7 0.2 1.5 0.5 0.8 0.2 1.6 0.4 0.7 0.2 1.5 0.5 0.4 0.1 0.8 0.3 1.3 0.4 2.5 0.9 1.3 0.5 2.6 1.1 0.8 0.4 1.6 0.8 0.8 0.4 1.5 0.7 0.7 0.4 1.4 0.8 0.5 0.3 0.9 0.5 0.7 0.4 1.4 0.8 1 0.6 2 1.3l37.6 25q0 0 0.5 0.4l91.4 60.9c3.1 2.1 5.8 4.8 7.8 7.9v0.1q1.8 2.6 2.8 5.7 0 0 0 0.1 0.1 0.1 0.1 0.2 0.4 1.2 0.8 2.4c8 24.9 12.5 56.1 12.5 95.2z"/>
					</g>
					<g id="&lt;Group&gt;">
						<path id="&lt;Path&gt;" class="s1" d="m391.2 216.3c0 91.7-51.7 170.7-125.2 202-15.6 4.7-32 7.2-48.9 7.2-3.6 0-7.1-0.2-10.7-0.4-12.1-0.7-24-2.8-35.5-6q-10.9-3-21.3-7.5c-70.6-30.2-120.7-106.3-120.7-195.3 0-26.4 2-49.2 5.8-68.9q0.7-3.7 1.5-7.3 0.2-0.7 0.3-1.3 1.1-4.5 2.3-8.8 1.6-6 3.5-11.5 0-0.1 0-0.1 1-3.1 2.8-5.7c2-3.2 4.7-5.9 7.8-8l129.5-86.3q2-1.3 4-2.4 0-0.1 0.1-0.1c6.3-3.5 13-5.9 19.9-7.1 7.5-1.3 15.1-1.2 22.5 0.2q0.4 0.2 0.8 0.4 0.6 0.3 1.2 0.7 0.7 0.4 1.3 0.8 1.2 0.7 2.3 1.5l37.8 25.1 91.7 61.1c4 2.7 7.4 6.1 9.9 10.1l1.1 1.6 0.1 0.2v0.2q1.3 2.4 2.2 4.9l0.3 0.9q0.4 1.1 0.8 2.3c8.6 26.8 12.8 58.6 12.8 97.5z"/>
					</g>
					<g id="&lt;Group&gt;">
						<path id="&lt;Path&gt;" class="s2" d="m375 110.3q0 0.1-0.1 0.1c-1.3 3-2.7 5.7-4.2 8.3q-2.4 4.3-5.1 7.9c-2.7 3.7-5.5 7-8.4 10 0 0-0.1 0.1-0.1 0.1-2.4 3-5.3 6-8.9 8.9q-3.1 2.4-6.8 4.7-1 0.6-1.9 1.1c-0.4 0.2-0.7 0.4-1 0.5-0.3 0.2-0.7 0.4-1 0.6q-3 1.5-6.3 2.9-0.2 0-0.3 0.1-0.3 0.1-0.5 0.2c-0.1 0-0.2 0.1-0.3 0.1q-0.1 0.1-0.3 0.1l2 1.4 2.5 1.9q-0.9 0.2-1.9 0.3c-6.8 1.1-14.5 1.7-23.1 1.7q-0.6 0.1-1.2 0.2-1.2 0.2-2.3 0.3c-1.2 0.2-2.3 0.3-3.5 0.4q-0.4 0-0.7 0.1-0.8 0.1-1.6 0.1-2 0.1-4.1 0.3c-0.7 0-1.4 0-2.1 0.1-2.1 0-4.2 0.1-6.5 0.1q0 0-0.2 0.2c0 0-0.1 0-0.1 0q-0.1 0.1-0.1 0.1-0.5 0.4-1.6 1.1-0.3 0.2-0.6 0.4-0.1 0.1-0.3 0.2-1.1 0.8-2.6 1.7-0.5 0.3-1 0.6-0.5 0.3-1.1 0.6c0 0.1-0.2 0.1-0.3 0.2q-0.3 0.2-0.7 0.4c-0.4 0.2-0.8 0.4-1.2 0.6-0.3 0.2-0.7 0.4-1.1 0.6-0.2 0.1-0.4 0.3-0.6 0.4q-0.1 0.1-0.2 0.1c-0.2 0.1-0.3 0.1-0.5 0.2q-0.6 0.4-1.2 0.6-0.8 0.4-1.5 0.8c-0.9 0.4-1.8 0.8-2.8 1.3q-0.7 0.2-1.3 0.5-0.8 0.4-1.6 0.7-0.8 0.4-1.7 0.6-0.7 0.3-1.5 0.6c-1.8 0.7-3.7 1.3-5.6 1.9q-0.8 0.2-1.7 0.5-0.4 0.1-0.8 0.2c-0.3 0.1-0.6 0.2-1 0.2q-1.3 0.4-2.7 0.7c-0.6 0.1-1.2 0.2-1.9 0.4q-1.5 0.3-2.9 0.5-0.2 0.1-0.5 0.1 0 0 0 0c-12.3 1.8-26.3 0.9-40.1-6.3q0 0 0 0l-1.8-1q-0.6-0.3-1.1-0.6c-0.5-0.3-1-0.6-1.4-0.9-0.6-0.3-1.2-0.7-1.8-1.1q-0.4-0.3-0.9-0.6c-0.6-0.4-1.2-0.9-1.8-1.3-0.6-0.4-1.2-0.8-1.8-1.3-1.3 1-2.6 1.9-4 2.8-0.4 0.3-0.9 0.6-1.3 0.8q-0.7 0.4-1.3 0.9c-0.5 0.2-0.9 0.5-1.4 0.7q-0.8 0.5-1.6 0.9-0.6 0.3-1.2 0.6-0.6 0.4-1.2 0.6-0.8 0.4-1.7 0.8-1.1 0.5-2.3 1c-0.6 0.2-1.1 0.5-1.7 0.7q-1.1 0.4-2.3 0.8c-0.6 0.2-1.1 0.4-1.7 0.5q-1.1 0.4-2.3 0.7c-0.5 0.1-1.1 0.3-1.6 0.4q-1.2 0.3-2.4 0.5c-0.5 0.1-1 0.2-1.5 0.3-0.2 0-0.4 0-0.6 0.1 0 0 0 0 0 0-15.7 2.5-30.2-1.1-41.1-5.6h-0.1c-1.2-0.6-2.5-1.1-3.7-1.7q0 0 0 0-1.8-0.8-3.4-1.6v-0.1q-2.5-1.2-4.5-2.4c-2.5-1.4-4.5-2.7-5.9-3.6q-0.6-0.5-1.1-0.8c-1.1-0.8-1.6-1.2-1.6-1.2q-7.8 0-14.6-0.7l-2.3-4.8c0 0-9 1.8-20 0.4-10.7-1.3-23.1-5.7-31.1-17.6q0.2-0.7 0.3-1.3 1.1-4.5 2.3-8.8 1.6-6 3.5-11.5 0-0.1 0-0.1 1-3.1 2.8-5.7c2-3.2 4.7-5.9 7.8-8l129.5-86.3q2-1.3 4-2.4 0-0.1 0.1-0.1c6.3-3.5 13-5.9 19.9-7.1 7.5-1.3 15.1-1.2 22.5 0.2q0.4 0.2 0.8 0.4 0.6 0.3 1.2 0.7 0.7 0.4 1.3 0.8 1.2 0.7 2.3 1.5l37.8 25.1 91.7 61.1c4 2.7 7.4 6.1 9.9 10.1z"/>
					</g>
					<g id="&lt;Group&gt;">
						<path id="&lt;Compound Path&gt;" fill-rule="evenodd" class="s3" d="m391.2 216.3c0 91.7-51.7 170.7-125.2 202-18.5 7.9-38.3 12.8-59.1 14.1-3.7 0.2-7.4 0.3-11.2 0.3-17.8 0-35.5-2.6-52.5-7.9l-2.9-0.9c-5.4-1.8-10.7-3.8-15.7-6l-2.8-1.2c-73.9-33.4-121.5-111.9-121.5-200.4 0-40.2 4.5-73 13.7-100.2l0.2-0.5q0.8-2.3 2-4.5 0.6-1.2 1.4-2.3c1.5-2.5 3.4-4.7 5.5-6.7 1.3-1.2 2.8-2.4 4.3-3.4l129.6-86.3q2.3-1.5 4.6-2.8 1-0.6 2-1.1 0.6-0.4 1.2-0.6 0.7-0.3 1.3-0.7 1-0.4 2-0.9c0.7-0.3 1.4-0.6 2.1-0.8q0.6-0.3 1.3-0.5 1.3-0.5 2.6-0.9c1.2-0.4 2.5-0.8 3.7-1.1q0.6-0.2 1.1-0.3 0.6-0.1 1.2-0.3 6.7-1.5 13.6-1.7c1.2 0 2.3-0.1 3.5 0 0.4 0 0.9 0 1.3 0q0.6 0 1.2 0.1 1 0 2 0.1 0.8 0.1 1.5 0.2 0.9 0 1.9 0.2 1.3 0.2 2.6 0.4 0.8 0.1 1.6 0.3 1 0.2 1.9 0.4 0 0 0.1 0l2.1 0.5c0.2 0.1 0.4 0.1 0.6 0.2q0.4 0.1 0.8 0.2 0.1 0 0.1 0 0.1 0.1 0.2 0.1 0.8 0.2 1.6 0.5 0.6 0.2 1.3 0.4 0.6 0.1 1.2 0.4 0.6 0.2 1.3 0.5 0.7 0.2 1.3 0.5 1.4 0.5 2.8 1.2 0.7 0.3 1.4 0.6 1.5 0.7 2.9 1.5 0.4 0.2 0.8 0.4 0.6 0.3 1.2 0.7 0.7 0.4 1.3 0.8 1.2 0.7 2.3 1.5l37.8 25.1 91.7 61.1c4 2.7 7.4 6.1 9.9 10.1l1 1.7 0.2 0.3q1.3 2.4 2.2 4.9l0.3 0.9q0.4 1.1 0.8 2.3c8.6 26.8 12.8 58.6 12.8 97.5zm-185.2 201.6c95.7-6 170.7-94.5 170.7-201.6 0-31.8-3-59.4-9-82.4q-1-3.7-2.1-7.3-0.5-1.7-1-3.3c-0.2-0.6-0.5-1.3-0.7-2l-0.2-0.6c-0.5-1.4-1.1-2.8-2-4.1l-0.3-0.6q-0.6-0.8-1.2-1.5-0.5-0.6-1-1.1-0.4-0.4-0.8-0.7-0.2-0.3-0.5-0.5-0.3-0.3-0.7-0.5-0.6-0.5-1.3-1l-66.9-44.6-62.6-41.7q-0.8-0.5-1.7-1.1-0.6-0.3-1.2-0.7-0.8-0.4-1.5-0.8c-0.5-0.3-1.1-0.6-1.6-0.8q-0.2-0.1-0.4-0.2-0.6-0.3-1.1-0.6-1.7-0.8-3.5-1.4-1.4-0.6-2.7-1-0.6-0.2-1.2-0.3-2.7-0.9-5.5-1.3l-0.9-0.2q-0.5-0.1-1.1-0.2-0.5-0.1-1.1-0.2-1.2-0.1-2.5-0.2-1-0.1-2.1-0.2h-0.2c-0.4 0-0.8 0-1.2 0-3.6-0.1-7.1 0.2-10.5 0.8q-0.8 0.1-1.6 0.3c-0.9 0.1-1.8 0.3-2.7 0.6q-0.6 0.1-1.2 0.3c-0.7 0.2-1.4 0.4-2.2 0.6q-0.4 0.2-0.9 0.3-0.4 0.2-0.9 0.4-0.7 0.2-1.3 0.5-0.7 0.2-1.3 0.5-0.6 0.2-1.2 0.5-0.4 0.2-0.8 0.4-1.4 0.6-2.8 1.4-0.7 0.3-1.3 0.7-0.7 0.4-1.4 0.8-0.9 0.6-1.7 1.1l-129.5 86.3c-0.9 0.6-1.8 1.3-2.6 2.1-0.4 0.3-0.7 0.6-1 1q-0.3 0.3-0.6 0.6-0.9 1-1.6 2.2c-0.9 1.3-1.5 2.7-2 4.1l-0.2 0.6q-2 6-3.7 12.5c-6 23-9.1 50.6-9.1 82.5 0 82.7 44.2 156 112.8 187.1l2.6 1.2c5.3 2.2 10.7 4.3 16.2 6l1.1 0.3q1 0.4 2.1 0.7c11.4 3.3 23.2 5.4 35.1 6.2q5.5 0.4 11 0.4c3.4 0 6.9-0.1 10.3-0.3z"/>
					</g>
					<g id="&lt;Group&gt;">
						<path id="&lt;Compound Path&gt;" fill-rule="evenodd" class="s3" d="m375.1 110.5v0.2 2.5c-0.1 0.2-0.4 4.5-2.7 10.7v0.1c-1.1 3-2.6 6.3-4.7 9.9-5.9 9.9-16.2 21.2-34.5 28.4-6.5 2.7-14.1 4.8-22.8 6.1-6.5 1-13.4 1.6-20.7 1.7-5.6 3.8-21.8 13.8-42.2 16.9q-6.1 0.9-11.9 0.9c-11.6 0-22.6-2.7-32.7-8q-3.7-1.9-7.2-4.3c-9.1 5.9-18.7 9.7-28.9 11.3-31.1 5-57.5-11.5-65-16.8-4.6-0.1-8.9-0.3-13-0.8-8.5-0.8-16.5-2.3-23.7-4.6-12.2-3.9-22.3-9.7-30.4-17.3q-4.1-3.9-7.4-8.5c-1.3-1.7-2.4-3.4-3.4-5.1-2.1-3.6-3.7-7-4.8-9.9-2.2-6-2.6-10.2-2.6-10.5l-0.3-2.3v-0.2l1.4-2.1c1.5-2.5 3.4-4.7 5.5-6.7 1.3-1.2 2.8-2.4 4.3-3.4l129.6-86.3q2.3-1.5 4.6-2.8 1-0.6 2-1.1 0.6-0.4 1.2-0.6 0.7-0.3 1.3-0.7 1-0.4 2-0.9c0.7-0.3 1.4-0.6 2.1-0.8q0.6-0.3 1.3-0.5 1.3-0.5 2.6-0.9c1.2-0.4 2.5-0.8 3.7-1.1q0.6-0.2 1.1-0.3c4.8-1.2 9.8-1.9 14.8-2 1.2 0 2.3-0.1 3.5 0 0.4 0 0.9 0 1.3 0q0.6 0 1.2 0.1 1 0 2 0.1 0.8 0.1 1.5 0.2 0.9 0 1.9 0.2 1.3 0.1 2.6 0.4 0 0 0 0 0.8 0.1 1.6 0.3 1 0.2 1.9 0.4 0 0 0.1 0l2.1 0.5c0.2 0.1 0.4 0.1 0.6 0.2q0.4 0.1 0.8 0.2 0.1 0 0.1 0 0.1 0.1 0.2 0.1 0.8 0.2 1.6 0.5 0.6 0.2 1.3 0.4 0.6 0.1 1.2 0.4 0.6 0.2 1.3 0.5 0.7 0.2 1.3 0.5 1.4 0.5 2.8 1.2 0.7 0.3 1.4 0.6 1.5 0.7 2.9 1.5 0.4 0.2 0.8 0.4 0.6 0.3 1.2 0.7 0.7 0.4 1.3 0.8 1.2 0.7 2.3 1.5l37.8 25.1 91.7 61.1c4 2.7 7.4 6.1 9.9 10.1l1.1 1.6zm-336.3 19.5q0.1 0.2 0.2 0.3c6.9 9.4 17.1 16.3 30.4 20.5 6.3 2 13.3 3.4 20.8 4.1 4.4 0.4 9 0.6 14 0.6h2.5l2 1.6c0.2 0.2 26.1 20.3 55.8 15.5 9.5-1.5 18.5-5.4 26.9-11.7l4.4-3.3 4.4 3.4c3 2.4 6.2 4.4 9.4 6 10.8 5.7 22.8 7.6 35.7 5.6 21.1-3.2 37.4-15.4 37.6-15.5l1.9-1.5 2.5-0.1c7.4 0 14.5-0.4 20.9-1.4 8.1-1.3 14.9-3.2 20.7-5.6 24-9.9 29.9-27.5 31.3-34q-0.5-0.5-1-1.1-0.4-0.4-0.8-0.7-0.2-0.3-0.5-0.4-0.3-0.3-0.7-0.6-0.6-0.5-1.3-1l-66.9-44.6-62.6-41.6q-0.9-0.6-1.7-1.1-0.6-0.4-1.2-0.7-0.8-0.5-1.5-0.9c-0.6-0.3-1.1-0.6-1.6-0.8q-0.2-0.1-0.4-0.2-0.6-0.3-1.1-0.6-1.7-0.8-3.5-1.4-1.4-0.5-2.8-1-0.5-0.2-1.1-0.3-2.7-0.8-5.5-1.3-0.4-0.1-0.8-0.2-0.6-0.1-1.2-0.2-0.5-0.1-1.1-0.1-1.2-0.2-2.5-0.3-1-0.1-2.1-0.2h-0.2c-0.4 0-0.8 0-1.2 0-3.5-0.1-7 0.2-10.5 0.8q-0.8 0.1-1.6 0.3c-0.9 0.1-1.8 0.4-2.8 0.6q-0.5 0.1-1.1 0.3c-0.7 0.2-1.5 0.4-2.2 0.7q-0.4 0.1-0.9 0.3-0.4 0.1-0.9 0.3-1.3 0.4-2.6 1-0.6 0.3-1.2 0.5-0.4 0.2-0.8 0.4-1.4 0.6-2.8 1.4-0.7 0.3-1.3 0.8-0.7 0.3-1.4 0.8-0.9 0.5-1.8 1.1l-129.4 86.2c-0.9 0.6-1.9 1.4-2.6 2.1-0.4 0.3-0.7 0.6-1.1 1q-0.2 0.3-0.5 0.6c0.8 3.3 2.8 9.3 7.4 15.6z"/>
					</g>
				</g>
				<g id="&lt;Group&gt;" style="opacity: .1;mix-blend-mode: multiply">
					<path id="&lt;Path&gt;" class="s4" d="m391.2 216.3c0 91.7-51.7 170.7-125.2 202-15.6 4.7-32 7.2-48.9 7.2-3.6 0-7.1-0.2-10.7-0.4-3.5 0.2-7 0.4-10.7 0.4-17.8 0-35.1-2.8-51.4-7.9 7.8 1.5 16.8 2.1 26.6 1.5 4.6-0.2 9.2-0.7 13.8-1.3 60.4-8 120.1-46.9 145.9-102.3 21-45 17.7-101.4 2.6-153.2q-0.3-1.4-0.8-2.8-0.3-1.1-0.6-2.2-0.3-0.9-0.6-1.9-1.1-3.5-2.3-6.9c-9.1-27.2-21.3-52.7-34.7-74-1.7-2.7-3.4-5.6-5.2-8.4-4.8-7.5-10-14.9-17-20q0-0.1-0.1-0.1-1.6-1.2-3.3-2.2-0.3-0.2-0.4-0.3-0.1 0-0.1-0.1l4.2-5.9 91.7 61.1c4 2.7 7.4 6.1 9.9 10.1l1.1 1.6 0.1 0.2v0.2q1.3 2.4 2.2 4.9l0.3 0.9q0.4 1.1 0.8 2.3c8.6 26.8 12.8 58.6 12.8 97.5z"/>
				</g>
			</g>
		</g>
	</g>
</svg>