<svg version="1.2" xmlns="http://www.w3.org/2000/svg" viewBox="0 0 400 442" width="400" height="442">
	<title>Artwork</title>
	<style>
		.s0 { fill: #50c42b } 
		.s1 { fill: #009845 } 
		.s2 { fill: #ec1c24 } 
		.s3 { fill: #231f20 } 
		.s4 { fill: #000000 } 
		.s5 { fill: #ffffff } 
		.s6 { mix-blend-mode: multiply;fill: #be1e2d } 
		.s7 { fill: #333333 } 
	</style>
	<g id="Artwork">
		<g id="&lt;Group&gt;">
			<g id="-e-&lt;Group&gt;">
				<g id="&lt;Group&gt;">
					<g id="&lt;Group&gt;">
						<path id="&lt;Path&gt;" class="s0" d="m391.6 311.4q0 1.8-0.1 3.5-0.1 1.8-0.4 3.5-0.3 1.8-0.7 3.5-0.4 1.8-0.9 3.5c-1.5 4.5-3.6 8.9-6.4 12.9-12.4 17.6-27.3 33.3-44.1 46.6q-8 6.4-16.6 12c-10 6.6-20.7 12.4-31.8 17.3-0.3 0.1-0.6 0.3-0.9 0.4q-2.8 1.3-5.8 2.4 0 0 0 0-2.9 1.2-5.8 2.3-5.9 2.2-11.9 4.1-2.9 0.9-5.9 1.7c-1.5 0.4-3 0.8-4.6 1.2q-1.4 0.4-2.9 0.7 0 0.1-0.1 0.1-2.5 0.6-4.9 1.1-2.7 0.6-5.4 1.1-3.8 0.7-7.6 1.3-2.8 0.4-5.6 0.8c-2.7 0.4-5.5 0.7-8.2 0.9q-10.4 1-20.9 1-10.6 0-20.9-1c-2.8-0.2-5.5-0.5-8.3-0.9-21.2-2.8-41.5-8.5-60.5-16.8-0.3-0.1-0.6-0.3-0.9-0.4-11.1-4.9-21.7-10.7-31.8-17.3q-2.1-1.4-4.2-2.8c0-0.1 0-0.1-0.1-0.1q-6.3-4.3-12.3-9.1c-14.1-11.2-26.8-24.1-37.9-38.3q-3.2-4.1-6.1-8.3-0.7-1-1.4-2.1c-1.5-2.4-2.8-4.9-3.8-7.5q-0.7-1.7-1.2-3.4-0.5-1.7-0.9-3.4c-0.2-0.6-0.3-1.1-0.4-1.7q-0.3-1.8-0.6-3.5-0.1-0.9-0.1-1.8-0.3-2.8-0.1-5.7 0-0.8 0.1-1.6 0.1-0.9 0.2-1.8c0.1-0.7 0.2-1.4 0.3-2.1 0-0.2 0.1-0.4 0.1-0.6q0.1-0.4 0.2-0.9 0.1-0.9 0.4-1.9 0.3-1.3 0.7-2.6 0 0 0-0.1c0.3-0.7 0.5-1.5 0.8-2.3q0.1-0.3 0.2-0.6 0.5-1.2 1-2.3 0.5-1 1-2 0.1-0.3 0.3-0.6 0.6-1.1 1.2-2.1l20.6-34.2 139.9-231.8c3.3-5.5 8-9.3 13.3-11.5 6.9-3 14.8-3.1 21.8-0.3 5.5 2.2 10.4 6.1 13.8 11.8l139.9 231.9 20.6 34.1q0.6 0.9 1.1 1.8 0.7 1.3 1.3 2.6 0.6 1.2 1 2.5 0.4 1 0.8 2.1 0.2 0.5 0.3 1 0.1 0.2 0.1 0.4 0.1 0.1 0.1 0.2 0.3 1 0.6 1.9 0.2 0.9 0.4 1.9 0 0 0 0.1 0.1 0.7 0.2 1.3 0.3 1.2 0.4 2.5 0.2 1.1 0.2 2.3 0 0.4 0.1 0.8 0 1.2 0 2.3z"/>
					</g>
					<g id="&lt;Group&gt;">
						<path id="&lt;Path&gt;" class="s1" d="m391.6 311.4q0 1.8-0.1 3.5-0.1 1.8-0.4 3.5-0.3 1.8-0.7 3.5-0.4 1.8-0.9 3.5c-1.5 4.5-3.6 8.9-6.4 12.9-12.4 17.6-27.3 33.3-44.1 46.6q-8 6.4-16.6 12c-10 6.6-20.7 12.4-31.8 17.3-0.3 0.1-0.6 0.3-0.9 0.4q-2.8 1.3-5.8 2.4 0 0 0 0-2.9 1.2-5.8 2.3-5.9 2.2-11.9 4.1-2.9 0.9-5.9 1.7c-1.5 0.4-3 0.8-4.6 1.2q-1.4 0.4-2.9 0.7 0 0.1-0.1 0.1-2.5 0.6-4.9 1.1-2.7 0.6-5.4 1.1-3.8 0.7-7.6 1.3-2.8 0.4-5.6 0.8c-2.7 0.4-5.5 0.7-8.2 0.9q-10.4 1-20.9 1-10.6 0-20.9-1c-2.8-0.2-5.5-0.5-8.3-0.9-21.2-2.8-41.5-8.5-60.5-16.8-0.3-0.1-0.6-0.3-0.9-0.4-11.1-4.9-21.7-10.7-31.8-17.3q-2.1-1.4-4.2-2.8c0-0.1 0-0.1-0.1-0.1q-6.3-4.3-12.3-9.1c-14.1-11.2-26.8-24.1-37.9-38.3q-3.2-4.1-6.1-8.3-0.7-1-1.4-2.1c-1.5-2.4-2.8-4.9-3.8-7.5q-0.7-1.7-1.2-3.4-0.5-1.7-0.9-3.4c-0.2-0.6-0.3-1.1-0.4-1.7q-0.3-1.8-0.6-3.5-0.1-0.9-0.1-1.8-0.3-2.8-0.1-5.7 0-0.8 0.1-1.6 0.1-0.9 0.2-1.8c0.1-0.7 0.2-1.4 0.3-2.1 0-0.2 0.1-0.4 0.1-0.6q0.1-0.4 0.2-0.9 0.1-0.9 0.4-1.9 0.3-1.3 0.7-2.6 0 0 0-0.1c0.3-0.7 0.5-1.5 0.8-2.3q0.1-0.3 0.2-0.6 0.5-1.2 1-2.3 0.5-1 1-2 0.1-0.3 0.3-0.6c4.2 10.8 8.9 21.2 14.2 30.5 1.3 2.5 2.7 4.9 4.1 7.2 10.5 16.6 25 30.5 40.4 42.7q7.4 5.9 15.2 11c9.3 6 19 11.4 29.2 15.8 0.3 0.2 0.6 0.3 0.8 0.4 13 5.7 26.7 10.1 40.9 13q7.2 1.5 14.6 2.4 3.8 0.6 7.6 0.9 9.5 0.9 19.2 0.9 9.7 0 19.1-0.9 3.8-0.3 7.6-0.9c19.5-2.5 38.1-7.7 55.5-15.4 0.3-0.1 0.5-0.2 0.8-0.4 10.2-4.4 20-9.7 29.2-15.8q7.9-5.1 15.2-11c15.5-12.2 29.1-26.6 40.4-42.7 0 0 10.4-14.1 18.2-38q0.7 1.3 1.3 2.6 0.6 1.2 1 2.5 0.4 1 0.8 2.1 0.2 0.5 0.3 1 0.1 0.2 0.1 0.4 0.1 0.1 0.1 0.2 0.3 1 0.6 1.9 0.2 0.9 0.4 1.9 0 0 0 0.1 0.1 0.7 0.2 1.3 0.3 1.2 0.4 2.5 0.2 1.1 0.2 2.3 0 0.4 0.1 0.8 0 1.2 0 2.3z"/>
					</g>
					<g id="&lt;Group&gt;">
						<path id="&lt;Path&gt;" class="s2" d="m364.4 253.6c-3.1 11.5-7.4 22.5-12.7 32.9q-1.3 2.6-2.7 5.1c-10.1 18.3-23.5 34.4-39.3 47.7q-1.9 1.6-3.9 3.2-6.1 4.8-12.6 9.1c-7.7 5-15.8 9.4-24.2 13.1-0.3 0.2-0.5 0.2-0.7 0.4-14.4 6.3-29.9 10.6-46.1 12.7-2.1 0.3-4.1 0.6-6.2 0.7q-7.9 0.8-15.9 0.8-8.1 0-15.9-0.8c-2.2-0.1-4.2-0.4-6.3-0.7-16.2-2.1-31.6-6.5-46.1-12.7-0.2-0.2-0.4-0.2-0.7-0.4-8.4-3.7-16.5-8.1-24.1-13.1q-6.6-4.3-12.7-9.1c-19-15.1-34.7-34.2-45.8-56q-1.7-3.2-3.2-6.4-5.9-12.8-9.6-26.6l139.9-231.8c3.3-5.5 8-9.3 13.3-11.5 6.9-3 14.8-3.1 21.8-0.3 5.5 2.2 10.4 6.1 13.8 11.8z"/>
					</g>
					<g id="&lt;Group&gt;">
						<g id="&lt;Group&gt;">
							<path id="&lt;Compound Path&gt;" fill-rule="evenodd" class="s3" d="m200.1 387.2c-5.7 0-11.3-0.2-16.7-0.8-2.3-0.2-4.6-0.4-6.5-0.7-16.6-2.2-32.8-6.7-48.2-13.4l-0.4-0.2q-0.2 0-0.5-0.2c-8.5-3.7-16.9-8.3-25.2-13.7-3.7-2.4-7.4-5-11-7.8l-2.2-1.7c-19.9-15.8-36.5-36.1-48-58.6-1.3-2.6-2.4-4.7-3.3-6.8-4.1-8.8-7.5-18.2-10-27.7l-0.9-3.3 141.6-234.7c4.1-6.7 9.9-11.8 17-14.7 8.8-3.8 19-3.9 27.9-0.3 7.4 2.9 13.5 8.1 17.6 15l141.7 234.8-0.9 3.2c-3.2 11.9-7.7 23.5-13.4 34.5q-1.3 2.7-2.8 5.4c-10.5 19-24.4 35.8-41.1 49.9-1.3 1.1-2.7 2.2-4.1 3.3l-2.2 1.7c-3.6 2.8-7.3 5.4-11 7.8-8 5.3-16.5 9.9-25.2 13.7q-0.3 0.2-0.6 0.3l-0.2 0.1c-15.4 6.7-31.6 11.2-48.2 13.4-2 0.3-4.3 0.5-6.7 0.7-5.2 0.5-10.8 0.8-16.5 0.8zm-65-29.4c14.1 6.2 28.8 10.2 43.8 12.2 2 0.2 3.9 0.5 5.9 0.6 10.1 1 20.7 1 30.4 0 2.1-0.1 4.1-0.4 6-0.6 15.1-2 29.8-6.1 43.8-12.1q0.3-0.2 0.6-0.3l0.2-0.1c7.9-3.5 15.6-7.7 23-12.6 4.1-2.6 8.1-5.5 12.1-8.6l2.1-1.8q0.8-0.6 1.5-1.2c15.3-12.9 27.9-28.2 37.5-45.5q1.4-2.5 2.6-4.9c4.7-9.1 8.4-18.5 11.3-28.2l-138.1-228.9c-2.4-3.9-5.8-6.8-10-8.5-5-2-10.8-1.9-15.9 0.2-3.9 1.6-7.2 4.5-9.5 8.3l-138.1 228.9c2.2 7.6 4.9 15 8.2 22 0.9 1.9 1.8 3.8 3 6.2 10.2 19.9 24.7 37.9 42.2 52.1l1.6 1.3c3.9 3.1 7.9 6 12 8.6 7.5 5 15.3 9.2 23 12.6l0.4 0.2q0.2 0 0.4 0.1z"/>
						</g>
						<g id="&lt;Group&gt;">
							<path id="&lt;Compound Path&gt;" fill-rule="evenodd" class="s3" d="m200.1 387.2c-5.7 0-11.3-0.2-16.7-0.8-2.3-0.2-4.6-0.4-6.5-0.7-16.6-2.2-32.8-6.7-48.2-13.4l-0.4-0.2q-0.2 0-0.5-0.2c-8.5-3.7-16.9-8.3-25.2-13.7-3.7-2.4-7.4-5-11-7.8l-2.2-1.7c-19.9-15.8-36.5-36.1-48-58.6-1.3-2.6-2.4-4.7-3.3-6.8-4.1-8.8-7.5-18.2-10-27.7l-0.9-3.3 141.6-234.7c4.1-6.7 9.9-11.8 17-14.7 8.8-3.8 19-3.9 27.9-0.3 7.4 2.9 13.5 8.1 17.6 15l141.7 234.8-0.9 3.2c-3.2 11.9-7.7 23.5-13.4 34.5q-1.3 2.7-2.8 5.4c-10.5 19-24.4 35.8-41.1 49.9-1.3 1.1-2.7 2.2-4.1 3.3l-2.2 1.7c-3.6 2.8-7.3 5.4-11 7.8-8 5.3-16.5 9.9-25.2 13.7q-0.3 0.2-0.6 0.3l-0.2 0.1c-15.4 6.7-31.6 11.2-48.2 13.4-2 0.3-4.3 0.5-6.7 0.7-5.2 0.5-10.8 0.8-16.5 0.8zm-65-29.4c14.1 6.2 28.8 10.2 43.8 12.2 2 0.2 3.9 0.5 5.9 0.6 10.1 1 20.7 1 30.4 0 2.1-0.1 4.1-0.4 6-0.6 15.1-2 29.8-6.1 43.8-12.1q0.3-0.2 0.6-0.3l0.2-0.1c7.9-3.5 15.6-7.7 23-12.6 4.1-2.6 8.1-5.5 12.1-8.6l2.1-1.8q0.8-0.6 1.5-1.2c15.3-12.9 27.9-28.2 37.5-45.5q1.4-2.5 2.6-4.9c4.7-9.1 8.4-18.5 11.3-28.2l-138.1-228.9c-2.4-3.9-5.8-6.8-10-8.5-5-2-10.8-1.9-15.9 0.2-3.9 1.6-7.2 4.5-9.5 8.3l-138.1 228.9c2.2 7.6 4.9 15 8.2 22 0.9 1.9 1.8 3.8 3 6.2 10.2 19.9 24.7 37.9 42.2 52.1l1.6 1.3c3.9 3.1 7.9 6 12 8.6 7.5 5 15.3 9.2 23 12.6l0.4 0.2q0.2 0 0.4 0.1z"/>
						</g>
						<g id="&lt;Group&gt;">
							<path id="&lt;Compound Path&gt;" fill-rule="evenodd" class="s3" d="m200.1 387.2c-5.7 0-11.3-0.2-16.7-0.8-2.3-0.2-4.6-0.4-6.5-0.7-16.6-2.2-32.8-6.7-48.2-13.4l-0.4-0.2q-0.2 0-0.5-0.2c-8.5-3.7-16.9-8.3-25.2-13.7-3.7-2.4-7.4-5-11-7.8l-2.2-1.7c-19.9-15.8-36.5-36.1-48-58.6-1.3-2.6-2.4-4.7-3.3-6.8-4.1-8.8-7.5-18.2-10-27.7l-0.9-3.3 141.6-234.7c4.1-6.7 9.9-11.8 17-14.7 8.8-3.8 19-3.9 27.9-0.3 7.4 2.9 13.5 8.1 17.6 15l141.7 234.8-0.9 3.2c-3.2 11.9-7.7 23.5-13.4 34.5q-1.3 2.7-2.8 5.4c-10.5 19-24.4 35.8-41.1 49.9-1.3 1.1-2.7 2.2-4.1 3.3l-2.2 1.7c-3.6 2.8-7.3 5.4-11 7.8-8 5.3-16.5 9.9-25.2 13.7q-0.3 0.2-0.6 0.3l-0.2 0.1c-15.4 6.7-31.6 11.2-48.2 13.4-2 0.3-4.3 0.5-6.7 0.7-5.2 0.5-10.8 0.8-16.5 0.8zm-65-29.4c14.1 6.2 28.8 10.2 43.8 12.2 2 0.2 3.9 0.5 5.9 0.6 10.1 1 20.7 1 30.4 0 2.1-0.1 4.1-0.4 6-0.6 15.1-2 29.8-6.1 43.8-12.1q0.3-0.2 0.6-0.3l0.2-0.1c7.9-3.5 15.6-7.7 23-12.6 4.1-2.6 8.1-5.5 12.1-8.6l2.1-1.8q0.8-0.6 1.5-1.2c15.3-12.9 27.9-28.2 37.5-45.5q1.4-2.5 2.6-4.9c4.7-9.1 8.4-18.5 11.3-28.2l-138.1-228.9c-2.4-3.9-5.8-6.8-10-8.5-5-2-10.8-1.9-15.9 0.2-3.9 1.6-7.2 4.5-9.5 8.3l-138.1 228.9c2.2 7.6 4.9 15 8.2 22 0.9 1.9 1.8 3.8 3 6.2 10.2 19.9 24.7 37.9 42.2 52.1l1.6 1.3c3.9 3.1 7.9 6 12 8.6 7.5 5 15.3 9.2 23 12.6l0.4 0.2q0.2 0 0.4 0.1z"/>
						</g>
					</g>
					<g id="&lt;Group&gt;" style="opacity: .1;mix-blend-mode: multiply">
						<path id="&lt;Path&gt;" class="s4" d="m391.6 311.4q0 1.8-0.1 3.5-0.1 1.8-0.4 3.5-0.3 1.8-0.7 3.5-0.4 1.8-0.9 3.5c-1.5 4.5-3.6 8.9-6.4 12.9-12.4 17.6-27.3 33.3-44.1 46.6q-8 6.4-16.6 12c-10 6.6-20.7 12.4-31.8 17.3-0.3 0.1-0.6 0.3-0.9 0.4q-2.8 1.3-5.8 2.4 0 0 0 0-2.9 1.2-5.8 2.3-5.9 2.2-11.9 4.1-2.9 0.9-5.9 1.7c-1.5 0.4-3 0.8-4.6 1.2q-1.4 0.4-2.9 0.7 0 0.1-0.1 0.1-2.5 0.6-4.9 1.1-2.7 0.6-5.4 1.1-3.8 0.7-7.6 1.3-2.8 0.4-5.6 0.8c-2.7 0.4-5.5 0.7-8.2 0.9q-10.4 1-20.9 1-10.6 0-20.9-1c-2.8-0.2-5.5-0.5-8.3-0.9-21.2-2.8-41.5-8.5-60.5-16.8-0.3-0.1-0.6-0.3-0.9-0.4-11.1-4.9-21.7-10.7-31.8-17.3q-2.1-1.4-4.2-2.8c17.3 7 35.7 11.9 54.9 14.4 2.7 0.4 5.4 0.7 8.2 0.9q10.3 1 20.9 1h1.2q10-0.1 19.7-1c2.8-0.2 5.5-0.5 8.3-0.9 21.2-2.8 41.5-8.5 60.4-16.8 0.4-0.2 0.7-0.3 1-0.4q7.3-3.3 14.4-7.1c21.5-14.7 36.7-29.9 47.2-44.9 45.7-65.4 1-126.3 1-126.3l0.4-0.2-114.7-190.1-7.5-12.5c6.9-3 14.8-3.1 21.8-0.3 5.5 2.2 10.4 6.1 13.8 11.8l139.9 231.9 20.6 34.1q0.6 0.9 1.1 1.8 0.7 1.3 1.3 2.6 0.6 1.2 1 2.5 0.4 1 0.8 2.1 0.2 0.5 0.3 1 0.1 0.2 0.1 0.4 0.1 0.1 0.1 0.2 0.3 1 0.6 1.9 0.2 0.9 0.4 1.9 0 0 0 0.1 0.1 0.7 0.2 1.3 0.3 1.2 0.4 2.5 0.2 1.1 0.2 2.3 0 0.4 0.1 0.8 0 1.2 0 2.3z"/>
					</g>
					<g id="&lt;Group&gt;">
						<path id="&lt;Path&gt;" class="s5" d="m210.7 9.9c-6.4 3.3-11.6 7.5-14.3 12.8-0.1 0.2-0.2 0.4-0.3 0.6l-148.7 253.6c0 0-0.8 1.1-2.1 3.2-3.7 6.1-11.8 20.9-17.2 40.2-2.3 8.1-4.1 16.9-4.9 26.3q-3.2-4.1-6.1-8.3-0.7-1-1.4-2.1c-1.5-2.4-2.8-4.9-3.8-7.5q-0.7-1.7-1.2-3.4-0.5-1.7-0.9-3.4c-0.2-0.6-0.3-1.1-0.4-1.7q-0.3-1.8-0.6-3.5-0.1-0.9-0.1-1.8-0.3-2.8-0.1-5.7 0-0.8 0.1-1.6 0.1-0.9 0.2-1.8c0.1-0.7 0.2-1.4 0.3-2.1 0-0.2 0.1-0.4 0.1-0.6q0.1-0.4 0.2-0.9 0.1-0.9 0.4-1.9 0.3-1.3 0.7-2.6 0 0 0-0.1c0.3-0.7 0.5-1.5 0.8-2.3q0.1-0.3 0.2-0.6 0.5-1.2 1-2.3 0.5-1 1-2 0.1-0.3 0.3-0.6 0.6-1.1 1.2-2.1l20.6-34.2 139.9-231.8c3.3-5.5 8-9.3 13.3-11.5 6.9-3 14.8-3.1 21.8-0.3z"/>
					</g>
					<g id="&lt;Group&gt;">
						<path id="&lt;Compound Path&gt;" fill-rule="evenodd" class="s3" d="m200.1 441.2c-7.4 0-14.7-0.3-21.7-1-2.6-0.2-5.4-0.5-8.5-0.9-21.6-2.9-42.7-8.7-62.6-17.4l-1.1-0.5c-11.1-4.9-22.2-10.9-32.8-17.9q-2.2-1.4-4.4-2.9l-0.7-0.5c-3.3-2.3-6.6-4.7-9.9-7.3l-2.2-1.7c-14.6-11.5-27.8-24.9-39.3-39.7-2-2.6-4.1-5.5-6.3-8.6q-0.8-1.1-1.6-2.4c-1.7-2.7-3.2-5.5-4.5-8.7q-0.7-2-1.3-3.9c-0.5-1.4-0.9-2.8-1.2-4.1l-0.1-0.7q-0.2-0.7-0.3-1.5c-0.3-1.2-0.4-2.5-0.6-3.8q-0.1-1.1-0.2-2.1-0.3-3.4-0.1-6.8 0-0.9 0.1-1.8 0.1-1.2 0.2-2.3 0.2-1 0.3-2 0.1-0.5 0.2-0.8 0.1-0.8 0.2-1.4 0.2-1 0.5-2 0.2-1 0.5-1.9v-2.2l1-1q0.2-0.5 0.3-0.9l0.2-0.5c0.5-1.1 0.8-2.1 1.3-3 0.3-0.7 0.6-1.4 1-2.1q0.2-0.5 0.5-1 0.6-1.1 1.3-2.3l160.5-266c4.1-6.7 9.9-11.8 17-14.7 8.8-3.8 19-3.9 27.9-0.3 7.4 2.9 13.5 8.1 17.6 15l160.5 266q0.7 1.1 1.3 2.2 0.8 1.5 1.5 3.1c0.4 0.8 0.8 1.8 1.2 2.8l0.2 0.6q0.4 0.9 0.7 1.8 0.2 0.5 0.4 1.1 0.1 0.5 0.2 0.9 0.4 1.2 0.7 2.3 0.1 0.5 0.2 1.1l0.4 0.8v1.1q0.1 0.4 0.2 0.9c0.1 0.8 0.3 1.8 0.4 2.8 0.1 0.8 0.2 1.7 0.2 2.7l0.1 1.1c0 0.9 0 1.7 0 2.5q0 2.1-0.1 4.2-0.1 1.7-0.5 4c-0.2 1.5-0.5 2.8-0.8 4.1q-0.5 2-1.1 4c-1.7 5.4-4.2 10.5-7.5 15.2-12.8 18.2-28.1 34.4-45.6 48.2l-2.2 1.7c-4.8 3.8-9.9 7.4-14.9 10.7-10.5 6.9-21.6 12.9-33 17.9l-0.8 0.4q-2.3 1-4.6 2l-1.2 1.1h-1.7q-2.4 1-4.7 1.8c-3.8 1.5-8 2.9-12.3 4.2-2 0.7-4 1.2-6 1.8l-0.6 0.2q-2.1 0.6-4.2 1.1-0.3 0.1-0.7 0.2l-0.7 0.8h-2.7q-2.1 0.5-4.2 0.9c-1.8 0.4-3.7 0.8-5.6 1.2q-3.9 0.7-7.8 1.3c-1.9 0.3-3.8 0.6-5.8 0.9-3.1 0.4-5.9 0.7-8.5 0.9-7 0.7-14.3 1-21.6 1zm-121.5-53.3q1.7 1.2 3.5 2.4c9.8 6.4 20.2 12 30.6 16.6l1.1 0.5c18.4 8.1 38 13.5 58.1 16.1 3 0.4 5.5 0.7 8 0.9 13.1 1.3 27.3 1.3 40.3 0.1 2.5-0.3 5-0.6 8-1q2.7-0.3 5.3-0.7c2.5-0.4 4.9-0.8 7.4-1.3 1.8-0.3 3.5-0.7 5.1-1q1.3-0.3 2.6-0.6v-0.1l2.4-0.5q0.2 0 0.3-0.1l0.5-0.1q0.9-0.2 1.8-0.4l0.3-0.1q1.9-0.5 3.8-1l0.6-0.2c1.8-0.5 3.7-1 5.6-1.6 3.9-1.2 7.8-2.6 11.4-3.9q2.1-0.8 4.2-1.6v-0.1l1.6-0.6q0 0 0.1 0l1.2-0.5q2-0.8 4.1-1.7l0.8-0.4c10.7-4.7 21-10.3 30.8-16.7 5.4-3.6 10.8-7.5 16-11.6l2.1-1.7c15.4-12.5 29-27 40.4-43.2 2.3-3.4 4.1-7 5.3-10.8 0.3-0.9 0.6-1.9 0.8-2.9q0.3-1.4 0.6-3c0.1-0.8 0.2-1.7 0.3-2.7 0.1-1.1 0.1-2 0.1-3q0-0.9 0-1.8-0.1-0.5-0.1-1 0-0.8-0.2-1.6c0-0.7-0.1-1.4-0.3-2 0-0.5-0.1-0.8-0.1-1.1l-0.2-0.9q-0.1-0.5-0.3-0.9c-0.1-0.5-0.1-0.8-0.3-1.2l-0.3-1q0-0.2-0.1-0.3l-0.1-0.3q-0.2-0.8-0.5-1.5l-0.2-0.5c-0.2-0.5-0.5-1.2-0.8-1.8-0.3-0.8-0.7-1.5-1.1-2.2q-0.4-0.8-0.9-1.6l-160.4-265.9c-2.4-3.9-5.8-6.8-10-8.5-5-2-10.8-1.9-15.9 0.2-3.9 1.6-7.2 4.5-9.5 8.3l-160.5 265.9c-0.3 0.6-0.7 1.2-1 1.8l-0.2 0.5q-0.5 0.8-0.9 1.7c-0.3 0.7-0.5 1.3-0.8 2l-0.2 0.4c-0.2 0.6-0.4 1.2-0.5 1.7l-0.2 0.7q-0.3 0.9-0.5 1.8c-0.1 0.4-0.3 0.9-0.4 1.5l-0.2 1.2c-0.1 0.7-0.2 1.1-0.2 1.6l-0.1 0.4q-0.1 0.5-0.1 0.9v0.8q-0.1 0.4-0.1 0.9-0.1 2.4 0.1 4.7 0 0.7 0.1 1.4c0.1 1 0.3 2 0.5 3 0 0.4 0.1 0.6 0.1 0.8l0.2 0.8c0.2 0.8 0.5 1.8 0.8 2.7 0.2 0.9 0.6 1.8 0.9 2.8 1 2.2 2 4.3 3.2 6.1l0.2 0.3q0.4 0.8 1 1.5c2 2.9 3.9 5.5 5.9 8 10.2 13.3 22 25.3 35 35.7l1.6 1.3c3.9 3.1 7.9 6.1 11.8 8.8zm-61.5-83.3q0 0 0 0z"/>
					</g>
				</g>
				<g id="&lt;Group&gt;">
					<path id="&lt;Path&gt;" class="s6" d="m219.2 236.3c0 9.1-7.3 16.4-16.4 16.4-5.5 0-10.4-2.8-13.4-7-1.9-2.7-3-5.9-3-9.4 0-6.3 7.9-18.3 12.8-25.1 1.1-1.7 3.1-2.3 4.9-1.7 1 0.2 1.8 0.8 2.4 1.7 4.9 6.8 12.7 18.8 12.7 25.1z"/>
					<path id="&lt;Path&gt;" class="s3" d="m216.8 233.8c0 9.1-7.4 16.4-16.4 16.4-5.6 0-10.5-2.7-13.4-7-1.9-2.6-3-5.9-3-9.4 0-6.2 7.9-18.3 12.7-25.1 1.2-1.7 3.2-2.2 5-1.7 0.9 0.3 1.8 0.8 2.4 1.7 4.8 6.8 12.7 18.9 12.7 25.1z"/>
					<path id="&lt;Path&gt;" class="s7" d="m212.7 229.8c0 9-7.3 16.4-16.4 16.4-3.5 0-6.7-1.1-9.3-3-1.9-2.6-3-5.9-3-9.4 0-6.2 7.9-18.3 12.7-25.1 1.2-1.7 3.2-2.2 5-1.7 4.7 7 11 17.2 11 22.8z"/>
				</g>
				<g id="&lt;Group&gt;">
					<path id="&lt;Path&gt;" class="s6" d="m219.2 128.2c0 9.1-7.3 16.4-16.4 16.4-5.5 0-10.4-2.7-13.4-7-1.9-2.6-3-5.8-3-9.4 0-6.2 7.9-18.3 12.8-25.1 1.1-1.6 3.1-2.2 4.9-1.7 1 0.3 1.8 0.8 2.4 1.7 4.9 6.8 12.7 18.9 12.7 25.1z"/>
					<path id="&lt;Path&gt;" class="s3" d="m216.8 125.8c0 9-7.4 16.4-16.4 16.4-5.6 0-10.5-2.8-13.4-7-1.9-2.7-3-5.9-3-9.4 0-6.3 7.9-18.3 12.7-25.1 1.2-1.7 3.2-2.3 5-1.7 0.9 0.2 1.8 0.8 2.4 1.7 4.8 6.8 12.7 18.8 12.7 25.1z"/>
					<path id="&lt;Path&gt;" class="s7" d="m212.7 121.7c0 9.1-7.3 16.4-16.4 16.4-3.5 0-6.7-1.1-9.3-2.9-1.9-2.7-3-5.9-3-9.4 0-6.3 7.9-18.3 12.7-25.1 1.2-1.7 3.2-2.3 5-1.7 4.7 6.9 11 17.1 11 22.7z"/>
				</g>
				<g id="&lt;Group&gt;">
					<path id="&lt;Path&gt;" class="s6" d="m156 188.9c0 9.1-7.4 16.4-16.4 16.4-5.6 0-10.5-2.8-13.4-7-1.9-2.7-3-5.9-3-9.4 0-6.2 7.9-18.3 12.7-25.1 1.2-1.7 3.2-2.2 5-1.7 0.9 0.3 1.8 0.8 2.4 1.7 4.8 6.8 12.7 18.9 12.7 25.1z"/>
					<path id="&lt;Path&gt;" class="s3" d="m153.5 186.5c0 9-7.3 16.4-16.4 16.4-5.5 0-10.4-2.8-13.4-7.1-1.9-2.6-3-5.8-3-9.3 0-6.3 7.9-18.4 12.8-25.2 1.1-1.6 3.1-2.2 4.9-1.7 0.9 0.3 1.8 0.9 2.4 1.7 4.9 6.8 12.7 18.9 12.7 25.2z"/>
					<path id="&lt;Path&gt;" class="s7" d="m149.4 182.4c0 9-7.3 16.4-16.3 16.4-3.5 0-6.7-1.1-9.4-3-1.9-2.6-3-5.8-3-9.3 0-6.3 7.9-18.4 12.8-25.2 1.1-1.6 3.1-2.2 4.9-1.7 4.8 7 11 17.2 11 22.8z"/>
				</g>
				<g id="&lt;Group&gt;">
					<path id="&lt;Path&gt;" class="s6" d="m281.8 188.9c0 9.1-7.4 16.4-16.4 16.4-5.6 0-10.5-2.8-13.4-7-1.9-2.7-3-5.9-3-9.4 0-6.2 7.9-18.3 12.7-25.1 1.2-1.7 3.2-2.2 5-1.7 0.9 0.3 1.8 0.8 2.4 1.7 4.8 6.8 12.7 18.9 12.7 25.1z"/>
					<path id="&lt;Path&gt;" class="s3" d="m279.3 186.5c0 9-7.3 16.4-16.4 16.4-5.5 0-10.5-2.8-13.4-7.1-1.9-2.6-3-5.8-3-9.3 0-6.3 7.9-18.4 12.7-25.2 1.2-1.6 3.2-2.2 5-1.7 0.9 0.3 1.8 0.9 2.4 1.7 4.9 6.8 12.7 18.9 12.7 25.2z"/>
					<path id="&lt;Path&gt;" class="s7" d="m275.2 182.4c0 9-7.3 16.4-16.3 16.4-3.5 0-6.7-1.1-9.4-3-1.9-2.6-3-5.8-3-9.3 0-6.3 7.9-18.4 12.7-25.2 1.2-1.6 3.2-2.2 5-1.7 4.8 7 11 17.2 11 22.8z"/>
				</g>
			</g>
		</g>
	</g>
</svg>