<svg version="1.2" xmlns="http://www.w3.org/2000/svg" viewBox="0 0 317 451" width="317" height="451">
	<title>Artwork</title>
	<style>
		.s0 { fill: #ffffff } 
		.s1 { fill: #f21626 } 
		.s2 { fill: #cc1f1f } 
		.s3 { fill: #231f20 } 
		.s4 { fill: #ffe700 } 
		.s5 { fill: #01982f } 
	</style>
	<g id="Artwork">
		<g id="&lt;Group&gt;">
			<g id="-e-&lt;Group&gt;">
				<g id="&lt;Group&gt;">
					<path id="&lt;Path&gt;" class="s0" d="m158.8 75.1c-83.1 0-155.4 67.5-150.4 150.4 6.1 101.7 85.1 217.6 150.4 217.6 65.2 0 144.2-115.9 150.3-217.6 5-82.9-67.3-150.4-150.3-150.4z"/>
				</g>
				<g id="&lt;Group&gt;">
					<path id="&lt;Path&gt;" class="s1" d="m316.6 226c-6 100.2-78.8 209.7-144.6 223.2h-0.7q-1.4 0-2.9-0.1-0.2 0-0.4-0.1c-0.9 0-1.7-0.1-2.6-0.2q-0.4-0.1-0.8-0.1c-0.8-0.2-1.7-0.3-2.5-0.4q-0.1 0-0.1-0.1-1.2-0.2-2.4-0.4-0.4-0.1-0.8-0.2-1.3-0.3-2.5-0.7-1.8-0.4-3.6-1.1-1.3-0.3-2.5-0.8c-0.8-0.3-1.6-0.6-2.4-0.9-1.1-0.5-2.3-1-3.4-1.5q-1.7-0.8-3.4-1.6-1.2-0.6-2.4-1.3-0.1 0-0.1 0-5.6-3.1-11.2-7-1.6-1.1-3.2-2.2c-1.1-0.9-2.2-1.7-3.3-2.6q-1.7-1.3-3.3-2.7c-10.1-8.4-19.8-18.7-29-30.4-34.4-43.8-60.8-107.6-63.2-166.2-1.4-35.7 11.5-68.3 33.2-93.7q2.9-3.4 6-6.7 1.3-1.3 2.6-2.6 3.2-3.1 6.6-6.1 3.7-3.2 7.7-6.3 3.6-2.8 7.4-5.3 0 0 0 0c5.4-3.7 11.2-7.1 17.1-10.1 7.5-3.7 15.3-6.9 23.4-9.5q1.6-0.5 3.1-0.9 2.9-0.9 5.8-1.6c2.7-0.7 5.5-1.3 8.2-1.8 0.4-0.1 0.9-0.2 1.3-0.2q2.2-0.5 4.4-0.8 0 0 0.1 0 0.9-0.1 1.8-0.3 0.1 0 0.1 0 0.1 0 0.2 0 0.3-0.1 0.7-0.1h0.1q1.7-0.3 3.4-0.5c0.4 0 0.8 0 1.1-0.1q1-0.1 2-0.2 0 0 0.1 0 0.1 0 0.1 0 0.7-0.1 1.3-0.1 0.1 0 0.2 0 0.4-0.1 0.9-0.1 2.2-0.2 4.5-0.3 0.2 0 0.4 0 2.4-0.1 5-0.1 0.9 0 1.9 0h1q0.9 0 1.7 0 2.2 0 4.3 0.1 0.8 0.1 1.5 0.1 2.1 0.1 4.1 0.4c3.8 0.2 7.5 0.7 11.2 1.3q8.9 1.4 17.4 3.8 1.2 0.4 2.4 0.7 0 0 0.1 0.1c13.2 3.9 25.8 9.6 37.3 16.7q2.3 1.4 4.4 2.8 0.6 0.4 1.2 0.8 3 2 5.8 4.2 0 0 0.1 0 1.6 1.2 3.1 2.4c0.9 0.7 1.7 1.4 2.6 2.1q0.3 0.3 0.7 0.6c0.4 0.3 0.8 0.6 1.2 1q0 0 0 0 0.1 0.1 0.2 0.2c0.7 0.5 1.3 1 1.9 1.6q2.8 3.1 5.5 6.3c23.4 28.5 35 63.5 32.9 99.6z"/>
				</g>
				<g id="&lt;Group&gt;">
					<path id="&lt;Path&gt;" class="s2" d="m278 190.6c-8.3 1.7-16.2 2.7-23.8 3-17.7 1.8-32.2 0.3-44.1-3.5-1.1-0.4-2.2-0.7-3.2-1.1-5.1-1.9-9.8-4.2-14-7q-1.5-0.9-2.9-2c-1.1-0.7-2.1-1.5-3-2.3-7.1 13.7-15.5 22.6-16.1 23.3-1.3 1.4-3.2 2.2-5.1 2.2-2 0-3.8-0.8-5.2-2.2-0.6-0.7-8.9-9.5-16-23.3 0.9 1.8-15.1 10.7-16.7 11.5-14.1 6.7-30.1 8.6-45.5 7.5-7.5-0.5-36.1-1.5-34.7-13.8q0.1-1.3 0.7-2.4c1.1-2.3 3.6-4 6.4-4 0.1 0 2-0.1 4.8-1.5 5.3-2.6 13.9-9.5 20.1-28.4 0-0.1 0.1-0.3 0.2-0.5q-0.1-0.1-0.2-0.1-3.6-0.9-7.2-2.3c-4.1-1.6-10.6-5.1-14.9-7.8q3.4-4.2 7.2-8.1 1.3-1.5 2.7-2.8 3.3-3.3 6.7-6.3c2.6-2.3 7.5-3.1 10.2-5.2q0.9-0.6 1.7-1.3c5.4-4 11-7.6 16.9-10.9 6.9-4 14.2-7.4 21.8-10.2q4.9-1.9 10-3.4 1.5-0.5 3-0.9 4.7-1.3 9.5-2.3 0.1 0 0.3-0.1 2.2-0.4 4.5-0.8c0-0.1 0.1-0.1 0.1-0.1q0.9-0.1 1.8-0.3 0.1 0 0.1 0 0.1 0 0.2 0 1.8-0.3 3.6-0.6c0.3 0 0.6-0.1 0.9-0.1q0.7-0.1 1.3-0.2 0.6-0.1 1.1-0.1 0.2 0 0.3 0 0.1 0 0.2-0.1 0.7 0 1.4-0.1 0.7-0.1 1.4-0.2c1.4-0.1 2.8-0.2 4.2-0.3q0.2 0 0.4 0 2.5-0.2 5-0.3 1 0 2 0 0.4 0 0.9 0 0.9 0 1.7 0 2.2 0 4.3 0.1 0.8 0.1 1.5 0.1 2.1 0.1 4.1 0.4c3.8 0.2 7.5 0.7 11.2 1.3q8.9 1.4 17.4 3.8 1.2 0.4 2.4 0.7 0 0 0.1 0.1c13.2 3.9 25.8 9.6 37.3 16.7q2.3 1.4 4.4 2.8 0.6 0.4 1.2 0.8 3 2 5.9 4.2 1.6 1.2 3.1 2.4c0.9 0.7 1.7 1.4 2.6 2.1q0.3 0.3 0.7 0.6c0.4 0.3 0.8 0.6 1.2 1q0.1 0.1 0.2 0.2c0.7 0.5 1.3 1 1.9 1.6q2.8 3.1 5.5 6.3-2.9 2.6-5.7 4.8-0.3 0.3-0.5 0.4-2.8 2.2-5.6 4c-6.9 4.7-13.8 7.9-20.4 9.9q-0.1 0-0.2 0 0.2 0.7 0.4 1.1c4.8 14.6 11 22 16 25.9q1.2 0.9 2.2 1.5c3.9 2.3 6.6 2.5 6.9 2.5q1.3 0 2.5 0.5c2.4 0.9 4.2 3.2 4.5 5.9 0.4 3.7-2.2 7-5.8 7.7z"/>
				</g>
				<g id="&lt;Group&gt;">
					<path id="&lt;Path&gt;" class="s2" d="m316.6 226c-6 100.2-78.8 209.7-144.6 223.2h-0.7q-1.4 0-2.9-0.1-0.2 0-0.4-0.1c-0.9 0-1.7-0.1-2.6-0.2q-0.4-0.1-0.8-0.1c-0.8-0.2-1.7-0.3-2.5-0.4q-0.1 0-0.1-0.1-1.2-0.2-2.4-0.4-0.4-0.1-0.8-0.2-1.3-0.3-2.5-0.7-1.8-0.4-3.6-1.1-1.3-0.3-2.5-0.8c-0.8-0.3-1.6-0.6-2.4-0.9-1.1-0.5-2.3-1-3.4-1.5q-1.7-0.8-3.4-1.6-1.2-0.6-2.4-1.3-0.1 0-0.1 0-5.6-3.1-11.2-7-1.6-1.1-3.2-2.2c-1.1-0.9-2.2-1.7-3.3-2.6q-1.7-1.3-3.3-2.7 5.2 1.3 10.4 1.7 1.8 0.2 3.6 0.2c23 0.5 47.9-12.9 71.1-34.8q2.4-2.3 4.7-4.7c43-43.3 79.1-115.7 84.5-182.7 1.3-15.4-0.1-30.4-3.7-44.6-2.5-9.9-6.1-19.6-10.6-28.7l-1.4-2.6q-2.1-4-4.5-7.9-0.5-0.8-1-1.7c-1.3-2.1-2.8-4.2-4.2-6.2q-1.8-2.6-3.8-5.2 3 2 5.8 4.2 0 0 0.1 0 1.6 1.2 3.1 2.4c0.9 0.7 1.7 1.4 2.6 2.1q0.3 0.3 0.7 0.6c0.4 0.3 0.8 0.6 1.2 1q0 0 0 0 0.1 0.1 0.2 0.2c0.7 0.5 1.3 1 1.9 1.6q2.8 3.1 5.5 6.3c23.4 28.5 35 63.5 32.9 99.6z"/>
				</g>
				<g id="&lt;Group&gt;">
					<path id="&lt;Compound Path&gt;" fill-rule="evenodd" class="s3" d="m316.6 226c-6 100.2-78.8 209.7-144.6 223.2q-6.7 1.4-13.2 1.4c-68.8 0-151.4-117.6-157.9-224.6-2.3-39.5 11.9-77.7 40-107.6 0.6-0.6 1.1-1.2 1.7-1.7q0.4-0.5 0.8-0.9 2.8-2.8 5.7-5.5c0.7-0.6 1.3-1.2 2.1-1.8 17.6-15.7 38.4-27.2 60.9-34 8.4-2.5 17.1-4.4 26-5.6q3.7-0.5 7.6-0.8c2.6-0.2 5.2-0.3 7.8-0.4q0.3 0 0.6 0 2.3-0.1 4.7-0.1h0.4q2.6 0 5.2 0.1l1.3 0.1q2.5 0 5 0.3 1.9 0.1 3.9 0.3 8.7 0.8 17.3 2.6 5.3 1.2 10.5 2.6c21.3 6 41.3 16.3 58.6 30.3 0.9 0.7 1.8 1.5 2.7 2.3q0.7 0.5 1.3 1.1-0.8-0.6-1.5-1-3.3-2.2-6.7-4.2-5.1-2.9-10.4-5.5c-9.7-4.7-20-8.4-30.6-11q-1.4-0.3-2.7-0.6c-4.7-1.1-9.6-2-14.5-2.6q-5.1-0.6-10.2-0.9-1.5-0.2-3-0.2-1.2-0.1-2.4-0.1-2 0-3.9 0-1.1-0.1-2.1 0 0.9 0 1.7 0 2.2 0 4.3 0.1 0.8 0.1 1.5 0.1 2.1 0.1 4.1 0.4c3.8 0.2 7.5 0.7 11.2 1.3q8.9 1.4 17.4 3.8 1.2 0.4 2.4 0.7 0 0 0.1 0.1c13.2 3.9 25.8 9.6 37.3 16.7q2.3 1.4 4.4 2.8 0.6 0.4 1.2 0.8 3 2 5.8 4.2 0 0 0.1 0 1.6 1.2 3.1 2.4c0.9 0.7 1.7 1.4 2.6 2.1q0.3 0.3 0.7 0.6c0.4 0.3 0.8 0.6 1.2 1q0 0 0 0 0.1 0.1 0.2 0.2c0.7 0.5 1.3 1 1.9 1.6q2.8 3.1 5.5 6.3c23.4 28.5 35 63.5 32.9 99.6zm-28.5-65.7c-4.4-8.6-9.8-16.9-16.2-24.7q-2.9-3.5-6.1-7-1.5-1.5-2.9-2.9-1.1-1.1-2.2-2.2-3.1-3-6.4-5.7-3.5-3.1-7.2-5.8c-5.6-4.2-11.5-8-17.6-11.3q-8.4-4.6-17.3-8.1-8.6-3.4-17.7-5.6-1.6-0.5-3.2-0.8-1.7-0.4-3.5-0.8-1.5-0.3-3-0.5-0.4-0.1-0.8-0.2-4-0.7-8.1-1.2-0.1 0-0.3 0-3.2-0.4-6.4-0.6-0.1 0-0.2 0 0 0-0.1 0-1.6-0.1-3.4-0.2-1.2-0.1-2.4-0.1-0.2 0-0.4 0h-1q-0.1-0.1-0.2-0.1h-0.8q-0.1 0-0.2 0-0.9 0-1.7 0c0 0-0.7 0-0.7 0q-1.6 0-3 0.1h-0.1q-0.4 0-0.7 0h-0.2q0 0-0.1 0-0.9 0-1.8 0.1 0 0-0.1 0-1.9 0.1-3.8 0.2c-1.4 0.1-2.7 0.2-4.1 0.4-1.1 0.1-2.3 0.2-3.5 0.3-0.5 0.1-1 0.2-1.6 0.3q-8 1-15.8 3-4.3 1-8.4 2.3c-5.9 1.9-11.7 4.1-17.4 6.7-9.2 4.2-18 9.4-26.2 15.4q-3.6 2.7-7.1 5.6-3.3 2.8-6.4 5.7c-0.7 0.6-1.3 1.2-2 1.9q-2.1 2-4.1 4.1c-25.2 26.9-38 61.1-35.9 96.5 2.8 46.6 22.2 100.1 51.7 143.1 6.8 9.9 13.8 18.8 21 26.6 12.9 14.3 26.4 25.2 39.4 32.1 10.7 5.8 21.1 8.8 30.9 8.8 28 0 62.1-25.2 91.2-67.5 29.6-43 48.9-96.5 51.7-143.1 1.3-22.6-3.4-44.7-13.6-64.8z"/>
				</g>
				<g id="&lt;Group&gt;">
					<g id="&lt;Group&gt;">
						<g id="&lt;Group&gt;">
							<g id="&lt;Group&gt;">
								<path id="&lt;Path&gt;" class="s2" d="m90.5 187.9c0 9.1-4.8 16.4-10.7 16.4-6 0-10.8-7.3-10.8-16.4 0-9.1 4.8-16.4 10.8-16.4 5.9 0 10.7 7.3 10.7 16.4z"/>
							</g>
							<g id="&lt;Group&gt;">
								<path id="&lt;Path&gt;" class="s4" d="m87.3 187.9c0 6.3-3.4 11.5-7.5 11.5-4.2 0-7.6-5.2-7.6-11.5 0-6.4 3.4-11.5 7.6-11.5 4.1 0 7.5 5.1 7.5 11.5z"/>
							</g>
						</g>
						<g id="&lt;Group&gt;">
							<g id="&lt;Group&gt;">
								<path id="&lt;Path&gt;" class="s2" d="m152.2 210.7c0 9-4.8 16.4-10.7 16.4-6 0-10.8-7.4-10.8-16.4 0-9.1 4.8-16.4 10.8-16.4 5.9 0 10.7 7.3 10.7 16.4z"/>
							</g>
							<g id="&lt;Group&gt;">
								<path id="&lt;Path&gt;" class="s4" d="m149 210.7c0 6.3-3.3 11.5-7.5 11.5-4.2 0-7.6-5.2-7.6-11.5 0-6.4 3.4-11.5 7.6-11.5 4.2 0 7.5 5.1 7.5 11.5z"/>
							</g>
						</g>
						<g id="&lt;Group&gt;">
							<g id="&lt;Group&gt;">
								<path id="&lt;Path&gt;" class="s2" d="m210.2 187.9c0 9.1-4.9 16.4-10.8 16.4-5.9 0-10.8-7.3-10.8-16.4 0-9.1 4.9-16.4 10.8-16.4 5.9 0 10.8 7.3 10.8 16.4z"/>
							</g>
							<g id="&lt;Group&gt;">
								<path id="&lt;Path&gt;" class="s4" d="m206.9 187.9c0 6.3-3.3 11.5-7.5 11.5-4.2 0-7.5-5.2-7.5-11.5 0-6.4 3.3-11.5 7.5-11.5 4.2 0 7.5 5.1 7.5 11.5z"/>
							</g>
						</g>
						<g id="&lt;Group&gt;">
							<g id="&lt;Group&gt;">
								<path id="&lt;Path&gt;" class="s2" d="m273.2 219.5c0 9.1-4.9 16.5-10.8 16.5-5.9 0-10.8-7.4-10.8-16.5 0-9 4.9-16.4 10.8-16.4 5.9 0 10.8 7.4 10.8 16.4z"/>
							</g>
							<g id="&lt;Group&gt;">
								<path id="&lt;Path&gt;" class="s4" d="m269.9 219.5c0 6.4-3.3 11.5-7.5 11.5-4.2 0-7.5-5.1-7.5-11.5 0-6.3 3.3-11.5 7.5-11.5 4.2 0 7.5 5.2 7.5 11.5z"/>
							</g>
						</g>
						<g id="&lt;Group&gt;">
							<g id="&lt;Group&gt;">
								<path id="&lt;Path&gt;" class="s2" d="m72.3 246.4c0 9.1-4.9 16.4-10.8 16.4-5.9 0-10.8-7.3-10.8-16.4 0-9 4.9-16.4 10.8-16.4 5.9 0 10.8 7.4 10.8 16.4z"/>
							</g>
							<g id="&lt;Group&gt;">
								<path id="&lt;Path&gt;" class="s4" d="m69 246.4c0 6.4-3.3 11.5-7.5 11.5-4.2 0-7.5-5.1-7.5-11.5 0-6.3 3.3-11.5 7.5-11.5 4.2 0 7.5 5.2 7.5 11.5z"/>
							</g>
						</g>
						<g id="&lt;Group&gt;">
							<g id="&lt;Group&gt;">
								<path id="&lt;Path&gt;" class="s2" d="m138 273.3c0 9-4.8 16.4-10.7 16.4-6 0-10.8-7.4-10.8-16.4 0-9.1 4.8-16.4 10.8-16.4 5.9 0 10.7 7.3 10.7 16.4z"/>
							</g>
							<g id="&lt;Group&gt;">
								<path id="&lt;Path&gt;" class="s4" d="m134.8 273.3c0 6.3-3.4 11.5-7.5 11.5-4.2 0-7.6-5.2-7.6-11.5 0-6.4 3.4-11.5 7.6-11.5 4.1 0 7.5 5.1 7.5 11.5z"/>
							</g>
						</g>
						<g id="&lt;Group&gt;">
							<g id="&lt;Group&gt;">
								<path id="&lt;Path&gt;" class="s2" d="m195.9 250.5c0 9.1-4.8 16.4-10.7 16.4-6 0-10.8-7.3-10.8-16.4 0-9.1 4.8-16.4 10.8-16.4 5.9 0 10.7 7.3 10.7 16.4z"/>
							</g>
							<g id="&lt;Group&gt;">
								<path id="&lt;Path&gt;" class="s4" d="m192.7 250.5c0 6.3-3.4 11.5-7.5 11.5-4.2 0-7.6-5.2-7.6-11.5 0-6.4 3.4-11.5 7.6-11.5 4.1 0 7.5 5.1 7.5 11.5z"/>
							</g>
						</g>
						<g id="&lt;Group&gt;">
							<g id="&lt;Group&gt;">
								<path id="&lt;Path&gt;" class="s2" d="m109 127.3c0 9.1-4.8 16.4-10.8 16.4-5.9 0-10.7-7.3-10.7-16.4 0-9.1 4.8-16.4 10.7-16.4 6 0 10.8 7.3 10.8 16.4z"/>
							</g>
							<g id="&lt;Group&gt;">
								<path id="&lt;Path&gt;" class="s4" d="m105.8 127.3c0 6.3-3.4 11.5-7.6 11.5-4.2 0-7.5-5.2-7.5-11.5 0-6.4 3.3-11.5 7.5-11.5 4.2 0 7.6 5.1 7.6 11.5z"/>
							</g>
						</g>
						<g id="&lt;Group&gt;">
							<g id="&lt;Group&gt;">
								<path id="&lt;Path&gt;" class="s2" d="m249.1 138.8c0 9.1-4.8 16.4-10.7 16.4-6 0-10.8-7.3-10.8-16.4 0-9.1 4.8-16.4 10.8-16.4 5.9 0 10.7 7.3 10.7 16.4z"/>
							</g>
							<g id="&lt;Group&gt;">
								<path id="&lt;Path&gt;" class="s4" d="m245.9 138.8c0 6.3-3.4 11.5-7.5 11.5-4.2 0-7.6-5.2-7.6-11.5 0-6.4 3.4-11.5 7.6-11.5 4.1 0 7.5 5.1 7.5 11.5z"/>
							</g>
						</g>
						<g id="&lt;Group&gt;">
							<g id="&lt;Group&gt;">
								<path id="&lt;Path&gt;" class="s2" d="m169.5 152.5c0 9.1-4.8 16.4-10.7 16.4-6 0-10.8-7.3-10.8-16.4 0-9.1 4.8-16.4 10.8-16.4 5.9 0 10.7 7.3 10.7 16.4z"/>
							</g>
							<g id="&lt;Group&gt;">
								<path id="&lt;Path&gt;" class="s4" d="m166.3 152.5c0 6.4-3.4 11.5-7.5 11.5-4.2 0-7.6-5.1-7.6-11.5 0-6.3 3.4-11.5 7.6-11.5 4.1 0 7.5 5.2 7.5 11.5z"/>
							</g>
						</g>
						<g id="&lt;Group&gt;">
							<g id="&lt;Group&gt;">
								<path id="&lt;Path&gt;" class="s2" d="m252.8 269.9c0 9.1-4.8 16.4-10.7 16.4-6 0-10.8-7.3-10.8-16.4 0-9 4.8-16.4 10.8-16.4 5.9 0 10.7 7.4 10.7 16.4z"/>
							</g>
							<g id="&lt;Group&gt;">
								<path id="&lt;Path&gt;" class="s4" d="m249.6 269.9c0 6.4-3.4 11.5-7.5 11.5-4.2 0-7.6-5.1-7.6-11.5 0-6.3 3.4-11.5 7.6-11.5 4.1 0 7.5 5.2 7.5 11.5z"/>
							</g>
						</g>
					</g>
					<g id="&lt;Group&gt;">
						<g id="&lt;Group&gt;">
							<g id="&lt;Group&gt;">
								<path id="&lt;Path&gt;" class="s2" d="m98.7 314c0 9-4.8 16.4-10.8 16.4-5.9 0-10.7-7.4-10.7-16.4 0-9.1 4.8-16.4 10.7-16.4 6 0 10.8 7.3 10.8 16.4z"/>
							</g>
							<g id="&lt;Group&gt;">
								<path id="&lt;Path&gt;" class="s4" d="m95.5 314c0 6.3-3.4 11.5-7.6 11.5-4.2 0-7.5-5.2-7.5-11.5 0-6.4 3.3-11.5 7.5-11.5 4.2 0 7.6 5.1 7.6 11.5z"/>
							</g>
						</g>
						<g id="&lt;Group&gt;">
							<g id="&lt;Group&gt;">
								<path id="&lt;Path&gt;" class="s2" d="m166.5 336.8c0 9-4.8 16.4-10.8 16.4-5.9 0-10.7-7.4-10.7-16.4 0-9.1 4.8-16.4 10.7-16.4 6 0 10.8 7.3 10.8 16.4z"/>
							</g>
							<g id="&lt;Group&gt;">
								<path id="&lt;Path&gt;" class="s4" d="m163.3 336.8c0 6.3-3.4 11.5-7.6 11.5-4.2 0-7.5-5.2-7.5-11.5 0-6.4 3.3-11.5 7.5-11.5 4.2 0 7.6 5.1 7.6 11.5z"/>
							</g>
						</g>
						<g id="&lt;Group&gt;">
							<g id="&lt;Group&gt;">
								<path id="&lt;Path&gt;" class="s2" d="m224.4 314c0 9-4.8 16.4-10.8 16.4-5.9 0-10.7-7.4-10.7-16.4 0-9.1 4.8-16.4 10.7-16.4 6 0 10.8 7.3 10.8 16.4z"/>
							</g>
							<g id="&lt;Group&gt;">
								<path id="&lt;Path&gt;" class="s4" d="m221.2 314c0 6.3-3.4 11.5-7.6 11.5-4.1 0-7.5-5.2-7.5-11.5 0-6.4 3.4-11.5 7.5-11.5 4.2 0 7.6 5.1 7.6 11.5z"/>
							</g>
						</g>
						<g id="&lt;Group&gt;">
							<g id="&lt;Group&gt;">
								<path id="&lt;Path&gt;" class="s2" d="m119.7 367.8c0 9-4.8 16.4-10.7 16.4-6 0-10.8-7.4-10.8-16.4 0-9.1 4.8-16.4 10.8-16.4 5.9 0 10.7 7.3 10.7 16.4z"/>
							</g>
							<g id="&lt;Group&gt;">
								<path id="&lt;Path&gt;" class="s4" d="m116.5 367.8c0 6.3-3.4 11.5-7.5 11.5-4.2 0-7.6-5.2-7.6-11.5 0-6.4 3.4-11.5 7.6-11.5 4.1 0 7.5 5.1 7.5 11.5z"/>
							</g>
						</g>
						<g id="&lt;Group&gt;">
							<g id="&lt;Group&gt;">
								<path id="&lt;Path&gt;" class="s2" d="m152.2 399.4c0 9-4.8 16.4-10.7 16.4-6 0-10.8-7.4-10.8-16.4 0-9.1 4.8-16.4 10.8-16.4 5.9 0 10.7 7.3 10.7 16.4z"/>
							</g>
							<g id="&lt;Group&gt;">
								<path id="&lt;Path&gt;" class="s4" d="m149 399.4c0 6.3-3.3 11.5-7.5 11.5-4.2 0-7.6-5.2-7.6-11.5 0-6.4 3.4-11.5 7.6-11.5 4.2 0 7.5 5.1 7.5 11.5z"/>
							</g>
						</g>
						<g id="&lt;Group&gt;">
							<g id="&lt;Group&gt;">
								<path id="&lt;Path&gt;" class="s2" d="m210.2 376.6c0 9-4.9 16.4-10.8 16.4-5.9 0-10.8-7.4-10.8-16.4 0-9.1 4.9-16.4 10.8-16.4 5.9 0 10.8 7.3 10.8 16.4z"/>
							</g>
							<g id="&lt;Group&gt;">
								<path id="&lt;Path&gt;" class="s4" d="m206.9 376.6c0 6.3-3.3 11.5-7.5 11.5-4.2 0-7.5-5.2-7.5-11.5 0-6.4 3.3-11.5 7.5-11.5 4.2 0 7.5 5.1 7.5 11.5z"/>
							</g>
						</g>
					</g>
				</g>
				<g id="&lt;Group&gt;">
					<g id="&lt;Group&gt;">
						<path id="&lt;Path&gt;" class="s3" d="m155 89c-0.5-2.5-0.8-4.6-1-6.8-0.1-2.2-0.3-4.4-0.3-6.6q0-6.7 1.1-13.4c1.4-8.8 4.3-17.7 8.8-25.8 2.2-4.1 4.8-8 7.7-11.6 1.5-1.9 3.1-3.5 4.6-5.3 1.7-1.6 3.3-3.4 5.1-4.9 6-5.4 12.7-10.1 19.8-14 1.7-0.9 3.8-0.2 4.5 1.6l6.8 16.1c0.7 1.7-0.1 3.6-1.8 4.3-5.9 2.1-11.6 4.7-16.8 8.1-1.6 0.9-3 2-4.5 3.1-1.4 1.1-2.9 2.2-4.2 3.5q-4.2 3.6-7.6 8c-4.6 5.7-8.2 12.5-10.6 19.7-1.2 3.7-2.2 7.5-2.8 11.3-0.3 1.9-0.5 3.9-0.7 5.8-0.2 1.9-0.2 4-0.2 5.7z"/>
					</g>
					<g id="&lt;Group&gt;">
						<path id="&lt;Path&gt;" class="s0" d="m161.6 74.6c0 0 5.9 122.6-110.9 98.9 0 0 20.2 0 31.7-34.8 7.5-22.6 32.3-68.8 79.2-64.1z"/>
					</g>
					<g id="&lt;Group&gt;">
						<path id="&lt;Path&gt;" class="s5" d="m168.9 84.7q0 1-0.1 2c-0.1 1.9-0.3 3.8-0.5 6q0 0.2-0.1 0.5c-0.2 2.6-0.6 5.5-1.1 8.6q-0.3 2-0.7 4-0.4 2.1-0.9 4.3c-1 4.5-2.3 9.2-3.9 13.9q-1.2 3.7-2.8 7.4c-0.7 1.7-1.4 3.4-2.2 5.1q-1.6 3.1-3.3 6.2-2.1 3.7-4.5 7.2-0.4 0.5-0.8 1c-1.4 2-2.9 4-4.6 5.9q-2.6 3-5.6 5.8-1.2 1.2-2.5 2.3c-12.3 10.6-27.4 16.7-45.2 18.5-1.1 0.2-2.2 0.2-3.3 0.3q-3.9 0.3-7.9 0.3c-2 0-4-0.1-6.2-0.2q-1.6-0.1-3.3-0.2-3.3-0.2-6.8-0.6c6.4-1.9 19.5-8.7 27.9-34.1 7.4-22.5 32-68.3 78.4-64.2z"/>
					</g>
					<g id="&lt;Group&gt;">
						<path id="&lt;Compound Path&gt;" fill-rule="evenodd" class="s3" d="m169.1 78.2q0 0.4 0 0.9 0 1.1 0 2.2v0.2c-0.1 0.4-0.1 0.9-0.1 1.4q0 0.8-0.1 1.8 0 1-0.1 2c-0.1 1.9-0.3 3.8-0.5 6q0 0.2-0.1 0.5c-0.2 2.6-0.6 5.5-1.1 8.6q-0.3 2-0.7 4-0.4 2.1-0.9 4.3c-1 4.5-2.3 9.2-3.9 13.9q-1.2 3.7-2.8 7.4c-0.7 1.7-1.4 3.4-2.2 5.1q-1.6 3.1-3.3 6.2-2.1 3.7-4.5 7.2-0.4 0.5-0.8 1c-1.4 2-2.9 4-4.6 5.9q-2.6 3-5.6 5.8-1.2 1.2-2.5 2.3c-12.3 10.6-27.4 16.7-45.2 18.5-1.1 0.2-2.2 0.2-3.3 0.3q-3.9 0.3-7.9 0.3c-2 0-4-0.1-6.2-0.2q-1.6-0.1-3.3-0.2-3.3-0.2-6.8-0.6c-4.3-0.6-8.8-1.3-13.4-2.2q-0.4-0.1-0.8-0.3c-3.4-1.1-5.7-4.4-5.3-8 0.5-3.9 3.7-6.7 7.6-6.5 0.4 0 12.5-0.9 21.8-22.3 1-2.2 1.9-4.7 2.8-7.3q0.8-2.4 1.7-4.7 0.7-1.9 1.4-3.8 1.5-3.6 3.2-7.1 1.8-3.7 3.7-7.2l0.8-1.4q1.3-2.2 2.7-4.3 0 0 0 0c2.6-4.2 5.5-8.2 8.7-12q3-3.6 6.3-6.8c2.3-2.3 4.7-4.5 7.2-6.4q0.4-0.4 0.8-0.6c4.4-3.5 9.2-6.4 14.3-8.8q5.7-2.7 12-4.4 2.9-0.7 5.9-1.2 4.9-0.8 10.2-0.9h1.4c1.9 0.1 4 0.2 6 0.3q0.4 0.1 0.7 0.1 1.1 0.1 2.1 0.5 0.6 0.3 1.2 0.6c0.9 0.6 1.7 1.4 2.2 2.3 0.7 1.1 1.2 2.3 1.2 3.7q0.1 0.3 0.1 1.1 0 0.1 0 0.2v0.3q0 0.9 0 2.3zm-23.9 47c2.1-5.2 3.8-10.4 5-15.5 0.5-1.9 0.9-3.8 1.3-5.7 0.3-1.8 0.6-3.5 0.9-5.2 0.3-1.9 0.5-3.8 0.8-5.5q0-0.5 0.1-1.1 0.8-0.7 1.5-1.5c0.2-0.2 0.5-0.5 0.8-0.7q-0.6-0.7-1-1.2c-0.3-0.4-0.5-0.7-0.7-0.9q-0.1-0.1-0.2-0.2 0.1-1.3 0.2-2.6 0.1-0.9 0.1-1.9 0-0.2 0-0.5v-0.1q0.1-0.2 0-0.4 0.1-0.2 0.1-0.4-0.1 0-0.1 0-0.8 0-1.7 0c0 0-0.1 0-0.2 0q-1.7 0.1-3.3 0.3-2.8 0.3-5.4 0.9-1.3 0.3-2.7 0.6-0.9 0.3-1.7 0.6c-2.7 0.8-5.2 1.9-7.6 3q-1.1 0.6-2.1 1.1-2.4 1.3-4.5 2.8c-8.6 5.7-15.4 13.4-20.7 21q-0.3 0.4-0.6 0.9c-0.8 1.2-1.7 2.5-2.4 3.7q-1.3 2-2.3 3.9c-1.6 2.8-3 5.4-4.2 7.9q-1.1 2.4-2 4.5-0.2 0.5-0.5 1.1c-0.7 1.7-1.3 3.2-1.7 4.4q-0.7 1.7-0.9 2.6c-4.4 13.1-10.1 21.9-15.7 27.9 2.3 0 4.6 0.1 6.9 0 18.2-0.3 33.2-5.4 44.8-15.4q3.7-3.2 6.8-6.8c2.3-2.6 4.2-5.3 6-8.2 2.8-4.3 5-8.8 6.9-13.4z"/>
					</g>
					<g id="&lt;Group&gt;">
						<g id="&lt;Group&gt;">
							<path id="&lt;Path&gt;" class="s0" d="m161.5 83.2c0 0-55.7 74.4-130.8 14.9 0 0 15 7.9 40.6-8.1 16.6-10.4 57.7-27.9 90.2-6.8z"/>
						</g>
						<g id="&lt;Group&gt;">
							<path id="&lt;Path&gt;" class="s5" d="m159.3 96.8q-1.6 1.5-3.4 3.3-0.3 0.2-0.6 0.5c-0.8 0.7-1.7 1.5-2.6 2.3q-0.6 0.5-1.2 1.1-2 1.7-4.3 3.4-3.9 3.1-8.5 6-3.8 2.5-8 4.7c-6.5 3.4-13.8 6.3-21.8 8.2q-1.5 0.4-3.1 0.7-2.8 0.6-5.7 1c-0.1 0-0.2 0-0.3 0q-2.6 0.3-5.2 0.5c-1.3 0.1-2.6 0.1-3.9 0.1q-0.7 0.1-1.4 0-0.9 0.1-1.8 0-0.6 0-1.2 0-3.9-0.1-7.9-0.7-4.3-0.5-8.5-1.5-1.4-0.4-2.8-0.8-4.7-1.2-9.3-3-3.7-1.4-7.4-3.2-3.5-1.7-7-3.6c-3.5-2.1-7.2-4.4-10.7-6.9q-0.1-0.1-0.2-0.1-1-1-2.1-2c0.9 0.6 15.1 8.1 41-6 17-9.2 57.5-23.9 87.9-4z"/>
						</g>
						<g id="&lt;Group&gt;">
							<path id="&lt;Compound Path&gt;" fill-rule="evenodd" class="s3" d="m168.9 82.9q0 0.9-0.1 1.8-0.2 0.7-0.5 1.4-0.3 0.8-0.9 1.5c-0.1 0.2-0.7 1-1.8 2.3q-1.2 1.4-3 3.4-1 1.1-2 2.2-0.1 0-0.2 0.1-0.5 0.6-1.1 1.2-1.6 1.5-3.4 3.3-0.3 0.2-0.6 0.5c-0.8 0.7-1.7 1.5-2.6 2.3q-0.6 0.5-1.2 1.1-2 1.7-4.3 3.4-3.9 3.1-8.5 6-3.8 2.5-8 4.7c-6.5 3.4-13.8 6.3-21.8 8.2q-1.5 0.4-3.1 0.7-2.8 0.6-5.7 1c-0.1 0-0.2 0-0.3 0q-2.6 0.3-5.2 0.5c-1.3 0.1-2.6 0.1-3.9 0.1q-0.7 0.1-1.4 0-0.9 0.1-1.8 0-0.6 0-1.2 0-3.9-0.1-7.9-0.7-4.3-0.5-8.5-1.5-1.4-0.4-2.8-0.8-4.7-1.2-9.3-3-3.7-1.4-7.4-3.2-3.5-1.7-7-3.6c-3.5-2.1-7.2-4.4-10.7-6.9q-0.1-0.1-0.2-0.1-3.2-2.3-6.4-4.8c-3-2.4-3.7-6.7-1.6-9.9 2.1-3.3 6.3-4.4 9.7-2.6 0.3 0.2 12.1 5.3 33.1-7.8 4.7-3 40.8-24.4 76.7-16q0.8 0.2 1.7 0.4 2.3 0.6 4.7 1.4c1.1 0.4 2.3 0.9 3.5 1.3 0.4 0.2 0.7 0.3 1.1 0.5q2.3 1 4.6 2.2 0.5 0.2 1 0.5 0.6 0.3 1.1 0.6 0.5 0.2 0.9 0.5 0.6 0.4 1.3 0.7 0.8 0.6 1.6 1.1 0.6 0.4 1.1 0.8 0.5 0.5 0.9 1.1 0.1 0 0.1 0.1 0.8 1.1 1.1 2.4 0 0.1 0 0.2 0.1 0.2 0.1 0.3 0.1 0.6 0.1 1.1zm-24.1 7.1q2.2-2 4-3.9 0 0.1 0 0l0.9-0.8q-1-0.5-2.1-0.9-0.1 0-0.2 0-0.5-0.3-1-0.4-1-0.4-2.2-0.7-0.4-0.2-0.8-0.3-1.7-0.5-3.4-0.9c-4-0.9-8.1-1.4-12.1-1.4-4.6-0.1-9.1 0.2-13.5 0.9q-1.3 0.2-2.6 0.5c-18.7 3.5-33.8 12.5-36.6 14.2-7.2 4.6-13.7 7.4-19.5 9.1q1.3 0.6 2.6 1.2 2.2 1 4.5 1.9 4.2 1.6 8.5 2.8 5 1.3 10.1 1.9 1.5 0.2 3 0.3 0.5 0.1 0.9 0.1 3.5 0.2 6.9 0.1 1-0.1 2-0.2 2-0.1 3.9-0.3 2.4-0.3 4.6-0.8c0.3 0.2 0.5 0.4 0.8 0.6 1.2 1.1 2.3 2.5 3.2 4.2 1.8-2.5 3.7-5 5.8-7.5 8.1-2.8 15.3-6.8 21.3-11 4.1-2.8 7.7-5.7 10.7-8.5q0.2-0.1 0.3-0.2z"/>
						</g>
					</g>
					<g id="&lt;Group&gt;">
						<path id="&lt;Path&gt;" class="s0" d="m161.7 74.6c0 0-6 122.6 110.9 98.9 0 0-20.2 0-31.7-34.8-7.5-22.6-32.3-68.8-79.2-64.1z"/>
					</g>
					<g id="&lt;Group&gt;">
						<path id="&lt;Path&gt;" class="s5" d="m257.6 182.6q-6.9 1-13.2 1.4c-13.8 0-26.1-2.4-37-7q-5.2-2.2-9.9-5.2-4.1-2.5-7.8-5.5-0.8-0.7-1.7-1.4-1.2-1.1-2.4-2.2-3-2.8-5.6-5.8-2.9-3.3-5.4-6.9c-4.7-6.6-8.3-13.7-11.1-20.9q-1-2.6-1.9-5.1c-1.6-4.7-2.8-9.4-3.8-13.9q0 0 0 0-0.7-3-1.2-5.9-0.4-2.1-0.7-4.1-0.1-0.6-0.2-1.1-0.3-2.4-0.6-4.7-0.2-1.8-0.3-3.6-0.1-1-0.2-1.9-0.1-0.9-0.1-1.8-0.1-0.8-0.1-1.5 0-0.2 0-0.4-0.1-1-0.1-1.9 0-0.3 0-0.5v-0.1q-0.1-1.9-0.1-3.5v-1.4c10.1-0.2 19.1 1.9 27 5.6 27.7 13 41.9 45.2 46.7 62.8 2.8 10.2 6.4 17.5 10.1 22.8 9.4 13.1 19.6 13.7 19.6 13.7z"/>
					</g>
					<g id="&lt;Group&gt;">
						<path id="&lt;Compound Path&gt;" fill-rule="evenodd" class="s3" d="m279.3 177c-1.1 1.9-3 3.3-5.3 3.8q-15.7 3.2-29.6 3.2c-13.8 0-26.1-2.4-37-7q-5.2-2.2-9.9-5.2-4.1-2.5-7.8-5.5-0.8-0.7-1.7-1.4-1.2-1.1-2.4-2.2-3-2.8-5.6-5.8-2.9-3.3-5.4-6.9c-4.7-6.6-8.3-13.7-11.1-20.9q-1-2.6-1.9-5.1c-1.6-4.7-2.8-9.4-3.8-13.9q0 0 0 0-0.7-3-1.2-5.9-0.4-2.1-0.7-4.1-0.1-0.6-0.2-1.1-0.3-2.4-0.6-4.7-0.2-1.8-0.3-3.6-0.1-1-0.2-1.9-0.1-0.9-0.1-1.8-0.1-0.8-0.1-1.5 0-0.2 0-0.4-0.1-1-0.1-1.9 0-0.3 0-0.5v-0.1q-0.1-1.9-0.1-3.5v-1.4q0-0.9 0-1.6v-1q0-0.6 0-0.8 0 0 0 0 0.1-1.6 0.8-3c0.8-1.7 2.3-3 4.2-3.7q0.8-0.3 1.7-0.4 0.4 0 0.7-0.1 2.3-0.2 4.4-0.2 1-0.1 1.9-0.1 5.2 0 10.2 0.7c4.8 0.7 9.4 1.9 13.8 3.5q2.8 1.1 5.4 2.3c5.3 2.5 10.3 5.7 14.9 9.4 1.2 0.9 2.4 1.9 3.6 2.9q0.4 0.4 0.8 0.7 0.3 0.3 0.6 0.6 1.5 1.4 2.9 2.8c3.4 3.4 6.5 7.1 9.4 11 3.1 4.1 5.8 8.3 8.3 12.7q2 3.5 3.7 7.1 0.9 1.9 1.7 3.7 0.8 1.7 1.5 3.4 0.8 1.9 1.4 3.7 1 2.5 1.9 5.1 0.5 1.6 1.1 3.1 1.2 3.2 2.4 6c9.2 19.6 20.7 20.5 21.2 20.5 3.9-0.2 7.1 2.6 7.6 6.5 0.2 1.6-0.2 3.2-1 4.5zm-41.3-8.1q5.5 0.3 11.4 0.1c-3.3-3.6-6.6-8.1-9.7-13.9q-1.2-2.3-2.4-4.9c-1.2-2.8-2.4-5.8-3.5-9.1-0.3-1.1-1.1-3.4-2.5-6.5q0.3-0.9 0.6-1.6c0.7-1.9 1.7-3.4 3-4.4q-1.6 0-3.1 0-0.9 0.1-1.9 0-0.6 0-1.2 0c-1.2-2.4-2.5-5-4-7.8-1.6-2.6-3.2-5.4-5.2-8.2-6.6-9.7-15.8-19.5-27.7-25.4q-0.1-0.1-0.2-0.1-1.8-0.9-3.8-1.7-1.6-0.6-3.3-1.2-1.6-0.5-3.3-0.9-1.3-0.3-2.6-0.6-1.9-0.3-3.9-0.6-2.7-0.3-5.5-0.3 0 0.5 0 1.1 0.1 0.9 0.1 1.9c0.1 1 0.2 2 0.3 3.2q0 0.9 0.1 1.8 0 1.2 0 2.7 0.1-0.1 0.3-0.1 0.1 1 0.3 2.1c0.4 3.6 1.1 7.5 1.9 11.6 0.4 1.9 0.9 3.8 1.4 5.7q0 0.1 0 0.1c1.2 4.5 2.7 9.1 4.7 13.7 1.8 4.5 4 9 6.8 13.2q2.6 4.3 6 8.1 2.3 2.7 4.9 5.2 0.9 0.8 1.8 1.5c10.6 9.1 24.1 14.2 40.2 15.3z"/>
					</g>
					<g id="&lt;Group&gt;">
						<g id="&lt;Group&gt;">
							<path id="&lt;Path&gt;" class="s0" d="m159.7 83.2c0 0 55.7 74.4 130.7 14.9 0 0-15 7.9-40.5-8.1-16.7-10.4-57.8-27.9-90.2-6.8z"/>
						</g>
						<g id="&lt;Group&gt;">
							<path id="&lt;Path&gt;" class="s5" d="m290.8 106.8c-0.7 0.6-1.3 1.2-2 1.8q-0.1 0.1-0.2 0.2-5.8 4.1-11.6 7.3c-0.6 0.4-1.1 0.6-1.7 1q-0.2 0.1-0.4 0.2c-1.4 0.7-2.9 1.5-4.3 2.1q-1.2 0.6-2.3 1.1-3.8 1.7-7.6 3c-4.9 1.8-9.7 3-14.6 3.9q-0.7 0.1-1.4 0.2-1.8 0.3-3.6 0.5c-1.4 0.2-2.8 0.3-4.2 0.4q-1 0-2 0.1-1.6 0-3.1 0-0.9 0.1-1.9 0-0.6 0-1.2 0c-2.5-0.1-5-0.3-7.4-0.6q-0.1 0-0.2 0c-7.7-1-14.8-3-21.3-5.6q-3.6-1.5-7-3.1c-2.7-1.4-5.4-2.8-7.9-4.3q-4.4-2.7-8.2-5.5-2.3-1.7-4.5-3.4-1.8-1.4-3.4-2.8c-0.6-0.5-1.1-1-1.7-1.5q-2.1-1.9-3.9-3.7c-0.5-0.4-0.9-0.9-1.4-1.3 30.4-19.9 70.9-5.2 87.9 4 25.9 14.1 40.1 6.6 41.1 6z"/>
						</g>
						<g id="&lt;Group&gt;">
							<path id="&lt;Compound Path&gt;" fill-rule="evenodd" class="s3" d="m295 104c-2.1 1.6-4.1 3.2-6.2 4.6q-0.1 0.1-0.2 0.2-5.8 4.1-11.6 7.3c-0.6 0.4-1.1 0.6-1.7 1q-0.2 0.1-0.4 0.2c-1.4 0.7-2.9 1.5-4.3 2.1q-1.2 0.6-2.3 1.1-3.8 1.7-7.6 3c-4.9 1.8-9.7 3-14.6 3.9q-0.7 0.1-1.4 0.2-1.8 0.3-3.6 0.5c-1.4 0.2-2.8 0.3-4.2 0.4q-1 0-2 0.1-1.6 0-3.1 0-0.9 0.1-1.9 0-0.6 0-1.2 0c-2.5-0.1-5-0.3-7.4-0.6q-0.1 0-0.2 0c-7.7-1-14.8-3-21.3-5.6q-3.6-1.5-7-3.1c-2.7-1.4-5.4-2.8-7.9-4.3q-4.4-2.7-8.2-5.5-2.3-1.7-4.5-3.4-1.8-1.4-3.4-2.8c-0.6-0.5-1.1-1-1.7-1.5q-2.1-1.9-3.9-3.7c-0.5-0.4-0.9-0.9-1.4-1.3q-0.6-0.7-1.2-1.3-0.1-0.1-0.1-0.1-1.5-1.6-2.7-2.8-1.3-1.5-2.2-2.6-0.6-0.7-1-1.2c-0.3-0.4-0.5-0.7-0.7-0.9q-0.1-0.1-0.2-0.2c0-0.1 0-0.1 0-0.1q-0.8-1-1.1-2.2-0.3-0.9-0.4-1.9 0-0.2 0-0.5 0-0.2 0-0.3 0.1-0.4 0.1-0.9 0.3-1.6 1.3-2.9c0-0.2 0.1-0.3 0.2-0.4q0.2-0.2 0.4-0.4l0.4-0.4q0.5-0.4 1-0.8 1.5-1 3-1.8 0.5-0.4 1.1-0.6c0.3-0.2 0.6-0.4 0.9-0.5q0.7-0.4 1.4-0.7 1.3-0.7 2.7-1.3 1.5-0.8 3.1-1.4 2.3-0.9 4.6-1.6 1.1-0.3 2.2-0.6 1.7-0.5 3.5-0.9c35.6-7.8 71 13.3 75.7 16.2 21.1 13.1 32.8 8 33.3 7.8 3.4-1.8 7.5-0.7 9.6 2.5 2.1 3.2 1.3 7.6-1.7 10zm-33.6 3.2q0.7-0.3 1.4-0.6 0.3-0.1 0.7-0.3 0.1-0.1 0.2-0.1 0.8-0.4 1.7-0.8c-1.4-0.5-2.9-0.9-4.4-1.5q-2.1-0.8-4.2-1.8c-3.3-1.4-6.8-3.2-10.4-5.5q-0.2-0.1-0.5-0.3c-2.6-1.6-16.3-9.8-33.7-13.6-3.7-0.9-7.6-1.5-11.6-1.8q-2.6-0.2-5.3-0.3-3.6 0-7.2 0.4-1.3 0.1-2.7 0.3-0.4 0.1-0.9 0.1-0.6 0.1-1.3 0.3-1.9 0.3-3.8 0.8-0.4 0.1-0.8 0.2-1.3 0.4-2.7 0.8-0.1 0.1-0.2 0.1-2.2 0.7-4.3 1.6c1.5 1.5 3.1 3.1 4.9 4.8q1.8 1.6 3.8 3.2c2.9 2.4 6.3 4.9 9.9 7.3q3.6 2.3 7.6 4.4c4.3 2.3 9 4.3 14.1 5.8q3.8 1.2 7.8 1.9 1.8 0.4 3.6 0.6 3 0.4 6 0.5 4.4 0.1 8.7-0.3 4.6-0.4 9.3-1.4 4.4-1 8.8-2.6 2.8-1 5.5-2.2z"/>
						</g>
					</g>
					<g id="&lt;Group&gt;">
						<path id="&lt;Path&gt;" class="s0" d="m185.8 129.6c0 31.1-24.1 56.3-24.1 56.3 0 0-24-25.2-24-56.3 0-31.1 10.7-56.3 24-56.3 13.3 0 24.1 25.2 24.1 56.3z"/>
					</g>
					<g id="&lt;Group&gt;">
						<path id="&lt;Path&gt;" class="s5" d="m193.2 129.6c0 6-0.8 11.9-2.1 17.3-0.7 2.9-1.6 5.7-2.5 8.4-0.9 2.6-1.9 5-3 7.4q-1.1 2.6-2.4 5.1c-3.2 6.2-6.7 11.5-9.6 15.4-6.1-7.3-21.7-28.6-21.7-53.6 0-31.1 10.8-56.4 24-56.4q0.8 0 1.5 0.1c0.5 0.6 1 1.1 1.4 1.7q0.2 0.1 0.2 0.2 0.5 0.7 1 1.3 1.6 2.2 3 4.7 0 0.1 0 0.1c0.1 0.1 0.2 0.3 0.2 0.4q0.7 1.2 1.3 2.5 0.2 0.3 0.3 0.7 0.1 0.1 0.2 0.3 0.5 1.2 1 2.5c1.6 3.9 3 8.3 4 12.8 0.8 3.2 1.4 6.5 1.9 9.9 0.4 2.9 0.7 5.9 0.9 8.9q0.2 2.3 0.3 4.7 0.1 2.8 0.1 5.6z"/>
					</g>
					<g id="&lt;Group&gt;">
						<path id="&lt;Compound Path&gt;" fill-rule="evenodd" class="s3" d="m193.2 129.6c0 6-0.8 11.9-2.1 17.3-0.7 2.9-1.6 5.7-2.5 8.4-0.9 2.6-1.9 5-3 7.4q-1.1 2.6-2.4 5.1c-3.2 6.2-6.7 11.5-9.6 15.4-3.5 4.7-6.1 7.5-6.5 7.8-1.4 1.5-3.3 2.4-5.4 2.4-2 0-4-0.9-5.4-2.4-0.6-0.6-8.9-9.5-16-23.2-0.9-1.6-1.7-3.4-2.5-5.2-1.1-2.4-2.1-4.9-3-7.5q-1.4-4-2.5-8.3c-1.3-5.5-2.1-11.2-2.1-17.2q0-3.4 0.2-6.8 0.1-2.4 0.3-4.7 0.4-4.7 1.1-9.2 0.8-5.3 2-10.2c0.8-2.7 1.6-5.4 2.5-8q0.4-1.3 1-2.6 0.2-0.7 0.5-1.3 0.2-0.5 0.4-1c0.3-0.5 0.5-1.1 0.8-1.6q0.1-0.2 0.1-0.3 0.5-0.9 0.9-1.8 1.8-3.5 4-6.3 0.1-0.2 0.2-0.3 0.1-0.1 0.3-0.3c1.8-2.3 3.7-4.2 5.9-5.7q1.5-1.1 3.1-1.8 0.3-0.2 0.6-0.3 0.7-0.3 1.5-0.6 2.9-1 6.1-1 2.3 0 4.5 0.5 0.9 0.2 1.7 0.5 1.4 0.5 2.8 1.3 0.9 0.4 1.7 0.9c1.7 1.2 3.4 2.6 5 4.3 0.5 0.6 1 1.1 1.4 1.7q0.2 0.1 0.2 0.2 0.5 0.7 1 1.3 1.6 2.2 3 4.7 0 0.1 0 0.1c0.1 0.1 0.2 0.3 0.2 0.4q0.7 1.2 1.3 2.5 0.2 0.3 0.3 0.7 0.1 0.1 0.2 0.3 0.5 1.2 1 2.5c1.6 3.9 3 8.3 4 12.8 0.8 3.2 1.4 6.5 1.9 9.9 0.4 2.9 0.7 5.9 0.9 8.9q0.2 2.3 0.3 4.7 0.1 2.8 0.1 5.6zm-15.8-15q-0.3-2.6-0.7-5.1c-0.8-4.5-1.8-8.4-3-11.9q-1-3.2-2.2-5.9-0.9-1.8-1.8-3.4-0.1-0.1-0.1-0.3-0.4-0.6-0.8-1.3-0.2-0.3-0.5-0.6-0.5-0.8-1-1.5-0.9-1.1-1.8-1.9-0.5-0.5-1-0.9-0.1-0.1-0.3-0.2-0.3-0.2-0.6-0.4-0.2-0.1-0.4-0.1 0-0.1 0-0.1-0.8-0.3-1.5-0.3-0.1 0-0.1 0c-0.8 0-1.6 0.4-2.5 1q-0.3 0.2-0.6 0.4-0.2 0.2-0.4 0.4-0.1 0.1-0.2 0.1-0.9 0.9-1.9 2.3c-0.5 0.6-1 1.2-1.4 1.9q-0.1 0.1-0.1 0.2-0.3 0.5-0.6 0.9-0.1 0.3-0.3 0.6-0.8 1.4-1.6 3.1-0.2 0.5-0.4 1-0.4 1-0.8 2c-1.4 3.6-2.7 7.9-3.6 12.8q-0.5 2.6-0.9 5.4c-0.6 3.8-1 7.9-1.1 12.4q-0.1 2.1-0.1 4.4c0 3.6 0.4 7.1 1 10.5 0.6 3 1.3 5.8 2.2 8.5q0.2 0.6 0.5 1.3 1 2.9 2.2 5.6 0.6 1.7 1.4 3.2 0.4 0.8 0.8 1.5c1.6 3.2 3.3 6.1 4.9 8.7 1.3 1.9 2.5 3.7 3.6 5.2 0.9-1.2 1.8-2.5 2.7-3.9 2.6-3.8 5.3-8.5 7.6-13.8q1.4-3 2.6-6.4c1.1-3 2-6.3 2.6-9.7 0.7-3.4 1.1-7 1.1-10.7q0-2 0-4-0.2-5.8-0.9-11z"/>
					</g>
				</g>
			</g>
		</g>
	</g>
</svg>