<svg version="1.2" xmlns="http://www.w3.org/2000/svg" viewBox="0 0 400 482" width="400" height="482">
	<title>Artwork</title>
	<style>
		.s0 { fill: #ffffff } 
		.s1 { fill: #01982f } 
		.s2 { fill: #231f20 } 
		.s3 { fill: #4243d4 } 
		.s4 { fill: #3524a7 } 
	</style>
	<g id="Artwork">
		<g id="&lt;Group&gt;">
			<g id="-e-&lt;Group&gt;">
				<g id="&lt;Group&gt;">
					<g id="&lt;Group&gt;">
						<path id="&lt;Path&gt;" class="s0" d="m173.2 205.3c0 0-124-20-76.9-194.7 0 0 134.3 69.2 76.9 194.7z"/>
					</g>
					<g id="&lt;Group&gt;">
						<path id="&lt;Path&gt;" class="s1" d="m180.6 205.4c-1.3-0.4-3.6-1.1-6.5-2.2-6.4-2.5-15.9-6.9-25.8-14.3-28.4-21.1-60.3-66.3-34.5-158.9q0.9-3.5 2-7c0.7-2.3 1.4-4.6 2.2-6.9 12.3 8.7 29 22.2 43.6 40.5 24.9 31.2 48.3 82.1 19 148.8z"/>
					</g>
					<g id="&lt;Group&gt;">
						<path id="&lt;Compound Path&gt;" fill-rule="evenodd" class="s2" d="m180.6 205.4q-0.5 1.4-1.2 2.8l-2.2 4.7-5.1-0.8c-1.8-0.3-45.2-7.7-72.4-49.8-24-37.2-27.4-88.8-10-153.4l2.2-8.2 7.5 3.9c0.7 0.3 8.1 4.2 18.6 11.5 12.3 8.7 29 22.2 43.6 40.5 24.9 31.2 48.3 82.1 19 148.8zm-11.4-8c20-47.5 13.9-91.8-18-131.9-12.2-15.4-26.2-27.3-37.4-35.5-5.1-3.8-9.7-6.7-13.2-8.9-13.8 56.6-10.2 101.6 10.6 133.8 10.9 16.9 25 27.5 37.1 34 8.6 4.6 16.2 7.2 20.9 8.5z"/>
					</g>
				</g>
				<g id="&lt;Group&gt;">
					<g id="&lt;Group&gt;">
						<path id="&lt;Path&gt;" class="s0" d="m175.4 207.4c0 0 19.8-125.3 214.1-87.5 0 0-74.1 138.4-214.1 87.5z"/>
					</g>
					<g id="&lt;Group&gt;">
						<path id="&lt;Path&gt;" class="s1" d="m383.5 141.8c-9.4 12.9-24.2 30.5-44.3 46.3-24 18.8-59 37.3-103.6 37.3-18.4 0-38.5-3.1-60.1-10.7 0.4-1.4 1.1-3.7 2.3-6.5 2.4-6 6.6-14.8 13.5-24.3 22.1-30.1 71.5-67 177.5-45.3q3.6 0.7 7.4 1.5c2.4 0.6 4.8 1.1 7.3 1.7z"/>
					</g>
					<g id="&lt;Group&gt;">
						<path id="&lt;Compound Path&gt;" fill-rule="evenodd" class="s2" d="m399.9 115l-4.4 8.1c-0.3 0.7-4.4 8.1-12 18.7-9.4 12.9-24.2 30.5-44.3 46.3-24 18.8-59 37.3-103.6 37.3-18.4 0-38.5-3.1-60.1-10.7q-1.2-0.4-2.5-0.9l-5.3-1.9 0.9-5.6c0.3-1.7 7.2-42.8 49.1-72 40.6-28.5 98.9-35.6 173.1-21.1zm-31.1 23.6c4.1-5.3 7.4-10 9.7-13.7-65.6-11.3-117-4.5-152.7 20.4-17.3 12.1-28 26.5-34.4 38.6-4.2 7.8-6.6 14.6-7.9 19.1 53.5 17.7 103 9.1 147.3-25.6 16.4-13 29.2-27.3 38-38.8z"/>
					</g>
				</g>
				<g id="&lt;Group&gt;">
					<g id="&lt;Group&gt;">
						<path id="&lt;Path&gt;" class="s0" d="m156.9 323.8c39 23.5 52.3 72.9 29.8 110.3-22.5 37.4-72.4 48.7-111.4 25.2-39-23.5-52.3-72.9-29.7-110.3 22.5-37.4 72.4-48.6 111.3-25.2z"/>
					</g>
					<g id="&lt;Group&gt;">
						<path id="&lt;Path&gt;" class="s3" d="m192.5 437.6q-2.9 4.9-6.3 9.1-0.7 0.6-1.4 1.1-1.9 1.5-4 2.9-1.4 1-2.9 1.9-1.4 0.8-2.8 1.6c-4.9 2.8-10.1 4.9-15.6 6.6-8.5 2.6-17.5 3.7-26.6 3.4q-1.9 0-3.8-0.2 0 0 0 0-2.1-0.2-4.3-0.5c-0.5 0-1.1-0.1-1.6-0.2-2.3-0.3-4.5-0.8-6.7-1.3q-3.4-0.8-6.6-1.9c-6.1-2-12.1-4.7-17.8-8.1q-0.2-0.2-0.5-0.3-3.3-2-6.4-4.3c-5.1-3.8-9.8-8.2-13.8-12.9q-2.3-2.6-4.3-5.4-2.2-3-4.1-6.2c-14.7-24.6-16-55.7-0.7-81.1q2.5-4.1 5.4-7.7c5-6.5 11.1-12 17.7-16.5q0.9-0.5 1.8-1.1 1-0.7 2.1-1.3 0.2-0.1 0.3-0.2c0.6-0.3 1.2-0.6 1.8-1q0.1-0.1 0.3-0.1 0.9-0.5 1.8-1c0.2-0.1 0.4-0.2 0.6-0.3q0.9-0.4 1.9-0.9 2.2-1 4.6-1.9 0.7-0.3 1.4-0.6 0.7-0.2 1.3-0.4 0.7-0.3 1.5-0.5 1-0.4 2-0.6 1.1-0.3 2.1-0.6 0.7-0.2 1.4-0.4 2-0.5 3.9-0.8 2.6-0.6 5.3-0.9 0 0 0 0c14 1 28.1 5.2 41 13 42.1 25.4 56.5 79 32 119.6z"/>
					</g>
					<g id="&lt;Group&gt;">
						<path id="&lt;Path&gt;" class="s4" d="m192.5 437.6q-2.9 4.9-6.3 9.1-0.7 0.6-1.4 1.1-1.9 1.5-4 2.9-1.4 1-2.9 1.9-1.4 0.8-2.8 1.6c-4.9 2.8-10.1 4.9-15.6 6.6-8.5 2.6-17.5 3.7-26.6 3.4q-1.9 0-3.8-0.2 0 0 0 0-2.1-0.2-4.3-0.5c17.6-4.8 33.3-15.8 43.2-32.3 21.2-35.1 8.7-81.3-27.8-103.3-7.2-4.4-14.8-7.4-22.5-9.3-10.8-2.6-21.8-2.9-32.3-1q0 0 0 0 0.9-0.6 1.8-1.1 1-0.7 2.1-1.3 0.2-0.1 0.3-0.2 0 0 0 0c0.6-0.3 1.2-0.6 1.8-1q0.1-0.1 0.3-0.1 0.9-0.5 1.8-1c0.2-0.1 0.4-0.2 0.6-0.3q0.9-0.4 1.9-0.9 2.2-1 4.6-1.9 0.7-0.3 1.4-0.6 0.7-0.2 1.3-0.4 0.7-0.3 1.5-0.5 1-0.4 2-0.6 1.1-0.3 2.1-0.6 0.7-0.2 1.4-0.4 2-0.5 3.9-0.8 2.6-0.6 5.3-0.9 0 0 0 0c14 1 28.1 5.2 41 13 42.1 25.4 56.5 79 32 119.6z"/>
					</g>
					<g id="&lt;Group&gt;">
						<path id="&lt;Compound Path&gt;" fill-rule="evenodd" class="s2" d="m192.5 437.6q-2.9 4.9-6.3 9.1c-16.4 20.5-41.4 31.6-67.2 31.6q-0.5 0-0.9 0c-11.6-0.1-23.3-2.4-34.5-7.2q-5.7-2.4-11.1-5.6-0.4-0.2-0.7-0.4-3.5-2.1-6.8-4.5c-36.8-26.8-48.4-76.8-25.3-115.1 16.9-28.1 48.2-42.7 79.8-40.5q0 0 0 0c14 1 28.1 5.2 41 13 42.1 25.4 56.5 79 32 119.6zm-11.6-7c20.5-34.2 8.2-79.4-27.5-100.9-11.2-6.8-23.5-10.4-35.7-11.1q-2.2-0.2-4.4-0.2c-16.6 0-32.8 5.5-45.6 15.7-6.4 5-11.9 11.2-16.3 18.4-14.8 24.6-12.6 54.9 3.2 78q1.9 2.8 4.1 5.5c5.1 6.2 11.2 11.8 18.4 16.3q0.9 0.6 1.8 1.1c9.6 5.8 19.9 9.3 30.3 10.6q3.4 0.5 6.8 0.6 3.5 0.2 6.9 0 3.1-0.2 6.2-0.6 0 0 0 0c21-2.8 40.3-14.4 51.8-33.4z"/>
					</g>
					<g id="&lt;Group&gt;">
						<path id="&lt;Path&gt;" class="s3" d="m110.9 413.1c4.9 3 2.6 13.5 5.5 17.9 3.2 4.7 13.7 7.1 14 12.5 0.4 5.4-9.4 8.8-12.4 13.7-2.9 4.9-1.3 15.2-6.3 17.4-4.9 2.1-11.9-6-17.6-6.6-5.2-0.5-13.5 6.5-18.4 3.5-5-3-2.7-13.5-5.6-17.9-3.1-4.8-13.6-7.2-14-12.5-0.4-5.5 9.5-8.9 12.4-13.7 2.9-4.9 1.3-15.2 6.4-17.4 4.9-2.2 11.9 6 17.6 6.5 5.2 0.6 13.4-6.4 18.4-3.4z"/>
					</g>
					<g id="&lt;Group&gt;">
						<path id="&lt;Path&gt;" class="s2" d="m97.1 435.9c4.2 2.5 5.6 7.8 3.2 11.9-2.4 4-7.8 5.2-12 2.7-4.2-2.5-5.6-7.9-3.2-11.9 2.5-4 7.8-5.2 12-2.7z"/>
					</g>
					<g id="&lt;Group&gt;">
						<path id="&lt;Compound Path&gt;" fill-rule="evenodd" class="s2" d="m127.9 457.3c-1.4 1-3.5 2.6-4 3.4-0.3 0.5-0.5 1.5-0.7 2.6q-0.2 0.6-0.3 1.3-0.1 0.7-0.2 1.4c-0.2 1.7-0.6 3.6-1.1 5.5-0.6 2.4-1.7 4.9-3.5 6.8-1 1-2.2 1.9-3.7 2.6-1.5 0.6-3 0.9-4.5 0.9-4.4 0-8.4-2.5-11.6-4.4-1.5-1-4-2.5-4.9-2.6-0.7 0-3 1-4.5 1.6-4.6 1.9-11 4.4-16.8 1-5.8-3.5-6.5-10.4-6.9-15.3q-0.1-0.7-0.2-1.5c-0.1-1.4-0.3-2.8-0.6-3.3-0.5-0.7-3-2.2-4.5-3.1-4.3-2.5-10.1-6-10.6-12.6-0.2-2 0.2-3.8 0.9-5.4 1-2.2 2.6-4.1 4.4-5.7 1.3-1.2 2.7-2.3 4-3.2 1.4-1 3.6-2.6 4.1-3.5q0.2-0.3 0.3-0.9c0.4-1.2 0.6-3 0.8-4.3 0.8-5.1 1.9-12.1 8.3-14.9 6.1-2.7 11.9 0.9 16.1 3.5 1.5 0.9 4 2.4 4.9 2.5 0.8 0 3-0.9 4.5-1.5 4.7-1.9 11-4.5 16.8-1 2.9 1.8 4.5 4.3 5.5 7.1 1 2.8 1.3 5.7 1.5 8.2 0.2 1.6 0.4 4.1 0.8 4.8 0.4 0.7 2.9 2.2 4.4 3 4.3 2.6 10.2 6.1 10.7 12.7 0.5 7-5.2 11.2-9.4 14.3zm-5.2-13.3c-0.9-0.6-2.2-1.4-3-1.9-3.2-1.9-6.8-4-9-7.4-2.2-3.2-2.5-7.3-2.9-10.8-0.1-1.4-0.3-3.4-0.7-4.6-1.2 0.3-3.1 1-4.3 1.5-3.3 1.4-7.1 2.9-11 2.5-4-0.4-7.6-2.5-10.7-4.4-0.9-0.6-2.1-1.3-3.1-1.8-0.3 1.1-0.5 2.6-0.7 3.6-0.5 3.3-1.1 7.1-2.9 10.2-0.8 1.4-1.9 2.5-3 3.6-1.5 1.4-3.1 2.6-4.7 3.8-0.8 0.6-2 1.5-2.9 2.3 1 0.6 2.2 1.4 3.1 1.9 3.1 1.8 6.7 4 8.9 7.3q0.8 1.2 1.3 2.5c1.1 2.7 1.4 5.7 1.6 8.4q0.1 0.3 0.1 0.5c0.1 1.4 0.3 3 0.6 4.1 1.2-0.3 3.1-1.1 4.4-1.6 3-1.2 6.3-2.5 9.7-2.5q0.6 0 1.3 0c4 0.4 7.5 2.6 10.6 4.5 0.9 0.5 2.1 1.3 3.2 1.8 0.2-1 0.4-2.4 0.6-3.5q0-0.1 0-0.1c0.2-1.3 0.4-2.5 0.7-3.8 0.4-2.2 1.1-4.4 2.3-6.4 1.9-3.1 4.9-5.4 7.6-7.4 0.8-0.6 2-1.5 2.9-2.3z"/>
					</g>
				</g>
				<g id="&lt;Group&gt;">
					<g id="&lt;Group&gt;">
						<path id="&lt;Path&gt;" class="s0" d="m157.3 297.4c18.4 44.3 67.8 65.9 110.3 48.2 42.5-17.7 62.1-67.9 43.6-112.2-18.4-44.3-67.8-65.9-110.3-48.3-42.5 17.7-62 67.9-43.6 112.3z"/>
					</g>
					<g id="&lt;Group&gt;">
						<g id="&lt;Group&gt;">
							<path id="&lt;Path&gt;" class="s3" d="m324.5 277.8c-3.5 32.2-23.3 61.2-54.3 74.1-10.8 4.5-22.1 6.7-33.5 6.7-12.2 0-24.4-2.5-36.1-7.6-22.4-9.8-40.1-28-49.6-51q-1.2-2.9-2.2-5.8-0.4-2.4-0.5-4.8-0.4-5.5 0-11 0.1-1.4 0.3-2.8 0.1-1.3 0.3-2.7 0.3-2.7 0.9-5.3 0.2-1.4 0.6-2.7 0-0.2 0.1-0.4 0.3-1.4 0.7-2.7 0.3-1.4 0.7-2.6 0-0.2 0.1-0.3 0.9-3 2.1-6 1.2-3 2.5-5.8 1-2 2-3.8 0.9-1.7 1.9-3.4 0 0 0 0 1.2-2.1 2.6-4c0.5-0.8 1.1-1.6 1.6-2.4q0.4-0.5 0.8-1c7.3-9.8 16.8-18.3 28.3-24.9 29.5-16.8 64.5-15.8 91.4-0.2 8.7 5 16.5 11.5 23.1 19.5v0.1c2.6 3.2 5.1 6.7 7.3 10.4 4.1 7 7.1 14.3 9 21.9 0.6 6.2 0.5 12.4-0.1 18.5z"/>
						</g>
						<g id="&lt;Group&gt;">
							<path id="&lt;Path&gt;" class="s4" d="m324.5 277.8c-3.5 32.2-23.3 61.2-54.3 74.1-10.8 4.5-22.1 6.7-33.5 6.7-12.2 0-24.4-2.5-36.1-7.6-22.4-9.8-40.1-28-49.6-51q-1.2-2.9-2.2-5.8c0.3 2.9 0.3 2.8-0.1-0.1-0.6-5.2-0.7-10.5-0.4-15.7q0.1-1.4 0.3-2.8 0.5-5.4 1.8-10.7 0-0.2 0.1-0.4 0.3-1.4 0.7-2.7 0.3-1.4 0.7-2.6 0-0.2 0.1-0.3c1.7-5.4 3.8-10.6 6.6-15.6q0.9-1.7 1.9-3.4 1.2-2.1 2.6-4c0.5-0.8 1.1-1.6 1.6-2.4q0.4-0.5 0.8-1 0 0 0 0c-4.6 19.1-2.1 39.7 8.5 57.7 22.7 38.3 73.8 50.8 114.2 27.9q5.5-3.1 10.4-6.9c5.6-4.4 10.5-9.3 14.7-14.6 4.6-5.8 8.3-12.1 11.2-18.8z"/>
						</g>
					</g>
					<g id="&lt;Group&gt;">
						<path id="&lt;Compound Path&gt;" fill-rule="evenodd" class="s2" d="m324.5 277.8c-3.5 32.2-23.3 61.2-54.3 74.1-10.8 4.5-22.1 6.7-33.5 6.7-12.2 0-24.4-2.5-36.1-7.6-22.4-9.8-40.1-28-49.6-51q-1.2-2.9-2.2-5.8-0.1-0.1-0.1-0.1c-3.5-10.2-5.2-20.7-5.2-31.2 0-11.6 2.1-23.2 6.4-34.1 8.9-23 26.1-40.7 48.4-50 45.9-19.1 99.4 4.2 119.3 52 3.8 9.3 6.2 18.9 7 28.5 0.6 6.2 0.5 12.4-0.1 18.5zm-19.6-41.8c-4.6-11.2-11.4-20.9-19.7-28.6-14.7-13.8-33.9-21.6-53.5-21.6-9.4 0-19 1.8-28.2 5.6-18.8 7.9-33.3 22.9-40.9 42.3q-1.2 3.1-2.1 6.2 0 0 0 0c-5.3 17.9-4.3 37.1 3.1 54.8 4.1 9.9 9.9 18.8 17.1 26.2 7.2 7.4 15.8 13.4 25.4 17.6 19.1 8.3 40 8.6 58.9 0.8 14.2-5.9 25.7-15.9 33.6-28.1 13.8-21.2 17.1-49.3 6.3-75.2z"/>
					</g>
					<g id="&lt;Group&gt;">
						<path id="&lt;Path&gt;" class="s2" d="m258.1 255.5c2 4.7 7.3 7.1 11.9 5.2 4.5-1.9 6.6-7.4 4.7-12.1-2-4.8-7.3-7.1-11.9-5.2-4.6 1.9-6.7 7.3-4.7 12.1z"/>
					</g>
					<g id="&lt;Group&gt;">
						<path id="&lt;Compound Path&gt;" fill-rule="evenodd" class="s2" d="m300.8 263.3c2.1 5 4.8 11.3 1.2 17-3.9 6.1-11.2 6.2-16.6 6.2-2 0-4.7 0-5.7 0.4-1 0.4-3 2.4-4.4 3.8-3.3 3.3-7.7 7.6-13.4 7.6q-1.3 0.1-2.7-0.2c-6.5-1.5-9.1-7.8-11.2-12.8-0.7-1.8-1.9-4.7-2.6-5.4-0.7-0.5-3.3-1.2-5-1.6-5-1.3-11.9-3-14.6-9.4-0.6-1.6-0.9-3.2-0.9-4.7 0-4.7 2.5-9 4.5-12.3 0.9-1.6 2.3-3.9 2.4-4.7 0.1-1-1.2-3.9-1.9-5.6-2.1-5-4.8-11.3-1.2-17 3.9-6.1 11.2-6.2 16.6-6.2 2 0 4.7 0 5.7-0.4 1-0.4 3-2.4 4.4-3.8 3.8-3.8 9-8.9 16-7.4 6.6 1.5 9.2 7.8 11.3 12.8 0.7 1.8 1.9 4.7 2.6 5.4 0.7 0.5 3.3 1.2 5 1.6 5 1.3 11.9 3 14.6 9.4 2.7 6.4-1 12.6-3.6 17-0.9 1.6-2.3 3.9-2.4 4.7-0.1 1 1.2 3.9 1.9 5.6zm-15.6-6.3c0.2-4 2.3-7.6 4.3-10.9 0.8-1.4 2.1-3.5 2.5-4.7-1.2-0.6-3.6-1.2-5.1-1.6-3.8-0.9-7.7-1.9-10.7-4.6-3.1-2.8-4.8-6.8-6.2-10.4-0.5-1.1-1.1-2.8-1.7-3.9-1 0.8-2.4 2.1-3.2 3-2.5 2.5-5.3 5.3-8.8 6.7-3.5 1.5-7.5 1.5-11 1.5-1.2 0-3.1 0-4.4 0.1 0.4 1.3 1.1 2.9 1.6 4 1.5 3.6 3.1 7.6 3 11.7-0.2 4-2.3 7.5-4.3 10.9-0.8 1.4-2.1 3.5-2.5 4.7 1.2 0.6 3.6 1.2 5.1 1.6 3.8 0.9 7.7 1.9 10.7 4.6 3.1 2.8 4.7 6.8 6.2 10.4 0.5 1.1 1.1 2.8 1.7 3.9 1.1-0.8 2.4-2.1 3.3-3 2.4-2.5 5.2-5.3 8.7-6.7 3.5-1.4 7.5-1.5 11-1.5 1.2 0 3.1 0 4.4-0.1-0.4-1.3-1.1-2.9-1.6-4-1.5-3.6-3.2-7.6-3-11.7z"/>
					</g>
				</g>
				<g id="&lt;Group&gt;">
					<g id="&lt;Group&gt;">
						<path id="&lt;Path&gt;" class="s0" d="m165.4 240.3c0 45.5-35.4 82.4-79.1 82.4-43.6 0-79-36.9-79-82.4 0-45.5 35.4-82.4 79-82.4 43.7 0 79.1 36.9 79.1 82.4z"/>
					</g>
					<g id="&lt;Group&gt;">
						<path id="&lt;Path&gt;" class="s3" d="m162.2 198.5c6.4 12.4 10 26.7 10 41.8 0 49.2-38.5 89.2-85.9 89.2q-5.6 0-11-0.8 0 0 0 0-1.2-0.4-2.4-0.8-1.3-0.6-2.7-1.2c-0.8-0.4-1.7-0.8-2.6-1.2q-1.1-0.6-2.3-1.2-0.2-0.1-0.5-0.2c-0.7-0.5-1.4-0.9-2.2-1.3q-1.2-0.7-2.4-1.4v-0.1q-1.2-0.7-2.3-1.5-2.4-1.6-4.5-3.3-0.1-0.1-0.2-0.1-1-0.9-2.1-1.8-0.8-0.7-1.6-1.4-0.1 0-0.1-0.1c-0.2-0.2-0.4-0.3-0.6-0.5-0.6-0.5-1.2-1.1-1.7-1.7q-0.9-0.8-1.8-1.7c-0.4-0.5-0.9-1-1.3-1.5q-0.6-0.6-1.3-1.4-3.2-3.7-5.9-7.7-0.6-0.8-1.1-1.6-0.1 0-0.1-0.1-1-1.6-1.9-3.2-0.6-0.9-1.1-1.8-0.8-1.5-1.6-3.1-0.9-1.9-1.8-3.9c-4.2-9.6-6.6-20.2-7-31.3q0-1.4 0-2.7c0-19.1 6.2-36.8 16.8-50.8 14.4-19.2 36.9-31.6 62.2-31.6q4.7 0 9.3 0.5c8.2 1 16 3.3 23.3 6.8q2.2 1 4.3 2.2 0.1 0 0.1 0 0.4 0.2 0.7 0.4 0.9 0.5 1.8 1 0.8 0.5 1.5 1 1.7 1.1 3.2 2.2 0.6 0.4 1.2 0.9 1 0.6 1.9 1.4 1 0.7 2 1.5 1.1 0.9 2.1 1.9 0.2 0.1 0.4 0.3 0.9 0.8 1.7 1.6 1 1 2 2 0.7 0.7 1.3 1.4 0.3 0.2 0.5 0.4 0.6 0.7 1.2 1.5 0.7 0.7 1.3 1.5 0.6 0.7 1.2 1.4 0 0 0 0.1z"/>
					</g>
					<g id="&lt;Group&gt;">
						<path id="&lt;Path&gt;" class="s4" d="m162.2 198.5c6.4 12.4 10 26.7 10 41.8 0 49.2-38.5 89.2-85.9 89.2q-5.6 0-11-0.8 0 0 0 0-1.2-0.4-2.4-0.8-1.3-0.6-2.7-1.2c-0.8-0.4-1.7-0.8-2.6-1.2q-1.1-0.6-2.3-1.2-0.2-0.1-0.5-0.2c-0.7-0.5-1.4-0.9-2.2-1.3q-1.2-0.7-2.4-1.4v-0.1q-1.2-0.7-2.3-1.5-2.3-1.6-4.5-3.3-0.1-0.1-0.2-0.1-1-0.9-2.1-1.8-0.8-0.7-1.6-1.4-0.1 0-0.1-0.1 0 0 0 0c-0.2-0.2-0.4-0.3-0.6-0.5-0.6-0.5-1.2-1.1-1.7-1.7q-0.9-0.8-1.8-1.7c-0.4-0.5-0.9-1-1.3-1.5q-0.6-0.6-1.3-1.4-3.2-3.7-5.9-7.7-0.6-0.8-1.1-1.6-0.1 0-0.1-0.1-1-1.6-1.9-3.2-0.6-0.9-1.1-1.8-0.9-1.6-1.7-3.2c-0.6-1.3-1.2-2.5-1.7-3.8q0 0 0 0c13.2 12.6 30.8 20.3 50 20.3 40.9 0 74.1-34.6 74.1-77.2 0-8.5-1.3-16.6-3.7-24.3-3.3-10.5-8.8-20-15.8-27.9q2.2 1 4.3 2.2 0.1 0 0.1 0 0.4 0.2 0.7 0.4 0.9 0.5 1.8 1 0.8 0.5 1.5 1 1.7 1.1 3.2 2.2 0.6 0.4 1.2 0.9 1 0.6 1.9 1.4 1 0.7 2 1.5 1.1 0.9 2.1 1.9 0.2 0.1 0.4 0.3 0.9 0.8 1.7 1.6 1 1 2 2 0.7 0.7 1.3 1.4 0.3 0.2 0.5 0.4 0.6 0.7 1.2 1.5 0.7 0.7 1.3 1.5 0.6 0.7 1.2 1.5z"/>
					</g>
					<g id="&lt;Group&gt;">
						<path id="&lt;Compound Path&gt;" fill-rule="evenodd" class="s2" d="m172.2 240.3c0 49.2-38.5 89.2-85.9 89.2q-5.6 0-11-0.8 0 0 0 0c-42.2-5.6-74.8-43.1-74.8-88.4 0-49.2 38.5-89.3 85.8-89.3 32.8 0 61.4 19.2 75.9 47.4q0 0 0 0.1c6.4 12.4 10 26.7 10 41.8zm-13.6 0c0-13.3-3.3-25.7-9-36.6-8.5-16-22.4-28.5-39.1-34.7-7.6-2.8-15.7-4.3-24.2-4.3-38.4 0-70 31.6-72.1 71.4q-0.1 2-0.1 4.2 0 2.1 0.1 4.1c0.9 16.8 7 32.2 16.7 44.3q0.1 0 0.1 0.1c13.3 16.5 33.2 27 55.3 27 39.9 0 72.3-33.9 72.3-75.5z"/>
					</g>
					<g id="&lt;Group&gt;">
						<path id="&lt;Path&gt;" class="s2" d="m61.9 240.3c0 4.9-3.8 8.8-8.5 8.8-4.7 0-8.5-3.9-8.5-8.8 0-4.9 3.8-8.9 8.5-8.9 4.7 0 8.5 4 8.5 8.9z"/>
					</g>
					<g id="&lt;Group&gt;">
						<path id="&lt;Compound Path&gt;" fill-rule="evenodd" class="s2" d="m95.4 240.3c0 6.7-5.5 10.8-9.5 13.8-1.3 1-3.3 2.5-3.7 3.2-0.4 0.7-0.3 3.6-0.3 5.4 0 4.9 0 11.8-5.3 15.6-5.8 4-12.3 1.3-17.1-0.6-1.6-0.7-4.1-1.7-5.1-1.7-0.9 0-3.4 1-5 1.7-3 1.2-6.6 2.7-10.3 2.7-2.3 0-4.6-0.6-6.8-2.1-5.4-3.8-5.3-10.7-5.3-15.6 0-1.8 0-4.7-0.4-5.5-0.4-0.6-2.3-2.1-3.6-3.1q-0.4-0.2-0.8-0.5c-3-2.3-6.5-5.1-8-9.2-0.4-1.2-0.7-2.6-0.7-4.1 0-1.6 0.3-3 0.7-4.2 1.7-4.4 5.7-7.4 8.8-9.7 1.3-1 3.2-2.5 3.7-3.1 0.3-0.8 0.3-3.7 0.3-5.5 0-4.9-0.1-11.7 5.3-15.6 2.1-1.5 4.4-2 6.7-2.1 3.7 0 7.4 1.5 10.4 2.7 1.6 0.7 4.1 1.7 5 1.7 1 0 3.5-1 5.1-1.7 4.8-1.9 11.3-4.6 17.1-0.6 5.3 3.9 5.3 10.7 5.3 15.6 0 1.8-0.1 4.7 0.3 5.5 0.4 0.6 2.4 2.1 3.7 3.1 4 3 9.5 7.1 9.5 13.9zm-14.1 0c-0.9-0.9-2.5-2.2-3.6-3-2.9-2.1-6.1-4.6-7.8-8.1-1.8-3.6-1.7-7.8-1.7-11.5 0-1 0-2.4-0.1-3.5-1.1 0.3-2.5 0.9-3.4 1.3-3.1 1.2-6.6 2.7-10.3 2.7-3.6 0-7.1-1.5-10.2-2.7-1-0.4-2.4-1-3.5-1.3-0.1 1.1-0.1 2.5-0.1 3.5 0.1 3.7 0.1 7.9-1.6 11.5-1.7 3.5-5 6-7.9 8.1-1 0.9-2.7 2.1-3.6 3 0.9 0.9 2.6 2.1 3.6 2.9 2.9 2.1 6.2 4.6 7.9 8.1 1.7 3.6 1.7 7.8 1.6 11.5 0 1 0 2.4 0.1 3.6 1.1-0.4 2.5-0.9 3.5-1.4 3.1-1.2 6.6-2.7 10.2-2.7 3.7 0 7.2 1.5 10.3 2.7 0.9 0.5 2.3 1 3.4 1.4 0.1-1.2 0.1-2.6 0.1-3.6 0-3.7-0.1-7.9 1.7-11.5 1.7-3.5 4.9-6 7.8-8.1 1.1-0.8 2.7-2 3.6-2.9z"/>
					</g>
				</g>
			</g>
		</g>
	</g>
</svg>