<svg version="1.2" xmlns="http://www.w3.org/2000/svg" viewBox="0 0 394 397" width="394" height="397">
	<title>Artwork</title>
	<style>
		.s0 { fill: #ffffff } 
		.s1 { fill: #50c42b } 
		.s2 { fill: #009845 } 
		.s3 { fill: #231f20 } 
	</style>
	<g id="Artwork">
		<g id="&lt;Group&gt;">
			<g id="-e-&lt;Group&gt;">
				<g id="&lt;Group&gt;">
					<path id="&lt;Path&gt;" class="s0" d="m386 200.4c0 60-28 113.5-71.6 148.1h-0.1q-6.7 5.4-14 10.1c-8.5 5.6-17.5 10.5-26.9 14.6q-0.3 0.2-0.7 0.4c-16 7-33.2 11.9-51.1 14.2q-3.5 0.4-7 0.8-8.7 0.8-17.7 0.8-8.9 0-17.6-0.8-3.5-0.4-7-0.8c-17.9-2.4-35.1-7.2-51.1-14.2q-0.4-0.2-0.8-0.4c-9.4-4.1-18.4-9-26.9-14.6q-7.2-4.7-14-10.1c-43.6-34.6-71.6-88.1-71.6-148.1 0-61.5 29.3-117.5 74.8-153.2 4.7-3.7 9.5-7.1 14.5-10.3 8.6-5.6 17.8-10.5 27.3-14.6q0.3-0.2 0.6-0.3c16-6.9 33.1-11.5 51-13.6q3.6-0.4 7.1-0.6 6.8-0.5 13.7-0.5 6.9 0 13.7 0.5 3.6 0.2 7.1 0.6c17.9 2.1 35.1 6.7 51.1 13.6q0.3 0.1 0.6 0.3c9.5 4.1 18.6 9 27.3 14.6q7.5 4.8 14.5 10.3c45.4 35.7 74.8 91.7 74.8 153.2z"/>
				</g>
				<g id="&lt;Group&gt;">
					<path id="&lt;Path&gt;" class="s1" d="m393.2 200.4c0 60.2-27.1 116.3-74.3 153.8l-2 1.6c-4.1 3.1-8.4 6.1-12.6 8.9-8.8 5.8-18.2 10.9-27.9 15.2l-0.7 0.3c-17 7.4-34.9 12.4-53.2 14.8-1.9 0.2-3.6 0.4-5.3 0.6-5.8 0-11.5-0.3-17.2-0.8-2.3-0.2-4.6-0.5-7-0.8-13.9-1.8-27.3-5.1-40.1-9.8q-5.6-2-11-4.4c-0.2-0.1-0.5-0.2-0.8-0.4-4.3-1.8-8.5-3.9-12.6-6.1q-7.3-3.9-14.2-8.4-7.3-4.8-14-10.2c-0.8-0.6-1.6-1.2-2.4-1.9-5.1-4.1-10-8.6-14.6-13.3-6.3-6.4-12.1-13.1-17.4-20.3q-1.3-1.7-2.6-3.6-1.3-1.8-2.5-3.6-2.5-3.7-4.9-7.6-0.9-1.5-1.8-3.1-2.5-4.2-4.7-8.6-0.8-1.5-1.6-3.1-1.2-2.5-2.3-5-0.9-2-1.8-4.1c-9.7-22.7-15-47.7-15-73.9 0-51.6 20.6-99.4 54.2-134.5q0 0 0 0c6.4-6.7 13.3-13 20.5-18.7h0.1c4.6-3.6 9.4-7.1 14.4-10.3q4.4-2.8 8.9-5.4 9-5.1 18.5-9.2c0.2-0.1 0.4-0.2 0.6-0.3 7.9-3.3 16-6.2 24.4-8.5q1.1-0.2 2.2-0.5c7.9-2.1 16-3.6 24.4-4.5q0.6-0.1 1.2-0.2c2-0.2 3.9-0.3 5.9-0.5 4.5-0.3 9.1-0.5 13.7-0.5h1.1q1.1 0 2.1 0c3.5 0.1 7 0.2 10.5 0.5 2.4 0.2 4.7 0.4 7.1 0.7q10.7 1.2 21 3.7 0.1-0.1 0.1 0c0 0 0 0 0 0q2.2 0.5 4.3 1c8.8 2.3 17.4 5.3 25.6 8.8 0.2 0.1 0.4 0.2 0.6 0.3q0.5 0.2 1 0.4 6.7 2.9 13 6.3 1.5 0.8 3 1.7 5.3 2.9 10.4 6.2 0.6 0.4 1.2 0.8c46.7 38.2 74.5 96.4 74.5 156.5z"/>
				</g>
				<g id="&lt;Group&gt;" style="opacity: .3;mix-blend-mode: multiply">
					<path id="&lt;Path&gt;" class="s2" d="m393.2 200.4c0 60.2-27.1 116.3-74.3 153.8l-2 1.6c-4.1 3.1-8.4 6.1-12.6 8.9-8.8 5.8-18.2 10.9-27.9 15.2l-0.7 0.3c-17 7.4-34.9 12.4-53.2 14.8-1.9 0.2-3.6 0.4-5.3 0.6-5.8 0-11.5-0.3-17.2-0.8-2.3-0.2-4.6-0.5-7-0.8-13.9-1.8-27.3-5.1-40.1-9.8q-5.6-2-11-4.4c-0.2-0.1-0.5-0.2-0.8-0.4-4.3-1.8-8.5-3.9-12.6-6.1q-7.3-3.9-14.2-8.4-7.3-4.8-14-10.2c-0.8-0.6-1.6-1.2-2.4-1.9-5.1-4.1-10-8.6-14.6-13.3-6.3-6.4-12.1-13.1-17.4-20.3q-1.3-1.7-2.6-3.6-1.3-1.8-2.5-3.6-2.5-3.7-4.9-7.6-0.9-1.5-1.8-3.1-2.5-4.2-4.7-8.6-0.8-1.5-1.6-3.1-1.2-2.5-2.3-5-0.9-2-1.8-4.1c5.3 7.4 11.3 14.4 17.7 20.9 2.7 2.8 5.5 5.5 8.4 8q3.7 3.3 7.6 6.4 6.4 5 13.2 9.5 6.5 4.2 13.3 7.9 3.2 1.7 6.4 3.3 2.8 1.3 5.5 2.6 0.4 0.1 0.8 0.3c15.1 6.6 31.2 11.1 48.1 13.3q1 0.2 2 0.3 2.3 0.3 4.5 0.5 8.3 0.8 16.7 0.8 8.4 0 16.6-0.8c2.2-0.2 4.4-0.5 6.6-0.8q8.5-1.1 16.8-3c10.8-2.5 21.3-5.9 31.3-10.3q0.3-0.2 0.7-0.3c8.2-3.7 16.2-7.9 23.7-12.8 0.6-0.3 1.1-0.7 1.6-1q6.8-4.5 13.2-9.5c19.6-15.6 35.9-35.2 47.5-57.6 12.7-24.5 19.9-52.3 19.9-81.8 0-27.7-6.3-54.2-17.6-78-8.2-17.4-19.1-33.4-32.2-47.3-6.3-6.8-13.3-13.2-20.6-18.9q-2.1-1.7-4.3-3.3 6.7 2.9 13 6.3 1.5 0.8 3 1.7 5.3 2.9 10.4 6.2 0.6 0.4 1.2 0.8c46.7 38.2 74.5 96.4 74.5 156.5z"/>
				</g>
				<g id="&lt;Group&gt;">
					<g id="&lt;Group&gt;">
						<path id="&lt;Path&gt;" class="s2" d="m128.5 373.3q-7.3-3.9-14.2-8.5-7.3-4.7-14-10.1c-6-4.7-11.7-9.8-17-15.2-1.8-6.6-3.5-13-6.5-19.1-6.7-13.3-20.4-25.3-24.9-38.5-4.4-12.9 0.7-26.6-1.6-39.9-2.2-13-11.9-25.6-11.9-38.5 0-13.4 9.8-26.6 12.2-40.2 2.5-13.9-2.3-28.3 2.5-41.9 4.8-13.8 19-26.3 26.2-40.3 1.4-2.8 2.5-5.6 3.6-8.5q0 0 0 0 9.6-10.3 20.5-19h0.1c4.6-3.7 9.4-7.1 14.4-10.4q4.4-2.9 8.9-5.5c-5.3 9.2-11 18.4-13.5 27.7-4.2 15.9 1 32.3-2 48.3-2.9 15.8-14 31.1-15.5 46.7-1.5 15.4 6.6 31.1 6.6 46.9 0 14.6-8.2 29-6.9 43.1 1.3 14.4 12.1 28.6 14.6 43.2 2.6 14.7-3.1 29.8 0.6 44.4 3 11.8 11.9 23.5 17.8 35.3z"/>
					</g>
					<g id="&lt;Group&gt;">
						<path id="&lt;Path&gt;" class="s2" d="m344.5 283.2c-4.7 13.7-19.3 26.2-26.3 40.1-3.6 7.2-5.5 15-7.6 22.8q0 0-0.1 0-7.7 6.7-16 12.9c-9.8 7.3-20.2 13.9-31.1 19.7 6.3-12.4 15.8-24.7 19-37.1 3.8-15.1-2.1-30.9 0.6-46.2 2.7-15.2 14.1-30 15.5-45 1.3-14.8-7.4-29.8-7.4-45 0-16.5 8.6-32.9 7-48.9-1.6-16.2-13.3-32.2-16.4-48.7-3.1-16.6 2.4-33.8-2.1-50.3-3.7-13.7-14.1-27.2-20.9-40.8 11.1 5.7 21.6 12.3 31.6 19.6 5.8 4.2 11.3 8.6 16.6 13.1 2.6 8.4 4.7 16.8 8.7 24.4 7.6 14.6 22.5 27.7 27.7 42.1 5 14.1 0 29.2 2.6 43.7 2.5 14.2 12.9 27.9 12.9 41.9 0 13.4-10.3 26.6-12.6 40.1-2.4 13.8 3 28.1-1.7 41.6z"/>
					</g>
					<g id="&lt;Group&gt;">
						<path id="&lt;Path&gt;" class="s2" d="m169.5 388.7c-1.6-12.6-0.2-26.1-3.4-38.4-4.1-16-16.6-31-19.4-47.3-2.7-16 4.2-32.9 2.8-49.3-1.4-16.1-11.1-32.1-11.1-48.4 0-17.5 9.8-34.6 11.4-52 1.6-17.6-5-35.7-1.8-52.9 3.2-17.5 16.1-33.6 20.8-50.7 3.7-13.5 2.7-28.2 5-42q23.1-0.9 46.3 0c2.3 13.8 1.3 28.5 5 42 4.7 17.1 17.6 33.2 20.8 50.7 3.1 17.2-3.5 35.3-1.9 52.9 1.6 17.4 11.5 34.5 11.5 52 0 16.3-9.8 32.3-11.2 48.4-1.3 16.4 5.6 33.3 2.8 49.3-2.8 16.3-15.2 31.3-19.4 47.3-3.2 12.3-1.8 25.8-3.3 38.4-18.3 0.9-36.6 0.9-54.9 0z"/>
					</g>
				</g>
				<g id="&lt;Group&gt;">
					<path id="&lt;Compound Path&gt;" fill-rule="evenodd" class="s3" d="m393.2 200.4c0 60.2-27.1 116.3-74.3 153.8l-2 1.6c-4.1 3.1-8.4 6.1-12.6 8.9-8.8 5.8-18.2 10.9-27.9 15.2l-0.7 0.3c-17 7.4-34.9 12.4-53.2 14.8-1.9 0.2-3.6 0.4-5.3 0.6q-1 0.1-2 0.2c-5.8 0.6-12 0.9-18.3 0.9-6.3 0-12.5-0.3-18.3-0.9-2.3-0.2-4.6-0.5-7.3-0.8-18.2-2.4-36.1-7.4-53-14.8l-0.9-0.4c-9.5-4.1-18.9-9.3-27.8-15.1-4.3-2.8-8.5-5.8-12.6-8.9l-2-1.6c-47.3-37.5-74.3-93.6-74.3-153.8 0-61.4 28.9-120.8 77.5-158.9l2-1.6c4.4-3.3 8.6-6.3 13-9.1 9.1-5.9 18.6-11 28.4-15.2l0.6-0.3c17-7.2 34.9-12 53.1-14.1q3.7-0.4 7.4-0.7c9.2-0.7 19.3-0.7 28.5 0 2.5 0.2 4.9 0.5 7.4 0.7 18.2 2.1 36.1 6.9 53 14.1l0.7 0.3c9.7 4.2 19.3 9.3 28.4 15.2 5.1 3.3 10.2 6.9 15 10.7q1.5 1.2 3 2.4c46.7 38.2 74.5 96.4 74.5 156.5zm-81.3 140.7c42.5-34.7 66.8-85.8 66.8-140.7 0-36.3-10.9-71.8-30.5-102-10.8-16.6-24.2-31.6-39.8-44.1q-0.9-0.7-1.7-1.4c-4.4-3.5-9.1-6.8-13.9-9.9-8.4-5.4-17.2-10.2-26.3-14.1l-0.7-0.3q-0.3-0.1-0.6-0.2c-14.1-6-28.9-10.1-44-12.2q-2.2-0.3-4.3-0.5-3.4-0.4-6.8-0.7c-3.9-0.3-7.9-0.4-12-0.5-4.8 0-9.7 0.1-14.3 0.5q-3.4 0.3-6.9 0.7-2.1 0.2-4.2 0.5c-15.4 2.2-30.4 6.3-44.7 12.5l-0.6 0.2c-9.1 3.9-17.9 8.7-26.3 14.1-4.7 3-9.2 6.3-13.9 9.9l-1.3 1.1c-44.3 35.4-70.7 90-70.7 146.4 0 55.3 24.6 106.7 67.6 141.5l1.2 0.9c4.4 3.5 8.9 6.7 13.5 9.7q0.2 0.2 0.4 0.3c8.2 5.3 16.8 10 25.4 13.8l1 0.4q0.5 0.2 1.1 0.5c13.8 5.9 28.4 10.1 43.4 12.4q2.2 0.4 4.4 0.7c2.5 0.3 4.6 0.5 6.7 0.7 11 1.1 23.1 1.1 34 0 2.1-0.2 4.3-0.4 6.7-0.7q2.2-0.3 4.4-0.7c15.5-2.3 30.5-6.7 44.7-13l0.4-0.1 0.3-0.2c9.1-4 17.8-8.7 26-14 4.5-3.1 9.1-6.3 13.4-9.8l1.9-1.5q0.1-0.1 0.2-0.2z"/>
				</g>
			</g>
		</g>
	</g>
</svg>