<svg version="1.2" xmlns="http://www.w3.org/2000/svg" viewBox="0 0 411 422" width="411" height="422">
	<title>Artwork</title>
	<style>
		.s0 { fill: #ffffff } 
		.s1 { fill: #01982f } 
		.s2 { fill: #231f20 } 
		.s3 { fill: #f21626 } 
		.s4 { fill: #cc1f1f } 
	</style>
	<g id="Artwork">
		<g id="&lt;Group&gt;">
			<g id="-e-&lt;Group&gt;">
				<g id="&lt;Group&gt;">
					<g id="&lt;Group&gt;">
						<path id="&lt;Path&gt;" class="s0" d="m241.2 145.4c0 0-168.1 12.1-229.3-135.7 0 0 119.4-30.9 229.3 135.7z"/>
					</g>
					<g id="&lt;Group&gt;">
						<path id="&lt;Path&gt;" class="s1" d="m243.2 135.8q-3.7 0.1-8.5-0.1c-2.7 0-5.7-0.2-8.9-0.3-48.5-3-148.1-21.5-197.4-120.7-1.1-2.2-2.2-4.5-3.3-6.8q-1.1-2.6-2.2-5.1c0 0 5.6-1.6 15.7-2.3q0.1 0 0.2 0c12.8 0.2 29.4 2.2 48.6 7.9 14 4.2 30.4 10.8 48.1 21.3q3 1.8 6 3.7 3 1.8 5.9 3.7 1 0.7 2 1.4c11.6 7.8 23.7 17.4 36.1 29q6.5 6 13.1 12.8 3.7 3.9 7.4 8 3.8 4.1 7.5 8.5c9.9 11.5 19.8 24.5 29.7 39z"/>
					</g>
					<g id="&lt;Group&gt;">
						<path id="&lt;Compound Path&gt;" fill-rule="evenodd" class="s2" d="m247 141.5c0.9 1.3 1.3 2.9 1.1 4.4q-0.1 1.3-0.6 2.6c-0.7 1.2-1.7 2.3-2.9 3-0.9 0.4-1.9 0.8-2.9 0.8-0.6 0.1-6 0.5-14.9 0.3-16.9-0.4-46.4-2.7-79.4-13-5.2-1.6-10.7-3.5-16.3-5.6q-5-2-10.3-4.3c-2.4-1-4.8-2.1-7.3-3.3q-3.5-1.7-7-3.5c-10.1-5.3-20.4-11.6-30.5-19.1q-3.3-2.4-6.6-5.1-3.1-2.5-6.2-5.1c-1.8-1.6-3.7-3.3-5.5-5-20.3-19-38.8-43.8-52.2-76.2-0.8-1.9-0.7-4 0.2-5.8 0.9-1.8 2.5-3.1 4.5-3.6 0.7-0.2 11.2-2.8 28.4-2.5q0.1 0 0.2 0c12.8 0.2 29.4 2.2 48.6 7.9 14 4.2 30.4 10.8 48.1 21.3q3 1.8 6 3.7 3 1.8 5.9 3.7 1 0.7 2 1.4c11.6 7.8 23.7 17.4 36.1 29q6.5 6 13.1 12.8 3.7 3.9 7.4 8 3.8 4.1 7.5 8.5c9.9 11.5 19.8 24.5 29.7 39q1.9 2.8 3.8 5.7zm-95.9-15.4c32.1 10.1 61.2 12.2 77 12.5-0.8-1.1-1.5-2.2-2.3-3.2-11.3-15.9-22.6-29.8-33.9-41.8q-3.8-4.1-7.7-8-3.8-3.9-7.7-7.5-6.5-6.1-13-11.5-10.3-8.6-20.3-15.4-1.5-1.1-3-2-3-2-6-3.8-3-1.9-6-3.7c-43.5-25.4-80.4-28-99.8-27-2.5 0.1-4.6 0.3-6.4 0.5 12.2 26.6 28.8 49.1 49.6 67.4q3.3 3 6.8 5.8 3.4 2.7 6.9 5.2c2.4 1.8 5 3.6 7.5 5.3q7 4.6 14.6 8.8c2.2 1.2 4.4 2.3 6.7 3.5q3.4 1.7 6.9 3.4 4.4 2 9 3.9 10.2 4.2 21.1 7.6z"/>
					</g>
				</g>
				<g id="&lt;Group&gt;">
					<g id="&lt;Group&gt;">
						<path id="&lt;Path&gt;" class="s0" d="m321.2 123.1c0 0-158.7 120-314.1 12.9 0 0 98.4-107.2 314.1-12.9z"/>
					</g>
					<g id="&lt;Group&gt;">
						<path id="&lt;Path&gt;" class="s1" d="m315.9 113.3c-2.1 1.4-4.6 2.9-7.4 4.5-2.3 1.4-4.9 2.9-7.7 4.4-49.5 27.5-160.6 72.7-272.6 5.5q-3.3-1.9-6.5-4-3.1-2-6.2-4.1c10.1-7.6 25.9-17.7 47.7-26q3.6-1.4 7.5-2.7 3.7-1.3 7.7-2.5c1-0.4 1.9-0.6 2.9-0.9q2.4-0.7 5-1.4c7.9-2.1 16.6-4 26.1-5.5q3.7-0.5 7.6-1 3.7-0.5 7.6-0.8 3.3-0.4 6.7-0.6c12.9-0.9 27-1.1 42.2-0.1q5.5 0.4 11.1 1 5.4 0.5 11 1.2 6.3 0.8 13 2c30.9 5.1 65.7 14.8 104.3 31z"/>
					</g>
					<g id="&lt;Group&gt;">
						<path id="&lt;Compound Path&gt;" fill-rule="evenodd" class="s2" d="m328.1 122.3c0.3 2.5-0.7 4.9-2.7 6.4-0.8 0.6-9.8 7.3-25.2 16.1-17.7 10-43.9 22.7-75.9 31.7-21.6 6-47.5 10.7-75.9 10.8q-6.7 0.1-13.5-0.3-4-0.2-8-0.5-3.9-0.3-8-0.7c-36.6-4.2-76.3-16.8-115.7-44-1.7-1.2-2.8-3-3-5-0.2-2 0.4-4 1.8-5.5 0.4-0.5 4.8-5.2 13.5-11.7 10.1-7.6 25.9-17.7 47.7-26q3.6-1.4 7.5-2.7 3.7-1.3 7.7-2.5c1-0.4 1.9-0.6 2.9-0.9q2.4-0.7 5-1.4c7.9-2.1 16.6-4 26.1-5.5q3.7-0.5 7.6-1 3.7-0.5 7.6-0.8 3.3-0.4 6.7-0.6c12.9-0.9 27-1.1 42.2-0.1q5.5 0.4 11.1 1 5.4 0.5 11 1.2 6.3 0.8 13 2c30.9 5.1 65.7 14.8 104.3 31q4 1.7 8.1 3.4c2.2 1 3.8 3.2 4.1 5.6zm-21.5 2.3q-2.9-1.2-5.8-2.4c-26.7-10.6-51.4-18-74.1-22.8q-6.7-1.5-13.2-2.6-5.5-1-10.8-1.8-5.5-0.8-10.8-1.4c-22.6-2.6-42.7-2.7-60.3-1.2-2.6 0.3-5.2 0.5-7.7 0.8q-3.8 0.5-7.5 1-3.8 0.5-7.3 1.2-3.9 0.7-7.6 1.4-4.5 1-8.7 2.1-3.4 0.8-6.6 1.7-1 0.3-2 0.6-4.2 1.3-8.2 2.6c-21.3 7.3-37.2 16.5-47.8 23.9-4 2.8-7.3 5.4-9.8 7.4 30.1 19.4 61.9 31.4 95.2 36.2q3.9 0.5 7.7 1 3.9 0.4 7.7 0.6 6.4 0.5 12.7 0.7c25.5 0.5 51.8-3 78.8-10.6 39.9-11.2 70.9-28.7 86.1-38.4z"/>
					</g>
				</g>
				<g id="&lt;Group&gt;">
					<g id="&lt;Group&gt;">
						<path id="&lt;Path&gt;" class="s0" d="m403.3 256.5c0 84.5-70.2 153.5-158.6 158.1q-4.7 0.2-9.4 0.2c-92.8 0-168-70.8-168-158.3 0-67.4 44.8-125 107.8-147.8 8.9-3.2 16.7-9.3 21.2-17.6 2.9-5.2 4.8-11.7 3.7-19.1-0.4-2.5-1.3-4.9-2.4-7.2-2.7-5.7-8.8-22.6 2.7-41.8 0 0 2.3 10.9 8.2 17.9q0 0 0 0c1.2 1.4 2.5 2.7 4 3.7 1.1 0.7 2.4 1.3 3.8 1.7q0.6 0.2 1.3 0.3c0 0 3.6-3.4 7.7-8.5 3.4-4.1 7.3-9.4 10-15.1 0 0 6.3 6.3 10.4 13.3 2 3.5 3.5 7.1 3.5 10.3 0 0 2.1-1.8 5-4.7q0.1-0.1 0.2-0.2c1.1-1 2.2-2.2 3.3-3.5q0.1 0 0.1 0c1.5-1.7 3-3.5 4.5-5.4 3.7-5 6.8-10.6 7.4-16.1 0 0 3.6 15.4 3.6 29.9v0.2c0 5.4-0.5 10.6-1.9 14.9q-1.2 3.7-1.8 7.4 0 0 0 0.1-0.6 3.4-0.5 7c0.3 7.3 1.9 17.1 8.2 23.9 1.5 1.7 3.3 3 5.3 4q0.1 0.1 0.1 0.1 2 1 4.1 1.7 3.7 1.1 7.4 2.4c2.4 0.3 4.2 0.9 5.4 2 60.8 23.8 103.7 80.3 103.7 146.2z"/>
					</g>
					<g id="&lt;Group&gt;">
						<path id="&lt;Path&gt;" class="s3" d="m410.3 256.5c0 65.2-40.1 122-98.7 148.8-17.9 6.2-37.3 9.5-57.4 9.5q-4.8 0-9.5-0.2c-4.2-0.2-8.4-0.6-12.6-1.1-18.3-2.3-35.7-7.3-51.7-14.7-55.8-25.8-94.2-79.8-94.2-142.3q0-1.1 0-2.3 0.1-3.8 0.3-7.7 0.3-3.8 0.7-7.5 0.7-6.1 1.9-12c1.9-9.5 4.7-18.8 8.4-27.7q1.5-3.6 3.2-7.1 1.6-3.5 3.4-6.9 1.5-2.7 3.1-5.4 5-8.6 11.2-16.5c1.4-1.9 3-3.8 4.6-5.7q2.3-2.7 4.7-5.4 3.7-3.9 7.7-7.7 6.4-6 13.4-11.3 2.9-2.2 5.9-4.3 2.8-2 5.7-3.8 2.8-1.8 5.7-3.4c8.8-5.1 18.1-9.5 27.9-13.1 2.5-0.9 5-2.1 7.2-3.4 5.9-3.4 10.7-8.2 14-14.2 2.9-5.2 4.8-11.7 3.6-19.1-0.3-2.5-1.2-4.9-2.3-7.2-1.2-2.3-2.9-6.7-3.6-12.3q-0.1 0-0.1-0.1c-0.3-2.4-0.5-5-0.3-7.8 0-0.4 0-0.7 0-1l7.6-3.3 5.2-2.2c1.4 2.1 2.9 3.9 4.7 5.4 1.9 1.6 4 2.7 6.5 3 0 0 1.8-1.6 4.3-4.4 1.5-1.6 3.2-3.6 4.9-5.8 0.6 1 1.1 2 1.5 3 1.2 2.5 2 5 2 7.2 0 0 2.1-1.7 5-4.6q0.1-0.1 0.2-0.1 0.1-0.2 0.2-0.3c1.2-1.4 2.2-2.4 2.7-2.9q0.2-0.1 0.3-0.2l0.1-0.2q0.1 0 0.1 0c1.5-1.7 3-3.5 4.5-5.4 0.8 1.1 1.6 2.3 2.3 3.6 2 3.4 3.5 7 3.5 10.1 0 0 1.9-1.5 4.6-4.2q0.1 0 0.2-0.1l0.4 4.5c0 0-3.1 10.3-3.7 22.4q0 0 0 0.1c-0.6 12.7 1.6 27.6 13 34.9q0.1 0.1 0.1 0.1c3.1 2 6.9 3.4 11.5 4 0 0 13.6 0.2 32.5 7.3 51.5 29.7 83.6 82.7 83.6 141z"/>
					</g>
					<g id="&lt;Group&gt;">
						<path id="&lt;Path&gt;" class="s4" d="m410.3 256.5c0 65.2-40.1 122-98.7 148.8-17.9 6.2-37.3 9.5-57.4 9.5q-4.8 0-9.5-0.2c-4.2-0.2-8.4-0.6-12.6-1.1 10.8-1.3 28.9-4.4 48.6-11.8 45.1-16.9 98.8-56.3 91.7-147.9-9.6-124.8-125.8-145.3-171.2-148.5 5.9-3.4 10.7-8.2 14-14.2 2.9-5.2 4.8-11.7 3.6-19.1-0.3-2.5-1.2-4.9-2.3-7.2-1.2-2.3-2.9-6.7-3.6-12.3q-0.1 0-0.1-0.1c-0.3-2.4-0.5-5-0.3-7.8 0-0.4 0-0.7 0-1l7.6-3.3 5.2-2.2c2.7 4.2 7.2-10.1 12-9.4 0 0 3.6 13.7 8.4 7.6 0.6 1 1.1 2 1.5 3 1.2 2.5 2 5 2 7.2 0 0 2.1-1.7 5-4.6q0.1-0.1 0.2-0.1 0.1-0.2 0.2-0.3c1.2-1.4 2.2-2.4 2.7-2.9q0.2-0.1 0.3-0.2l0.1-0.2q0.1 0 0.1 0c1.5-1.7 3-3.5 4.5-5.4v-0.1c9.4-3.9 7.9 11.6 10.4 9.6q0.1 0 0.2-0.1l0.4 4.5c0 0-3.1 10.3-3.7 22.4q0 0 0 0.1c-0.6 12.7 1.6 27.6 13 34.9q0.1 0.1 0.1 0.1c3.1 2 6.9 3.4 11.5 4 0 0 13.6 0.2 32.5 7.3 51.5 29.7 83.6 82.7 83.6 141z"/>
					</g>
					<g id="&lt;Group&gt;">
						<path id="&lt;Compound Path&gt;" fill-rule="evenodd" class="s2" d="m410.3 256.5c0 65.2-40.1 122-98.7 148.8-20.2 9.3-42.7 15-66.5 16.3-3.2 0.1-6.4 0.2-9.8 0.2-96.5 0-175-74.1-175-165.3q0-9.1 1.1-18.1 0.4-3.9 1-7.7 0.7-3.8 1.5-7.5 1.3-6.3 3.2-12.5c3.5-11.5 8.3-22.6 14.5-33.1q1.9-3.4 4-6.6 2-3.2 4.2-6.3 1.1-1.5 2.2-3 0.9-1.2 1.8-2.4 1.7-2.2 3.5-4.4 2.4-3 5-5.7 2.5-2.9 5.2-5.5 3.7-3.8 7.6-7.3c7.8-7 16.3-13.3 25.4-18.8q3-1.9 6.1-3.6c2-1.1 4.1-2.2 6.1-3.2q2.7-1.4 5.4-2.6 7.2-3.4 14.6-6.1c7.7-2.7 14-7.9 17.5-14.3 2.7-4.9 3.6-9.8 2.9-14.7-0.3-1.6-0.9-3.3-1.8-5.2-3.5-7.3-10.1-26.6 3-48.5 1.5-2.4 4.3-3.7 7.1-3.3 2.9 0.5 5.1 2.6 5.7 5.4 0.6 2.5 2.6 9.4 6.1 14.1q0.3 0.4 0.6 0.7 0 0.1 0.1 0.1 1 1.2 1.9 2c0.2-0.2 0.4-0.4 0.7-0.7 1-1.1 2.2-2.5 3.4-4 4-4.8 7-9.4 9.1-13.7 1-2 2.9-3.5 5.1-3.9 2.2-0.3 4.5 0.4 6.1 2 0.3 0.3 7 7 11.5 14.7 0.2 0.3 0.4 0.7 0.6 1q0 0 0 0 0.1-0.1 0.2-0.2 0.1-0.1 0.2-0.2 0.1-0.1 0.1-0.1c1.5-1.7 2.7-3.2 3.9-4.7 3.6-4.9 5.7-9.2 6.1-12.7 0.3-3.4 3.1-6 6.5-6.2 3.5-0.2 6.5 2.1 7.2 5.4 0.2 0.7 3.8 16.4 3.8 31.6 0 6.8-0.7 12.5-2.2 17.1q-1.1 3.2-1.5 6.2-0.1 0.2-0.1 0.3c-0.3 1.9-0.4 3.8-0.4 5.7 0.2 5.9 1.5 14 6.4 19.4q1.3 1.5 3.3 2.5 0.2 0.1 0.3 0.2 1.3 0.6 2.7 1.1 3.6 1.1 7 2.2c2.9 0.5 5.3 1.4 7.2 2.7q12.4 4.9 23.7 11.4c51.5 29.7 83.6 82.7 83.6 141zm-14 0c0-61.3-39-116.2-99.3-139.7q-1.1-0.4-1.9-1.2c-0.1 0-0.6-0.3-1.8-0.4q-0.7-0.1-1.5-0.3c-2.3-0.9-4.6-1.6-7-2.4-1.8-0.5-3.7-1.2-5.3-2.1q-0.1-0.1-0.2-0.1-4.1-2.1-7.2-5.5c-6.1-6.7-9.6-16.6-10-28.4 0-2.7 0.2-5.4 0.6-8.1q0-0.1 0-0.2 0.7-4.2 2-8.6c1.1-3.1 1.6-7.5 1.6-12.7 0-2.5-0.1-5-0.3-7.5q-1.3 1.6-2.7 3.3-0.3 0.3-0.6 0.5c0 0.1-0.1 0.2-0.2 0.2-0.2 0.2-1.3 1.3-2.8 3q0 0-0.1 0.1 0 0.1-0.1 0.2h-0.1q-0.1 0.1-0.3 0.3c-3 3.1-5.3 5-5.5 5-2 1.8-4.9 2.1-7.4 1-2.4-1.2-4-3.6-4-6.4q0-0.1-0.1-0.7c-0.1-0.7-0.4-1.9-1.3-3.7q-0.4-1-1.1-2.2c-1-1.7-2.2-3.3-3.3-4.9q-2.5 3.8-5.7 7.6-0.4 0.4-0.7 0.9-1.4 1.6-2.6 2.9c-2.8 3.2-4.9 5.1-5 5.3-1.5 1.4-3.6 2.1-5.7 1.8q-1.2-0.2-2.3-0.5-0.7-0.2-1.3-0.4-0.1-0.1-0.3-0.2 0 0.1 0.1 0.1c-1.4-0.5-2.9-1.2-4.3-2.1q-2.8-1.8-5.2-4.7-0.1-0.1-0.2-0.2 0-0.1-0.1-0.1-0.1-0.2-0.2-0.4c-0.8-0.9-1.5-1.8-2.1-2.8-1.1 9.1 1.5 16.2 3.1 19.6 1.6 3.3 2.5 6.2 3 9.2 1.2 7.9-0.3 15.9-4.4 23.5-5.2 9.5-14.1 16.8-25 20.8q-6.3 2.3-12.3 5-2.9 1.4-5.8 2.8-3.1 1.6-6.1 3.2c-2.1 1.2-4.1 2.4-6.1 3.7q-9.1 5.6-17.2 12.2-4.3 3.6-8.3 7.3-2.7 2.6-5.3 5.3-2.6 2.7-5.1 5.5c-3.3 3.8-6.5 7.8-9.5 12q-1.8 2.5-3.5 5.2-2.1 3.1-4 6.3-1.9 3.4-3.7 6.7c-4.8 9.4-8.7 19.4-11.5 29.6q-1.6 6-2.6 12.1-0.7 3.7-1.2 7.4-0.4 3.9-0.7 7.7-0.3 4.6-0.3 9.2c0 65.4 44.3 121.1 106.1 142.3 17.1 5.8 35.6 9 54.9 9 3.2 0 6.1 0 9-0.2 12.6-0.7 24.8-2.7 36.4-5.9 67.1-18.4 115.6-76.7 115.6-145.2z"/>
					</g>
					<g id="&lt;Group&gt;">
						<g id="&lt;Group&gt;">
							<path id="&lt;Path&gt;" class="s2" d="m235.7 77.3c-3.2 0-6.1-2.2-6.8-5.5-1.8-8.7-15.7-19.9-24-24.9-3.3-2-4.4-6.3-2.4-9.6 2-3.3 6.3-4.4 9.6-2.4 2.7 1.6 26.8 16.6 30.5 34 0.8 3.8-1.6 7.5-5.4 8.3q-0.7 0.1-1.5 0.1z"/>
						</g>
						<g id="&lt;Group&gt;">
							<path id="&lt;Compound Path&gt;" class="s2" d="m264.6 36.4c-0.3-1.2-0.9-2.3-1.8-3.2q-0.3-0.2-0.5-0.5c-2.7-2.2-6.8-2.1-9.4 0.4q0 0.1-0.1 0.2 0 0-0.1 0.1-0.2 0.1-0.4 0.4c-0.7 0.6-1.7 1.7-2.9 3q-0.3 0.3-0.5 0.6-0.8 0.8-1.7 1.9c-1.5 1.8-3.3 4.1-5.1 6.5-2.1 3-4.2 6.3-6 9.9-2.8 5.2-4.9 10.9-5.7 16.9q-0.2 1.2 0.1 2.3c0.6 2.9 2.9 5.1 5.9 5.5q0.5 0.1 0.9 0.1c3.5 0 6.5-2.6 7-6.1 1.4-11.2 10.6-22.7 14.8-27.5q0.2-0.2 0.3-0.3h0.1q0.1-0.1 0.1-0.2 0.1-0.1 0.1-0.1c1.5-1.7 2.6-2.8 2.8-3 0.1 0 0.2-0.1 0.2-0.2q0.3-0.2 0.6-0.5c1.4-1.8 1.8-4.1 1.3-6.2z"/>
						</g>
					</g>
					<g id="&lt;Group&gt;">
						<path id="&lt;Path&gt;" class="s4" d=""/>
					</g>
				</g>
			</g>
		</g>
	</g>
</svg>