<svg version="1.2" xmlns="http://www.w3.org/2000/svg" viewBox="0 0 455 370" width="455" height="370">
	<title>Artwork</title>
	<style>
		.s0 { fill: #231f20 } 
		.s1 { fill: #ffffff } 
		.s2 { fill: #b2e912 } 
		.s3 { fill: #8ed014 } 
	</style>
	<g id="Artwork">
		<g id="&lt;Group&gt;">
			<g id="-e-&lt;Group&gt;">
				<g id="&lt;Group&gt;">
					<g id="&lt;Group&gt;">
						<g id="&lt;Group&gt;">
							<path id="&lt;Path&gt;" class="s0" d="m170.9 162.5c-3.1-0.8-76.2-21.8-128-114.6l16.7-9.4c47.7 85.4 115.7 105.4 116.4 105.6z"/>
						</g>
					</g>
					<g id="&lt;Group&gt;">
						<g id="&lt;Group&gt;">
							<path id="&lt;Path&gt;" class="s0" d="m13.4 69.9c-5.9 1.7-11.9-2.3-12.9-8.4l-1.2-8 1.5 9.5c-0.8-5.2 2.4-10.2 7.4-11.6 16-4.3 49.9-16.7 75.2-47.2 3.2-3.8 8.9-4.6 13-1.6 4.5 3.2 5.4 9.6 1.9 13.8-28.7 34.7-66.4 48.6-84.9 53.5z"/>
						</g>
					</g>
				</g>
				<g id="&lt;Group&gt;">
					<g id="&lt;Group&gt;">
						<g id="&lt;Group&gt;">
							<path id="&lt;Path&gt;" class="s1" d="m378.8 243.1c33-9.9 63.3 8.2 67.6 40.4 4.3 32.3-18.9 66.5-52 76.4-33 9.9-63.3-8.2-67.6-40.4-4.3-32.3 18.9-66.5 52-76.4z"/>
						</g>
						<g id="&lt;Group&gt;">
							<g id="&lt;Group&gt;">
								<path id="&lt;Path&gt;" class="s2" d="m440 320.5c-1.2 8.8-4 17-8.2 24.2-9.5 10.2-21.6 18.1-35.3 22.1-6.6 2.1-13.3 3-19.9 3-6.5 0-12.9-0.9-18.9-2.9q0 0-0.1 0c-8.3-4.7-15.5-11.7-20.8-20.2-3-4.7-5.4-9.9-7.1-15.5 0-0.1 0-0.1 0-0.1q-1.7-5.6-2.4-11.7c-0.1-0.8-0.2-1.7-0.3-2.5-1-12 1.2-23.4 5.8-33.4q0.4-1 1-2 0.3-0.8 0.7-1.5 0.4-0.7 0.8-1.4 0.1-0.3 0.2-0.5 0.7-1.1 1.3-2.1c9.3-14.8 24.3-25.1 41.8-26.7q3-0.3 5.9-0.2c7.6 0.1 14.8 1.8 21.5 5 16.6 7.8 29.3 24 33.2 44.1q0.8 3.8 1.1 7.8c0.4 5 0.3 9.8-0.3 14.5z"/>
							</g>
						</g>
						<g id="&lt;Group&gt;">
							<path id="&lt;Path&gt;" class="s3" d="m358.1 299.3c-3.6 26.9-21.3 47.4-21.3 47.4-5-7.9-8.3-17.2-9.5-27.3q-0.2-1.2-0.3-2.5c-2.8-34.4 20.4-64.6 51.6-67.6 9.7-1 19.1 0.8 27.4 4.8-6 13.8-19 20.6-29.9 24-9.6 3-16.7 11.3-18 21.2z"/>
						</g>
						<g id="&lt;Group&gt;">
							<path id="&lt;Compound Path&gt;" fill-rule="evenodd" class="s0" d="m431.8 344.7c-9.5 10.2-21.6 18.1-35.3 22.1-6.6 2.1-13.3 3-19.9 3-6.5 0-12.9-0.9-18.9-2.9q0 0-0.1 0c-4.6-1.5-9-3.6-13-6.2-13.8-8.9-22.7-23.2-25-40.3-4.8-35.6 20.8-73.4 57.1-84.3 6.6-2 13.4-3 19.9-3 11.6 0 22.7 3.1 32 9.1 13.8 8.9 22.7 23.2 25 40.3 3 22.3-5.9 45.4-21.8 62.2zm-39.4 8.2c25-7.5 43.8-30.4 46.8-54.7 0.6-4.5 0.6-9.2 0-13.7-1.7-12.8-8.3-23.5-18.4-30.1-10.3-6.6-23-8.5-36.3-5.3q-1.8 0.4-3.7 0.9c-29.6 9-50.7 39.7-46.8 68.5 1.1 7.8 3.9 14.9 8.3 20.6 2.8 3.7 6.2 6.9 10.1 9.4 11.2 7.3 25.4 8.8 40 4.4z"/>
						</g>
					</g>
					<g id="&lt;Group&gt;">
						<g id="&lt;Group&gt;">
							<path id="&lt;Path&gt;" class="s1" d="m259.3 237.1c30.9-14.8 63.9-1.6 73.6 29.6 9.6 31.2-7.6 68.5-38.5 83.3-31 14.9-63.9 1.7-73.6-29.5-9.7-31.2 7.6-68.5 38.5-83.4z"/>
						</g>
						<g id="&lt;Group&gt;">
							<g id="&lt;Group&gt;">
								<path id="&lt;Path&gt;" class="s2" d="m297.5 356.6c-9.5 4.5-19.3 6.8-28.9 6.8q-2.3 0-4.6-0.2-6-2-11.3-5.4c-3.7-2.4-7-5.3-9.9-8.7-5.2-5.9-9.1-13.3-11.2-21.8q-0.2-0.8-0.4-1.7-0.3-1.2-0.5-2.3c-5.1-29.6 12.2-61.1 39.6-74.1q3.7-1.7 7.6-3c10.3-3.4 20.6-3.8 29.8-1.6 7.2 1.7 13.8 4.9 19.4 9.4 6.4 5.1 11.5 11.9 14.9 20 4.9 32.3-13.6 67.7-44.5 82.6z"/>
							</g>
						</g>
						<g id="&lt;Group&gt;">
							<path id="&lt;Path&gt;" class="s3" d="m297.5 356.6c-9.5 4.5-19.3 6.8-28.9 6.8q-2.3 0-4.6-0.2-6-2-11.3-5.4 5.7-0.7 10.6-2c9.7-2.3 17.4-6 23.5-10.4 6.8-4.9 11.7-10.8 15.2-16.9 9.8-17.3 4.6-41.2-13.4-49.5-23.6-10.9-18.3-29.8-18.3-29.8q3.7-1.7 7.6-3c10.3-3.4 20.6-3.8 29.8-1.6 7.2 1.7 13.8 4.9 19.4 9.4 6.4 5.1 11.5 11.9 14.9 20 4.9 32.3-13.6 67.7-44.5 82.6z"/>
						</g>
						<g id="&lt;Group&gt;">
							<path id="&lt;Compound Path&gt;" fill-rule="evenodd" class="s0" d="m297.5 356.6c-9.5 4.5-19.3 6.8-28.9 6.8q-2.3 0-4.6-0.2c-6.4-0.5-12.6-2-18.6-4.6-15.1-6.6-26.4-19.4-31.5-36-10.7-34.4 8.3-75.7 42.3-92 17.4-8.4 35.9-9.1 52.1-2.1 15.1 6.6 26.3 19.4 31.5 36q1.4 4.7 2.2 9.5c4.9 32.3-13.6 67.7-44.5 82.6zm-6.3-13.1c27.8-13.4 43.4-46.8 34.7-74.7-3.2-10.4-9.6-18.8-18.2-24.2q-2.5-1.6-5.3-2.8c-5.4-2.3-11.3-3.5-17.3-3.5-7.5 0-15.1 1.8-22.7 5.4-27.7 13.3-43.3 46.8-34.6 74.6q1.5 4.8 3.8 9c4.5 8.1 11.3 14.4 19.6 18 10.9 4.8 23.4 4.8 35.6 0.1 1.5-0.6 3-1.2 4.4-1.9z"/>
						</g>
					</g>
					<g id="&lt;Group&gt;">
						<g id="&lt;Group&gt;">
							<path id="&lt;Path&gt;" class="s1" d="m412.2 222c-19.5 31.7-59.1 46-88.6 31.8-29.5-14.1-37.6-51.4-18.2-83.1 19.5-31.8 59.1-46 88.6-31.9 29.5 14.2 37.6 51.4 18.2 83.2z"/>
						</g>
						<g id="&lt;Group&gt;">
							<g id="&lt;Group&gt;">
								<path id="&lt;Path&gt;" class="s2" d="m424.6 213.2c-1.7 4.3-3.8 8.5-6.2 12.6-7.9 12.8-18.8 23-31 29.9-12.3 7-25.9 10.8-39.2 10.8-9.6 0-19.1-2-27.7-6.1q-4.9-2.4-9.2-5.5h-0.1c-5.8-6.9-9.5-15.3-11-24.4-0.6-3.8-0.9-7.8-0.7-11.8q0.1-1.2 0.2-2.3 0-0.4 0-0.8 0.1-1.2 0.3-2.3 0.2-1.3 0.4-2.5 0.4-2.6 1.1-5.3 0.2-0.6 0.4-1.1c0-0.4 0.2-0.8 0.3-1.1q0-0.1 0.1-0.3c2.5-8.4 6.8-16.7 12.8-24.4 23.1-29.3 63.1-38.6 89.4-20.9q1.9 1.3 3.6 2.8c5.3 4.2 9.4 9.4 12.3 15.2q0.2 0.2 0.3 0.4 0.6 1.4 1.2 2.8 0.3 0.6 0.5 1.2c0.2 0.5 0.4 1.1 0.6 1.6q0.7 1.7 1.1 3.5 0.4 1.2 0.6 2.4 0.4 1.5 0.6 3 0.3 1.5 0.5 3.1c0.6 6.3 0.3 12.9-1.2 19.5z"/>
							</g>
							<g id="&lt;Group&gt;">
								<path id="&lt;Path&gt;" class="s3" d="m424.6 213.2c-1.7 4.3-3.8 8.5-6.2 12.6-7.9 12.8-18.8 23-31 29.9-12.3 7-25.9 10.8-39.2 10.8-9.6 0-19.1-2-27.7-6.1q-4.9-2.4-9.2-5.5h-0.1c-5.8-6.9-9.5-15.3-11-24.4-0.6-3.8-0.9-7.8-0.7-11.8q0.1-1.2 0.2-2.3 0-0.4 0-0.8 0.1-1.2 0.3-2.3 0.2-1.3 0.4-2.5 0.4-2.6 1.1-5.3 0.2-0.6 0.4-1.1c0-0.4 0.2-0.8 0.3-1.1 0 0.1 0 0.2 0 0.3 1.6 13.3 4.8 22.1 16.3 29.8 24.7 16.6 62.1 7.9 83.7-19.5 4.7-6 9-11.6 12.2-17.4h0.1c3.7-6.6 6.1-13.4 5.9-20.8v-0.1c0.1 0.2 0.2 0.3 0.3 0.5q0.6 1.4 1.2 2.8 0.3 0.5 0.5 1.2 0.4 0.8 0.6 1.6 0.7 1.7 1.1 3.5 0.4 1.2 0.6 2.4 0.4 1.5 0.6 3 0.3 1.5 0.5 3.1c0.6 6.3 0.3 12.9-1.2 19.5z"/>
							</g>
						</g>
						<g id="&lt;Group&gt;">
							<path id="&lt;Compound Path&gt;" fill-rule="evenodd" class="s0" d="m424.6 213.2c-1.7 4.3-3.8 8.5-6.2 12.6-7.9 12.8-18.8 23-31 29.9-12.3 7-25.9 10.8-39.2 10.8-9.6 0-19.1-2-27.7-6.1q-4.9-2.4-9.2-5.5h-0.1c-10-7.4-17.4-17.8-21-30.2-5.5-18.4-2.2-39.5 9-57.8 21.3-34.8 65.2-50.3 97.9-34.6 14.9 7.1 25.6 19.8 30.3 35.7 4.2 14.3 3.2 30.2-2.8 45.2zm-18.6 5c4.2-6.9 7.1-14.3 8.4-21.7h0.1c0.6-3.4 1-6.9 1-10.4 0-4.8-0.7-9.5-2-14-1.3-4.2-3.1-8.1-5.4-11.6-4.2-6.5-10.1-11.7-17.3-15.1-6.7-3.3-14.1-4.8-21.7-4.8-21.6 0-44.5 12.6-57.5 33.9-5.5 9.1-8.7 18.9-9.3 28.5q-0.1 0.3-0.1 0.6c-0.3 5.8 0.3 11.6 1.9 17 3.5 11.9 11.6 21.4 22.7 26.7 26.1 12.6 61.7-0.5 79.2-29.1z"/>
						</g>
					</g>
					<g id="&lt;Group&gt;">
						<g id="&lt;Group&gt;">
							<path id="&lt;Path&gt;" class="s1" d="m162.4 222.2c31-14.9 63.9-1.6 73.6 29.6 9.7 31.1-7.6 68.4-38.5 83.3-30.9 14.9-63.9 1.6-73.5-29.6-9.7-31.1 7.5-68.4 38.4-83.3z"/>
						</g>
						<g id="&lt;Group&gt;">
							<g id="&lt;Group&gt;">
								<path id="&lt;Path&gt;" class="s2" d="m200.6 341.6c-4.6 2.2-9.3 3.9-14 5.1-8.6-0.1-16.7-2.3-23.7-6.2q-1.5-0.9-2.9-1.8c-5-3.3-9.4-7.5-13-12.5q-0.3-0.4-0.6-0.9c-3.7-5.4-6.4-11.7-7.9-18.7l-0.1-0.1q-0.2-1.1-0.4-2.3c-5.2-29.6 12.2-61.1 39.6-74.1q3.6-1.7 7.5-3c4.3-1.4 8.7-2.3 12.9-2.7 7.5-0.7 14.6 0.1 21.2 2.3 7.2 2.4 13.6 6.3 18.9 11.6 2 3.5 3.6 7.3 4.8 11.3 10.7 34.4-8.3 75.7-42.3 92z"/>
							</g>
						</g>
						<g id="&lt;Group&gt;">
							<path id="&lt;Path&gt;" class="s3" d="m200.6 341.6c-4.6 2.2-9.3 3.9-14 5.1-8.6-0.1-16.7-2.3-23.7-6.2q-1.5-0.9-2.9-1.8c9-1.2 16.5-3.3 22.9-6.1 13-5.6 21.2-14.1 26.3-23.2 9.9-17.2 4.7-41.2-13.4-49.5-23.6-10.9-18.3-29.7-18.3-29.7l0.1-0.1q3.6-1.7 7.5-3c4.3-1.4 8.7-2.3 12.9-2.7 7.5-0.7 14.6 0.1 21.2 2.3 7.2 2.4 13.6 6.3 18.9 11.6 2 3.5 3.6 7.3 4.8 11.3 10.7 34.4-8.3 75.7-42.3 92z"/>
						</g>
						<g id="&lt;Group&gt;">
							<path id="&lt;Compound Path&gt;" fill-rule="evenodd" class="s0" d="m200.6 341.6c-4.6 2.2-9.3 3.9-14 5.1-5 1.2-9.9 1.8-14.9 1.8-8 0-15.8-1.6-23.1-4.8-15.2-6.6-26.4-19.4-31.6-36-10.7-34.4 8.3-75.7 42.3-92 17.4-8.4 35.9-9.1 52.1-2.1 11.5 5 20.7 13.6 26.7 24.7 2 3.5 3.6 7.3 4.8 11.3 10.7 34.4-8.3 75.7-42.3 92zm-6.2-13c27.7-13.4 43.3-46.9 34.7-74.7-3.9-12.5-12.3-22.1-23.5-27q-3.7-1.6-7.6-2.5-4.8-1-9.8-1.1c-7.4 0-15.1 1.9-22.6 5.4-22.6 10.9-37.1 35-37.1 58.6 0 5.5 0.8 10.9 2.4 16.1 3 9.6 8.6 17.5 16.1 22.8q3.5 2.5 7.4 4.2c8.8 3.8 18.6 4.6 28.5 2.2 3.8-0.9 7.7-2.2 11.5-4z"/>
						</g>
					</g>
					<g id="&lt;Group&gt;">
						<g id="&lt;Group&gt;">
							<path id="&lt;Path&gt;" class="s1" d="m280.4 51.1c32.9-10.1 63.3 7.8 67.9 40 4.5 32.3-18.5 66.6-51.5 76.7-33 10.1-63.4-7.8-67.9-40.1-4.5-32.2 18.5-66.5 51.5-76.6z"/>
						</g>
						<g id="&lt;Group&gt;">
							<g id="&lt;Group&gt;">
								<path id="&lt;Path&gt;" class="s2" d="m356 97.1c1.1 33.4-23.3 67.3-57.1 77.6-6.7 2.1-13.6 3.1-20.3 3.1-4.5 0-8.9-0.4-13.1-1.4-7.4-3.7-13.7-9.2-18.2-16.1-4.2-6.2-7-13.6-8-21.9q-0.2-1.9-0.3-4c-0.1-0.8-0.1-1.6-0.1-2.4-0.2-20.5 10.1-40.3 26-53.6 9.4-7.9 20.8-13.5 33-15.6 10.4-1.7 20.2-0.7 28.8 2.5 6.6 2.5 12.5 6.3 17.3 11.2 4.8 4.8 8.5 10.6 11 17.3q0.6 1.6 1 3.3 0.2 0.4 0.3 0.9-0.1-0.4-0.3-0.9z"/>
							</g>
						</g>
						<g id="&lt;Group&gt;">
							<path id="&lt;Path&gt;" class="s3" d="m298.9 174.7c-6.7 2.1-13.6 3.1-20.3 3.1-4.5 0-8.9-0.4-13.1-1.4-7.4-3.7-13.7-9.2-18.2-16.1-4.2-6.2-7-13.6-8-21.9q-0.2-1.9-0.3-4c-0.1-0.8-0.1-1.6-0.1-2.4-0.2-20.5 10.1-40.3 26-53.6 0 0-8.2 24.4 10.7 36.3 15.1 9.5 22 33.1 43.3 25.3 4.4-1.6 8.4-3.9 12-6.7 7-5.5 12.4-12.7 16.5-20.7 3.2-6.1 5.7-12.5 7.5-18.8q0.6 1.6 1.1 3.3c0 0 0.1 0 0 0 1.1 33.4-23.3 67.3-57.1 77.6z"/>
						</g>
						<g id="&lt;Group&gt;">
							<path id="&lt;Compound Path&gt;" fill-rule="evenodd" class="s0" d="m298.9 174.7c-6.7 2.1-13.6 3.1-20.3 3.1-4.5 0-8.9-0.4-13.1-1.4-6.6-1.3-12.9-3.9-18.6-7.5-13.8-8.8-22.8-23-25.2-40.1-5-35.6 20.4-73.6 56.5-84.7 6.8-2.1 13.7-3.1 20.4-3.1 11.4 0 22.4 3 31.7 8.9 13.8 8.8 22.8 23.1 25.2 40.2 0.3 2.3 0.5 4.6 0.5 7 0 0 0.1 0 0 0 1.1 33.4-23.3 67.3-57.1 77.6zm-4.2-13.8c15-4.7 27.8-14.9 36.2-27.6 8.1-12.3 12.2-27 10.2-41.2-1.6-10.9-6.6-20.3-14.4-26.8q-2-1.7-4.2-3.1c-11.3-7.2-25.5-8.6-40-4.2-29.6 9.1-50.4 39.9-46.4 68.7q0.9 6.3 3.2 11.7c3.3 7.6 8.5 13.9 15.4 18.3 11.2 7.1 25.4 8.6 40 4.2z"/>
						</g>
					</g>
					<g id="&lt;Group&gt;">
						<g id="&lt;Group&gt;">
							<path id="&lt;Path&gt;" class="s1" d="m214.8 124.5c30.9-14.8 63.9-1.6 73.6 29.6 9.6 31.2-7.6 68.5-38.5 83.3-31 14.9-63.9 1.7-73.6-29.5-9.7-31.2 7.6-68.5 38.5-83.4z"/>
						</g>
						<g id="&lt;Group&gt;">
							<g id="&lt;Group&gt;">
								<path id="&lt;Path&gt;" class="s2" d="m253 244q-6.9 3.3-14 5c-8.5-0.1-16.6-2.3-23.7-6.2-5.1-2.8-9.6-6.6-13.4-11.1q-1.3-1.5-2.4-3.1c-4.1-5.6-7-12.2-8.7-19.7q-0.2-1.2-0.4-2.4c-1.7-9.6-1-19.4 1.6-28.8 6.3-21.8 23.3-41 45.5-48.2 4.3-1.5 8.7-2.3 12.9-2.7 7.4-0.8 14.6 0.1 21.2 2.3 7.2 2.3 13.6 6.2 18.9 11.5 1.9 3.5 3.5 7.3 4.8 11.3 10.7 34.5-8.3 75.8-42.3 92.1z"/>
							</g>
						</g>
						<g id="&lt;Group&gt;">
							<path id="&lt;Path&gt;" class="s3" d="m253 244q-6.9 3.3-14 5c-8.5-0.1-16.6-2.3-23.7-6.2-5.1-2.8-9.6-6.6-13.4-11.1 1.4 0.4 3.2 0.8 5 1.1 15.5 2.7 42.9 2.3 59.7-28.1 13.7-25 6-42.5-3.4-53-6.4-7.2-17.7-6.8-24.1 0.5-18.7 21.4-47.1 25.5-47.1 25.5 6.3-21.8 23.3-41 45.5-48.2 4.3-1.5 8.7-2.3 12.9-2.7 7.4-0.8 14.6 0.1 21.2 2.3 7.2 2.3 13.6 6.2 18.9 11.5 1.9 3.5 3.5 7.3 4.8 11.3 10.7 34.5-8.3 75.8-42.3 92.1z"/>
						</g>
						<g id="&lt;Group&gt;">
							<path id="&lt;Compound Path&gt;" fill-rule="evenodd" class="s0" d="m253 244q-6.9 3.3-14 5c-4.9 1.2-9.9 1.8-14.9 1.8-8 0-15.8-1.6-23.2-4.8-15.2-6.6-26.3-19.4-31.5-36-10.7-34.4 8.3-75.7 42.3-92 17.4-8.4 35.9-9.1 52-2.1 11.6 5.1 20.8 13.6 26.8 24.7 1.9 3.5 3.5 7.3 4.8 11.3 10.7 34.5-8.3 75.8-42.3 92.1zm-6.3-13.1c27.8-13.3 43.4-46.8 34.7-74.6-3.9-12.6-12.2-22.1-23.4-27.1q-3.7-1.6-7.6-2.4-4.8-1.1-9.8-1.1c-7.5 0-15.2 1.8-22.6 5.4-27.8 13.3-43.4 46.8-34.7 74.6 3 9.7 8.6 17.6 16.2 22.9q3.4 2.4 7.2 4.1 0.1 0.1 0.2 0.1c12.2 5.3 26.3 4.6 39.8-1.9z"/>
						</g>
					</g>
					<g id="&lt;Group&gt;">
						<g id="&lt;Group&gt;">
							<path id="&lt;Path&gt;" class="s1" d="m86.5 141.3c30.9-14.8 63.9-1.6 73.5 29.6 9.7 31.1-7.5 68.5-38.4 83.3-31 14.9-63.9 1.6-73.6-29.5-9.7-31.2 7.6-68.5 38.5-83.4z"/>
						</g>
						<g id="&lt;Group&gt;">
							<g id="&lt;Group&gt;">
								<path id="&lt;Path&gt;" class="s2" d="m124.7 260.8q-6.9 3.3-14 5c-8.6-0.1-16.7-2.3-23.8-6.3-2.8-1.5-5.5-3.4-7.9-5.5q-4.4-3.8-7.9-8.6c-4-5.6-7-12.3-8.6-19.7q-0.3-1.2-0.5-2.4c-5.6-32.2 15.5-66.7 47.2-77.1 4.3-1.4 8.6-2.2 12.8-2.6q5.2-0.6 10.2-0.1c3.8 0.4 7.5 1.2 11 2.3 7.2 2.4 13.7 6.3 19 11.6 1.9 3.5 3.5 7.3 4.8 11.3 10.7 34.4-8.3 75.7-42.3 92.1z"/>
							</g>
						</g>
						<g id="&lt;Group&gt;">
							<path id="&lt;Path&gt;" class="s3" d="m124.7 260.8q-6.9 3.3-14 5c-8.6-0.1-16.7-2.3-23.8-6.3-2.8-1.5-5.5-3.4-7.9-5.5 4.3 0 8.8-0.3 13.4-1.1 17.4-2.9 35.7-12.5 48.9-33 18.3-28.1 4.2-56.8-4.1-69.6-2.8-4.3-5-6.8-5-6.8 3.8 0.4 7.5 1.2 11 2.3 7.2 2.4 13.7 6.3 19 11.6 1.9 3.5 3.5 7.3 4.8 11.3 10.7 34.4-8.3 75.7-42.3 92.1z"/>
						</g>
						<g id="&lt;Group&gt;">
							<path id="&lt;Compound Path&gt;" fill-rule="evenodd" class="s0" d="m124.7 260.8q-6.9 3.3-14 5-7.5 1.8-14.9 1.8c-8 0-15.8-1.6-23.2-4.8-15.2-6.6-26.4-19.4-31.5-36-10.7-34.4 8.3-75.7 42.3-92 9.4-4.6 19.2-6.9 28.8-6.9 8 0 15.9 1.6 23.2 4.8 11.6 5 20.8 13.6 26.8 24.7 1.9 3.5 3.5 7.3 4.8 11.3 10.7 34.4-8.3 75.7-42.3 92.1zm-6.3-13.1c27.8-13.4 43.3-46.8 34.7-74.7-3-9.5-8.5-17.3-15.9-22.7q-3.5-2.5-7.6-4.3-3.7-1.6-7.6-2.4c-10.3-2.4-21.5-0.9-32.3 4.3-27.8 13.3-43.4 46.8-34.7 74.6 2.9 9.6 8.6 17.5 16.1 22.9 2.3 1.6 4.7 3 7.3 4.1 4.4 1.9 9.1 3.1 14 3.4 8.5 0.7 17.4-1.1 26-5.2z"/>
						</g>
					</g>
					<g id="&lt;Group&gt;">
						<g id="&lt;Group&gt;">
							<path id="&lt;Path&gt;" class="s1" d="m239.3 98.5c-6.1 36.4-37.7 63.4-70.5 60.4-32.8-3-54.5-34.9-48.4-71.3 6.1-36.3 37.6-63.3 70.5-60.3 32.8 3 54.5 34.9 48.4 71.2z"/>
						</g>
						<g id="&lt;Group&gt;">
							<g id="&lt;Group&gt;">
								<path id="&lt;Path&gt;" class="s2" d="m244.3 64.5c3.4 11 4.2 23.1 2.1 35.2-3.1 19-12.7 35.6-25.8 47.6-11.6 10.6-26 17.4-41.2 18.8q-3.4-0.3-6.7-1.1-2.1-0.5-4.2-1.2c-0.7-0.2-1.4-0.5-2-0.7q-0.9-0.4-1.8-0.7-2.8-1.2-5.3-2.7-0.9-0.5-1.7-1-3.2-2-6-4.4-0.7-0.6-1.3-1.1-0.8-0.7-1.6-1.5-0.7-0.7-1.3-1.4-0.7-0.7-1.4-1.6-1.4-1.6-2.7-3.3-0.6-0.8-1.1-1.6c-0.4-0.5-0.7-1.1-1.1-1.6q-3-4.9-5.1-10.4-0.7-1.7-1.2-3.5-0.8-2.4-1.4-5-0.2-1.1-0.4-2.3-0.3-1.3-0.5-2.7-0.2-1.1-0.3-2.1 0-0.5 0-0.9c-0.9-8.8-0.1-18.1 2.7-27.5 9.1-30.7 35.8-51.7 63.1-51.8 4.1 0 8.2 0.4 12.3 1.4 4.4 1.1 8.6 2.7 12.4 4.7q5 2.8 9.3 6.5 0.2 0.2 0.4 0.4 0.3 0.3 0.6 0.6 0.6 0.5 1.2 1.1 1.8 1.8 3.3 3.7 0.6 0.7 1.2 1.4c1 1.2 1.8 2.5 2.7 3.8q0.6 0.9 1.1 1.9 0.5 0.8 1 1.6 0.4 0.7 0.7 1.4z"/>
							</g>
							<g id="&lt;Group&gt;">
								<path id="&lt;Path&gt;" class="s3" d="m244.3 64.5c3.4 11 4.2 23.1 2.1 35.2-3.1 19-12.7 35.6-25.8 47.6-11.6 10.6-26 17.4-41.2 18.8q-3.4-0.3-6.7-1.1-2.1-0.5-4.2-1.2c-0.7-0.2-1.4-0.5-2-0.7q-0.9-0.4-1.8-0.7-2.8-1.2-5.3-2.7-0.9-0.5-1.7-1-3.2-2-6-4.4-0.7-0.6-1.3-1.1-0.8-0.7-1.6-1.5-0.7-0.7-1.3-1.4-0.7-0.7-1.4-1.6-1.4-1.6-2.7-3.3-0.6-0.8-1.1-1.6c-0.4-0.5-0.7-1.1-1.1-1.6q-3-4.9-5.1-10.4-0.7-1.7-1.2-3.5-0.8-2.4-1.4-5-0.2-1.1-0.4-2.3-0.3-1.3-0.5-2.7-0.2-1.1-0.3-2.1 0-0.5-0.1-1 0 0.1 0.1 0.1c6.5 12 12.8 19.2 26.6 22.4 29.3 7 60.9-14.2 70.6-47.2 1.2-3.8 2.3-7.6 3.1-11.3 1.7-6.9 2.7-13.4 2.1-19.7-0.3-3.7-1.1-7.3-2.6-10.9 0 0 0 0 0 0q0.2 0.2 0.4 0.4 0.3 0.3 0.6 0.6 0.6 0.5 1.2 1.1 1.8 1.8 3.3 3.7 0.6 0.7 1.2 1.4c1 1.2 1.8 2.5 2.7 3.8q0.6 0.9 1.1 1.9 0.5 0.8 1 1.6 0.4 0.7 0.7 1.4z"/>
							</g>
						</g>
						<g id="&lt;Group&gt;">
							<path id="&lt;Compound Path&gt;" fill-rule="evenodd" class="s0" d="m246.4 99.7c-3.1 19-12.7 35.6-25.8 47.6-11.6 10.6-26 17.4-41.2 18.8q-2.8 0.3-5.7 0.3-2.7 0-5.6-0.3c-16.7-1.5-31.5-9.8-41.9-23.2-11.7-15.2-16.5-35.8-13-56.5 6.7-39.9 41.9-69.7 78.3-66.3 16.7 1.5 31.6 9.7 42 23.2 4.8 6.3 8.5 13.5 10.8 21.2 3.4 11 4.2 23.1 2.1 35.2zm-14.3-2.4c1.1-6.1 1.2-12.2 0.5-18.1-1.2-10.1-4.8-19.5-10.7-27.1-6.1-8-14.4-13.5-23.8-16.1q-3.8-1.1-7.9-1.5-2.2-0.2-4.4-0.2c-27.5 0-53.1 23.6-58.3 54.6-2.6 15.6 0.5 31.1 8.6 42.9q0.8 1.1 1.6 2.3c7.9 10.1 19.1 16.4 31.8 17.5 29 2.7 57.2-21.7 62.6-54.3z"/>
						</g>
					</g>
				</g>
			</g>
		</g>
	</g>
</svg>