<svg version="1.2" xmlns="http://www.w3.org/2000/svg" viewBox="0 0 288 468" width="288" height="468">
	<title>Artwork</title>
	<style>
		.s0 { fill: #5da901 } 
		.s1 { fill: #5c8c09 } 
		.s2 { fill: #231f20 } 
		.s3 { fill: #ffffff } 
		.s4 { fill: #037f20 } 
	</style>
	<g id="Artwork">
		<g id="&lt;Group&gt;">
			<g id="-e-&lt;Group&gt;">
				<g id="&lt;Group&gt;">
					<path id="&lt;Path&gt;" class="s0" d="m244.6 385.4c-11.7 31.7-35.6 56.7-65.1 70.4-10.9 3.3-22.3 5.1-34 5.1q-1.8 0-3.7-0.1-1.4 0-2.9-0.1-0.1 0-0.3 0-0.6-0.1-1.3-0.1-1.1-0.1-2.2-0.2-5.2-0.5-10.4-1.4-1-0.2-1.9-0.4-1.1-0.2-2.2-0.4-1.1-0.3-2.2-0.5-1.1-0.3-2.2-0.6-1.2-0.3-2.3-0.6-0.9-0.3-1.9-0.6-6.6-2-12.9-4.7-1.3-0.5-2.6-1.1-0.3-0.2-0.6-0.3-1.6-0.7-3.2-1.6-1.6-0.8-3.2-1.6c-25.1-13.6-45.3-35.9-55.5-63.5-19.3-52.4-4.4-116 23.8-162.2 8-13.9 15.6-28.2 22.5-42.5 8.3-17.4 8.3-36.9 16.4-54.2 4.6-9.8 12.2-17.8 21.5-23.1 6.1-3.5 12.8-5.9 19.9-6.9q0.9-0.1 1.8-0.2 1.8-0.2 3.5-0.2 1.1-0.1 2.1-0.1c3.7 0 7.3 0.4 10.9 1.1 11 6.1 20 15.3 25.3 26.6 4.3 9.2 6.5 18.8 8.5 28.1 2.1 9.2 4 17.9 7.9 26 6.4 13.3 13.8 27.5 22.2 42.1 26 42.5 46 109 24.3 167.8z"/>
				</g>
				<g id="&lt;Group&gt;">
					<path id="&lt;Path&gt;" class="s1" d="m220.3 217.6c26 42.5 46 109 24.3 167.8-11.7 31.7-35.6 56.7-65.1 70.4-10.9 3.3-22.3 5.1-34 5.1q-1.8 0-3.7-0.1-1.4 0-2.9-0.1-0.1 0-0.3 0-0.6-0.1-1.3-0.1-1.1-0.1-2.2-0.2-5.2-0.5-10.4-1.4-1-0.2-1.9-0.4-1.1-0.2-2.2-0.4-1.1-0.3-2.2-0.5-1.1-0.3-2.2-0.6-1.2-0.3-2.3-0.6-0.9-0.3-1.9-0.6-6.6-2-12.9-4.7-1.3-0.5-2.5-1.1-0.4-0.1-0.7-0.3-1.6-0.7-3.2-1.6-1.6-0.8-3.2-1.6 5.8 0.6 11.8 0.6c49.2 0 94.5-31.5 111.5-77.7 19.4-52.5 4.5-116.1-23.8-162.3-7.9-13.9-15.5-28.2-22.4-42.5-8.4-17.4-8.3-36.9-16.4-54.2q-1.4-3-3.2-5.8c-2.5-3.9-5.5-7.4-8.9-10.5q0.9-0.1 1.8-0.2c1.2-0.1 2.3-0.2 3.5-0.2q1.1-0.1 2.1-0.1c3.7 0 7.3 0.4 10.9 1.1 11 6.1 20 15.3 25.3 26.6 4.3 9.2 6.5 18.8 8.5 28.1 2.1 9.2 4 17.9 7.9 26 6.4 13.3 13.8 27.5 22.2 42.1z"/>
				</g>
				<g id="&lt;Group&gt;">
					<path id="&lt;Compound Path&gt;" fill-rule="evenodd" class="s2" d="m244.6 385.4c-11.7 31.7-35.6 56.7-65.1 70.4-16.2 7.5-34.1 11.6-52.6 11.6-52.3 0-99.6-32.9-117.7-82-21.6-58.8-1.6-125.3 24.4-167.8 8.3-14.6 15.8-28.8 22.1-42.1 4-8.1 5.9-16.8 7.9-26 2.1-9.3 4.2-18.9 8.5-28.1 9.6-20.5 31.6-34.2 54.8-34.2 10.4 0 20.6 2.7 29.5 7.6 11 6.1 20 15.3 25.3 26.6 4.3 9.2 6.5 18.8 8.5 28.1 2.1 9.2 4 17.9 7.9 26 6.4 13.3 13.8 27.5 22.2 42.1 26 42.5 46 109 24.3 167.8zm-35.6-161.1l-0.1-0.2c-8.5-14.9-16.1-29.3-22.6-42.9-4.6-9.5-6.7-19.3-8.9-28.9-2-9-3.8-17.4-7.5-25.3-4.6-9.9-13-17.7-22.9-22.3-6.2-2.8-13.1-4.4-20.1-4.4q-4.4 0-8.7 0.8c-14.8 2.8-27.9 12.5-34.2 25.9-3.7 7.9-5.6 16.3-7.6 25.3-2.1 9.6-4.3 19.4-8.8 28.9-6.6 13.6-14.2 28.1-22.7 42.9l-0.1 0.2c-24.4 40-43.3 102.1-23.2 156.6 12.5 34.1 40.9 59.5 74.9 69.2q0 0 0.1 0c9.7 2.7 19.9 4.2 30.3 4.2 46.9 0 89.2-29.5 105.4-73.4 20.1-54.5 1.1-116.6-23.3-156.6z"/>
				</g>
				<g id="&lt;Group&gt;">
					<path id="&lt;Path&gt;" class="s2" d="m131.6 97.5c-0.1-1.7-0.1-3.9 0-5.9q0.1-3.1 0.3-6.1c0.4-4.1 0.9-8.1 1.7-12.1 1.5-7.9 4.1-15.6 7.5-22.8q2.6-5.4 5.8-10.4c2.2-3.2 4.6-6.4 7.3-9.4 2.7-2.9 5.4-5.8 8.6-8.3 1.4-1.4 3.1-2.6 4.7-3.9 0.8-0.6 1.6-1.1 2.5-1.7 0.4-0.3 0.8-0.6 1.2-0.9 0.1-0.3 0.1-0.8-0.1-1.5-0.3-0.8-0.7-1.8-1.5-3.4l-5.5-7.7c-1.2-1.2-2.2-1.9-2.9-2.3-0.7-0.5-1.2-0.6-1.5-0.5-0.6 0.2-1 0.7-1.6 1-1 0.7-2 1.4-3 2.2-2 1.6-4 3.1-5.8 4.8-3.8 3.3-7.2 7-10.5 10.7-3.1 3.9-6 8-8.4 12.2-2.5 4.3-4.5 8.7-6.2 13.2-3.4 9.1-5.2 18.4-5.6 27.7-0.2 4.6-0.1 9.2 0.4 13.7q0.4 3.4 1.1 6.8c0.4 2.3 0.4 2.6 1.2 5z"/>
				</g>
				<g id="&lt;Group&gt;">
					<g id="&lt;Group&gt;">
						<path id="&lt;Path&gt;" class="s3" d="m141.9 43.4c0 0 145.1-8.2 138.9 122.3 0 0-127.9-12.2-138.9-122.3z"/>
					</g>
					<g id="&lt;Group&gt;">
						<path id="&lt;Path&gt;" class="s4" d="m277.7 170.3c0 0-5.6 0-14.6-1q0 0 0 0c-12.9-2.7-31.5-8-50.6-17.6-38.2-19.3-63.1-48.4-73-85.1-0.5-7.2-0.4-14.8 0.3-23 0 0 0.8 0 2.1 0.1 6.1 0.5 24.3 2.5 45.7 10.7q0 0 0 0c32.6 12.6 72.5 39.7 86.7 97.8q1.6 6.2 2.7 13 0.4 2.5 0.7 5.1z"/>
					</g>
					<g id="&lt;Group&gt;">
						<path id="&lt;Compound Path&gt;" fill-rule="evenodd" class="s2" d="m287.3 166l-0.3 6.8-6.8-0.6c-0.6-0.1-7.1-0.7-17.1-2.9q0 0 0 0c-12.9-2.7-31.5-8-50.6-17.6-38.2-19.3-63.1-48.4-73-85.1q-3-10.9-4.1-22.6l-0.7-6.8 6.8-0.4c3-0.1 72.5-3.6 114.8 38.4 22.4 22.2 32.8 52.7 31 90.8zm-138-116.1c12.9 83 99.7 103.9 125.1 108.2q0-3-0.1-5.9c-1-28-10.2-50.8-27.2-67.6-17.1-17-39.7-25.7-59.5-30.2q0 0 0 0c-16-3.5-30.2-4.4-38.3-4.5z"/>
					</g>
				</g>
			</g>
		</g>
	</g>
</svg>