<svg version="1.2" xmlns="http://www.w3.org/2000/svg" viewBox="0 0 378 418" width="378" height="418">
	<title>Artwork</title>
	<style>
		.s0 { fill: #ffffff } 
		.s1 { fill: #fc8108 } 
		.s2 { fill: #ff6600 } 
		.s3 { fill: #231f20 } 
		.s4 { fill: #01982f } 
	</style>
	<g id="Artwork">
		<g id="&lt;Group&gt;">
			<g id="-e-&lt;Group&gt;">
				<g id="&lt;Group&gt;">
					<path id="&lt;Path&gt;" class="s0" d="m371.1 253.3c0-86.8-74.3-157.1-165.9-157.1-91.7 0-165.9 70.3-165.9 157.1 0 86.8 74.2 157.1 165.9 157.1 91.6 0 165.9-70.3 165.9-157.1z"/>
				</g>
				<g id="&lt;Group&gt;">
					<path id="&lt;Path&gt;" class="s1" d="m377.9 253.3c0 66.2-41.6 123.4-101.2 149.2-16.4 5.1-33.9 7.9-52 7.9q-1.7 0-3.4 0-1.3 0-2.5-0.1-2-0.1-3.9-0.2-1 0-2-0.1-0.8 0-1.5-0.1-1.6-0.1-3.2-0.3-0.6 0-1.2-0.1-3.6-0.3-7.3-0.9-2.2-0.3-4.4-0.7-1.9-0.3-3.9-0.7-6.2-1.2-12.1-2.8-2-0.5-3.9-1.1-1.9-0.5-3.7-1.1-2.6-0.8-5.1-1.7-1.4-0.5-2.7-1-1.9-0.7-3.8-1.4-1.9-0.8-3.7-1.6-0.6-0.2-1.1-0.5-0.9-0.3-1.7-0.7-0.8-0.3-1.5-0.7-1.5-0.7-2.9-1.4-5.4-2.6-10.5-5.6-1.2-0.6-2.4-1.4-1-0.5-1.9-1.1-1-0.6-1.9-1.2-1.9-1.2-3.9-2.5-2-1.4-4-2.8-0.5-0.4-1.1-0.8-1.7-1.2-3.3-2.5-0.2-0.2-0.5-0.4-1.8-1.3-3.6-2.8-1.9-1.5-3.7-3.2-0.8-0.6-1.6-1.4c-2.6-2.3-5.1-4.7-7.6-7.2q-1.7-1.7-3.2-3.4-1.9-2-3.6-4c-1-1.2-2-2.3-2.9-3.5q-0.5-0.5-0.9-1.1-1.2-1.4-2.3-2.9c-1.5-1.9-2.9-3.9-4.3-5.9-0.7-0.9-1.3-1.9-2-2.9q-0.4-0.6-0.8-1.2-1.2-2-2.4-3.9-0.1-0.1-0.2-0.3-1.3-2.1-2.5-4.3-0.1-0.1-0.1-0.2 0 0 0 0c-12.3-21.9-19.2-46.9-19.2-73.4q0-8.1 0.8-16c0.7-6 1.7-11.8 3-17.6q0.5-1.9 0.9-3.9c3.2-12.2 7.9-24 13.9-34.9q2.1-3.8 4.5-7.5 2.8-4.5 5.9-8.8 0.8-1.2 1.7-2.3 0.7-1 1.4-1.9 2.2-2.9 4.6-5.6c15.9-18.8 36.3-33.9 59.6-44.2 3.3-1.4 6.7-2.8 10.1-4 3-1.1 6.1-2.1 9.2-3q0.9-0.3 1.8-0.6c2.4-0.7 4.9-1.3 7.3-1.9q1.1-0.3 2.2-0.6 0.1 0 0.2 0c1.4-0.3 2.8-0.6 4.2-0.9q0.7-0.1 1.4-0.2 2.3-0.5 4.7-0.9 4.2-0.7 8.6-1.2c3.3-0.4 6.7-0.7 10.1-0.8q1-0.1 2-0.1 3.9-0.2 7.8-0.2 9.7 0 19.2 1 1.4 0.2 2.8 0.4 1.2 0.1 2.4 0.3 1.7 0.2 3.3 0.5 1.5 0.2 3 0.5 1.5 0.3 3 0.6 1.1 0.1 2.2 0.4 1.1 0.2 2.3 0.5 2 0.4 3.9 0.9 3.2 0.8 6.3 1.7 1.7 0.5 3.4 1 0 0 0 0c59.8 25.8 101.4 83 101.4 149.3z"/>
				</g>
				<g id="&lt;Group&gt;">
					<path id="&lt;Path&gt;" class="s2" d="m196.4 96.2c0 0-0.1 0.8-0.2 2.3q-0.1 0.5-0.2 1.1c-2.4 16.1-43.1 89.6-132.4 116.2 5-19.5 13.9-37.6 25.9-53.5q0.7-1 1.4-1.9c32.6-23 74.2-46.9 89.3-56.8 1.6-1.1 3.6-2.1 5.5-3.1 5.3-2.5 10.7-4.3 10.7-4.3z"/>
				</g>
				<g id="&lt;Group&gt;">
					<path id="&lt;Path&gt;" class="s2" d="m377.9 253.3c0 66.2-41.6 123.4-101.2 149.2-16.4 5.1-33.9 7.9-52 7.9q-1.7 0-3.4 0-1.3 0-2.5-0.1-2-0.1-3.9-0.2-1 0-2-0.1-0.8 0-1.5-0.1-1.6-0.1-3.2-0.3-0.6 0-1.2-0.1-3.6-0.3-7.3-0.9-2.2-0.3-4.4-0.7-1.9-0.3-3.9-0.7-6.2-1.2-12.1-2.8-2-0.5-3.9-1.1-1.9-0.5-3.7-1.1-2.6-0.8-5.1-1.7-1.4-0.5-2.7-1-1.9-0.7-3.8-1.4-1.9-0.8-3.7-1.6-0.6-0.2-1.1-0.5-0.1 0-0.2-0.1-0.7-0.3-1.5-0.6-0.8-0.3-1.5-0.7-1.5-0.7-2.9-1.4-5.4-2.6-10.5-5.6-1.2-0.6-2.4-1.4-1-0.5-1.9-1.1-1-0.6-1.9-1.2-1.9-1.2-3.9-2.5-2-1.4-4-2.8-0.5-0.4-1.1-0.8-1.7-1.2-3.3-2.5-0.2-0.2-0.5-0.4-1.8-1.3-3.6-2.8-1.9-1.5-3.7-3.2-0.8-0.6-1.6-1.4c-2.6-2.3-5.1-4.7-7.6-7.2q-1.7-1.7-3.2-3.4-1.9-2-3.6-4c-1-1.2-2-2.3-2.9-3.5q-0.5-0.5-0.9-1.1-1.2-1.4-2.3-2.9c-1.5-1.9-2.9-3.9-4.3-5.9-0.7-0.9-1.3-1.9-2-2.9q-0.4-0.6-0.8-1.2-1.2-2-2.4-3.9-0.1-0.1-0.2-0.3-1.3-2.1-2.5-4.3-0.1-0.1-0.1-0.2c27.7 33.6 70.6 55.1 118.7 55.1 83.7 0 151.6-65.3 151.6-145.9 0-34.5-12.5-66.2-33.3-91.2-11.5-13.8-25.5-25.5-41.5-34.6q0 0-0.1 0c-9.2-5.3-19.1-9.6-29.5-12.9q1.4 0.2 2.8 0.4 1.2 0.1 2.4 0.3 1.7 0.2 3.3 0.5 1.5 0.2 3 0.5 1.5 0.3 3 0.6 1.1 0.1 2.2 0.4 1.1 0.2 2.3 0.5 2 0.4 3.9 0.9 3.2 0.8 6.3 1.7 1.7 0.5 3.4 1 0 0 0 0c59.8 25.8 101.4 83 101.4 149.3z"/>
				</g>
				<g id="&lt;Group&gt;">
					<path id="&lt;Compound Path&gt;" fill-rule="evenodd" class="s3" d="m377.9 253.3c0 66.2-41.6 123.4-101.2 149.2-21.8 9.5-46.1 14.7-71.5 14.7-95.3 0-172.7-73.5-172.7-163.9 0-25.1 5.9-48.9 16.6-70.1q0.8-1.8 1.8-3.5 2-3.9 4.3-7.6 2.4-4 5-7.8c25.6-37.5 67-64.5 115.1-72.5q4.2-0.7 8.5-1.2 4-0.5 8.1-0.8 1.3-0.1 2.7-0.1c3.2-0.2 6.5-0.3 9.8-0.3h0.8q6.4 0 12.7 0.4c20.8 1.4 40.5 6.4 58.6 14.2q0 0 0 0c59.8 25.8 101.4 83 101.4 149.3zm-13.7 0c0-42.6-18.9-81.2-49.2-108.6-28.5-25.8-67.2-41.7-109.8-41.7q-5.1 0-10.1 0.3-2.7 0.2-5.3 0.4-3.2 0.3-6.4 0.7-3 0.4-5.9 0.9-1.6 0.3-3.3 0.6-5.1 0.9-10.2 2.2-4.5 1.2-8.9 2.5c-29.4 9.3-55.1 26.5-74.1 48.9q-3.6 4.3-7 8.8-2.9 4.1-5.5 8.3-1.8 2.8-3.5 5.7c-12 21.1-18.9 45.3-18.9 71 0 66.3 45.7 122.8 109 142.6q0.1 0.1 0.2 0.1c15.7 4.9 32.4 7.6 49.9 7.6 87.7 0 159-67.4 159-150.3z"/>
				</g>
				<g id="&lt;Group&gt;">
					<g id="&lt;Group&gt;">
						<path id="&lt;Path&gt;" class="s0" d="m197.7 55c0 0-172.1-37.1-189.2 120.2 0 0 155.3 9.6 189.2-120.2z"/>
					</g>
					<g id="&lt;Group&gt;">
						<path id="&lt;Path&gt;" class="s4" d="m200.1 55.7q-0.7 11.7-2.7 22-2.5 6.3-5.5 12.1-1.9 3.7-4 7.2c-0.6 1.2-1.3 2.3-2 3.5q0 0 0 0-1.2 2-2.5 3.9c-20.1 30.6-50.8 53-90.9 65.9q-5.4 1.7-10.6 3.1c-4.6 1.2-9.1 2.3-13.4 3.2q-4.7 1-9.2 1.8-4.3 0.7-8.4 1.3c-13.4 1.8-24.6 2.4-32.3 2.5q0 0 0 0c-4.7-0.5-7.4-0.9-7.4-0.9 0.6-2 1.3-4 1.9-5.9 1.2-3.4 2.3-6.7 3.6-9.9q0 0 0-0.1c29-74.9 88.3-99.6 131.6-107.2 23.8-4.2 42.7-3.3 49.3-2.8 1.7 0.2 2.5 0.3 2.5 0.3z"/>
					</g>
					<g id="&lt;Group&gt;">
						<path id="&lt;Compound Path&gt;" fill-rule="evenodd" class="s3" d="m206.1 49.9l-1.8 6.9q-1.6 6-3.6 11.9c-1 3.1-2.1 6-3.3 9q-2.5 6.3-5.5 12.1-1.9 3.7-4 7.2c-0.6 1.2-1.3 2.3-2 3.5q0 0 0 0-1.2 2-2.5 3.9c-20.1 30.6-50.8 53-90.9 65.9q-5.4 1.7-10.6 3.1c-4.6 1.2-9.1 2.3-13.4 3.2q-4.7 1-9.2 1.8-4.3 0.7-8.4 1.3c-13.4 1.8-24.6 2.4-32.3 2.5q0 0 0 0-1.5 0-2.8 0c-4.6 0-7.3-0.1-7.8-0.2l-7.1-0.4 0.8-7.1c5-45.6 23-79.9 53.7-102 48.9-35.3 114.6-28.9 136.5-25.4 4.1 0.6 6.7 1.1 7.3 1.2zm-53.9 71q6.3-6 11.7-12.7 0.7-0.7 1.2-1.5 2.7-3.4 5.1-6.9 2.7-3.9 5-7.9 8.5-14.4 13.8-31.3c-7.2-1.1-19.2-2.4-33.6-2.4q-3.5 0-7.2 0.1c-26.3 0.8-58.7 6.5-85 25.4-25 18-40.6 45.5-46.6 81.8q0 0.1 0 0.1-0.3 1.5-0.5 3c8.9 0 25-0.7 44-4.2 3.2-0.6 6.4-1.3 9.8-2 3.6-0.9 7.3-1.8 11.1-2.9q3.8-1 7.6-2.3 3.4-1.1 6.8-2.3c2.7-1 5.4-2 8.1-3.1 19.1-7.9 35.4-18.2 48.7-30.9z"/>
					</g>
				</g>
				<g id="&lt;Group&gt;">
					<path id="&lt;Path&gt;" class="s3" d="m204.8 101.8c0-1.8 0-4.1-0.1-6.2q0-3.2-0.3-6.4c-0.4-4.3-0.9-8.5-1.8-12.7-1.6-8.3-4.3-16.3-7.8-23.9q-2.7-5.6-6.1-10.8c-2.4-3.5-4.9-6.8-7.6-9.9-2.9-3.1-5.8-6.1-9.1-8.8-1.5-1.4-3.2-2.7-4.9-4-0.8-0.7-1.7-1.2-2.6-1.8-0.4-0.4-0.9-0.6-1.3-1-0.1-0.3-0.1-0.8 0.2-1.6 0.2-0.7 0.7-1.9 1.5-3.5l5.8-8c1.3-1.3 2.2-2.1 2.9-2.5 0.8-0.5 1.3-0.6 1.7-0.5 0.6 0.2 1 0.7 1.6 1 1.1 0.8 2.2 1.5 3.2 2.4 2 1.6 4.1 3.2 6.1 5 4 3.4 7.5 7.3 10.9 11.3 3.3 4 6.3 8.3 8.9 12.7 2.6 4.5 4.8 9.2 6.5 13.9 3.6 9.5 5.4 19.3 5.9 28.9 0.1 4.9 0 9.7-0.5 14.5q-0.4 3.5-1.1 7.1c-0.5 2.3-0.4 2.7-1.2 5.3z"/>
				</g>
			</g>
		</g>
	</g>
</svg>