<svg version="1.2" xmlns="http://www.w3.org/2000/svg" viewBox="0 0 405 365" width="405" height="365">
	<title>Artwork</title>
	<style>
		.s0 { fill: #ffffff } 
		.s1 { fill: #ff2720 } 
		.s2 { fill: #cc1f1f } 
		.s3 { fill: #231f20 } 
		.s4 { fill: #01982f } 
		.s5 { fill: #09b532 } 
	</style>
	<g id="Artwork">
		<g id="&lt;Group&gt;">
			<g id="-e-&lt;Group&gt;">
				<g id="&lt;Group&gt;">
					<path id="&lt;Path&gt;" class="s0" d="m231.4 48.8c-104.3 0-166.3 59.1-166.3 144.7 0 99.5 91.7 187.4 166.3 158.7 74.5 28.7 166.2-59.2 166.2-158.7 0-85.6-62-144.7-166.2-144.7z"/>
				</g>
				<g id="&lt;Group&gt;">
					<path id="&lt;Path&gt;" class="s1" d="m389.4 125c9.8 20 15.1 43 15.1 68.5 0 58.1-30.4 116.5-77.5 148.8q-10 6.8-20.1 11.6c-11.8 3.4-23.9 4.6-35.8 3.3-6.8-0.8-13.6-2.4-20.2-5q-1.8 0.7-3.7 1.3-1.8 0.6-3.6 1.2-1.3 0.3-2.5 0.6 0 0 0 0c-9.8 2.4-19.8 3-29.8 1.9q-3-0.4-6-0.9-9.4-1.7-18.7-5.1-1.5-0.6-3-1.2-2.7-1.1-5.3-2.3 0 0-0.1-0.1-6.4-3-12.7-6.8-2.9-1.8-5.8-3.7c-11.6-7.9-22.4-17.7-32-29.1-25.8-30.2-43.1-71.2-43.1-114.5 0-28.8 7-54.6 20.4-76.2q2.1-3.5 4.5-6.9 2.3-3.2 4.8-6.3 2.5-3.1 5.2-6.1 3-3.2 6.2-6.2 3.5-3.4 7.2-6.4 0.8-0.7 1.6-1.3c9.2-7.3 19.6-13.6 31.1-18.7 7.2-3.3 15-6.1 23.1-8.4q2.8-0.9 5.6-1.5 0.8-0.3 1.6-0.5c2.4-0.6 4.9-1.1 7.4-1.6q16.4-3.4 34.8-4.3 1.4-0.1 2.8-0.1 0-0.1 0.1 0 4.9-0.2 9.9-0.2 2.2 0 4.4 0c22.8 0.4 43.5 3.6 61.9 9.4 32.8 14.1 57.6 37 72.2 66.8z"/>
				</g>
				<g id="&lt;Group&gt;">
					<path id="&lt;Path&gt;" class="s2" d="m389.4 125c9.8 20 15.1 43 15.1 68.5 0 58.1-30.4 116.5-77.5 148.8q-10 6.8-20.1 11.6c-11.8 3.4-23.9 4.6-35.8 3.3-6.8-0.8-13.6-2.4-20.2-5q-1.8 0.7-3.7 1.3-1.8 0.6-3.6 1.2-1.3 0.3-2.5 0.6c-9.8 2.4-19.9 3-29.9 1.9q-2.9-0.3-5.9-0.9c-6.2-1.1-12.5-2.8-18.7-5.1q-1.5-0.6-3-1.2-2.7-1.1-5.3-2.3 0 0-0.1-0.1-6.4-3-12.7-6.8-2.9-1.8-5.8-3.7c-11.6-7.9-22.4-17.7-32-29.1 25.9 15 56 23.6 88.1 23.6 88.8 0 162.3-65.8 174.5-151.3 1.2-8.2 1.7-16.5 1.7-25q0-2.2 0-4.4-0.3-13.2-2.6-25.9z"/>
				</g>
				<g id="&lt;Group&gt;">
					<path id="&lt;Compound Path&gt;" fill-rule="evenodd" class="s3" d="m404.5 193.5c0 58.1-30.4 116.5-77.5 148.8q-10 6.8-20.1 11.6c-25.6 12-51.7 14-75.5 5.6-9.7 3.4-19.8 5.1-30 5.1-21.7 0-44.2-7.5-65.7-22.3-47-32.3-77.4-90.7-77.4-148.8 0-37.6 11.3-69.8 31.9-94.7q2.6-3.1 5.3-6 2.6-2.8 5.4-5.5c2-1.9 4-3.7 6.1-5.4 19.4-16.6 44.2-28.4 73.2-34.7q1.4-0.3 2.7-0.6 2.6-0.5 5.3-1 3.9-0.7 8-1.2 16.8-2.4 35.2-2.4 5 0 9.9 0.1 9.6 0.4 18.8 1.4c21 2.4 40.1 7.4 57.1 14.7 32.8 14.1 57.6 37 72.2 66.8 9.8 20 15.1 43 15.1 68.5zm-13.7 0q0-6.7-0.5-13.2c-5.9-70.9-59-117.7-140.1-124q-7.1-0.5-14.4-0.6c-1.4-0.1-3-0.1-4.4-0.1-8.9 0-17.4 0.5-25.7 1.3q-3.9 0.5-7.7 1-0.4 0.1-0.8 0.1-3.5 0.5-6.8 1.2-13 2.3-24.8 6.2c-14.8 4.8-28.1 11.4-39.7 19.6q-4.1 2.8-8 5.9-3.4 2.8-6.6 5.9-3 2.8-5.8 5.8c-21.6 23.3-33.6 54.3-33.6 90.9 0 53.7 28.1 107.7 71.6 137.5 11.4 7.9 23.1 13.5 34.7 16.6q0.1 0.1 0.1 0.1c17.5 4.8 34.8 4.3 50.6-1.8l2.5-1 2.4 1c26.4 10.1 56.8 4.8 85.5-14.9 43.4-29.8 71.5-83.8 71.5-137.5z"/>
				</g>
				<g id="&lt;Group&gt;">
					<path id="&lt;Path&gt;" class="s2" d="m225.3 79.7c-40.7 43.2-104.3 39.4-120.3 37.6q2.1-3.5 4.5-6.9c7-9.8 15.3-18.6 25-26.3z"/>
				</g>
				<g id="&lt;Group&gt;">
					<path id="&lt;Path&gt;" class="s3" d="m272.7 81.1c0 5.7-18.5 10.4-41.3 10.4-22.9 0-41.4-4.7-41.4-10.4 0-5.7 18.5-10.3 41.4-10.3 22.8 0 41.3 4.6 41.3 10.3z"/>
				</g>
				<g id="&lt;Group&gt;">
					<path id="&lt;Path&gt;" class="s3" d="m233.9 90.9c-0.5-2.3-0.7-4.3-0.9-6.5-0.2-2.1-0.3-4.2-0.3-6.3q-0.1-6.4 1-12.8c1.3-8.5 4.1-17 8.4-24.8 2.2-3.9 4.6-7.7 7.5-11.1 1.3-1.8 2.9-3.5 4.4-5.1 1.6-1.6 3.1-3.3 4.8-4.7 5.8-5.3 12.3-9.7 19.1-13.5 1.6-0.9 3.6-0.2 4.3 1.5l6.5 15.5c0.7 1.6-0.1 3.5-1.7 4.1-5.7 2-11.1 4.6-16.2 7.8-1.5 0.9-2.9 2-4.3 3-1.4 1.1-2.8 2.1-4 3.3q-4 3.5-7.3 7.7c-4.4 5.5-7.9 12-10.2 19-1.2 3.5-2.1 7.1-2.7 10.8-0.3 1.8-0.5 3.7-0.7 5.5-0.1 1.9-0.2 3.9-0.1 5.5z"/>
				</g>
				<g id="&lt;Group&gt;">
					<path id="&lt;Path&gt;" class="s0" d="m210.6 79.7c0 0-60 23.2-112.2 6.9-62.4-19.5-87.8-54.7-87.8-54.7 0 0 60.2-38 125.9-19.5 52.6 14.9 74.1 67.3 74.1 67.3z"/>
				</g>
				<g id="&lt;Group&gt;">
					<path id="&lt;Path&gt;" class="s4" d="m2.1 30.3q0.2 0.2 0.3 0.4c-0.2-0.3-0.3-0.4-0.3-0.4z"/>
				</g>
				<g id="&lt;Group&gt;">
					<path id="&lt;Path&gt;" class="s5" d="m216.8 83c0 0-3.6 2.2-10.1 5.3q-0.1 0.1-0.1 0.1-0.9 0.3-2 0.6c-12.4 3.9-37.1 10.3-64.8 10.3-6.6 0-13.4-0.4-20.3-1.3q-4.1-0.5-8.2-1.2-4.1-0.8-8.3-1.9-3.3-0.8-6.6-1.8-0.5-0.1-0.9-0.3c-41-12.9-66.3-32.4-79.4-44.8l-0.1-0.1q-1.5-1.7-3-3.5-2.4-2.9-4.8-6 3-1.2 6-2.2 1.1-0.4 2.1-0.7c1.7-0.6 3.4-1.1 5.1-1.6q0.4-0.1 0.9-0.3c31-9.3 59.8-11.2 72.1-11.5 27.7 0.6 55.9 6 79.7 19.2h0.1c9.4 5.2 18.2 11.7 25.9 19.6 6.3 6.4 11.9 13.7 16.7 22.1z"/>
				</g>
				<g id="&lt;Group&gt;">
					<path id="&lt;Compound Path&gt;" fill-rule="evenodd" class="s3" d="m219.6 83.6l-6.5 2.5c-0.4 0.2-2.7 1-6.4 2.2q-0.1 0.1-0.1 0.1-0.9 0.3-2 0.6c-12.4 3.9-37.1 10.3-64.8 10.3-6.6 0-13.4-0.4-20.3-1.3q-4.1-0.5-8.2-1.2-4.1-0.8-8.3-1.9-3.3-0.8-6.6-1.8-0.5-0.1-0.9-0.3c-41-12.9-66.3-32.4-79.4-44.8l-0.1-0.1c-7.1-6.7-10.6-11.5-10.9-12l-4.3-5.9 6.1-3.8c2.6-1.7 63.6-39.5 131.4-20.4 26.4 7.5 45.3 23.6 57.9 38.6q2.7 3.1 5 6.2 1.1 1.4 2.1 2.8 1.2 1.8 2.4 3.5c4 6 6.9 11.1 8.7 14.8 1.6 3.1 2.4 5.1 2.6 5.5l1.2 2.9zm-86.7 1.8c15.1 0.6 29.7-1 41.9-3.3 6.1-1.1 11.7-2.4 16.5-3.6q0 0 0 0c3.8-1 7.1-2 9.7-2.8q-0.4-0.7-0.8-1.5c-2.3-4-5.5-9.4-9.9-15.1q-0.8-1.1-1.6-2.2-1.6-1.9-3.2-3.9-2.5-2.9-5.3-5.9-2.9-2.9-6.1-5.8c-10.3-9.3-23.4-17.8-39.5-22.4-49.3-13.9-96.1 6-113.4 14.9q0.1 0 0.1 0.1c10.1 10.4 35.1 32.4 79.1 46.1q3.2 1 6.6 1.8 4.2 1.1 8.6 1.8 5.1 0.8 10.2 1.3 3.6 0.3 7.1 0.5z"/>
				</g>
			</g>
		</g>
	</g>
</svg>