<svg version="1.2" xmlns="http://www.w3.org/2000/svg" viewBox="0 0 314 601" width="314" height="601">
	<title>Artwork</title>
	<defs>
		<clipPath clipPathUnits="userSpaceOnUse" id="cp1">
			<path d="m173.22 257.6c-93.25 0-148.75 86.64-148.75 187.41 0 71.01 29.32 158 148.75 153.51 101.95-3.83 130.4-86.35 130.4-157.35 0-100.77-37.15-183.57-130.4-183.57z"/>
		</clipPath>
	</defs>
	<style>
		.s0 { fill: #ffffff } 
		.s1 { fill: #01982f } 
		.s2 { fill: #231f20 } 
		.s3 { fill: #ffd91e } 
		.s4 { fill: #f9bc12 } 
		.s5 { fill: #e2740a } 
	</style>
	<g id="Artwork">
		<g id="&lt;Group&gt;">
			<g id="-e-&lt;Group&gt;">
				<g id="&lt;Group&gt;">
					<g id="&lt;Group&gt;">
						<path id="&lt;Path&gt;" class="s0" d="m227.4 272.8c26.2-30.2 67.4-34.3 73-34.8 0.1 0 0.1-0.1 0-0.2-54.5-12.7-90.7 4.6-109 19.4 13 3.4 25 8.7 36 15.6z"/>
					</g>
					<g id="&lt;Group&gt;">
						<path id="&lt;Path&gt;" class="s1" d="m299.2 244c-2.4 0.4-11.5 1.9-23 6.1q-0.1 0-0.2 0.1c-11.8 3.7-25.9 10.3-37.8 21.4q-0.8 0.7-1.6 1.6-1.4 1.3-2.8 2.9-0.6 0.6-1.2 1.3l-3.9 4.5-2.5-1.6-0.9-0.6c-0.6-0.4-1.1-0.7-1.7-1q-1.8-1.2-3.7-2.3-0.4-0.3-0.8-0.5-1.3-0.7-2.6-1.4-0.9-0.5-1.8-0.9-1.3-0.7-2.6-1.3-0.6-0.4-1.1-0.6-1.9-0.9-3.8-1.7-2.1-0.9-4.3-1.8-1.8-0.7-3.6-1.3-0.4-0.2-0.8-0.3-0.8-0.3-1.6-0.5c2.1-1.7 4.3-3.4 6.8-5q3.5-2.4 7.5-4.6c11.9-6.6 27.3-12.2 46.2-14.2h0.1c6.9-0.7 14.4-1 22.3-0.6 6.2 0.4 12.6 1 19.4 2.1 0.1 0 0.1 0.2 0 0.2z"/>
					</g>
					<g id="&lt;Group&gt;">
						<path id="&lt;Compound Path&gt;" fill-rule="evenodd" class="s2" d="m307.4 238.4v0.1c-0.3 3.4-3 6.2-6.4 6.5h-0.1c-2.1 0.1-12.1 1.1-24.7 5.1q-0.1 0-0.2 0.1c-11.8 3.7-25.9 10.3-37.8 21.4q-0.8 0.7-1.6 1.6-1.4 1.3-2.8 2.9-0.6 0.6-1.2 1.3l-3.9 4.5-2.5-1.6-0.9-0.6c-0.6-0.4-1.1-0.7-1.7-1q-1.8-1.2-3.7-2.3-0.4-0.3-0.8-0.5-1.3-0.7-2.6-1.4-0.9-0.5-1.8-0.9-1.3-0.7-2.6-1.3-0.6-0.4-1.1-0.6-1.9-0.9-3.8-1.7-2.1-0.9-4.3-1.8-1.8-0.7-3.6-1.3-0.4-0.2-0.8-0.3-0.8-0.3-1.6-0.5-0.8-0.3-1.6-0.5-0.5-0.2-1-0.3c-0.1-0.1-0.2-0.1-0.3-0.1-0.3-0.1-0.7-0.2-1-0.3q-0.9-0.3-1.9-0.5-0.3-0.2-0.7-0.2-0.3-0.1-0.5-0.2-0.1 0-0.3-0.1-0.5-0.1-0.9-0.2-0.2-0.1-0.4-0.1l-3.3-0.9-6-1.5-1.7-0.5-1.1-0.3 0.2-0.2 0.6-0.4 1.2-1 1.4-1.1 1.3-1 1.3-1.1 0.5-0.4 4.3-3.5q0.6-0.4 1.2-0.9 0.8-0.6 1.6-1.2 0 0 0 0 0.4-0.3 0.9-0.7 2.6-1.9 5.9-4 3-2 6.6-3.9 0.1 0 0.2-0.1 3.1-1.7 6.5-3.3 1.1-0.5 2.3-1 4.2-1.8 8.9-3.4 2.9-1 6-1.9c19.3-5.5 44.1-7.4 74.9-0.3 3.3 0.8 5.6 3.9 5.4 7.4zm-81.3 25.5c9.7-9.8 20.7-16.7 31.3-21.6h0.1c1.5-0.7 2.9-1.3 4.4-1.9-16.4 0.2-30 3.4-40.9 7.7q-3.3 1.3-6.2 2.7-2 0.9-3.9 2-2 1-3.8 2.1 1.2 0.4 2.4 0.9 0.8 0.4 1.7 0.7 0.9 0.4 1.8 0.8 1.9 0.8 3.7 1.7 0.7 0.3 1.3 0.6 1.7 0.9 3.5 1.7 2.3 1.3 4.6 2.6z"/>
					</g>
					<g id="&lt;Group&gt;">
						<path id="&lt;Path&gt;" class="s0" d="m133.9 254.6c7.3-1.2 14.8-1.8 22.5-1.8q13.1 0 25.2 2.2c-14.7-194.7-111.6-244.9-118.2-248 0-0.1-0.1 0-0.1 0.1 77.3 102.7 73.1 218.1 70.6 247.5z"/>
					</g>
					<g id="&lt;Group&gt;">
						<path id="&lt;Path&gt;" class="s1" d="m189.1 262.1q-10.9-2.2-22.7-2.5-7.5-0.3-14.8 0.3-0.2 0-0.4 0-3.7 0.3-7.4 0.7 0.1-0.1 0.1-0.2 0.3-3 0.7-7.1 0.2-2.1 0.4-4.5 0.1-1.2 0.1-2.6c2.4-36.1 1.4-112.8-37.8-191.3-4.4-8.8-9.3-17.7-14.7-26.5q-5.4-8.7-11.4-17.4c-0.1-0.1 0-0.2 0.1-0.1 0.8 0.4 3 1.6 6.2 3.8q0.1 0 0.2 0.1c10.6 8.5 23.8 21.5 37.4 40.3 15.7 21.7 28.5 46.7 38.6 74.9q1.8 4.9 3.4 10c1.2 3.4 2.2 7 3.3 10.5q1.3 4.5 2.5 9 4.2 15.5 7.4 32 0.8 4.1 1.5 8.2 0.7 4.4 1.4 8.8 0.7 4 1.2 7.9 2.3 16 3.7 32.8 0.1 0.8 0.1 1.6 0.2 1.8 0.3 3.7l0.2 2v0.3 0.5l0.1 1.1z"/>
					</g>
					<g id="&lt;Group&gt;">
						<path id="&lt;Compound Path&gt;" fill-rule="evenodd" class="s2" d="m189.2 263.5l-4.2-0.8-4.7-0.8q-0.1 0-0.2 0-0.1-0.1-0.2-0.1-0.2 0-0.3 0h-0.1q-0.2-0.1-0.4-0.1-0.1 0-0.2-0.1-0.1 0-0.1 0-0.2 0-0.3 0-0.3-0.1-0.6-0.1c-0.2-0.1-0.4-0.1-0.7-0.1q-0.7-0.2-1.5-0.2-0.6-0.1-1.1-0.2-0.1 0-0.2 0h-0.2q-0.1-0.1-0.3-0.1-1.2-0.2-2.4-0.3 0 0-0.1 0c-0.1 0-0.3 0-0.4 0q-0.3-0.1-0.5-0.1-0.5-0.1-0.9-0.1-0.3 0-0.6 0-0.7-0.1-1.5-0.2-0.5 0-1 0-0.2-0.1-0.3-0.1-0.2 0-0.3 0h-0.1q-0.1 0-0.2 0-0.5 0-0.9-0.1-0.8 0-1.6 0-0.3-0.1-0.6-0.1-0.3 0-0.7 0-0.2 0-0.4 0h-0.3q-0.1 0-0.3 0-0.9-0.1-1.8-0.1h-0.7q-0.9 0-1.8 0-1 0-2 0h-0.7q-0.2 0-0.4 0h-0.5q-0.4 0.1-0.8 0.1-0.2 0-0.5 0-0.2 0-0.4 0-0.3 0-0.6 0h-0.1q-1 0.1-1.9 0.1-0.1 0-0.1 0-0.1 0-0.1 0-0.3 0-0.6 0.1-0.6 0-1.2 0.1-0.1-0.1-0.3 0c0 0 0 0-0.1 0q0 0-0.1 0 0 0 0 0h-0.1c0 0 0 0 0 0q-0.1 0-0.3 0c0 0 0 0 0 0h-0.3c-0.2 0.1-0.4 0.1-0.6 0.1q-0.1 0-0.2 0-0.3 0-0.7 0.1 0 0 0 0-0.3 0-0.6 0-0.2 0-0.3 0.1-0.2 0-0.4 0-0.7 0.1-1.4 0.2-0.3-0.1-0.5 0-0.2 0-0.3 0.1-0.2-0.1-0.3 0-0.3 0-0.5 0-0.2 0-0.4 0.1-0.1 0-0.2 0c-0.4 0.1-0.8 0.1-1.2 0.2q-0.1 0-0.1 0-0.4 0-0.8 0.1-0.2 0-0.5 0.1-0.5 0-1 0.1-0.3 0-0.5 0.1-0.1 0-0.3 0.1-0.2 0-0.4 0-0.4 0.1-0.7 0.1l-1.5 0.3h-0.3l-5.5 0.9 0.4-5.2 0.1-0.1 0.1-1.6v-0.1l0.2-1.9q0.2-2.4 0.4-5.3 0 0 0 0 0.1-2.1 0.2-4.5 0.2-3.2 0.3-7 0-0.6 0-1.1c0.3-11.4 0.1-26-1.5-42.9q-0.6-6.3-1.5-13.1-0.7-6.2-1.8-12.7-0.2-1.2-0.4-2.5c-3.8-22.8-10.2-48-20.6-74.2-10.3-26.2-24.6-53.2-44.3-79.4-2-2.6-1.9-6.1 0.1-8.7h0.1c2-2.5 5.5-3.3 8.4-1.9h0.1c2.5 1.2 10.3 5.3 21 14q0.1 0 0.2 0.1c10.6 8.5 23.8 21.5 37.4 40.3 15.7 21.7 28.5 46.7 38.6 74.9q1.8 4.9 3.4 10c1.2 3.4 2.2 7 3.3 10.5q1.3 4.5 2.5 9 4.2 15.5 7.4 32 0.8 4.1 1.5 8.2 0.7 4.4 1.4 8.8 0.7 4 1.2 7.9 2.3 16 3.7 32.8 0.1 0.8 0.1 1.6 0.2 1.8 0.3 3.7l0.2 2v0.3 0.5l0.1 1.1 0.3 3.7zm-23.6-17.4q0.1 0 0.3 0-0.3 0-0.6 0 0.1 0 0.3 0zm-0.3 0q-0.1 0-0.1 0 0 0 0.1 0zm6.4 0.5q0.2 0 0.4 0.1-0.2-0.1-0.4-0.1 0 0 0 0z"/>
					</g>
					<g id="&lt;Group&gt;">
						<path id="&lt;Path&gt;" class="s0" d="m156.4 252.8c14.6 0 28.3 2.1 41 6.1-10.8-151.2 44.3-219.6 50.3-226.6 0.1-0.1 0-0.2-0.1-0.1-80.9 55.8-104 173.4-107.8 221.6q8.1-1 16.6-1z"/>
					</g>
					<g id="&lt;Group&gt;">
						<path id="&lt;Path&gt;" class="s1" d="m254.3 35.3l-1.3 1.6c-4.7 5.5-37.8 46.7-47.5 134.2q-0.4 4.4-0.8 9-0.5 4.6-0.8 9.4-0.2 3.3-0.3 6.7c-0.7 13.8-0.9 28.6-0.3 44.4q0.1 0.2 0.1 0.3 0.1 3.9 0.3 7.8 0.2 2.5 0.3 5.1 0.2 2.3 0.3 4.6l0.2 1.4q-3.5-0.8-7.1-1.4-1.7-0.3-3.4-0.5c-7.5-1.1-15.4-1.5-23.4-1.4q-8.5 0.3-16.6 1.4 0.2-2.4 0.3-5.1 0.1-0.8 0.2-1.6 0-0.9 0.1-1.8 0.1-1.7 0.3-3.6c4-42 18.9-115.4 60.4-170.9 5.5-7.4 11.4-14.4 17.9-21 6.5-6.7 13.5-12.9 21.1-18.6z"/>
					</g>
					<g id="&lt;Group&gt;">
						<path id="&lt;Compound Path&gt;" fill-rule="evenodd" class="s2" d="m255.4 32.2c0 1.1-0.3 2.3-1.1 3.1l-1.3 1.6c-4.7 5.5-37.8 46.7-47.5 134.2q-0.4 4.4-0.8 9-0.5 4.6-0.8 9.4-0.2 3.3-0.3 6.7c-0.7 13.8-0.9 28.6-0.3 44.4q0.1 0.2 0.1 0.3 0.1 3.9 0.3 7.8 0.2 2.5 0.3 5.1 0.2 2.3 0.3 4.6l0.2 1.4v0.8 0.5 0.2l0.1 0.1 0.4 6.7 0.1 0.5-5.1-1.5-2.5-0.8q0-0.1-0.1 0-0.2-0.1-0.3-0.2 0 0-0.1 0h-0.1q0 0 0 0-0.8-0.3-1.6-0.5-0.5-0.2-1-0.3-0.7-0.2-1.3-0.4-0.9-0.3-1.9-0.5-0.3-0.2-0.7-0.2-1.6-0.5-3.2-0.9-0.6-0.1-1.2-0.3-0.5-0.1-1-0.2c-0.3 0-0.7-0.1-1-0.2q-0.2 0-0.4-0.1-1.2-0.2-2.4-0.4-0.4-0.1-0.7-0.2-0.2 0-0.4 0-0.3-0.1-0.6-0.1-0.2-0.1-0.4-0.1-0.1 0-0.2-0.1-0.1 0-0.1 0-0.2 0-0.3 0-0.3-0.1-0.6-0.1-0.3-0.1-0.7-0.1-0.7-0.2-1.5-0.2-0.7-0.1-1.5-0.2-0.1-0.1-0.3-0.1-1.2-0.2-2.5-0.3-0.2 0-0.4 0-1-0.2-2-0.2-0.7-0.1-1.5-0.2-0.5 0-1 0-0.2-0.1-0.3-0.1-0.2 0-0.3 0h-0.1q-0.1 0-0.2 0-0.5 0-0.9-0.1-0.8 0-1.6 0-0.3-0.1-0.6-0.1-0.3 0-0.7 0-0.2 0-0.4 0h-0.3q-0.1 0-0.3 0-0.9-0.1-1.8-0.1h-0.7q-0.9 0-1.8 0-1 0-2 0h-0.7q-0.2 0-0.3 0 0 0-0.1 0h-0.5q-0.4 0.1-0.8 0.1h-0.3q-0.1 0-0.2 0-0.2 0-0.4 0-0.3 0-0.6 0h-0.2q-0.9 0.1-1.9 0.1 0 0-0.1 0h-0.2q-0.2 0-0.4 0.1-0.3 0-0.6 0-0.3 0-0.6 0.1-0.1-0.1-0.3 0-0.1 0-0.2 0 0 0 0 0h-0.1c0 0 0 0 0 0q-0.2 0-0.3 0c0 0 0 0 0 0q-0.2 0-0.3 0l-0.8 0.1c-0.2 0-0.4 0-0.7 0.1q0-0.1 0 0-0.4 0-0.6 0-0.2 0-0.3 0.1-0.2 0-0.4 0-0.5 0-0.9 0.1-0.3 0-0.5 0.1-0.3-0.1-0.5 0 0 0-0.1 0-0.1 0-0.2 0.1-0.2-0.1-0.3 0h-0.5q-0.2 0-0.4 0.1-0.4 0-0.8 0.1l-6.2 0.7 0.4-5.4 0.2-1.5 0.1-1.6c0.1-1 0.2-2.7 0.4-4.8q0.1-0.4 0.1-0.8c0.2-2 0.5-4.5 0.8-7.3q0.3-2.4 0.7-5.1c0.9-6.6 2.2-14.6 4-23.6q0.9-4.7 2-9.9 0.1-0.3 0.1-0.5 1-4.3 2.1-8.9 0.4-1.5 0.7-3 0.3-0.9 0.5-1.8c3-11.6 6.7-24.2 11.3-37q1.9-5.3 4-10.6 2-4.9 4.1-9.9 1.1-2.5 2.2-5c16.5-36.6 41.1-73.3 77.7-98.6l1.6-1.1c2-1.3 4.7-1 6.3 0.8l2.7 2.9c0.8 0.9 1.2 2.1 1.2 3.2zm-40.1 42.7q1.6-4 3.3-7.5c-20.7 23.3-35.5 50.7-46 77.4q-1.1 2.9-2.2 5.7c-1.5 3.9-2.8 7.7-4.1 11.5q-2.2 6.5-4 12.7c-3.3 10.9-5.9 21.2-7.9 30.7q-0.4 1.8-0.8 3.6-1.2 5.6-2.1 10.7-1 5.3-1.7 9.9-0.1 0.8-0.2 1.6c-0.9 5.9-1.6 10.9-2 14.9 0.1 0 0.1 0 0.2 0q0.3-0.1 0.6-0.1h0.2q0 0 0.1 0 0.1 0 0.2 0 0.5 0 1 0 0.3-0.1 0.6-0.1 0.6 0 1.2 0 0.2 0 0.3 0h0.3q1.3-0.1 2.5-0.1 0.1 0 0.1 0-0.2 1.9-0.3 3.6-0.1 0.9-0.1 1.8-0.1 0.8-0.2 1.6 1.1 0 2.2 0 1.6 0 3.2 0.1 0.9 0 1.8 0 1.3-2.8 2.9-5.9-0.2-0.5-0.4-1 0.4 0 0.9 0.1 0-0.1 0.1 0 0.3 0 0.6 0 0.3 0 0.5 0 0.1 0 0.3 0c0.3 0 0.7 0.1 1 0.1q0.2 0 0.3 0 0.3 0 0.5 0.1 0.2 0 0.4 0 0.3 0 0.6 0 0.5 0.1 1.1 0.2 0.1-0.1 0.3 0 0.3 0 0.6 0 0.3 0.1 0.5 0.1 0 0 0 0 0.6 0 1.1 0.1 0.2 0 0.4 0 0.1 0 0.2 0.1 0.3 0 0.6 0 1 0.1 2.1 0.3 0.7 0.1 1.5 0.2 0.5 0 1 0.2 1.2 0.1 2.4 0.3 0.3 0.1 0.7 0.2 1.1 0.2 2.2 0.4 0.6 0 1.1 0.2 0.9 0.1 1.8 0.3 0.7 0.2 1.3 0.3 0.6 0.1 1.2 0.3 0.3 0 0.5 0.1-0.5-10.1-0.7-19.7c-0.1-6.5-0.1-12.9 0-19q0.1-4.4 0.2-8.7 0.2-5.2 0.5-10.2 0.3-4.9 0.7-9.7c3.8-46.9 14.2-82.3 24.8-107.4z"/>
					</g>
					<g id="&lt;Group&gt;">
						<path id="&lt;Path&gt;" class="s0" d="m119.3 257.8c11.6-3.3 24-5 37.1-5q5.3 0 10.4 0.4c-49.2-125.8-131.8-124.8-137.9-124.6-0.1 0-0.1 0.1 0 0.2 73.1 37.1 87.5 105.7 90.4 129z"/>
					</g>
					<g id="&lt;Group&gt;">
						<path id="&lt;Path&gt;" class="s1" d="m177.4 260.9l-10.9-0.7-0.2-0.1h-0.1q-0.2 0-0.3 0h-0.1q-0.1 0-0.2 0-0.5 0-0.9-0.1-1.1 0-2.2-0.1-0.3 0-0.7 0-0.2 0-0.4 0h-0.3q-0.1 0-0.3 0-1.3-0.1-2.5-0.1-0.9 0-1.8 0-1 0-2 0-0.5 0-1 0 0 0-0.1 0h-0.5q-0.4 0.1-0.8 0.1h-0.3q-0.1 0-0.2 0-0.2 0-0.4 0-0.3 0-0.6 0h-0.2q-0.9 0.1-1.9 0.1 0 0 0 0-0.1 0-0.1 0h-0.2c-0.3 0.1-0.6 0.1-0.8 0.1q-0.1 0-0.2 0-0.3 0-0.6 0.1-0.1-0.1-0.3 0c0 0 0 0-0.1 0q0 0-0.1 0 0 0 0 0h-0.1c0 0 0 0 0 0q-0.1 0-0.3 0c0 0 0 0 0 0q-0.2 0-0.3 0c-0.2 0.1-0.4 0.1-0.6 0.1q-0.1 0-0.2 0-0.3 0-0.7 0.1 0-0.1 0 0-0.4 0-0.6 0-0.2 0-0.3 0.1h-0.1q-0.2 0-0.3 0-0.5 0-0.9 0.1-0.3 0-0.5 0.1-0.3-0.1-0.5 0-0.2 0-0.3 0.1-0.2-0.1-0.3 0-0.3 0-0.5 0-0.2 0-0.4 0.1-0.4 0-0.8 0.1-0.3 0-0.6 0.1-0.1 0-0.1 0-0.4 0-0.8 0.1-0.8 0.1-1.5 0.2-0.3 0-0.5 0.1-0.1 0-0.3 0.1-0.2 0-0.4 0-0.4 0.1-0.7 0.1-0.3 0.1-0.5 0.1-0.5 0.1-1 0.2l-0.3 0.1q-0.2-3.1-0.7-7-0.4-3.2-0.9-6.9c-4.2-25.8-16.8-66.9-54.6-99.8-6.7-5.8-14.1-11.4-22.5-16.5q-1.4-0.9-2.8-1.8c-0.1 0-0.1-0.1 0-0.1 3.1 0.1 26.1 1.2 53.3 19.5h0.1c6.4 5 13 10.9 19.5 17.9q4.2 4.4 8.3 9.4 4.3 5.1 8.5 10.9 1.6 2.2 3.2 4.6 1 1.3 1.8 2.7 1.7 2.5 3.4 5.2 2.7 4.2 5.3 8.8c1.5 2.7 3 5.4 4.5 8.2q0.3 0.5 0.5 0.9 1.6 3 3.1 6c1.1 2.4 2.3 4.9 3.5 7.4q1.8 3.8 3.5 7.8 1.5 3.6 3 7.3 0 0 0 0 0.8 2 1.7 4l1.2 3.3v0.1h0.1l0.2 0.6 0.8 1.9 0.4 1.1 0.9 2.2 0.1 0.5 0.2 0.4z"/>
					</g>
					<g id="&lt;Group&gt;">
						<path id="&lt;Compound Path&gt;" fill-rule="evenodd" class="s2" d="m177.4 260.9l-10.9-0.7-0.2-0.1h-0.1q-0.2 0-0.3 0h-0.1q-0.1 0-0.2 0-0.5 0-0.9-0.1-1.1 0-2.2-0.1-0.3 0-0.7 0-0.2 0-0.4 0h-0.3q-0.1 0-0.3 0-1.3-0.1-2.5-0.1-0.9 0-1.8 0-1 0-2 0-0.5 0-1 0 0 0-0.1 0h-0.5q-0.4 0.1-0.8 0.1h-0.3q-0.1 0-0.2 0-0.2 0-0.4 0-0.3 0-0.6 0h-0.2q-0.9 0.1-1.9 0.1 0 0 0 0-0.1 0-0.1 0h-0.2c-0.3 0.1-0.6 0.1-0.8 0.1q-0.1 0-0.2 0-0.3 0-0.6 0.1-0.1-0.1-0.3 0c0 0 0 0-0.1 0q0 0-0.1 0 0 0 0 0h-0.1c0 0 0 0 0 0q-0.1 0-0.3 0c0 0 0 0 0 0q-0.2 0-0.3 0c-0.2 0.1-0.4 0.1-0.6 0.1q-0.1 0-0.2 0-0.3 0-0.7 0.1 0-0.1 0 0-0.4 0-0.6 0-0.2 0-0.3 0.1h-0.1q-0.2 0-0.3 0-0.5 0-0.9 0.1-0.3 0-0.5 0.1-0.3-0.1-0.5 0-0.2 0-0.3 0.1-0.2-0.1-0.3 0-0.3 0-0.5 0-0.2 0-0.4 0.1-0.4 0-0.8 0.1-0.3 0-0.6 0.1-0.1 0-0.1 0-0.4 0-0.8 0.1-0.8 0.1-1.5 0.2-0.3 0-0.5 0.1-0.1 0-0.3 0.1-0.2 0-0.4 0-0.4 0.1-0.7 0.1-0.3 0.1-0.5 0.1-0.5 0.1-1 0.2l-0.3 0.1q-0.5 0-1 0.1-0.1 0-0.3 0.1c-0.2 0-0.5 0.1-0.8 0.1q-0.7 0.2-1.4 0.4-0.1 0-0.3 0-0.7 0.2-1.4 0.4-0.2 0-0.4 0-0.6 0.2-1.2 0.3-0.5 0.1-1.1 0.3-0.9 0.2-1.7 0.5 0-0.1-0.1 0-0.5 0.1-1 0.3-0.3 0-0.6 0.1l-7.1 2-0.6-4.9-0.2-1.9-0.2-1.3q-0.3-2.6-0.8-5.7-0.4-2.5-0.9-5.1-0.5-2.8-1.2-5.9-1-4.1-2.2-8.6-1.2-4.1-2.8-8.4c-5-14.6-13-31.1-25.5-47-12.6-15.8-29.7-31-53.2-42.9-2.8-1.4-4.3-4.6-3.7-7.7v-0.1c0.7-3.1 3.3-5.4 6.5-5.6h0.1c5.7-0.2 38.6-0.2 74.9 27.9h0.1c6.4 5 13 10.9 19.5 17.9q4.2 4.4 8.3 9.4 4.3 5.1 8.5 10.9 1.6 2.2 3.2 4.6 1 1.3 1.8 2.7 1.7 2.5 3.4 5.2 2.7 4.2 5.3 8.8c1.5 2.7 3 5.4 4.5 8.2q0.3 0.5 0.5 0.9 1.6 3 3.1 6c1.1 2.4 2.3 4.9 3.5 7.4q1.8 3.8 3.5 7.8 1.5 3.6 3 7.3 0 0 0 0 0.8 2 1.7 4l1.2 3.3v0.1h0.1l0.2 0.6 0.8 1.9 0.4 1.1 0.9 2.2 0.1 0.5 0.2 0.4zm-21.1-15.1c-0.3-0.8-0.7-1.7-1.1-2.5-0.8-1.8-1.5-3.5-2.3-5.2q-1.6-3.5-3.3-6.9-0.2-0.3-0.3-0.6-1.7-3.4-3.4-6.6-0.9-1.6-1.8-3.2-1.1-2.1-2.3-4.2-1.5-2.5-2.9-5-2.4-3.8-4.7-7.4-3.9-5.8-7.8-11c-17.1-22.7-35.1-36.5-50.9-44.8-4.2-2.3-8.3-4.1-12.2-5.7 35.1 28.4 50.8 64.3 57.8 89.4 1 3.4 1.8 6.5 2.4 9.5 0.6 2.7 1.1 5.3 1.5 7.6q1.2-0.3 2.4-0.5 0.7-0.2 1.5-0.3 0.5-0.1 1.2-0.2 1.2-0.2 2.4-0.5 0.4 0.4 0.8 0.7 0.5 0.3 1.1 0.8 1.8 1.4 3.6 3 0.9 0.8 1.8 1.6 0 0 0 0 0 0 0.1 0 0.2-0.1 0.5-0.1 0.3 0 0.5 0 0.9-0.2 1.7-0.2 0.3-0.1 0.6-0.1 0.3 0 0.6 0 0.3-0.1 0.6-0.1h0.2q0.3 0 0.6-0.1 0.2 0 0.4 0 0.2 0 0.4 0c0.5-0.1 0.9-0.1 1.4-0.1q0.1 0 0.2 0c0 0 0.2 0 0.2 0q0.2 0 0.2 0 0.3-0.1 0.5-0.1 0.7 0 1.4 0 0.5-0.1 0.9-0.1 0.1 0 0.3 0h0.5q0.3 0 0.6 0 1.1-0.1 2.1-0.1 0.3-3.3 0.6-7 0.7 0 1.4 0z"/>
					</g>
					<g id="&lt;Group&gt;">
						<path id="&lt;Path&gt;" class="s0" d="m156.4 252.8c17.6 0 33.8 3.1 48.5 8.7 17.8-83.9 87.7-112.5 95.4-115.4 0.1 0 0.1-0.2 0-0.1-99.5 9-141 75.8-155.1 107.2q5.5-0.4 11.2-0.4z"/>
					</g>
					<g id="&lt;Group&gt;">
						<path id="&lt;Path&gt;" class="s1" d="m304.8 150.6c-1.9 0.8-7.4 3.4-14.9 8.1q0 0-0.1 0c-18.3 9.8-50.5 32.2-68.7 74.5-1.2 2.8-2.4 5.8-3.4 8.8q-1.6 4.3-2.9 8.8-0.6 2.2-1.2 4.5-0.3 1-0.6 2 0 0 0 0-0.7 2.8-1.3 5.7l-0.2 1-0.1 0.3-1 5.1q-5.3-1.4-10.9-2.4c-10.3-1.9-21.2-2.6-32.5-2q-5.7 0.3-11.2 1.1 1.1-3 2.5-6.3 1.4-3.3 3.2-6.9 1.5-3.3 3.4-6.8c14.6-27.6 42.7-64 94.2-83.9 7.4-2.8 15.2-5.4 23.5-7.4 7-1.8 14.4-3.3 22.1-4.4 0.1 0 0.1 0.1 0.1 0.2z"/>
					</g>
					<g id="&lt;Group&gt;">
						<path id="&lt;Compound Path&gt;" fill-rule="evenodd" class="s2" d="m302.9 152.6l-0.1 0.1c-1.7 0.6-6.4 2.5-12.9 6q0 0-0.1 0c-18.3 9.8-50.5 32.2-68.7 74.5-1.2 2.8-2.4 5.8-3.4 8.8q-1.6 4.3-2.9 8.8-0.6 2.2-1.2 4.5-0.3 1-0.6 2 0 0 0 0-0.7 2.8-1.3 5.7l-0.2 1-0.1 0.3-1 5.1-0.4 1.6-7.6-3q-0.8-0.3-1.6-0.5-0.6-0.3-1.3-0.5-0.5-0.2-1-0.4-0.5-0.2-1-0.3 0-0.1-0.1 0-0.2-0.1-0.3-0.2 0 0-0.1 0 0 0-0.1 0 0 0 0 0-1.4-0.5-2.9-0.9-0.7-0.2-1.4-0.4-1.3-0.4-2.7-0.8-0.1 0-0.3-0.1-0.5-0.1-0.9-0.2-0.2-0.1-0.4-0.1c-0.4-0.1-0.7-0.2-1.1-0.3q-0.6-0.1-1.2-0.3-0.5-0.1-1-0.2c-0.3 0-0.7-0.1-1-0.2q-0.2 0-0.4-0.1-1.2-0.2-2.4-0.4-0.4-0.1-0.7-0.2-0.1 0-0.2 0-0.1 0-0.2 0-0.1-0.1-0.2-0.1-0.2 0-0.4 0-0.2-0.1-0.4-0.1-0.1 0-0.2-0.1-0.1 0.1-0.1 0-0.2 0-0.3 0-0.3-0.1-0.6-0.1c-0.2-0.1-0.4-0.1-0.7-0.1q-0.7-0.2-1.5-0.2-0.6-0.1-1.1-0.2-0.1 0-0.2 0-0.3-0.1-0.5-0.1-1.2-0.2-2.4-0.3 0 0-0.1 0-0.4 0-0.9-0.1-0.5-0.1-0.9-0.1-1.1-0.1-2.1-0.2-0.5 0-1 0-0.2-0.1-0.3-0.1-0.2 0-0.3 0h-0.1q-0.1 0-0.2 0-0.5 0-0.9-0.1-0.8 0-1.6 0-0.3-0.1-0.6-0.1-0.3 0-0.7 0-0.2 0-0.4 0h-0.3q-0.1 0-0.3 0-0.9-0.1-1.8-0.1h-0.7q-0.9 0-1.8 0-1 0-2 0h-0.7q-0.2 0-0.3 0 0 0-0.1 0h-0.5q-0.6 0.1-1.3 0.1-0.2 0-0.4 0-0.3 0-0.6 0-1 0.1-2 0.1-0.1 0-0.1 0-0.1 0-0.1 0-0.3 0-0.6 0.1-0.6 0-1.2 0.1-0.1-0.1-0.3 0-0.1 0-0.2 0 0 0 0 0h-0.1c0 0 0 0 0 0q-0.1 0-0.3 0c0 0 0 0 0 0h-0.3l-0.8 0.1-0.7 0.1h-0.9l-9 0.7 2.5-5.5 0.6-1.5h0.1l0.8-1.9 0.8-1.8q0.8-1.7 1.7-3.6 0-0.1 0.1-0.2 0.2-0.5 0.5-1 0.2-0.5 0.5-1v-0.1c1.2-2.4 2.5-5 4-7.7q1.7-3 3.7-6.2 0.2-0.5 0.5-1 1.8-2.9 3.8-5.9 2.1-3.2 4.5-6.5 0.4-0.6 0.9-1.2 0.3-0.5 0.7-1c2.6-3.6 5.5-7.2 8.6-10.8q2.9-3.3 6-6.6 2.9-3.1 6-6.1 1.4-1.4 2.9-2.8 3.5-3.2 7.3-6.4 3.6-3 7.5-5.9 3.7-2.7 7.5-5.3 2.9-1.9 5.8-3.7c11.5-7.1 24.4-13.4 39.1-18.3 14.6-4.9 31-8.4 49.2-10.1 3.5-0.3 6.7 2 7.5 5.4v0.1c0.8 3.4-1 6.9-4.2 8.1zm-41.2 7.6c-20.5 6-37.6 14.8-51.7 24.9q-3.2 2.1-6.1 4.4-3.8 2.9-7.3 6-3.8 3.3-7.3 6.7-1.7 1.7-3.3 3.3-1.4 1.5-2.8 3-3.2 3.4-6 6.8-3.2 3.9-6 7.6-2.4 3.2-4.5 6.3-0.8 1.2-1.5 2.3-2.4 3.6-4.5 7.1-2.2 3.8-4.1 7.2 2.1 0 4.1 0.1h0.2q0.2 0 0.4 0 0.4 0 0.7 0 0.5 0 1 0.1 0.5 0 1 0 0.4 0 0.9 0.1 0-0.1 0.1 0 0.2 0 0.3 0h0.1q0.1 0 0.2 0 0.3 0 0.5 0 0.1 0 0.3 0c0.3 0 0.7 0.1 1 0.1q0.2 0 0.3 0 0.3 0 0.5 0.1 0.2 0 0.4 0 0.8 0 1.7 0.2 0.1-0.1 0.3 0 0.3 0 0.6 0 0.3 0.1 0.5 0.1 0.1 0 0 0 0.8 0 1.5 0.1 0.1 0 0.2 0.1 0.3 0 0.6 0 1 0.1 2.1 0.3 0.7 0.1 1.5 0.2 0.5 0 1 0.2 1.2 0.1 2.4 0.3 0.3 0.1 0.5 0.1 0.1 0 0.2 0.1 1.1 0.2 2.2 0.4 0.6 0 1.1 0.2 0.9 0.1 1.8 0.3 0.7 0.2 1.3 0.3 0.6 0.1 1.2 0.3 0.3 0 0.5 0.1 0.5 0.1 0.9 0.2 2 0.5 4 1 1.1 0.3 2.2 0.7 0.8 0.2 1.6 0.5h0.1q0.6 0.1 1.3 0.4 0.2-0.8 0.4-1.6 1.3-5 2.9-9.8 0.1-0.2 0.1-0.4 2.8-8.1 6.1-15.5c13.1-29.2 32.4-49.4 49.7-62.9q1.3-1 2.6-2z"/>
					</g>
				</g>
				<g id="&lt;Group&gt;">
					<path id="&lt;Path&gt;" class="s0" d="m103.3 263.4c11.3-4.8 23.5-8.1 36.5-9.6q0 0 0 0c-52.8-47.6-121.8-22.5-128.7-19.8-0.1 0 0 0.2 0.1 0.2 59.4-3.8 87 23.5 92.1 29.2z"/>
				</g>
				<g id="&lt;Group&gt;">
					<path id="&lt;Path&gt;" class="s1" d="m132 262q-0.1 0-0.3 0-0.5 0.1-1 0.2-0.1 0-0.3 0.1-1.1 0.2-2.2 0.5-0.1 0-0.3 0-0.7 0.2-1.4 0.4-0.2 0-0.4 0-0.6 0.2-1.2 0.3-0.5 0.2-1.1 0.3-0.9 0.2-1.7 0.5 0-0.1-0.1 0-0.5 0.1-1 0.3-1 0.3-1.9 0.5-0.5 0.2-1.1 0.4-1.8 0.5-3.7 1.2-2.1 0.7-4.1 1.5 0-0.1-0.1 0-1.8 0.7-3.5 1.4-1.3 0.5-2.6 1.1l-2.6 1.1-3.3-3.7c-1.1-1.2-3.4-3.6-7.1-6.5-11-8.8-34.3-21.9-73.5-20.8h-0.2q-1.6 0-3.2 0c-0.1 0-0.2-0.2-0.1-0.2 2.7-0.8 14.5-4.1 30.7-5.2 9.1-0.5 19.6-0.4 30.7 1.3q0.1 0 0.1 0c13.4 2.1 27.7 6.4 41.5 14.5q3.9 2.4 7.9 5.2 3.6 2.6 7.1 5.6z"/>
				</g>
				<g id="&lt;Group&gt;">
					<path id="&lt;Compound Path&gt;" fill-rule="evenodd" class="s2" d="m159.5 258.5l-0.6 0.1-11.3 1.3-3.7 0.4-0.9 0.1-0.4 0.1-2 0.2q-0.1 0-0.2 0.1-0.2-0.1-0.3 0-0.3 0-0.5 0-0.2 0-0.4 0.1-0.1 0-0.2 0-0.7 0.1-1.3 0.2-0.4 0-0.8 0.1-0.2 0-0.5 0.1-0.5 0-1 0.1-0.3 0-0.5 0.1-0.2 0-0.3 0.1-0.2 0-0.4 0-0.6 0.1-1.2 0.2-0.5 0.1-1 0.2-0.1 0-0.3 0-0.5 0.1-1 0.2-0.1 0-0.3 0.1-1.1 0.2-2.2 0.5-0.1 0-0.3 0-0.7 0.2-1.4 0.4-0.2 0-0.4 0-0.6 0.2-1.2 0.3-0.5 0.2-1.1 0.3-0.9 0.2-1.7 0.5 0-0.1-0.1 0-0.5 0.1-1 0.3-1 0.3-1.9 0.5-0.5 0.2-1.1 0.4-1.8 0.5-3.7 1.2-2.1 0.7-4.1 1.5 0-0.1-0.1 0-1.8 0.7-3.5 1.4-1.3 0.5-2.6 1.1l-2.6 1.1-3.3-3.7c-1.1-1.2-3.4-3.6-7.1-6.5-11-8.8-34.3-21.9-73.5-20.8h-0.2q-2.8 0.1-5.7 0.3c-3.4 0.2-6.5-2.1-7.3-5.4v-0.1c-0.8-3.4 1-6.8 4.2-8.1h0.1c6.2-2.4 50.4-18.4 95.8-2.6q4.2 1.4 8.3 3.2 4.3 1.8 8.4 4 3.3 1.8 6.5 3.8 0.2 0.1 0.3 0.2 3.2 2 6.3 4.2 0.3 0.2 0.5 0.4 3 2.2 5.9 4.6 0.2 0.2 0.5 0.3 0.2 0.2 0.4 0.4 0.3 0.2 0.6 0.5 0 0 0 0 1 0.9 2 1.7l0.9 0.6 1.7 1.2 4.4 2.9 1.5 1 1.6 1.1 3.7 2.4 1.1 0.8 0.1 0.1zm-36.3-8.9q-2.9-1.9-5.8-3.6 0 0 0 0c-2.7-1.5-5.3-2.9-8-4.1-16.2-7.6-32.7-10-47.4-10h-0.4c5 1.4 9.7 3 13.9 4.8q0 0 0 0c14.8 6.1 24.4 13.7 29.5 18.5h0.1q2-0.8 4.2-1.6 0.2-0.1 0.5-0.2 0.9-0.3 1.8-0.6 1.2-0.4 2.4-0.7 1.5-0.5 3-0.9c0.4-0.2 0.9-0.3 1.3-0.4q2.4-0.7 4.9-1.2z"/>
				</g>
				<g id="&lt;Group&gt;">
					<g id="&lt;Group&gt;">
						<path id="&lt;Path&gt;" class="s0" d="m308.1 441.2q0 6.6-0.4 13.4 0 1.2-0.1 2.4c-0.1 2-0.3 4.1-0.5 6.1-0.9 9.7-2.4 19.3-4.7 28.9-2.6 10.7-6.1 21.3-11 31.2q-1.1 2.3-2.3 4.6-1.2 2.3-2.5 4.5-0.3 0.6-0.6 1.1-0.9 1.5-1.9 3.1-3.2 5-6.9 9.8c-3 3.7-6.2 7.4-9.7 10.8q-4.9 4.9-10.5 9.2c-0.2 0.2-0.5 0.4-0.7 0.6q-0.2 0.2-0.4 0.3-0.7 0.5-1.3 1-0.1 0-0.1 0-1.7 1.2-3.4 2.4c-22 14.9-51.9 24.1-91.8 24.1-16.9 0-32.1-1.7-45.6-4.7q-0.1-0.1-0.2-0.1c-19.4-4.4-35.4-11.7-48.5-21.1q-2.4-1.7-4.7-3.5l-1.1-0.9q-0.4-0.3-0.8-0.7-1-0.8-1.9-1.6c-8.2-7.1-15.1-15.2-20.9-23.9q0 0 0 0-0.2-0.4-0.5-0.9c-1-1.4-1.9-3-2.8-4.5q-0.7-1.2-1.4-2.5-1.4-2.5-2.7-5.1-1-1.9-1.9-3.9c-4.2-9-7.4-18.4-9.7-28-2.7-10.8-4.4-21.9-5.3-32.9 0-0.8-0.1-1.6-0.2-2.5q-0.1-1.4-0.1-2.8-0.1-1.3-0.2-2.5-0.1-2.4-0.1-4.8-0.1-3.3-0.1-6.6c0-12.7 0.9-25.2 2.6-37.3 1.7-12.2 4.3-24.1 7.8-35.4q0.8-2.7 1.6-5.3l0.2-0.5q0.2-0.7 0.5-1.3c0-0.2 0.1-0.3 0.1-0.5 4.4-12.7 9.8-24.7 16.3-35.7q2.8-4.8 5.9-9.4 4.7-6.9 10-13.3 3.1-3.6 6.4-7.1c7.1-7.5 14.9-14.1 23.4-19.8q1.1-0.7 2.1-1.4 4.3-2.7 8.8-5.1 0.9-0.5 1.8-1 7.1-3.6 14.6-6.3 6.7-2.5 13.8-4.2 0.1 0 0.2 0 2.2-0.6 4.5-1.1 0.7-0.1 1.4-0.2 2-0.4 3.9-0.7 3.9-0.7 8-1.1 4-0.4 8.1-0.6 0.8 0 1.7 0 2.5-0.1 5-0.1 0.9 0 1.7 0 7.1 0.1 13.9 0.8 1 0.1 1.9 0.2 2.8 0.3 5.4 0.8 3.3 0.5 6.5 1.2 1.2 0.3 2.5 0.5 0.7 0.2 1.5 0.4 4.4 1.1 8.7 2.5 0.1 0 0.2 0.1 0.6 0.2 1.2 0.4 0.5 0.1 1 0.3 0.4 0.1 0.7 0.3 0.2 0.1 0.4 0.1c2.3 0.8 4.5 1.7 6.6 2.6q2.6 1.1 5.1 2.3 5.8 2.7 11.3 5.9 2.3 1.5 4.7 3 0 0 0 0 0.6 0.4 1.2 0.9 0.5 0.2 0.9 0.5 8.1 5.6 15.3 12.3 0 0 0 0c6.7 6.1 12.8 13 18.4 20.5q2.4 3.2 4.7 6.6 3.8 5.5 7.1 11.5 0.4 0.5 0.7 1.1c4.6 8.3 8.7 17.1 12.2 26.3 0.8 2.3 1.6 4.6 2.4 6.9q0.1 0.1 0.1 0.2 1.2 3.7 2.4 7.5c3.2 10.8 5.7 22.1 7.4 33.8 1.8 12.3 2.7 25 2.7 37.9z"/>
					</g>
					<g id="&lt;Group&gt;">
						<path id="&lt;Path&gt;" class="s3" d="m309.4 401.3c1.8 12.6 2.8 25.7 2.8 38.9 0 4.6-0.1 9.3-0.4 13.8q0 1.2-0.1 2.5-0.2 3.1-0.5 6.2c-1 10.4-2.6 20.5-4.9 29.9-2.8 11.8-6.7 22.8-11.4 32.7q-1.1 2.2-2.2 4.3l-0.3 0.5q-1.3 2.4-2.6 4.8-0.3 0.5-0.7 1.1-1 1.7-2 3.3c-2.3 3.6-4.7 7-7.3 10.3-3.1 4.1-6.6 7.9-10.3 11.6-3.5 3.4-7.2 6.7-11.1 9.7-0.2 0.1-0.5 0.4-0.8 0.7l-0.2 0.1-2.8-3.5q-0.1 0-0.1 0l2.7 3.6q-2.6 1.9-5.1 3.6c-16 10.9-35.2 18.3-57.2 22.1q-10.3 1-21.7 1-5.3 0-10.4-0.2c-2.6-0.1-5.2-0.3-7.7-0.5-0.9 0-1.9-0.1-2.8-0.2q-2.4-0.2-4.6-0.5-2.2-0.2-4.4-0.5-2.2-0.3-4.4-0.6-0.1-0.1-0.2-0.1-1.8-0.3-3.6-0.6-0.7-0.1-1.4-0.2-1.4-0.3-2.8-0.6-2-0.4-4-0.9-1.1-0.2-2.2-0.5-1.1-0.3-2.1-0.5c-0.8-0.2-1.7-0.5-2.5-0.7q-0.7-0.2-1.4-0.4-1.6-0.4-3.1-0.9-1-0.3-1.9-0.6-0.1-0.1-0.2-0.1-0.7-0.2-1.3-0.4-0.9-0.3-1.8-0.7c-1.8-0.6-3.5-1.2-5.2-1.9q-1.3-0.5-2.5-1-5.3-2.3-10.2-4.9-2.9-1.5-5.6-3.1-2.2-1.3-4.3-2.7-1.6-1-3.1-2.1-1.5-1.1-3-2.2-1.4-1.1-2.9-2.2-1.4-1.2-2.7-2.3-1.4-1.2-2.7-2.4-0.8-0.8-1.6-1.5-0.5-0.5-1-1-1.3-1.2-2.5-2.5-1-1-1.9-2c-0.5-0.5-1-1.1-1.5-1.6q-0.2-0.3-0.4-0.5-0.9-1-1.8-2.1-0.1-0.1-0.2-0.2c-24.8-30-32.8-70.4-32.8-107.6 0-72.2 28.5-137.2 79-168.2 8.8-5.4 18.2-9.8 28.3-13q0.9-0.2 1.7-0.5 5.1-1.5 10.3-2.7 1.1-0.2 2.2-0.4c0 0 0 0 0.1 0q0 0 0.1 0 0.7-0.2 1.4-0.3 5.6-1.1 11.4-1.6 0.1 0 0.1 0 6.9-0.7 14.1-0.7 1.5 0 2.9 0 0.9 0 1.7 0.1 0.9 0 1.8 0 4.7 0.2 9.2 0.7 1.3 0.2 2.5 0.3 5.6 0.7 11.1 1.9 0 0 0 0 0.2 0.1 0.4 0.1c0.4 0.1 0.8 0.1 1.1 0.3q0.3 0 0.6 0.1 0.3 0 0.5 0.1 3.4 0.8 6.7 1.8 2.7 0.7 5.2 1.6 6.8 2.3 13.1 5.3 3.4 1.5 6.6 3.3 0.5 0.2 1 0.5c3.8 2.1 7.6 4.4 11.2 6.9q1.6 1.1 3.2 2.3l2.1 2c8 7.7 15.4 16.5 21.9 26.2 2.6 3.9 5.1 7.9 7.5 12 0.1 0.3 0.4 0.7 0.6 1.1 4.8 8.5 9 17.7 12.6 27.3 0.9 2.3 1.7 4.6 2.6 7.1v0.1q0 0.1 0 0.2c0.9 2.5 1.7 5.1 2.5 7.6 3.3 11.2 5.9 22.9 7.6 34.8z"/>
					</g>
					<g id="&lt;Clip Group&gt;">
						<g id="&lt;Group&gt;" clip-path="url(#cp1)">
						</g>
						<g id="&lt;Group&gt;">
							<g id="&lt;Group&gt;">
								<path id="&lt;Path&gt;" class="s4" d="m164 445.9v2.7c0 0 0.1-1 0-2.7z"/>
							</g>
							<g id="&lt;Group&gt;">
								<path id="&lt;Path&gt;" class="s4" d="m163.6 412.4c-11.4-15.8-32.5-6.8-32.5-6.8 29.1 7.5 32.6 32 32.9 40.3v-2.5l0.1 2.5c0.3-8.3 3.8-32.8 33-40.3 0 0-22.1-9-33.5 6.8z"/>
							</g>
							<g id="&lt;Group&gt;">
								<path id="&lt;Path&gt;" class="s4" d="m164.1 448.6v-2.7c-0.1 1.7 0 2.7 0 2.7z"/>
							</g>
							<g id="&lt;Group&gt;">
								<path id="&lt;Path&gt;" class="s4" d="m230.1 448.6v-2.7c-0.1 1.7 0 2.7 0 2.7z"/>
							</g>
							<g id="&lt;Group&gt;">
								<path id="&lt;Path&gt;" class="s4" d="m230.6 412.4c-11.4-15.8-33.5-6.8-33.5-6.8 29.1 7.5 32.6 32 32.9 40.3l0.1-2.5v2.5c0.3-8.3 3.8-32.8 33-40.3 0 0-21.2-9-32.5 6.8z"/>
							</g>
							<g id="&lt;Group&gt;">
								<path id="&lt;Path&gt;" class="s4" d="m230 445.9v2.7c0 0 0.1-1 0-2.7z"/>
							</g>
							<g id="&lt;Group&gt;">
								<path id="&lt;Path&gt;" class="s4" d="m98.1 448.6v-2.7c-0.1 1.7 0 2.7 0 2.7z"/>
							</g>
							<g id="&lt;Group&gt;">
								<path id="&lt;Path&gt;" class="s4" d="m98.6 412.4c-11.4-15.8-33.5-6.8-33.5-6.8 29.1 7.5 32.6 32 32.9 40.3l0.1-2.5v2.5c0.3-8.3 3.8-32.8 33-40.3 0 0-21.2-9-32.5 6.8z"/>
							</g>
							<g id="&lt;Group&gt;">
								<path id="&lt;Path&gt;" class="s4" d="m98 445.9v2.7c0 0 0.1-1 0-2.7z"/>
							</g>
							<g id="&lt;Group&gt;">
								<path id="&lt;Path&gt;" class="s4" d="m32.1 448.6c0 0 0-1 0-2.7z"/>
							</g>
							<g id="&lt;Group&gt;">
								<path id="&lt;Path&gt;" class="s4" d="m65.1 405.6c-26 6.7-33.7 38-33.5 44.1-0.3-0.2-0.7-0.1-1.2 0.1-2.6 0.8-7.8 4.9-13.2 5.3q-0.1-1.3-0.1-2.5-0.2-2.4-0.2-4.8-0.1-3.3-0.1-6.6c0-12.7 0.9-25.2 2.6-37.3 4.4 1.2 8.7 3.7 12.2 8.5 11.4-15.8 33.5-6.8 33.5-6.8z"/>
							</g>
							<g id="&lt;Group&gt;">
								<path id="&lt;Path&gt;" class="s4" d="m32.1 450.7q-0.1-0.8-0.5-1c0.1 0.7 0.2 1.1 0.5 1z"/>
							</g>
							<g id="&lt;Group&gt;">
								<path id="&lt;Path&gt;" class="s4" d="m32.1 448.6v-2.7c-0.1 1.7 0 2.7 0 2.7z"/>
							</g>
							<g id="&lt;Group&gt;">
								<path id="&lt;Path&gt;" class="s4" d="m296 445.9v2.7c0 0 0.1-1 0-2.7z"/>
							</g>
							<g id="&lt;Group&gt;">
								<path id="&lt;Path&gt;" class="s4" d="m313.8 457c-8.5-1.5-17.5-15.5-17.7-11.1l-0.1-2.5v2.5c-0.2-6.6-2.5-23.2-17.7-33.6q-2.1-1.4-4.5-2.6c-3.1-1.6-6.7-3-10.7-4.1 0 0 1.7-0.7 4.5-1.4 5.4-1.4 14.8-2.5 22.6 2.8 1.9 1.4 3.8 3.1 5.4 5.4 4.4-6.1 10.3-8.5 16-9.1z"/>
							</g>
							<g id="&lt;Group&gt;">
								<path id="&lt;Path&gt;" class="s4" d="m296.1 448.6v-2.7c-0.1 1.7 0 2.7 0 2.7z"/>
							</g>
						</g>
						<g id="&lt;Group&gt;">
							<g id="&lt;Group&gt;">
								<path id="&lt;Path&gt;" class="s4" d="m164 358.6v2.8c0 0 0.1-1 0-2.8z"/>
							</g>
							<g id="&lt;Group&gt;">
								<path id="&lt;Path&gt;" class="s4" d="m163.6 325.2c-11.4-15.8-32.5-6.8-32.5-6.8 29.1 7.5 32.6 31.9 32.9 40.2v-2.4l0.1 2.4c0.3-8.3 3.8-32.7 33-40.2 0 0-22.1-9-33.5 6.8z"/>
							</g>
							<g id="&lt;Group&gt;">
								<path id="&lt;Path&gt;" class="s4" d="m164.1 361.4v-2.8c-0.1 1.8 0 2.8 0 2.8z"/>
							</g>
							<g id="&lt;Group&gt;">
								<path id="&lt;Path&gt;" class="s4" d="m230.1 361.4v-2.8c-0.1 1.8 0 2.8 0 2.8z"/>
							</g>
							<g id="&lt;Group&gt;">
								<path id="&lt;Path&gt;" class="s4" d="m230.6 325.2c-11.4-15.8-33.5-6.8-33.5-6.8 29.1 7.5 32.6 31.9 32.9 40.2l0.1-2.4v2.4c0.3-8.3 3.8-32.7 33-40.2 0 0-21.2-9-32.5 6.8z"/>
							</g>
							<g id="&lt;Group&gt;">
								<path id="&lt;Path&gt;" class="s4" d="m230 358.6v2.8c0 0 0.1-1 0-2.8z"/>
							</g>
							<g id="&lt;Group&gt;">
								<path id="&lt;Path&gt;" class="s4" d="m98.1 361.4v-2.8c-0.1 1.8 0 2.8 0 2.8z"/>
							</g>
							<g id="&lt;Group&gt;">
								<path id="&lt;Path&gt;" class="s4" d="m98.6 325.2c-11.4-15.8-33.5-6.8-33.5-6.8 29.1 7.5 32.6 31.9 32.9 40.2l0.1-2.4v2.4c0.3-8.3 3.8-32.7 33-40.2 0 0-21.2-9-32.5 6.8z"/>
							</g>
							<g id="&lt;Group&gt;">
								<path id="&lt;Path&gt;" class="s4" d="m98 358.6v2.8c0 0 0.1-1 0-2.8z"/>
							</g>
							<g id="&lt;Group&gt;">
								<path id="&lt;Path&gt;" class="s4" d="m32.1 361.4c0 0 0-1 0-2.8z"/>
							</g>
							<g id="&lt;Group&gt;">
								<path id="&lt;Path&gt;" class="s4" d="m65.1 318.4q0 0-0.1 0c-24.8 6.4-33 35.4-33.4 43.2q0 0.2 0 0.3 0 0.3 0 0.6c-0.5-0.3-1.5 0-2.7 0.7l0.1-0.5q0.2-0.7 0.5-1.3 0.1-0.2 0.1-0.5c4.4-12.7 9.9-24.7 16.3-35.7q2.8-4.8 5.9-9.4c7.1 0.2 12.8 2.4 13.2 2.6q0.1 0 0.1 0z"/>
							</g>
							<g id="&lt;Group&gt;">
								<path id="&lt;Path&gt;" class="s4" d="m32.1 363.5q-0.1-0.8-0.5-1c0.1 0.7 0.2 1.1 0.5 1z"/>
							</g>
							<g id="&lt;Group&gt;">
								<path id="&lt;Path&gt;" class="s4" d="m32.1 361.4v-2.8c-0.1 1.8 0 2.8 0 2.8z"/>
							</g>
							<g id="&lt;Group&gt;">
								<path id="&lt;Path&gt;" class="s4" d="m296 358.6v2.8c0 0 0.1-1 0-2.8z"/>
							</g>
							<g id="&lt;Group&gt;">
								<path id="&lt;Path&gt;" class="s4" d="m301.8 362c-3.3-3.1-5.6-5.5-5.7-3.4l-0.1-2.4v2.4c-0.2-5.8-2-19.5-13-29.7-3.9-3.7-9-6.9-15.7-9.2q-2-0.7-4.2-1.3 0 0 0 0 0 0 0 0c0.2-0.1 0.9-0.4 2-0.7 2.8-0.9 8.3-2.3 14.2-1.7q3.8 5.5 7.2 11.5 0.3 0.5 0.6 1.1c4.6 8.3 8.7 17.1 12.2 26.3q1.3 3.4 2.5 6.9 0 0.1 0 0.2z"/>
							</g>
							<g id="&lt;Group&gt;">
								<path id="&lt;Path&gt;" class="s4" d="m296.1 361.4v-2.8c-0.1 1.8 0 2.8 0 2.8z"/>
							</g>
						</g>
						<g id="&lt;Group&gt;">
							<g id="&lt;Group&gt;">
								<path id="&lt;Path&gt;" class="s4" d="m131 402v2.8c0 0 0.1-1.1 0-2.8z"/>
							</g>
							<g id="&lt;Group&gt;">
								<path id="&lt;Path&gt;" class="s4" d="m130.6 368.5c-11.4-15.8-32.5-6.7-32.5-6.7 29.1 7.4 32.6 31.9 32.9 40.2v-2.4l0.1 2.4c0.3-8.3 3.8-32.8 33-40.2 0 0-22.1-9.1-33.5 6.7z"/>
							</g>
							<g id="&lt;Group&gt;">
								<path id="&lt;Path&gt;" class="s4" d="m131.1 404.8v-2.8c-0.1 1.7 0 2.8 0 2.8z"/>
							</g>
							<g id="&lt;Group&gt;">
								<path id="&lt;Path&gt;" class="s4" d="m197.1 404.8v-2.8c-0.1 1.7 0 2.8 0 2.8z"/>
							</g>
							<g id="&lt;Group&gt;">
								<path id="&lt;Path&gt;" class="s4" d="m197.6 368.5c-11.4-15.8-33.5-6.7-33.5-6.7 29.1 7.4 32.6 31.9 32.9 40.2l0.1-2.4v2.4c0.3-8.3 3.8-32.8 33-40.2 0 0-21.2-9.1-32.5 6.7z"/>
							</g>
							<g id="&lt;Group&gt;">
								<path id="&lt;Path&gt;" class="s4" d="m197 402v2.8c0 0 0.1-1.1 0-2.8z"/>
							</g>
							<g id="&lt;Group&gt;">
								<path id="&lt;Path&gt;" class="s4" d="m65.1 404.8v-2.8c-0.1 1.7 0 2.8 0 2.8z"/>
							</g>
							<g id="&lt;Group&gt;">
								<path id="&lt;Path&gt;" class="s4" d="m65.6 368.5c-11.4-15.8-33.5-6.7-33.5-6.7 29.1 7.4 32.6 31.9 33 40.2v-2.4 2.4c0.3-8.3 3.8-32.8 33-40.2 0 0-21.2-9.1-32.5 6.7z"/>
							</g>
							<g id="&lt;Group&gt;">
								<path id="&lt;Path&gt;" class="s4" d="m65.1 402v2.8c0 0 0-1.1 0-2.8z"/>
							</g>
							<g id="&lt;Group&gt;">
								<path id="&lt;Path&gt;" class="s4" d="m263 402v2.8c0 0 0.1-1.1 0-2.8z"/>
							</g>
							<g id="&lt;Group&gt;">
								<path id="&lt;Path&gt;" class="s4" d="m269.5 406c5.8 1 10.6 3.5 14.6 6.9-4.9 1.4-10.4-3-14.6-6.9z"/>
							</g>
							<g id="&lt;Group&gt;">
								<path id="&lt;Path&gt;" class="s4" d="m296.1 361.8q0 2.2-0.1 4.3 0 1 0 1.9h-0.1c-21 0-27.2 24.4-28.9 35.6q-0.7-0.7-1.3-1.2c-1.6-1.3-2.5-1.8-2.6-0.4l-0.1-2.4v2.4c0-2-0.3-4.8-1-8-2.1-9.9-8.5-24.1-26.9-30.7q-1-0.3-2-0.7-1.5-0.4-3-0.8c0 0 0.4-0.2 1.1-0.5q0.7-0.2 1.7-0.5c0.7-0.2 1.6-0.5 2.6-0.7 7.1-1.6 19.4-2.3 27.1 8.4 9-12.4 24.6-9.4 30.8-7.6q0.9 0.2 1.5 0.4c0.7 0.3 1.2 0.5 1.2 0.5z"/>
							</g>
							<g id="&lt;Group&gt;">
								<path id="&lt;Path&gt;" class="s4" d="m263.1 404.8v-2.8c-0.1 1.7 0 2.8 0 2.8z"/>
							</g>
						</g>
						<g id="&lt;Group&gt;">
							<g id="&lt;Group&gt;">
								<path id="&lt;Path&gt;" class="s4" d="m131 317.7v2.8c0 0 0.1-1 0-2.8z"/>
							</g>
							<g id="&lt;Group&gt;">
								<path id="&lt;Path&gt;" class="s4" d="m130.6 284.2c-11.4-15.7-32.5-6.7-32.5-6.7 29.1 7.5 32.6 31.9 32.9 40.2v-2.4l0.1 2.4c0.3-8.3 3.8-32.7 33-40.2 0 0-22.1-9-33.5 6.7z"/>
							</g>
							<g id="&lt;Group&gt;">
								<path id="&lt;Path&gt;" class="s4" d="m131.1 320.5v-2.8c-0.1 1.8 0 2.8 0 2.8z"/>
							</g>
							<g id="&lt;Group&gt;">
								<path id="&lt;Path&gt;" class="s4" d="m197.1 320.5v-2.8c-0.1 1.8 0 2.8 0 2.8z"/>
							</g>
							<g id="&lt;Group&gt;">
								<path id="&lt;Path&gt;" class="s4" d="m197.6 284.2c-11.4-15.7-33.5-6.7-33.5-6.7 29.1 7.5 32.6 31.9 32.9 40.2l0.1-2.4v2.4c0.3-8.3 3.8-32.7 33-40.2 0 0-21.2-9-32.5 6.7z"/>
							</g>
							<g id="&lt;Group&gt;">
								<path id="&lt;Path&gt;" class="s4" d="m197 317.7v2.8c0 0 0.1-1 0-2.8z"/>
							</g>
						</g>
						<g id="&lt;Group&gt;">
							<g id="&lt;Group&gt;">
								<path id="&lt;Path&gt;" class="s4" d="m131 574.8v2.8c0 0 0.1-1 0-2.8z"/>
							</g>
							<g id="&lt;Group&gt;">
								<path id="&lt;Path&gt;" class="s4" d="m130.6 541.4c-11.4-15.8-32.5-6.8-32.5-6.8 29.1 7.5 32.6 31.9 32.9 40.2v-2.4l0.1 2.4c0.3-8.3 3.8-32.7 33-40.2 0 0-22.1-9-33.5 6.8z"/>
							</g>
							<g id="&lt;Group&gt;">
								<path id="&lt;Path&gt;" class="s4" d="m131.1 577.6v-2.8c-0.1 1.8 0 2.8 0 2.8z"/>
							</g>
							<g id="&lt;Group&gt;">
								<path id="&lt;Path&gt;" class="s4" d="m197.1 577.6v-2.8c-0.1 1.8 0 2.8 0 2.8z"/>
							</g>
							<g id="&lt;Group&gt;">
								<path id="&lt;Path&gt;" class="s4" d="m197.6 541.4c-11.4-15.8-33.5-6.8-33.5-6.8 29.1 7.5 32.6 31.9 32.9 40.2l0.1-2.4v2.4c0.3-8.3 3.8-32.7 33-40.2 0 0-21.2-9-32.5 6.8z"/>
							</g>
							<g id="&lt;Group&gt;">
								<path id="&lt;Path&gt;" class="s4" d="m197 574.8v2.8c0 0 0.1-1 0-2.8z"/>
							</g>
							<g id="&lt;Group&gt;">
								<path id="&lt;Path&gt;" class="s4" d="m98.1 534.6c-21.3 5.5-28.9 20-31.6 30.7l-1.1-0.9q-0.4-0.3-0.8-0.7-1-0.8-1.9-1.6c-2.7-8.2-8.5-17.9-20.8-23.9q0 0 0 0-0.3-0.4-0.6-0.9-1.4-2.2-2.8-4.5c7.4-1.4 19.6-1.8 27.1 8.6 11.3-15.8 32.5-6.8 32.5-6.8z"/>
							</g>
							<g id="&lt;Group&gt;">
								<path id="&lt;Path&gt;" class="s4" d="m292.2 533.4q-0.9 1.6-1.9 3.1-3.2 5-6.9 9.7-4.4 5.8-9.7 11-4.8 4.8-10.4 9.1-0.4 0.3-0.8 0.6-0.2 0.1-0.4 0.3c-2.3-10.8-9.4-26.8-32-32.6q0 0 0 0 0 0 0 0 0 0 0 0 0 0 0 0c0.9-0.4 21.4-8.6 32.5 6.8 8.5-11.7 22.8-9.8 29.6-8z"/>
							</g>
							<g id="&lt;Group&gt;">
								<path id="&lt;Path&gt;" class="s4" d="m296.1 534.6v1q0 0.4 0 0.7-0.1 0.5-0.1 0.5v-2.2q0.1 0 0.1 0 0 0 0 0z"/>
							</g>
						</g>
						<g id="&lt;Group&gt;">
							<g id="&lt;Group&gt;">
								<path id="&lt;Path&gt;" class="s4" d="m131 490.6v2.8c0 0 0.1-1.1 0-2.8z"/>
							</g>
							<g id="&lt;Group&gt;">
								<path id="&lt;Path&gt;" class="s4" d="m130.6 457.1c-11.4-15.8-32.5-6.7-32.5-6.7 29.1 7.4 32.6 31.9 32.9 40.2v-2.5l0.1 2.5c0.3-8.3 3.8-32.8 33-40.2 0 0-22.1-9.1-33.5 6.7z"/>
							</g>
							<g id="&lt;Group&gt;">
								<path id="&lt;Path&gt;" class="s4" d="m131.1 493.4v-2.8c-0.1 1.7 0 2.8 0 2.8z"/>
							</g>
							<g id="&lt;Group&gt;">
								<path id="&lt;Path&gt;" class="s4" d="m197.1 493.4v-2.8c-0.1 1.7 0 2.8 0 2.8z"/>
							</g>
							<g id="&lt;Group&gt;">
								<path id="&lt;Path&gt;" class="s4" d="m197.6 457.1c-11.4-15.8-33.5-6.7-33.5-6.7 29.1 7.4 32.6 31.9 32.9 40.2l0.1-2.5v2.5c0.3-8.3 3.8-32.8 33-40.2 0 0-21.2-9.1-32.5 6.7z"/>
							</g>
							<g id="&lt;Group&gt;">
								<path id="&lt;Path&gt;" class="s4" d="m197 490.6v2.8c0 0 0.1-1.1 0-2.8z"/>
							</g>
							<g id="&lt;Group&gt;">
								<path id="&lt;Path&gt;" class="s4" d="m65.1 493.4v-2.8c-0.1 1.7 0 2.8 0 2.8z"/>
							</g>
							<g id="&lt;Group&gt;">
								<path id="&lt;Path&gt;" class="s4" d="m65.6 457.1c-11.4-15.8-33.5-6.7-33.5-6.7 29.1 7.4 32.6 31.9 33 40.2v-2.5 2.5c0.3-8.3 3.8-32.8 33-40.2 0 0-21.2-9.1-32.5 6.7z"/>
							</g>
							<g id="&lt;Group&gt;">
								<path id="&lt;Path&gt;" class="s4" d="m65.1 490.6v2.8c0 0 0-1.1 0-2.8z"/>
							</g>
							<g id="&lt;Group&gt;">
								<path id="&lt;Path&gt;" class="s4" d="m32.1 450.4q0 0-0.1 0-0.1 0-0.3 0.1c-5.6 1.4-10.3 4.1-14.3 7.4q-0.2-1.4-0.2-2.8-0.1-1.3-0.1-2.5-0.2-2.4-0.2-4.8c5.7-0.2 10.9 1.1 13.5 2q0.8 0.2 1.3 0.4 0.2 0.1 0.3 0.1 0.1 0.1 0.1 0.1z"/>
							</g>
							<g id="&lt;Group&gt;">
								<path id="&lt;Path&gt;" class="s4" d="m263 490.6v2.8c0 0 0.1-1.1 0-2.8z"/>
							</g>
							<g id="&lt;Group&gt;">
								<path id="&lt;Path&gt;" class="s4" d="m268 493.2c7 0.7 12.6 3.7 17.1 8-5.8 2.6-12.6-3.8-17.1-8z"/>
							</g>
							<g id="&lt;Group&gt;">
								<path id="&lt;Path&gt;" class="s4" d="m296.1 450.4q0 1.5 0 3-0.1 1-0.1 2h-0.1c-21.7 0-27.6 26-29.1 36.6q-0.5-0.4-0.9-0.8c-1.7-1.5-2.7-2.1-2.8-0.6l-0.1-2.5v2.5c0-2.1-0.3-5.2-1.1-8.7-2.3-9.9-8.8-23.6-27-30.1q-0.8-0.3-1.7-0.5-1.5-0.5-3.1-0.9c0 0 1.1-0.5 2.9-1.1q0.7-0.2 1.4-0.3 0.5-0.2 0.9-0.3c7.1-1.6 19.5-2.4 27.3 8.4 8.2-11.3 21.8-9.9 28.9-8.1q1.2 0.2 2.1 0.5c1.6 0.5 2.5 0.9 2.5 0.9z"/>
							</g>
							<g id="&lt;Group&gt;">
								<path id="&lt;Path&gt;" class="s4" d="m263.1 493.4v-2.8c-0.1 1.7 0 2.8 0 2.8z"/>
							</g>
						</g>
						<g id="&lt;Group&gt;">
							<g id="&lt;Group&gt;">
								<path id="&lt;Path&gt;" class="s4" d="m164 534v2.8c0 0 0.1-1 0-2.8z"/>
							</g>
							<g id="&lt;Group&gt;">
								<path id="&lt;Path&gt;" class="s4" d="m163.6 500.6c-11.4-15.8-32.5-6.8-32.5-6.8 29.1 7.5 32.6 31.9 32.9 40.2v-2.4l0.1 2.4c0.3-8.3 3.8-32.7 33-40.2 0 0-22.1-9-33.5 6.8z"/>
							</g>
							<g id="&lt;Group&gt;">
								<path id="&lt;Path&gt;" class="s4" d="m164.1 536.8v-2.8c-0.1 1.8 0 2.8 0 2.8z"/>
							</g>
							<g id="&lt;Group&gt;">
								<path id="&lt;Path&gt;" class="s4" d="m230.1 536.8v-2.8c-0.1 1.8 0 2.8 0 2.8z"/>
							</g>
							<g id="&lt;Group&gt;">
								<path id="&lt;Path&gt;" class="s4" d="m230.6 500.6c-11.4-15.8-33.5-6.8-33.5-6.8 29.1 7.5 32.6 31.9 32.9 40.2l0.1-2.4v2.4c0.3-8.3 3.8-32.7 33-40.2 0 0-21.2-9-32.5 6.8z"/>
							</g>
							<g id="&lt;Group&gt;">
								<path id="&lt;Path&gt;" class="s4" d="m230 534v2.8c0 0 0.1-1 0-2.8z"/>
							</g>
							<g id="&lt;Group&gt;">
								<path id="&lt;Path&gt;" class="s4" d="m98.1 536.8v-2.8c-0.1 1.8 0 2.8 0 2.8z"/>
							</g>
							<g id="&lt;Group&gt;">
								<path id="&lt;Path&gt;" class="s4" d="m98.6 500.6c-11.4-15.8-33.5-6.8-33.5-6.8 29.1 7.5 32.6 31.9 32.9 40.2l0.1-2.4v2.4c0.3-8.3 3.8-32.7 33-40.2 0 0-21.2-9-32.5 6.8z"/>
							</g>
							<g id="&lt;Group&gt;">
								<path id="&lt;Path&gt;" class="s4" d="m98 534v2.8c0 0 0.1-1 0-2.8z"/>
							</g>
							<g id="&lt;Group&gt;">
								<path id="&lt;Path&gt;" class="s4" d="m65.1 493.8c-17.3 4.5-26.5 19.9-30.7 31.5q-1-2-1.9-4c-4.1-9-7.3-18.4-9.7-28 3.2 1.4 6.2 3.7 8.8 7.3 11.4-15.8 33.5-6.8 33.5-6.8z"/>
							</g>
							<g id="&lt;Group&gt;">
								<path id="&lt;Path&gt;" class="s4" d="m296.1 535.3v0.3q0 0.4 0 0.7-0.1 0.5-0.1 0.5v-2.2q0.1 0 0.1 0 0 0.4 0 0.7z"/>
							</g>
							<g id="&lt;Group&gt;">
								<path id="&lt;Path&gt;" class="s4" d="m308.7 492c-2.6 10.7-6.2 21.3-11 31.2q-1.1 2.3-2.3 4.6c-1.4-7.7-5.2-18.6-15.9-26.4-2.1-1.6-4.4-3-7.1-4.2q-4.1-2-9.3-3.4c0 0 1.6-0.7 4.2-1.3 5.4-1.4 15.1-2.7 23 2.8 1.9 1.3 3.7 3.1 5.3 5.3 3.6-5 8.3-7.6 13.1-8.6z"/>
							</g>
						</g>
						<g id="&lt;Group&gt;">
							<g id="&lt;Group&gt;">
								<path id="&lt;Compound Path&gt;" fill-rule="evenodd" class="s5" d="m313.9 454.6q-0.2 4.2-0.6 8.5c-4.2-4.6-9.8-7.7-17.3-7.7h-0.1c-21.7 0-27.6 26-29.1 36.6q-0.1 0.6-0.1 1.1 0.6 0 1.3 0.1c7 0.7 12.6 3.7 17.1 8 6.1 5.8 10.1 14 12.6 22q-2.3 4.7-4.8 9.1c-2.4-12.1-9.2-32.6-28.5-32.6-21.7 0-27.6 26.1-29.1 36.7 15.1 2.5 23.5 15.8 27.7 28.9 4.1-13 12.4-26.2 27.3-28.8q-3.2 5-6.9 9.7c-4.1 2.7-7.3 6.6-9.7 11q-4.8 4.8-10.4 9.1-0.4 0.3-0.8 0.6-2.5 1.9-5.1 3.7c-3.2-12.1-10.5-27.9-27.4-27.9-27.2 0-29.6 40.7-29.6 41.2l-3.4-0.2h-0.1l-3.2 0.2q0 0 0 0c-0.1-0.6-2.6-41.2-29.6-41.2-27.2 0-29.7 40.8-29.7 41.2l-3.4-0.2-3.3 0.2q0 0 0 0c0-0.6-2.5-41.2-29.6-41.2-16.1 0-23.5 14.4-26.9 26.1q-3-2.1-5.8-4.4c4.4-13.2 13.2-26.3 28.8-28.2-1.5-10.7-7.5-36.5-29.1-36.5-18.2 0-25.3 18.4-28 30.6q-2.5-4.4-4.6-9c4.4-13.2 13.2-26.3 28.9-28.1-1.2-9.8-6.7-37.8-29.2-37.8-6 0-10.8 1.9-14.7 5q-0.1-1.2-0.1-2.5-0.1-1.2-0.2-2.4 0-0.4 0-0.7-0.1-1.1-0.1-2.2c3-1.8 6.5-3.1 10.5-3.6q0.8-0.1 1.6-0.2c1.9-16.2 10.4-40.5 32.2-43-1.2-9.8-6.7-37.8-29.2-37.8q-2.7 0-5 0.5 0.9-2.9 1.8-5.8 0.1-0.6 0.2-1.3c1.4-11.5 6.1-27.3 16.7-36.2 4.4-3.6 9.7-6.1 16.1-6.7 0.7-6.8 2.6-15.3 6.2-23.1 4.9-10.4 13-19.5 25.6-21.1q2-0.3 4.3-0.3c18.5 0 28.4 14.7 33 29.3 4.6-14.6 14.5-29.3 33-29.3 18.4 0 28.3 14.7 32.9 29.3 4.6-14.6 14.5-29.3 33-29.3 3.2 0 6.1 0.4 8.8 1.2 7.6 2.3 13.2 7.4 17.4 13.7q0 0 0 0c6.1 9.1 9 20.7 9.9 29.4 9 0.5 15.9 4.5 21 10.3 6.6 7.3 10.3 17.4 12.2 26.3 0.5 2.3 0.8 4.6 1.1 6.7q0.7 0.1 1.4 0.2 1.2 3.8 2.4 7.7c-2.4-1-5.2-1.5-8.2-1.5h-0.1c-21 0-27.2 24.4-28.9 35.6q-0.2 1.2-0.3 2.1 1.4 0.1 2.8 0.3c5.8 1 10.6 3.5 14.6 6.9 10.3 9.1 15 24.6 16.3 36.1 5.3 0.7 9.8 2.7 13.5 5.6zm-120.6 38.6c-1.2-9.8-6.7-37.8-29.2-37.8-22.6 0-28.1 28-29.3 37.8 16.1 1.8 24.9 15.6 29.3 29.1 4.2-13.5 13.1-27.3 29.2-29.1zm-91.2-132.8q-0.1 0.6-0.1 1.1c16 1.9 24.8 15.6 29.1 29.2 4.3-13.6 13.1-27.3 29.1-29.2q-0.1-0.5-0.2-1c-1.8-11.3-8-35.5-28.9-35.5-21 0-27.2 24.2-29 35.4zm66 0.1q-0.1 0.5-0.2 1c16 1.9 24.8 15.6 29.1 29.2 4.3-13.6 13.1-27.3 29.1-29.2q0-0.5-0.1-1.1c-1.8-11.3-8.1-35.4-29-35.4-20.9 0-27.2 24.2-28.9 35.5zm25.2 45.3c-1.2-9.8-6.7-37.8-29.2-37.8-22.6 0-28.1 28-29.3 37.8 16.1 1.9 24.9 15.6 29.3 29.2 4.2-13.6 13.1-27.3 29.2-29.2zm-124.5 0c16.1 1.9 25 15.6 29.3 29.2 4.3-13.6 13.2-27.3 29.3-29.2-1.3-9.8-6.8-37.8-29.3-37.8-22.5 0-28 28-29.3 37.8zm33.2 43.1q0.2 0 0.5 0c15.7 2.2 24.3 15.7 28.6 29.1 4.2-13.3 12.8-26.9 28.5-29q0.3-0.1 0.6-0.1c-1.6-10.8-7.6-36.5-29.1-36.5-21.6 0-27.6 25.7-29.1 36.5zm123.7 0q0.2 0 0.4 0c-1.5-10.8-7.5-36.5-29.1-36.5-21.6 0-27.6 25.7-29.1 36.5q0.3 0 0.7 0.1c15.6 2.1 24.2 15.7 28.4 29 4.3-13.4 12.9-27 28.7-29.1zm33.6-42.9c-1.2-9.6-6.7-38-29.3-38-22.6 0-28.1 28-29.3 37.8 17.1 2 26 17.4 30 31.7 3.9-13.9 12.4-28.8 28.6-31.5zm5.1-81c-20.7 0-27 23.7-28.9 35.1q-0.1 0.9-0.2 1.6c15.1 2.6 23.5 15.8 27.7 29 4.4-14 13.6-28.1 30.5-29.3q0-0.3-0.1-0.5c-1.7-11.1-7.8-35.9-29-35.9zm-63.7-6.5c17.1 1.9 26 17.3 30 31.6 3.9-13.9 12.4-28.8 28.6-31.4-1.2-9.6-6.7-38-29.3-38-22.6 0-28.1 28-29.3 37.8zm-65.9 0c16.1 1.8 24.9 15.6 29.3 29.2 4.2-13.6 13.1-27.4 29.2-29.2-1.2-9.8-6.7-37.8-29.2-37.8-22.6 0-28.1 28-29.3 37.8zm-66 0c16.1 1.8 25 15.6 29.3 29.2 4.3-13.6 13.2-27.4 29.3-29.2-1.3-9.8-6.8-37.8-29.3-37.8-22.6 0-28.1 28-29.3 37.8zm-3.7 72.2c4.3-13.5 13.1-27.3 29.1-29.2q0-0.5-0.1-1c-1.8-11.3-8.1-35.5-29-35.5-20.9 0-27.1 24.2-28.9 35.5q0 0 0 0-0.1 0.5-0.2 1c16.1 1.9 24.8 15.7 29.1 29.2zm0 87.3c4.3-13.3 12.9-26.9 28.6-29q0.3-0.1 0.5-0.1c-1.5-10.8-7.5-36.5-29.1-36.5-21.5 0-27.5 25.7-29.1 36.5q0.3 0 0.6 0.1c15.7 2.1 24.3 15.7 28.5 29zm33 44.3c4.3-13.5 13.2-27.3 29.3-29.1-1.3-9.8-6.8-37.8-29.3-37.8-22.6 0-28.1 28-29.3 37.8 16.1 1.8 25 15.6 29.3 29.1zm62.1 13.9c-1.6-10.7-7.6-36.5-29.1-36.5-21.6 0-27.6 25.8-29.1 36.5 16 1.9 24.8 15.6 29.1 29.1 4.3-13.5 13.1-27.2 29.1-29.1zm65.9 0c-1.5-10.7-7.5-36.5-29.1-36.5-21.6 0-27.6 25.8-29.1 36.5 16 1.9 24.8 15.6 29.1 29.1 4.3-13.5 13.1-27.2 29.1-29.1zm33.2-42.8c-1.2-9.6-6.7-38-29.3-38-22.6 0-28.1 28-29.3 37.8 17.1 1.9 26 17.3 30 31.6 3.9-13.9 12.4-28.8 28.6-31.4zm34.2-44.7c-1.6-10.8-7.6-36.3-29.1-36.3-21.5 0-27.5 25.5-29.1 36.3q0 0.2 0 0.4c15.1 2.5 23.5 15.8 27.7 28.9 4.2-13.4 12.8-26.9 28.5-29q1-0.2 2-0.3z"/>
							</g>
							<g id="&lt;Group&gt;">
								<path id="&lt;Path&gt;" class="s5" d="m41.3 537.3c6.3 9.7 14 18.6 23.3 26.4-3.9-11.4-11.2-22.6-23.3-26.4z"/>
							</g>
						</g>
					</g>
					<g id="&lt;Group&gt;" style="opacity: .6;mix-blend-mode: multiply">
						<path id="&lt;Path&gt;" class="s4" d="m309.4 401.3c1.8 12.6 2.8 25.7 2.8 38.9 0 4.6-0.1 9.3-0.4 13.8q0 1.2-0.1 2.5-0.2 3.1-0.5 6.2c-1 10.4-2.6 20.5-4.9 29.9-2.8 11.8-6.7 22.8-11.4 32.7q-1.1 2.2-2.2 4.3l-0.3 0.5q-1.3 2.4-2.6 4.8-0.3 0.5-0.7 1.1-1 1.7-2 3.3c-2.3 3.6-4.7 7-7.3 10.3-3.1 4.1-6.6 7.9-10.3 11.6-3.5 3.4-7.2 6.7-11.1 9.7-0.2 0.1-0.5 0.4-0.8 0.7l-0.2 0.1-2.8-3.5q-0.1 0-0.1 0l2.7 3.6q-2.6 1.9-5.1 3.6c-16 10.9-35.2 18.3-57.2 22.1q-10.3 1-21.7 1-5.3 0-10.4-0.2c-2.6-0.1-5.2-0.3-7.7-0.5-0.9 0-1.9-0.1-2.8-0.2q-2.4-0.2-4.6-0.5-2.2-0.2-4.4-0.5-2.2-0.3-4.4-0.6-0.1-0.1-0.2-0.1-1.8-0.3-3.6-0.6-0.7-0.1-1.4-0.2-1.4-0.3-2.8-0.6-2-0.4-4-0.9-1.1-0.2-2.2-0.5-1.1-0.3-2.1-0.5c-0.8-0.2-1.7-0.5-2.5-0.7q-0.7-0.2-1.4-0.4-1.6-0.4-3.1-0.9-1-0.3-1.9-0.6-0.1-0.1-0.2-0.1-0.7-0.2-1.3-0.4-0.9-0.3-1.8-0.7c-1.8-0.6-3.5-1.2-5.2-1.9q-1.3-0.5-2.5-1-5.3-2.3-10.2-4.9-2.9-1.5-5.6-3.1-2.2-1.3-4.3-2.7-1.6-1-3.1-2.1-1.5-1.1-3-2.2-1.4-1.1-2.9-2.2-1.4-1.2-2.7-2.3-1.4-1.2-2.7-2.4-0.9-0.8-1.8-1.6-0.4-0.4-0.8-0.9-1.3-1.2-2.5-2.5-1-1-1.9-2c-0.5-0.5-1-1.1-1.5-1.6q-0.2-0.3-0.4-0.5-0.9-1-1.8-2.1-0.1-0.1-0.2-0.2c21.9 14.3 44.7 18 83.7 18 119.5 0 148.7-82.5 148.7-153.5 0-20-1.3-38.9-4.5-56.4-3.3-18.6-8.7-35.8-16.8-51.3-5.3-10.3-11.8-19.9-19.6-28.8q1.6 1.1 3.2 2.3l2.1 2c8 7.7 15.4 16.5 21.9 26.2 2.6 3.9 5.1 7.9 7.5 12 0.1 0.3 0.4 0.7 0.6 1.1 4.8 8.5 9 17.7 12.6 27.3 0.9 2.3 1.7 4.6 2.6 7.1v0.1q0 0.1 0 0.2c0.9 2.5 1.7 5.1 2.5 7.6 3.3 11.2 5.9 22.9 7.6 34.8z"/>
					</g>
					<g id="&lt;Group&gt;">
						<path id="&lt;Compound Path&gt;" fill-rule="evenodd" class="s2" d="m312.2 440.2c0 4.6-0.1 9.3-0.4 13.8q0 1.2-0.1 2.5-0.2 3.1-0.5 6.2c-1 10.4-2.6 20.5-4.9 29.9-2.8 11.8-6.7 22.8-11.4 32.7q-1.1 2.2-2.2 4.3l-0.3 0.5q-1.3 2.4-2.6 4.8-0.3 0.5-0.7 1.1-1 1.7-2 3.3c-2.3 3.6-4.7 7-7.3 10.3-3.1 4.1-6.6 7.9-10.3 11.6-3.5 3.4-7.2 6.7-11.1 9.7-0.2 0.1-0.5 0.4-0.8 0.7l-0.2 0.1-2.8-3.5-1.6-2 1.5 2 2.7 3.6q-2.6 1.9-5.1 3.6c-16 10.9-35.2 18.3-57.2 22.1q-18 3.2-38.4 3.2c-40.2 0-73.3-9.1-98.5-27.2-1.7-1.2-3.4-2.5-5-3.8l-1.1-0.8c-0.2-0.2-0.5-0.5-0.9-0.8-0.7-0.6-1.3-1.1-2-1.7-8.3-7.2-15.7-15.7-22-25.2v-0.1q-0.3-0.3-0.5-0.6l-0.1-0.3q-1.6-2.4-3-4.9c-0.5-0.8-1-1.7-1.5-2.6-1-1.7-2-3.5-2.8-5.3q-1.1-2.1-2-4.2c-4.2-9-7.6-18.8-10.2-29.2-2.7-10.7-4.5-22.1-5.4-34q-0.1-1.3-0.2-2.7c-0.1-0.8-0.1-1.8-0.2-2.8q-0.1-1.2-0.1-2.4c-0.1-1.8-0.2-3.5-0.2-5.1-0.1-2.2-0.1-4.5-0.1-6.8 0-12.9 0.9-25.8 2.7-38.2 1.8-12.6 4.5-24.8 8-36.5q0.8-2.7 1.8-5.5l0.1-0.5c0.1-0.4 0.3-0.9 0.5-1.4l0.2-0.4c4.5-13.2 10.1-25.6 16.8-37 2-3.4 4.1-6.7 6.2-9.7 3.2-4.9 6.8-9.6 10.4-13.9 2.1-2.5 4.3-5 6.7-7.4 7.5-8 15.8-15 24.6-20.8 0.7-0.5 1.4-1 2.2-1.5q3.8-2.4 7.7-4.6 1.2-0.6 2.4-1.2 3.4-1.9 6.9-3.4 3.5-1.6 7.1-3 2.1-0.8 4.2-1.5 0.3-0.2 0.6-0.2 0.8-0.4 1.7-0.6c0.8-0.3 1.6-0.6 2.4-0.8q1.5-0.5 3-0.9 0.6-0.2 1.3-0.4 2.4-0.7 4.9-1.2 1-0.3 1.9-0.4 1.2-0.3 2.4-0.5 0.7-0.2 1.4-0.3 0.6-0.2 1.2-0.2 1.3-0.3 2.5-0.5 0.5-0.1 0.9-0.1 0.5-0.1 1-0.2 3-0.4 6-0.7 0.1-0.1 0.1-0.1h0.1q0.4 0 0.9-0.1 0.3 0 0.6 0 1.1-0.1 2.3-0.2 0.4-0.1 0.7-0.1 0.1 0 0.1 0 1.2-0.1 2.4-0.1 0.2 0 0.4 0 0.3-0.1 0.6-0.1 0 0 0.1 0 0.1 0 0.2 0 0.5 0 1 0 0.3-0.1 0.6-0.1 0.6 0 1.2 0 0.2 0 0.3 0h0.3q1.3-0.1 2.5-0.1 0.1 0 0.1 0 0.7 0 1.4 0h0.3q2.1 0 4.1 0.1h0.2q0.2 0 0.4 0 0.4 0 0.7 0 0.5 0 1 0.1 0.5 0 1 0c0 0 0 0 0 0q0.4 0 0.9 0.1 0-0.1 0.1 0 0.3 0 0.6 0 0.3 0 0.5 0 0.1 0 0.3 0c0.3 0 0.7 0.1 1 0.1q0.2 0 0.3 0 0.3 0 0.5 0.1 0.2 0 0.4 0 0.8 0 1.7 0.2 0.1-0.1 0.3 0 0.3 0 0.6 0 0.3 0.1 0.5 0.1c0 0 0 0 0 0q0.6 0 1.1 0.1 0.2 0 0.4 0 0.1 0 0.2 0.1 0.3 0 0.6 0 1 0.1 2.1 0.3 0.7 0.1 1.5 0.2 0.5 0 1 0.2 1.2 0.1 2.4 0.3 0.2 0 0.5 0.1 1.2 0.2 2.4 0.5 0.6 0 1.1 0.2 0.9 0.1 1.8 0.3 0.7 0.1 1.3 0.3 0.6 0.1 1.2 0.3 0.3 0 0.5 0.1c0 0 0 0 0 0q0.5 0.1 0.9 0.2 2 0.5 4 1 1.1 0.3 2.2 0.6 0.8 0.3 1.6 0.6c0.1-0.1 0.1 0 0.1 0q0.6 0.1 1.3 0.4 2.1 0.6 4.1 1.4 1.3 0.4 2.5 0.9 0.3 0 0.6 0.2 1.2 0.4 2.4 0.9 0.9 0.3 1.7 0.7 0 0 0 0c0.6 0.3 1.2 0.5 1.8 0.8q1.9 0.8 3.7 1.7 0.7 0.3 1.3 0.6 1.8 0.8 3.5 1.7 2.3 1.2 4.6 2.6 3.1 1.7 6.2 3.7c0.3 0.2 0.6 0.4 0.9 0.6l0.7 0.3 0.3 0.3q2 1.4 4 2.8 0.4 0.3 0.8 0.7 5.6 4 10.8 8.6h0.1l1.5 1.5q0.2 0.2 0.5 0.4l0.1 0.1 2.1 2c8 7.7 15.4 16.5 21.9 26.2 2.6 3.9 5.1 7.9 7.5 12 0.1 0.3 0.4 0.7 0.6 1.1 4.8 8.5 9 17.7 12.6 27.3 0.9 2.3 1.7 4.6 2.6 7.1v0.1q0 0.1 0 0.2c0.9 2.5 1.7 5.1 2.5 7.6 3.3 11.2 5.9 22.9 7.6 34.8 1.8 12.6 2.8 25.7 2.8 38.9zm-109.8-179.6q0 0 0 0-0.4-0.2-0.8-0.3-0.1-0.1-0.2-0.1-0.6-0.2-1.2-0.4-1.4-0.5-2.8-0.9-0.1 0-0.1 0-0.4-0.2-0.8-0.3-0.8-0.2-1.5-0.4-0.5-0.2-0.9-0.3-0.1 0-0.1 0-0.7-0.2-1.4-0.4-0.2-0.1-0.3-0.1-0.6-0.1-1.1-0.3-1.3-0.3-2.5-0.6-1.7-0.4-3.5-0.8-1.2-0.2-2.5-0.5 0 0 0 0-0.6-0.1-1.1-0.2-1.5-0.3-3.1-0.5-0.4-0.1-0.8-0.1-0.5-0.1-1.1-0.2 0.1 0.3 0.2 0.6-0.9-0.1-1.9-0.2-6.8-0.7-13.9-0.8-0.8 1.8-1.6 3.5-0.2 0.4-0.4 0.9l0.1 0.1q0 0-0.1 0-5.8 0.5-11.4 1.6l-3.7 0.4-0.9 0.1-0.3 0.1q0 0-0.1 0l-2 0.2q0 0 0 0-0.1 0-0.2 0.1-0.2-0.1-0.3 0-0.3 0-0.5 0-0.2 0-0.4 0.1-0.4 0-0.8 0.1-0.3 0-0.6 0.1-0.1 0-0.1 0-0.4 0-0.8 0.1-0.2 0-0.5 0.1-0.5 0-1 0.1-0.3 0-0.5 0.1-0.2 0-0.3 0.1-0.2 0-0.4 0-0.4 0.1-0.7 0.1-0.3 0.1-0.5 0.1-0.5 0.1-1 0.2-0.1 0-0.3 0.1-0.5 0-1 0.1-0.1 0-0.3 0.1c-0.2 0-0.5 0.1-0.8 0.1q-0.7 0.2-1.4 0.4-0.1 0-0.3 0-0.7 0.2-1.4 0.4-0.2 0-0.4 0-0.6 0.2-1.2 0.3-0.5 0.1-1.1 0.3-0.9 0.2-1.7 0.5 0-0.1-0.1 0-0.5 0.1-1 0.3-0.3 0-0.6 0.1-0.7 0.2-1.3 0.4-0.5 0.2-1.1 0.4-1.8 0.5-3.7 1.2-2.1 0.6-4.1 1.5 0-0.1-0.1 0-1.8 0.6-3.5 1.4-1.3 0.5-2.6 1.1-2.1 1-4.1 2-5.9 2.9-11.5 6.5-0.9 0.6-1.9 1.3c-8 5.3-15.5 11.6-22.3 18.8-2.2 2.2-4.2 4.5-6.1 6.7-3.3 4-6.6 8.3-9.6 12.8-1.9 2.8-3.8 5.8-5.6 9-6.3 10.5-11.5 22.1-15.8 34.4l-0.1 0.6q-0.2 0.5-0.4 1l-0.2 0.6q-0.9 2.6-1.6 5.2c-3.4 10.9-5.9 22.5-7.6 34.3-1.7 11.9-2.5 24.1-2.5 36.3q0 3.2 0.1 6.4c0 1.6 0 3.2 0.1 4.7 0.1 0.9 0.1 1.6 0.1 2.3l0.1 0.2q0 1.3 0.1 2.6c0.1 0.9 0.1 1.7 0.2 2.5 0.9 11.1 2.6 21.8 5.1 31.8 2.3 9.5 5.4 18.5 9.2 26.7q0.9 1.9 1.8 3.7 1.3 2.5 2.6 4.9 0.6 1.1 1.3 2.3 1.3 2.2 2.7 4.3l0.2 0.4 0.3 0.4c5.5 8.5 12.2 16 19.6 22.5 0.6 0.5 1.2 1 1.7 1.5q0.4 0.2 0.7 0.5l1.2 1c1.3 1.1 2.8 2.2 4.3 3.3q0.2 0.1 0.3 0.2 0.1 0 0.2 0.1c22.7 16.1 53 24.2 89.9 24.2 35.8 0 65.4-7.7 87.8-22.9q2.2-1.5 4.5-3.1l0.5-0.4q0.2-0.2 0.5-0.4c3.5-2.7 6.8-5.6 9.9-8.7 3.2-3.2 6.3-6.6 9.1-10.2 2.3-2.9 4.5-6 6.5-9.2q0.9-1.4 1.7-2.8l0.2-0.3q0.3-0.4 0.5-0.8 0.8-1.4 1.6-2.8l0.8-1.6q1.1-2.1 2.2-4.2c4.3-9.1 7.9-19.2 10.5-29.9 2.1-8.8 3.6-18.2 4.5-27.9q0.3-2.9 0.4-5.9c0.1-0.9 0.1-1.6 0.2-2.3 0.2-4.3 0.3-8.7 0.3-13.1 0-12.5-0.9-24.9-2.6-36.9-1.7-11.2-4.1-22.3-7.2-32.8q-1.1-3.7-2.3-7.2v-0.1q-0.1-0.1-0.1-0.2-0.4-1.2-0.8-2.3-0.8-2.2-1.5-4.3c-3.4-8.9-7.4-17.5-11.8-25.4q-0.2-0.4-0.5-0.9c-2.2-3.9-4.5-7.6-6.9-11.2-6.1-8.9-12.8-17-20.1-24l-4.3-3.9c-3.4-3-6.9-5.8-10.6-8.4q-1.6-1.2-3.3-2.3l-0.9-0.6c-0.6-0.4-1.1-0.7-1.7-1q-1.8-1.2-3.7-2.3-0.4-0.3-0.8-0.5-1.3-0.7-2.6-1.4-0.9-0.5-1.8-0.9-1.3-0.7-2.6-1.3-0.6-0.4-1.1-0.6-1.9-0.9-3.8-1.7-2.2-1-4.3-1.8-0.3-0.1-0.5-0.2-0.8-0.3-1.6-0.5-0.3-0.2-0.6-0.3-0.3-0.1-0.7-0.2-0.1-0.1-0.1-0.1 0 0 0 0-0.2 0-0.4-0.1-0.2-0.1-0.5-0.2 0.3 0.1 0.5 0.2-0.2-0.1-0.5-0.2-0.5-0.2-1-0.3 0-0.1-0.1 0-0.2-0.1-0.3-0.2 0 0-0.1 0 0 0-0.1 0 3.1-2.5 6.8-5 0.1-0.1 0.1-0.1-0.5-0.2-1-0.3-0.2 0-0.4-0.1zm-1.6 6.9q-0.3-0.2-0.6-0.3 0.3 0.1 0.6 0.3zm-1.4-0.6q0 0 0 0 0 0 0 0z"/>
					</g>
				</g>
			</g>
		</g>
	</g>
</svg>