<svg version="1.2" xmlns="http://www.w3.org/2000/svg" viewBox="0 0 277 400" width="277" height="400">
	<title>Artwork</title>
	<style>
		.s0 { fill: #ffffff } 
		.s1 { fill: #ee303c } 
		.s2 { fill: #d12435 } 
		.s3 { fill: #231f20 } 
		.s4 { fill: #01982f } 
	</style>
	<g id="Artwork">
		<g id="&lt;Group&gt;">
			<g id="-e-&lt;Group&gt;">
				<g id="&lt;Group&gt;">
					<g id="&lt;Group&gt;">
						<path id="&lt;Path&gt;" class="s0" d="m253.6 250.1c-29.6-49-40-93.1-43.7-117.6-0.8-5.1-1.2-10.3-1.5-15.5q-0.2-2.3-0.5-4.5 0-0.2 0-0.2c-4.5-34.2-33.8-60.7-69.3-60.7-35.5 0-64.8 26.5-69.4 60.7q0 0 0 0.2-0.3 2.2-0.5 4.5c-0.3 5.2-0.7 10.4-1.5 15.5-3.6 24.5-14 68.6-43.7 117.6-10 14.6-15.9 32.3-16 51.3-0.1 49.8 40.8 91 90.7 91.2 7.8 0 15.5-0.9 22.8-2.8 11.5-2.9 23.6-2.9 35.2 0 7.2 1.9 14.9 2.8 22.8 2.8 49.8-0.2 90.7-41.4 90.6-91.2-0.1-19-6-36.7-16-51.3z"/>
					</g>
					<g id="&lt;Group&gt;">
						<path id="&lt;Path&gt;" class="s1" d="m276.9 301.4c0 36.6-20.1 68.7-49.9 85.7q-0.9 0.3-1.8 0.6c-2 0.7-4.2 1.4-6.3 1.9-7.3 1.9-14.8 3-22.6 3q-3.1 0-6.1-0.2-0.8 0-1.7-0.1-0.6 0-1.3-0.1 0 0 0 0-1.3-0.1-2.7-0.3-1.4-0.2-2.8-0.4-4.2-0.7-8.2-1.7c-8.6-2.2-17.5-2.8-26.3-1.7q-4.5 0.6-8.9 1.7-2.7 0.7-5.4 1.2-1.4 0.3-2.8 0.5-1.4 0.2-2.8 0.4-2 0.3-4 0.4-0.8 0.1-1.7 0.1-3 0.2-6.1 0.2-2.3 0-4.6-0.1-1.2-0.1-2.3-0.2-0.7 0-1.3-0.1 0 0 0 0-0.5 0-1-0.1-1.1-0.1-2.3-0.3-1-0.1-2-0.3c-0.4 0-0.8-0.1-1.2-0.2q-0.9-0.1-1.9-0.3-1.3-0.2-2.6-0.6-1.1-0.2-2.2-0.5-1.2-0.3-2.3-0.6-0.7-0.1-1.3-0.4-1-0.2-1.8-0.5-1.1-0.3-2.1-0.7-0.7-0.2-1.5-0.5c-0.5-0.2-1-0.4-1.5-0.6q-0.6-0.2-1.2-0.5-0.8-0.3-1.7-0.7-1-0.4-2-0.8c-1.4-0.7-2.9-1.4-4.3-2.1q-1.5-0.8-3-1.7-0.1 0-0.1 0c-5.7-3.3-11-7.1-15.8-11.4q-0.9-0.8-1.7-1.6-0.9-0.8-1.7-1.6-0.8-0.8-1.6-1.6c-0.5-0.5-1.1-1.1-1.6-1.7-14.9-16.2-24.1-37.9-24-61.5 0-19 5.9-36.7 16-51.3 29.6-49 40-93.1 43.7-117.6 0.7-5.1 1.1-10.3 1.5-15.5q0.2-2.3 0.4-4.5 0-0.2 0-0.2h0.1c2.8-21.3 15.2-39.6 32.7-50.3 3-1.9 6.1-3.5 9.3-4.8q6.9-3 14.4-4.4 1.1-0.2 2.1-0.3 1.1-0.2 2.1-0.3 0.6-0.1 1.1-0.1 0.5-0.1 1-0.2 3.3-0.2 6.6-0.3c7.6 0 14.9 1.2 21.7 3.5 18.3 10.7 31.9 28.9 36.5 50.5l1.1 6.4q0.3 2.2 0.4 4.5c0.2 2.4 0.4 5 0.6 7.5 0.2 2.5 0.5 5 0.9 7.4 3.3 22 13.2 66.1 42.7 114.9 11.1 16.3 17 35.3 17.1 55.1z"/>
					</g>
					<g id="&lt;Group&gt;">
						<path id="&lt;Path&gt;" class="s2" d="m233.5 384.4q3-1.4 5.9-3-2.9 1.6-5.9 3z"/>
						<path id="&lt;Path&gt;" class="s2" d="m259.8 246.3c-29.5-48.8-39.4-92.9-42.7-114.9-0.4-2.4-0.7-4.9-0.9-7.4-0.2-2.5-0.4-5.1-0.6-7.5q-0.1-2.3-0.4-4.5l-1.1-6.4c-4.6-21.6-18.2-39.8-36.5-50.5-6.8-2.3-14.1-3.5-21.7-3.5q-3.3 0.1-6.6 0.3-0.5 0.1-1 0.2-0.5 0-1.1 0.1-1 0.1-2.1 0.3-1 0.1-2.1 0.3-7.5 1.4-14.4 4.4c4.6 14.8 14.8 39.2 36 55.4 10.6 8.1 17.8 20 21 33 5.7 23.3 16.5 54.2 36.6 87.5 9.4 13.7 15 30.4 15.1 48.3 0.1 47-38.5 85.8-85.5 86-7.4 0-14.6-0.9-21.5-2.7-10.8-2.7-22.2-2.7-33.1 0-6.9 1.8-14.1 2.7-21.5 2.7-9.4 0-18.4-1.6-26.8-4.5 0.5 0.6 1.1 1.2 1.6 1.7q0.8 0.8 1.6 1.6 0.8 0.8 1.7 1.6 0.8 0.8 1.7 1.6c4.8 4.3 10.1 8.1 15.8 11.4q0 0 0.1 0 1.5 0.9 3 1.7c1.4 0.7 2.9 1.4 4.3 2.1q1 0.4 2 0.8 0.9 0.4 1.7 0.7 0.6 0.3 1.2 0.5c0.5 0.2 1 0.4 1.5 0.6q0.8 0.3 1.5 0.5 1 0.4 2.1 0.7 0.8 0.3 1.8 0.5 0.6 0.3 1.3 0.4 1.1 0.3 2.3 0.6 1.1 0.3 2.2 0.5 1.3 0.4 2.6 0.6 1 0.2 1.9 0.3c0.4 0.1 0.8 0.2 1.2 0.2q1 0.2 2 0.3 1.2 0.2 2.3 0.3 0.5 0.1 1 0.1 0 0 0 0 0.6 0.1 1.3 0.1 1.1 0.1 2.3 0.2 2.3 0.1 4.6 0.1 3.1 0 6.1-0.2 0.9 0 1.7-0.1 2-0.1 4-0.4 1.4-0.2 2.8-0.4 1.4-0.2 2.8-0.5 2.7-0.5 5.4-1.2 4.4-1.1 8.9-1.7c8.8-1.1 17.7-0.5 26.3 1.7q4 1 8.2 1.7 1.4 0.2 2.8 0.4 1.4 0.2 2.7 0.3 0 0 0 0 0.7 0.1 1.3 0.1 0.9 0.1 1.7 0.1 3 0.2 6.1 0.2c7.8 0 15.3-1.1 22.6-3 2.1-0.5 4.3-1.2 6.3-1.9q0.9-0.3 1.8-0.6c29.8-17 49.9-49.1 49.9-85.7-0.1-19.8-6-38.8-17.1-55.1z"/>
					</g>
					<g id="&lt;Group&gt;">
						<path id="&lt;Compound Path&gt;" fill-rule="evenodd" class="s3" d="m276.9 301.4c0 36.6-20.1 68.7-49.9 85.7-14.2 8-30.6 12.7-48 12.8h-0.4c-8.2 0-16.3-1-24.2-3.1-10.4-2.6-21.3-2.6-31.7 0-7.9 2.1-16.2 3.1-24.6 3.1-54.1-0.2-97.9-44.4-97.8-98.5 0-19.8 5.9-38.8 17-55.1 29.6-48.8 39.5-92.9 42.7-114.9 0.8-5 1.2-10.1 1.5-14.9q0.1-2.2 0.4-4.5l1.1-6.2c6.9-33.1 34.8-57.9 68.4-61.1q3.5-0.3 7.2-0.3 2.9 0 5.8 0.2c12 0.9 23.3 4.6 33.2 10.5 18.3 10.7 31.9 28.9 36.5 50.5l1.1 6.4q0.3 2.2 0.4 4.5c0.3 4.8 0.7 9.9 1.5 14.9 3.3 22 13.2 66.1 42.7 114.9 11.1 16.3 17 35.3 17.1 55.1zm-14.6 0c0-16.9-5.1-33.3-14.7-47.2l-5-8.4c-27.2-47.7-36.6-90.4-39.9-112.2-0.8-5.6-1.2-11-1.6-16.1q-0.1-2.1-0.4-4v-0.3c-3.4-24.9-21.4-44.9-44.6-51.7-5.6-1.7-11.5-2.6-17.5-2.6-6.7 0-13.2 1.1-19.3 3.1-22.4 7.2-39.7 26.9-42.9 51.3v0.2q-0.3 1.9-0.4 4c-0.3 4.8-0.8 10.5-1.6 16.1-3.3 21.8-12.8 64.6-40.1 112.4l-4.8 8.2c-9.6 13.9-14.7 30.3-14.7 47.2-0.1 36.7 23.6 68 56.5 79.4q0 0 0.1 0c8.4 2.9 17.4 4.5 26.8 4.5 7.1 0.1 14.1-0.8 21-2.5 6.3-1.6 12.8-2.5 19.4-2.5 6.5 0 13 0.9 19.3 2.5 6.8 1.7 13.7 2.6 20.7 2.6 0.1 0 0.2-0.1 0.3-0.1 46.1-0.1 83.5-37.8 83.4-83.9z"/>
					</g>
					<g id="&lt;Group&gt;">
						<path id="&lt;Path&gt;" class="s3" d="m132.8 53.2c-0.1-0.5-0.2-0.9-0.3-1.3q-0.2-0.5-0.3-1-0.2-1.1-0.4-2.1c-0.2-1.4-0.3-2.8-0.4-4.2-0.1-2.8-0.1-5.6 0.4-8.3 0.9-5.6 2.9-11 5.7-15.9l2.3-3.5c0.8-1.2 1.8-2.2 2.6-3.3 1.8-2.2 3.8-4 5.8-5.9 2-1.9 4.2-3.4 6.3-5.1q0.7-0.4 1.3-0.8c2.9-1.9 6.8-0.8 8.3 2.3l3.7 7.9c1.4 3 0.1 6.5-2.9 7.8-1.7 0.9-3.5 1.7-5.1 2.8-1.6 1.1-3.3 2.1-4.6 3.3-0.7 0.7-1.6 1.2-2.2 1.9l-1.9 2c-2.3 2.8-4.2 6-5.4 9.6-0.7 1.7-1 3.6-1.3 5.4-0.1 1-0.2 1.9-0.2 2.8q0 0.7 0 1.4 0 0.3 0.1 0.6c0 0.2 0 0.5 0 0.5z"/>
					</g>
				</g>
				<g id="&lt;Group&gt;">
					<g id="&lt;Group&gt;">
						<path id="&lt;Path&gt;" class="s0" d="m253.6 141.6c-121.9-25.1-98.5-115.7-98.5-115.7 20.7-2.5 73.6 18.4 84.2 72.6 1 5.4 2.1 10.8 3.7 16.1 5.1 17.9 8.6 24.5 10.8 26.7 0.1 0.2 0 0.4-0.2 0.3z"/>
					</g>
					<g id="&lt;Group&gt;">
						<path id="&lt;Path&gt;" class="s4" d="m260.5 138.2q-5.3-1.3-10.3-2.7c-9.9-2.9-18.6-6.2-26.2-10-55.1-26.6-56.8-72.5-54.9-91.2 0.3-3.3 0.7-5.8 1-7.2 0.2-0.8 0.3-1.2 0.3-1.2 7.6-0.9 19.8 1.4 32.5 7.6 19.6 12.8 37.7 33.8 43.5 63.6 1.1 5.9 2.2 10.7 3.5 15.5 5.7 19.8 8.8 23.4 9.2 23.8q0.8 0.8 1.4 1.8z"/>
					</g>
					<g id="&lt;Group&gt;">
						<path id="&lt;Compound Path&gt;" fill-rule="evenodd" class="s3" d="m260.7 145c-1.3 2.5-3.8 4-6.5 4q-0.7 0-1.5-0.1c-44.3-9.1-75.4-27.5-92.5-54.9-21.1-33.8-12.5-68.4-12.1-69.9 0.8-2.8 3.2-5 6.1-5.4 12.1-1.5 31 3.3 48.7 14.8 19.6 12.8 37.7 33.8 43.5 63.6 1.1 5.9 2.2 10.7 3.5 15.5 5.7 19.8 8.8 23.4 9.2 23.8q0.8 0.8 1.4 1.8c1.2 2 1.3 4.6 0.2 6.8zm-88-58.4c10.6 16.8 27.7 29.9 51.3 38.9q7.8 3.1 16.6 5.5c-1.4-3.8-2.9-8.5-4.6-14.4-1.5-5.2-2.6-10.5-3.9-16.7-7.7-39.9-41-60.6-63-65.6-2.8-0.7-5.5-1.1-7.8-1.3-1.3 10-2.1 32.2 11.4 53.6z"/>
					</g>
				</g>
			</g>
		</g>
	</g>
</svg>