<svg version="1.2" xmlns="http://www.w3.org/2000/svg" viewBox="0 0 454 383" width="454" height="383">
	<title>Artwork</title>
	<style>
		.s0 { fill: #ffffff } 
		.s1 { fill: #fcda01 } 
		.s2 { fill: #febd01 } 
		.s3 { fill: #231f20 } 
	</style>
	<g id="Artwork">
		<g id="&lt;Group&gt;">
			<g id="-e-&lt;Group&gt;">
				<g id="&lt;Group&gt;">
					<g id="&lt;Group&gt;">
						<path id="&lt;Path&gt;" class="s0" d="m76 26.3c0 0 18.6 25.9 15.7 50.2-3.4 30.2-1.6 54.5 20.2 78.8 41.4 46.3 116.2 63.3 175.6 54.2 51.2-7.9 110-36.5 133.9-85.1q2.1-4.2 4.4-8.3c2.6-4.8 6.6-15.1 1.2-23.7-6.2-10.1-10.6-10.9-21.3-6.8-61.6 22.8-114.5 57-187.7 37.4-45.2-12.2-113.5-49.1-110.5-105l-9.5-8z"/>
					</g>
					<g id="&lt;Group&gt;">
						<path id="&lt;Path&gt;" class="s1" d="m433.2 114.1v0.4q0 0.6-0.1 1.1-0.1 0.8-0.2 1.6-0.6 1.2-1.1 2.2c-1.8 3.2-3.1 5.7-4.3 8.1-26.5 53.8-91.4 81.4-139 88.7-9.9 1.6-20.7 2.4-31.9 2.4-41.7 0-89.6-11.1-126.2-37.6q0 0-0.1-0.1c-0.3-0.2-0.7-0.5-1-0.8q-3.7-3.1-7.2-6.5-3.5-3.3-6.7-6.9-3.8-4.3-6.9-8.7-1.2-1.7-2.3-3.4c-0.8-1.2-1.4-2.3-2.1-3.5q-1-1.8-1.9-3.5-0.4-0.9-0.8-1.8-0.9-1.7-1.6-3.5-0.7-1.8-1.3-3.5-0.6-1.8-1.2-3.6-0.7-2.4-1.2-4.8c-3-13.2-2.6-27.1-0.8-42.5 1.1-10.2-1.4-20.6-4.8-29.3q0-0.1 0-0.1c-4.7-12.1-11-20.9-11-20.9l2.3-1.7 5.6-4.1 13.2-9.8 0.9-0.7 6.4 8.1 5.7 7.1c-0.3 5.4 0.1 10.4 0.9 14.9 4.1 22.2 19.4 33.5 19.4 33.5 8.7 7.8 18 15.1 27.8 21.7q0.1 0 0.1 0c18.3 12.3 38.4 22 59.8 27.7 73.1 19.7 126-14.5 187.6-37.3q0.2-0.1 0.4-0.2c4.6-1.7 8-2.5 10.9-2 2.1 0.4 4 1.5 5.9 3.4 1.1 1.1 2.1 2.5 3.3 4.2q0.4 0.7 0.8 1.4c2.1 3.3 2.8 6.9 2.7 10.3z"/>
					</g>
					<g id="&lt;Group&gt;">
						<path id="&lt;Path&gt;" class="s2" d="m433.2 114.1q0 0.2 0 0.4 0 0.6-0.1 1.1 0 0.7-0.2 1.5c0 0 0 0 0 0q0 0.3-0.1 0.5 0.1-0.2 0.1-0.4-0.6 1.2-1.1 2.2c-1.8 3.2-3.1 5.7-4.3 8.1-26.5 53.8-91.4 81.4-139 88.7-9.9 1.6-20.7 2.4-31.9 2.4-41.7 0-89.6-11.1-126.2-37.6q-0.6-0.4-1.1-0.9-3.7-3.1-7.2-6.5-3.5-3.3-6.7-6.9c-2.6-2.9-4.8-5.8-6.9-8.7q-1.2-1.7-2.3-3.4c-0.8-1.2-1.4-2.3-2.1-3.5q-1-1.8-1.9-3.5-0.4-0.9-0.8-1.8-0.9-1.7-1.6-3.5-0.7-1.8-1.3-3.5-0.6-1.8-1.2-3.6-0.7-2.4-1.2-4.8c-3-13.2-2.6-27.1-0.8-42.5 1.1-10.2-1.4-20.6-4.8-29.3q0-0.1 0-0.1c-4.7-12.1-11-20.9-11-20.9l2.3-1.7 3.6-2.6c2.5 7 5 13.2 6 16.1q3.3 9.4 7.3 18.2c9.4 20.8 21.5 39.3 36.4 54.9 23.2 24.6 53.2 42.3 89.4 51.2 62.3 15.3 106.6-2.8 147.7-23.3 13.6-6.7 26.8-14.2 39.6-22.4q0.8-0.6 1.6-1.1l10.1-6.5 9.7-6.3z"/>
					</g>
					<g id="&lt;Group&gt;">
						<path id="&lt;Path&gt;" class="s3" d="m412.3 84.8c0 0-5.5 9.1-2.6 12.1 2.9 3.1 7.6 10.4 14.9 7.2 7.2-3.1-5.6-21.8-12.3-19.3z"/>
					</g>
					<g id="&lt;Group&gt;">
						<path id="&lt;Compound Path&gt;" fill-rule="evenodd" class="s3" d="m432.9 117.1q0 0 0 0.1-0.6 1.2-1.1 2.2c-1.8 3.2-3.1 5.7-4.3 8.1-26.5 53.8-91.4 81.4-139 88.7-9.9 1.6-20.7 2.4-31.9 2.4-41.7 0-89.6-11.1-126.2-37.6q0 0-0.1-0.1c-8.5-6.2-16.4-13.2-23.5-21.1-23.2-25.9-25.5-52.3-21.8-84.1 2.4-21.4-14.4-45.2-14.6-45.5l-3.9-5.4 31.8-23.5 16.2 13.7-0.2 3.4c-2.9 54.3 67.7 87.9 105.5 98 56.7 15.2 101.1-3.4 148.1-23 11.5-4.8 23.3-9.7 35.4-14.2 12.1-4.6 20.8-4.5 29.5 9.6 6.6 10.6 3 22.1 0.1 28.3zm-10.2-12.4c0.4-2.8 0.2-6-1.5-8.7q-0.4-0.6-0.7-1.2c-3.5-5.4-4.7-5.7-11.2-3.3q-0.6 0.3-1.2 0.5c-11.9 4.4-23.6 9.3-34.9 14-49.3 20.6-95.8 40-156.9 23.6-15.2-4.1-35.3-11.8-54.5-23q0 0-0.1 0c-31.8-18.6-60.9-46.9-61.1-84.6v-0.9l-2.9-2.4-12.5 9.2c0.6 1.2 1.4 2.5 2.2 3.9 4.6 8.6 10.4 21.8 11.3 35.8 0.2 3.2 0.2 6.5-0.2 9.7-3.3 28.9-1.4 51.2 18.5 73.4 42.2 47.2 117.4 60.1 169.5 52.1 42.2-6.6 99.1-30 125.3-74.8q1.8-3.2 3.5-6.6c1.2-2.5 2.6-5.2 4.5-8.6 0.7-1.3 2.3-4.5 2.9-8.1z"/>
					</g>
				</g>
				<g id="&lt;Group&gt;">
					<g id="&lt;Group&gt;">
						<path id="&lt;Path&gt;" class="s0" d="m82.7 26.1c0 0 12.2 34.2 1.5 59.9-13.3 31.8-18.9 59-2.8 92.4 30.7 63.6 107.1 105.9 174.9 114.5 58.4 7.5 131.7-5.3 173.2-50.8 2.4-2.7 4.9-5.2 7.4-7.8 4.4-4.4 11.9-14.3 8.8-25.5-3.7-12.9-8.2-15.2-21.2-14.1-74.5 5.5-143.1 26.3-216.9-18.2-45.7-27.5-108.7-89.4-87.8-149.5l-7.9-11.8z"/>
					</g>
					<g id="&lt;Group&gt;">
						<path id="&lt;Path&gt;" class="s1" d="m228.4 301.1q5.9 1.4 11.6 2.6-5.8-1.2-11.6-2.6z"/>
						<path id="&lt;Path&gt;" class="s1" d="m445.6 234.4q0 0.2-0.1 0.4c-1.4 1.8-2.7 3.3-3.8 4.3-2.9 3-5.1 5.3-7.2 7.6-37.3 41-97 55-147.1 55-11.2 0-22-0.7-32-2-57-7.3-130.6-41.1-169.1-98.9q0-0.1 0-0.1-2.5-4.3-4.6-8.7c-7.9-16.3-10.6-31-9.7-45.6q0.1-2.3 0.3-4.7 0.4-3.1 0.9-6.3 0.6-3.2 1.3-6.4 0.4-1.6 0.8-3.2 1.2-4.8 2.9-9.7c1.8-5.4 3.9-10.9 6.2-16.6 4.5-10.7 5-22.8 4.1-33.3q-0.1-0.2 0-0.3v-0.1c-0.5-4.7-1.2-9.1-2-12.8q0-0.3-0.1-0.6-0.3-1.7-0.7-3.2 0-0.2-0.1-0.5-0.2-0.9-0.4-1.7c-0.6-2.5-1.2-4.5-1.6-5.8q-0.2-0.5-0.3-0.9-0.3-0.7-0.3-0.7l3.1-1.1 4.8-1.8 1.6-0.7 19.6-7.2 0.1-0.1 4.4 10.8 4 9.6c-2 5.8-3.2 11.4-3.6 16.6-2.5 25.6 10.6 42.7 10.6 42.7q6.3 10 13.4 19.5 0.1 0.1 0.1 0.2c18.3 24.5 40.5 46.1 66.8 61.9 73.8 44.5 142.4 23.7 216.9 18.2q0.2 0 0.5 0c6.2-0.5 10.5-0.2 13.6 1.9 1.7 1.1 3.1 2.7 4.3 4.9 0.8 1.5 1.6 3.4 2.3 5.7q0.2 0.8 0.5 1.7c1.2 4.3 0.8 8.4-0.4 12z"/>
					</g>
					<g id="&lt;Group&gt;">
						<path id="&lt;Path&gt;" class="s2" d="m445.6 234.4q0 0.2-0.1 0.4c-1.4 1.8-2.7 3.3-3.8 4.3-2.9 3-5.1 5.3-7.2 7.6-37.3 41-97 55-147.1 55-11.2 0-22-0.7-32-2-57-7.3-130.6-41.1-169.1-98.9q0-0.1 0-0.1-2.5-4.3-4.6-8.7c-7.9-16.3-10.6-31-9.7-45.6q0.1-2.3 0.3-4.7 0.4-3.1 0.9-6.3 0.6-3.2 1.3-6.4 0.4-1.6 0.8-3.2 1.2-4.8 2.9-9.7c1.8-5.4 3.9-10.9 6.2-16.6 4.5-10.7 5-22.8 4.1-33.3q-0.1-0.2 0-0.3c-0.5-4.7-1.2-9.1-2-12.9q0-0.3-0.1-0.6-0.3-1.7-0.7-3.2 0-0.2-0.1-0.5-0.2-0.9-0.4-1.7c-0.6-2.5-1.2-4.5-1.6-5.8q-0.2-0.5-0.3-0.9-0.3-0.7-0.3-0.7l3.1-1.1 4.8-1.8c0.5 8.5 1.2 16 1.4 19.6q0.6 9.8 1.9 19.4c3.5 26.7 11.1 51.6 22.8 74.2 17.8 34.2 44.9 62.9 81.7 84.1 63.3 36.3 117.4 30.4 168.8 21 17.7-3.2 35.1-7.5 52.2-12.7q0.1 0 0.2 0l13.2-4z"/>
					</g>
					<g id="&lt;Group&gt;">
						<path id="&lt;Path&gt;" class="s3" d="m431.9 195.9c0 0-8.8 8.2-6.6 12.4 2.2 4.2 5.1 13.7 14 12.6 8.9-1.2 0.8-25.6-7.4-25z"/>
					</g>
					<g id="&lt;Group&gt;">
						<path id="&lt;Compound Path&gt;" fill-rule="evenodd" class="s3" d="m445.5 234.8c-1.4 1.8-2.7 3.3-3.8 4.3-2.9 3-5.1 5.3-7.2 7.6-37.3 41-97 55-147.1 55-11.2 0-22-0.7-32-2-57-7.3-130.6-41.1-169.1-98.9q0-0.1 0-0.1c-4.1-6.2-7.8-12.6-11.1-19.3-17-35.3-11.2-64.8 2.7-98.1 9.5-22.9-1.5-54.7-1.6-55l-2.2-6.3 40.5-15.1 12.7 19.1-1.1 3.2c-20.4 59.1 46.6 118.4 84.9 141.5 57.5 34.6 112 28.2 169.8 21.5 14-1.6 28.5-3.2 43.1-4.3 14.5-1.2 23.3 1.5 28.3 19.1 3.3 11.7-2.1 21.7-6.8 27.8zm-13.5-5.3c1.3-1.3 4.2-4.5 6-8.5 1.4-3.1 2.2-6.7 1.1-10.3q-0.1-0.3-0.2-0.6c-2.3-8-3.6-9.3-11.7-8.8q-1 0.1-2.1 0.2c-14.4 1.1-28.8 2.7-42.7 4.3-60.1 7-116.9 13.6-178.3-23.5-18.6-11.1-43.3-30.4-63-54.2q0-0.1-0.1-0.2c-23.3-28.4-39.4-63.3-28.9-99.1q0.1-0.4 0.2-0.8l-3-4.5-18.2 6.7q0.7 2.6 1.4 5.8c2.3 10.2 4.3 25.1 1.7 39.7-0.8 4.4-2 8.7-3.7 12.9-12.9 30.7-17.8 56-2.9 86.8 31.4 65.2 109.9 103.1 169.6 110.8 48.9 6.2 119.7-1.7 162.5-43.9 1.6-1.5 3.2-3.2 4.7-4.8 2.2-2.4 4.5-4.8 7.6-8z"/>
					</g>
				</g>
				<g id="&lt;Group&gt;">
					<g id="&lt;Group&gt;">
						<path id="&lt;Path&gt;" class="s0" d="m65.8 32.3c0 0-1.4 36.3-20.9 56.1-24.2 24.7-39.5 47.9-36.9 84.9 4.9 70.5 60.2 138 120 171.2 51.3 28.5 123.7 43.8 179 17.4q5.1-2.5 10.4-4.8c5.8-2.5 16.4-8.9 17.7-20.4 1.4-13.4-2-17.2-14.5-21.1-71.2-22.4-142.6-28.6-194.6-97.3-23.4-30.8-37.4-67.7-44.3-105.6 0 0-8.5-30 15.5-57.6l12.4-19.4c2.3-3.6-0.6-8.2-4.7-7.7z"/>
					</g>
					<g id="&lt;Group&gt;">
						<path id="&lt;Path&gt;" class="s1" d="m341.9 337.2v0.1q-0.1 0.1-0.2 0.2-0.1 0.1-0.2 0.3-1.1 1.3-2.3 2.3-0.6 0.6-1.2 1 0 0.1 0 0.1-1.4 1.1-2.8 2.1-1.6 1.1-3.1 1.9c-0.9 0.5-1.8 0.9-2.6 1.3q-0.3 0.2-0.7 0.3l-1.6 0.7q-1.6 0.7-3.3 1.5c-1.2 0.6-2.5 1.1-3.7 1.7q-0.6 0.3-1.1 0.5-7.6 3.7-15.5 6.4-2 0.7-4 1.2-4.7 1.4-9.5 2.5-1.4 0.3-2.8 0.6c-30.2 6.3-63 3.3-93.6-5.3-2.4-0.7-4.8-1.4-7.2-2.2-12-3.7-23.6-8.4-34.4-13.6q-6.5-3.1-12.7-6.5c-14.9-8.4-29.6-18.8-43.2-30.9-6.9-6.1-13.5-12.5-19.7-19.3q-3.5-3.9-6.9-7.9-3.3-4-6.5-8.1c-24.2-31-41-67.6-43.6-105.1-0.9-13 0.3-24.2 3.4-34.4q0 0 0.1-0.1c3.9-13 10.8-24.4 19.8-35.4q1.8-2.2 3.6-4.3 0.9-1 1.9-2.1 1.9-2.1 3.9-4.3c0 0 0 0 0 0q2-2.1 4.1-4.2c4.5-4.6 8-9.9 10.7-15.5 1.4-2.9 2.6-5.8 3.7-8.7 2-5.6 3.4-11 4.4-15.9q0-0.3 0.1-0.7 0.2-0.9 0.4-1.7 0-0.2 0-0.4 0.2-1.3 0.4-2.6 0.1-0.5 0.2-0.9 0-0.4 0.1-0.7 0-0.4 0.1-0.7 0-0.1 0-0.2 0.1-0.8 0.2-1.5 0-0.4 0.1-0.8 0.2-1.3 0.3-2.3 0-0.8 0.1-1.4c0.1-1.4 0.1-2.2 0.1-2.2q0 0 0 0l16.2 0.4 15 0.3v6.3l0.1 8.4 0.1 7.4c-7.8 9-12.2 18.2-14.5 26.6-10.8 20.3-6.1 38.6-5.8 39.5l0.1 0.6c7.3 40.1 21.8 74.7 43 102.7 40.5 53.4 93.5 67.8 149.6 83 13.6 3.7 27.7 7.5 41.7 11.9 13.8 4.3 21 10 19.2 28.1z"/>
					</g>
					<g id="&lt;Group&gt;">
						<path id="&lt;Path&gt;" class="s2" d="m341.7 337.5c-3.9 4.8-9.3 7.8-12.9 9.3-3.2 1.4-6.5 2.9-9.7 4.5-55.4 26.9-128.2 11.6-179.7-17.1-59.7-33.2-115-100.7-119.9-171.2-2.6-37 12.7-60.2 36.8-84.8 19.5-19.9 20.9-56.2 20.9-56.2l8.4 0.2c-2.7 8.1-4.8 15.4-5.9 18.7-10.8 32.4-14.9 64.8-11.8 96.1 3.8 38.4 18.3 75.2 44.7 108.4 45.3 57.2 97.7 71.9 148.9 82.2 17.7 3.5 35.5 6.1 53.4 7.6z"/>
					</g>
					<g id="&lt;Group&gt;">
						<path id="&lt;Path&gt;" class="s3" d="m327.1 319.6c0 0-11.2 4.3-10.8 9 0.5 4.8-0.3 14.7 8.4 16.9 8.7 2.2 10.2-23.5 2.4-25.9z"/>
					</g>
					<g id="&lt;Group&gt;">
						<path id="&lt;Compound Path&gt;" fill-rule="evenodd" class="s3" d="m341.9 337.2v0.1 0.1c-1.7 15.6-15.8 23.3-21.8 26-3.2 1.3-6.5 2.9-10.2 4.6-21.2 10.2-44.3 14.3-67.4 14.3-43.4 0-86.9-14.6-117.8-31.8-55.7-31-118.1-99.5-123.5-176.7-2.7-39.1 13.5-64.4 38.8-90.1 17.4-17.8 19-51.3 19-51.7l0.2-5.9 17.9-1.9 8.1-0.9 8.2-0.9 10.7-1.2c4.6-0.5 8.9 1.6 11.4 5.5 2.4 3.9 2.3 8.8-0.1 12.7l-13.1 20.1c-3.4 4-6.1 8-8.2 11.9-10.8 20.3-6.1 38.6-5.8 39.5l0.1 0.6c7.3 40.1 21.8 74.7 43 102.7 40.5 53.4 93.5 67.8 149.6 83 13.6 3.7 27.7 7.5 41.7 11.9 13.8 4.3 21 10 19.2 28.1zm-327.1-164.4c5.1 72.2 63.9 136.5 116.5 165.8 40.9 22.7 104.9 40.9 158.7 22.8q0.1-0.1 0.1-0.1 7.1-2.4 13.9-5.6c3.8-1.8 7.3-3.4 10.7-4.9 1.7-0.7 5.5-2.6 8.7-5.7 2.4-2.3 4.3-5.2 4.8-8.8q0-0.2 0.1-0.4c0.9-8.8 0.3-10.5-7.6-13.1q-1-0.3-2.1-0.6c-13.8-4.4-27.7-8.1-41.2-11.8-58.4-15.8-113.6-30.8-156.9-87.9-22.5-29.8-37.8-66.2-45.5-108.3-1-3.9-7.8-34.6 16.7-63.2l10.1-15.8-21 2.3-5.7 0.6-3 0.4c-0.6 5.5-2 14.4-5 24q-0.1 0.1-0.1 0.2c-3.3 10.5-8.7 21.8-17.2 30.5-11.5 11.7-20.7 22.9-26.8 35.3q-0.1 0.1-0.1 0.1c-6.3 12.8-9.3 26.9-8.1 44.2z"/>
					</g>
				</g>
				<g id="&lt;Group&gt;">
					<path id="&lt;Path&gt;" class="s3" d="m55.9 48.6c0 0-2.7-28.2 8.7-34.1 11.4-5.9 41-18.1 55.9-12.1 15 6 6.8 33.8-7.3 37.2-14.1 3.5-19.8 17.4-57.3 9z"/>
				</g>
			</g>
		</g>
	</g>
</svg>