<svg version="1.2" xmlns="http://www.w3.org/2000/svg" viewBox="0 0 370 415" width="370" height="415">
	<title>Artwork</title>
	<style>
		.s0 { fill: #ffffff } 
		.s1 { fill: #50c42b } 
		.s2 { fill: #231f20 } 
		.s3 { fill: #f96753 } 
		.s4 { fill: #f95332 } 
		.s5 { fill: #f7725c } 
	</style>
	<g id="Artwork">
		<g id="&lt;Group&gt;">
			<g id="-e-&lt;Group&gt;">
				<g id="&lt;Group&gt;">
					<g id="&lt;Group&gt;">
						<path id="&lt;Path&gt;" class="s0" d="m170.9 65.8c0 0-82.3-82.4-162.4-20.2-0.2 0.2 0 0.6 0.3 0.5 3.9-0.8 15.9-1.9 37 7.7 26.1 11.9 72.9 55 125.1 12z"/>
					</g>
					<g id="&lt;Group&gt;">
						<path id="&lt;Path&gt;" class="s1" d="m181.1 56.1q-2.7 2.3-5.5 4.2-3.1 2.3-6.2 4.1-1.1 0.7-2.2 1.3c-8.9 5-17.6 7.6-26.1 8.6-35.5 4.2-65.9-21.4-85.1-30.2-7.8-3.5-14.3-5.6-19.7-6.8-5.9-1.3-10.3-1.5-13.4-1.4-1.7 0.1-3 0.3-3.9 0.5-0.3 0.1-0.5-0.4-0.3-0.6 12.3-9.5 24.7-15.6 36.7-19.2h0.1c21.4-3.6 44-0.6 67.1 9.1 22 9.2 38.9 22.2 47.4 29.5q1.2-3.3 2.6-6.6c5.5 4.5 8.5 7.5 8.5 7.5z"/>
					</g>
					<g id="&lt;Group&gt;">
						<path id="&lt;Compound Path&gt;" fill-rule="evenodd" class="s2" d="m181.7 66.4l-0.9 0.7-5.3 4.3q-3.9 3.3-7.9 6-0.6 0.4-1.2 0.8-0.5 0.3-1 0.6-4 2.6-8 4.6c-1 0.5-2 0.9-3 1.4q-3.2 1.5-6.4 2.6c-3.3 1.2-6.6 2.1-9.9 2.7q-6.7 1.4-13.3 1.5-0.7 0.1-1.5 0c0 0 0 0 0 0-7.1 0-13.9-0.9-20.4-2.5q-5.9-1.5-11.5-3.6c-13-4.7-24.4-11.4-33.7-16.8-5.7-3.4-10.7-6.3-14.9-8.3-19.5-8.8-29.9-7.7-32.6-7.2-3.4 0.7-6.9-1-8.3-4.2-1.5-3.2-0.6-7 2.2-9.2 16-12.4 33.2-20.2 51.3-23.2h0.1c21.4-3.6 44-0.6 67.1 9.1 22 9.2 38.9 22.2 47.4 29.5 2.9 2.5 4.8 4.3 5.6 5.1 0.2 0.2 0.4 0.4 0.5 0.4zm-116.7-10.2c16 9.3 35.6 20.8 57.4 21 4.4 0 8.9-0.4 13.5-1.4q2.6-0.6 5.2-1.4c6-1.9 12.1-4.8 18.3-9-8.1-6.8-23.5-18.3-42.9-26.4-28.6-11.9-55.5-12.5-80.2-1.6h-0.1q-3.3 1.4-6.5 3.1c5.4 1.3 11.8 3.5 19 6.8 5 2.2 10.5 5.5 16.3 8.9z"/>
					</g>
				</g>
				<g id="&lt;Group&gt;">
					<path id="&lt;Path&gt;" class="s0" d="m346.4 274.8c17.2-36.7 21.8-78.9 5-117-21.4-48.3-69.3-81.1-122-83.5-21.4-1-41.9 2.9-60.4 10.6-5.9-1-12-1.7-18.1-2-76.4-3.5-137.1 54.4-143.2 129.7-7 88.1 70.3 156.8 145.6 188.2 21.7 9 46.2 8.8 67.6-0.8 46-20.4 88.2-63.3 114.7-105.5 4-6.4 7.6-12.9 10.8-19.7z"/>
				</g>
				<g id="&lt;Group&gt;">
					<path id="&lt;Path&gt;" class="s2" d="m229.4 25.4c-6.5 2-12.8 4.7-18.7 8-1.7 0.9-3.3 2.1-5 3.1-1.6 1.2-3.2 2.3-4.8 3.6-3.1 2.5-5.9 5.3-8.5 8.4-4.5 5.1-8.2 11-11.1 17.5q-0.3 0.6-0.5 1.1-0.5 1.2-1 2.3-0.8 2.1-1.5 4.4c0 0 0 0 0 0q-1.2 3.7-2 7.7-0.1 0.3-0.2 0.7-0.2 0.9-0.4 1.8-0.3 1.9-0.5 3.8-0.2 1.2-0.3 2.6c-0.1 1.2-0.1 2.4-0.2 3.5l-8.7 0.9q0-0.3 0-0.6-0.2-1.3-0.3-2.5c-0.2-1.4-0.3-2.8-0.3-4.3-0.1-1-0.1-2.1-0.1-3.1v-0.3c0-1.3 0-2.6 0.1-3.8q0-0.7 0-1.4 0-0.1 0.1-0.2 0-0.8 0.1-1.6 0.2-3.9 0.9-7.7 0.3-1.8 0.7-3.5 0-0.1 0-0.1 0.3-1.4 0.6-2.8 0.9-3.8 2.2-7.7 1.2-3.3 2.6-6.6c1.6-3.6 3.4-7.1 5.4-10.4 2.6-4.3 5.6-8.5 9-12.3 1.6-1.9 3.5-3.7 5.3-5.5 1.8-1.7 3.7-3.5 5.7-5 6.8-5.7 14.3-10.4 22.2-14.2 1.9-1 4.1-0.1 4.8 1.9l6.6 17.8c0.7 1.9-0.3 4-2.2 4.5z"/>
				</g>
				<g id="&lt;Group&gt;">
					<path id="&lt;Path&gt;" class="s3" d="m352.9 277.9h0.1c-3.3 7-7.1 13.8-11.2 20.4-30.5 48.6-74.6 89.1-118 108.4q-1.7 0.8-3.5 1.5c-8.3 0.8-16.7 0.3-25-1.3-5.4-1.1-10.9-2.8-16.1-5-2.5-1-5-2.1-7.5-3.2q-4.7-2.1-9.4-4.4-0.6-0.3-1.2-0.6-0.1 0-0.1 0c-69-34.3-133.9-98.9-127.4-180 4.6-57.1 40.7-104.2 91.2-122.1 0.4-0.1 0.7-0.3 1.1-0.3 8.3-2.9 17.1-5 26.1-6.2 0.8-0.1 1.6-0.2 2.4-0.3q4.5-0.5 9.1-0.7 0.9-0.1 1.8-0.1 3.1-0.1 6.2-0.1 2.1 0 4.2 0.1c0.4 0 0.7 0 1.1 0.1q1.4 0 2.8 0.1 0.3 0 0.5 0.1c1 0 2 0.1 2.9 0.2q1.8 0.2 3.4 0.4 2 0.2 4 0.5 0 0 0.1 0 0 0 0 0c0 0 0 0 0 0q2.2 0.3 4.4 0.7 1.3-0.6 2.7-1.1 1.2-0.5 2.4-0.9c1.2-0.5 2.4-0.9 3.7-1.3q0 0 0.1 0 1-0.4 2-0.7 0-0.1 0 0 0.1 0 0.1-0.1 1.3-0.4 2.5-0.7 2.5-0.8 5.1-1.5 1.3-0.3 2.6-0.6 4-1 8-1.7 1.4-0.2 2.7-0.5c0.9-0.1 1.8-0.2 2.6-0.3q3.5-0.5 7.1-0.9 2.8-0.2 5.6-0.3 1.6-0.1 3.1-0.1 1.8-0.1 3.5-0.1 3.3 0 6.6 0.2c9.2 0.4 18.2 1.7 26.9 3.9 33.2 14.7 60.8 41.4 75.8 75.4 16.5 37.3 14.7 81-5.1 123.1z"/>
				</g>
				<g id="&lt;Group&gt;">
					<path id="&lt;Path&gt;" class="s4" d="m348 315.4c1.9-2.6 3.8-5.2 5.7-7.9q-2.8 4-5.7 7.9z"/>
					<path id="&lt;Path&gt;" class="s4" d="m353 277.9c-3.3 7-7.1 13.8-11.2 20.4-30.5 48.6-74.6 89.1-118 108.4q-1.7 0.8-3.5 1.5c-8.3 0.8-16.7 0.3-25-1.3-5.4-1.1-10.9-2.8-16.1-5-2.5-1-5-2.1-7.5-3.2q-4.7-2.1-9.4-4.4-0.6-0.3-1.3-0.6 0 0 0.1 0c13.7 1.4 27.6-0.8 40.4-6.5 43.1-19.1 82.6-59.3 107.5-98.9q5.6-8.8 10-18.3c16.2-34.4 20.5-74 4.7-109.6-20-45.2-64.9-75.9-114.2-78.2q-0.4 0-0.9 0c0-0.1-0.1 0-0.1 0q-1.3-0.1-2.7-0.1 0.1 0 0.1-0.1 1.3-0.4 2.5-0.7 2.5-0.8 5.1-1.5 1.3-0.3 2.6-0.6 4-1 8-1.7 1.4-0.2 2.7-0.5c0.9-0.1 1.8-0.2 2.6-0.3q3.5-0.5 7.1-0.9 2.8-0.2 5.6-0.3 1.6-0.1 3.1-0.1 1.8-0.1 3.5-0.1 3.3 0 6.6 0.2c9.2 0.4 18.2 1.7 26.9 3.9 33.2 14.7 60.8 41.4 75.8 75.4 16.5 37.3 14.7 81-5.1 123.1z"/>
					<path id="&lt;Path&gt;" class="s4" d="m361.5 295.6q1.5-2.3 2.9-4.7-1.4 2.4-2.9 4.8-2.4 3.9-5.1 7.9 2.6-4 5.1-8z"/>
				</g>
				<g id="&lt;Group&gt;">
					<path id="&lt;Path&gt;" class="s5" d="m205.8 82.1q-5.6 1.8-10.9 4c-5-0.9-10.1-1.5-15.3-1.9 8.5-1.5 17.3-2.3 26.2-2.1z"/>
				</g>
				<g id="&lt;Group&gt;">
					<path id="&lt;Compound Path&gt;" fill-rule="evenodd" class="s2" d="m352.9 277.9h0.1c-3.3 7-7.1 13.8-11.2 20.4-30.5 48.6-74.6 89.1-118 108.4q-1.7 0.8-3.5 1.5c-10.9 4.3-22.4 6.4-34 6.4-12.1 0-24.4-2.4-35.8-7.1-73.9-30.8-157.6-100.6-150-195.5 3.1-38.6 20-73.8 47.5-99.2 12.9-11.8 27.5-21 43.4-27.3q5.5-2.2 11.1-3.9 9.8-2.9 19.9-4.5 6.7-1 13.6-1.4 7.5-0.4 15.2-0.1 2.4 0.1 4.9 0.3 4.7 0.4 9.5 1.1c0.7 0.1 1.3 0.2 2 0.4 0.2 0 0.4 0 0.6 0q4.4-1.7 9-3.3 0.6-0.2 1.1-0.3 1.1-0.4 2.2-0.7 8.8-2.6 17.9-4.2 3.2-0.5 6.4-0.9 1.8-0.2 3.6-0.4 3.6-0.4 7.2-0.6 1.6 0 3.2-0.1 2.1 0 4.1 0 3.4 0 6.9 0.1c18.3 0.9 36 5.2 52.4 12.4 33.2 14.7 60.8 41.4 75.8 75.4 16.5 37.3 14.7 81-5.1 123.1zm-135 115.5c40.8-18.1 82.5-56.6 111.6-102.8 3.8-6.1 7.3-12.4 10.3-18.9 9.9-21 14.9-42.4 14.9-63 0-16.8-3.4-33-10-48-20.2-45.6-65.4-76.7-115.2-79.2q-0.2 0-0.4 0c-6.9-0.3-13.8-0.1-20.5 0.7q0-0.1-0.1 0-1 0.1-2 0.2-1.3 0.1-2.7 0.4-0.1-0.1-0.1 0-0.2 0-0.3 0-1.6 0.3-3.2 0.5c-1 0.2-2.1 0.4-3.1 0.6q-0.2 0-0.3 0.1-3.2 0.6-6.3 1.4c0 0-0.1 0-0.1 0q-1.3 0.3-2.6 0.7-1.6 0.4-3.1 0.9-5 1.5-9.8 3.4-1 0.4-2.1 0.8-0.5 0.2-1 0.4l-2 0.9-2.1-0.4q-1-0.2-2-0.4c-5.2-0.8-10.3-1.3-15.1-1.6q-3.2-0.1-6.3-0.1h-0.5q-2.8 0-5.7 0.1c-4.1 0.2-8.2 0.6-12.2 1.2q-1.3 0.1-2.6 0.3c0 0 0 0 0 0-58.5 9.4-103.2 57.7-108.3 121.5-7 87.3 71.7 152 141.1 180.9 5.1 2.2 10.3 3.7 15.6 4.7 15.5 2.9 31.7 1.2 46.2-5.3z"/>
				</g>
				<g id="&lt;Group&gt;">
					<path id="&lt;Path&gt;" class="s2" d="m122 319.1c-1.9 0-3.8-0.7-5.2-2.2-28.5-29.5-43.1-68.3-41.2-109.3 3.7-81.2 72.9-144.3 154.2-140.6 4 0.2 7.1 3.6 6.9 7.6-0.2 4-3.6 7.2-7.6 6.9-73.4-3.3-135.6 53.5-139 126.8-1.7 36.9 11.5 71.9 37.1 98.5 2.8 2.9 2.8 7.5-0.1 10.3-1.4 1.3-3.3 2-5.1 2z"/>
				</g>
			</g>
		</g>
	</g>
</svg>